<?xml version="1.0" encoding="UTF-8" standalone="no"?>
<!-- Created with Inkscape (http://www.inkscape.org/) -->

<svg
   width="120"
   height="130"
   viewBox="0 0 31.75 34.395834"
   version="1.1"
   id="svg5"
   xml:space="preserve"
   xmlns="http://www.w3.org/2000/svg"
   xmlns:svg="http://www.w3.org/2000/svg"><defs
     id="defs2"><filter
       id="mask-powermask-path-effect5332_inverse"
       style="color-interpolation-filters:sRGB"
       height="100"
       width="100"
       x="-50"
       y="-50"><feColorMatrix
         id="mask-powermask-path-effect5332_primitive1"
         values="1"
         type="saturate"
         result="fbSourceGraphic" /><feColorMatrix
         id="mask-powermask-path-effect5332_primitive2"
         values="-1 0 0 0 1 0 -1 0 0 1 0 0 -1 0 1 0 0 0 1 0 "
         in="fbSourceGraphic" /></filter><clipPath
       clipPathUnits="userSpaceOnUse"
       id="clipPath1"><path
         id="lpe_path-effect1"
         style="display:block;opacity:1;fill:#002a53;fill-opacity:1;stroke:none;stroke-width:2.0902;stroke-linecap:square;stroke-miterlimit:2;stroke-dasharray:none;stroke-opacity:1;stop-color:#000000"
         class="powerclip"
         d="M -3.5689663,-2.2631888 H 35.563958 V 36.749235 H -3.5689663 Z M 23.771034,19.12756 c -4.855834,-0.543162 -9.90447,1.456226 -13.072539,5.177285 -4.5928057,-0.599338 -9.2989916,2.201164 -11.50940685,5.971643 -2.45053475,3.969233 -2.04128785,9.432447 0.46932583,13.140957 1.78102932,2.842402 4.85610902,4.776105 8.19740052,5.126962 9.1242975,1.791936 18.2727535,3.482883 27.4359835,5.051074 5.060155,0.440737 9.608765,-3.759347 10.465876,-8.600705 1.095153,-4.803755 -1.299241,-10.453279 -6.051089,-12.256934 -1.082989,-0.434777 -2.245701,-0.60995 -3.401641,-0.715166 0.121797,-5.889629 -4.439773,-11.38863 -10.215295,-12.452461 -0.761128,-0.205808 -1.542918,-0.309524 -2.318616,-0.442649 z" /></clipPath></defs><g
     id="layer1"
     style="display:inline"><path
       id="rect3330"
       style="display:inline;fill:#002a53;stroke-width:2.5109;stroke-linecap:square;stroke-miterlimit:2;stop-color:#000000"
       d="M 0,0 H 31.75 V 34.395832 H 0 Z" /></g><g
     id="layer3"><g
       id="layer2-3"
       style="display:inline;fill:#f5b630;fill-opacity:1"
       transform="matrix(0.61897155,-0.11463212,0.11463212,0.61897155,-2.0156017,1.4441026)"
       clip-path="url(#clipPath1)"><path
         id="path2446-3"
         transform="matrix(1.5322979,0.28377809,-0.28377809,1.5322979,3.9780491,-1.4105278)"
         d="M 13.472324,10.430119 A 3.7568147,3.7568147 0 0 1 9.7155094,14.186933 3.7568147,3.7568147 0 0 1 5.9586947,10.430119 3.7568147,3.7568147 0 0 1 9.7155094,6.6733038 3.7568147,3.7568147 0 0 1 13.472324,10.430119 Z"
         style="fill:none;fill-opacity:1;stroke:#f5b630;stroke-width:1.68795;stroke-linecap:square;stroke-miterlimit:2;stroke-dasharray:none;stroke-opacity:1;stop-color:#000000" /><path
         id="rect3886-6"
         transform="matrix(1.5570733,0.06316372,-0.06316372,1.5570733,3.9780491,-1.4105278)"
         d="m 7.7559357,2.3495715 c 0.4354077,0 0.7859345,0.3595044 0.7859345,0.8060636 v 2.6151076 c 0,0.4465592 -0.3505268,0.8060636 -0.7859345,0.8060636 -0.4354077,0 -0.7859345,-0.3595044 -0.7859345,-0.8060636 V 3.1556351 c 0,-0.4465592 0.3505268,-0.8060636 0.7859345,-0.8060636 z"
         style="fill:#f5b630;fill-opacity:1;stroke:none;stroke-width:1.85208;stroke-linecap:square;stroke-miterlimit:2;stroke-dasharray:none;stroke-opacity:1;stop-color:#000000" /><path
         id="rect3886-35-7"
         transform="rotate(25.443401)"
         d="m 22.642292,-5.9744473 c 0.67852,0 1.224764,0.5602351 1.224764,1.2561325 v 4.07526282 c 0,0.69589739 -0.546244,1.25613248 -1.224764,1.25613248 -0.678519,0 -1.224764,-0.56023509 -1.224764,-1.25613248 V -4.7183148 c 0,-0.6958974 0.546245,-1.2561325 1.224764,-1.2561325 z"
         style="display:inline;fill:#f5b630;fill-opacity:1;stroke:none;stroke-width:2.8862;stroke-linecap:square;stroke-miterlimit:2;stroke-dasharray:none;stroke-opacity:1;stop-color:#000000" /><path
         id="rect3886-35-6-5"
         transform="rotate(61.907377)"
         d="m 22.540154,-20.76893 c 0.678519,0 1.224764,0.560235 1.224764,1.256132 v 4.075263 c 0,0.695897 -0.546245,1.256132 -1.224764,1.256132 -0.67852,0 -1.224764,-0.560235 -1.224764,-1.256132 v -4.075263 c 0,-0.695897 0.546244,-1.256132 1.224764,-1.256132 z"
         style="display:inline;fill:#f5b630;fill-opacity:1;stroke:none;stroke-width:2.8862;stroke-linecap:square;stroke-miterlimit:2;stroke-dasharray:none;stroke-opacity:1;stop-color:#000000" /><path
         id="rect3886-35-6-2-3"
         transform="rotate(96.120402)"
         d="m 14.421802,-32.278599 c 0.678519,0 1.224764,0.560235 1.224764,1.256133 v 4.075262 c 0,0.695898 -0.546245,1.256133 -1.224764,1.256133 -0.67852,0 -1.224764,-0.560235 -1.224764,-1.256133 v -4.075262 c 0,-0.695898 0.546244,-1.256133 1.224764,-1.256133 z"
         style="display:inline;fill:#f5b630;fill-opacity:1;stroke:none;stroke-width:2.8862;stroke-linecap:square;stroke-miterlimit:2;stroke-dasharray:none;stroke-opacity:1;stop-color:#000000" /><path
         id="rect3886-3-5"
         transform="rotate(-32.500636)"
         d="m 4.4873414,8.3376808 c 0.6785193,0 1.2247641,0.5602351 1.2247641,1.2561325 v 4.0752627 c 0,0.695897 -0.5462448,1.256133 -1.2247641,1.256133 -0.6785193,0 -1.2247641,-0.560236 -1.2247641,-1.256133 V 9.5938133 c 0,-0.6958974 0.5462448,-1.2561325 1.2247641,-1.2561325 z"
         style="display:inline;fill:#f5b630;fill-opacity:1;stroke:none;stroke-width:2.8862;stroke-linecap:square;stroke-miterlimit:2;stroke-dasharray:none;stroke-opacity:1;stop-color:#000000" /><path
         id="rect3886-3-6-6"
         transform="rotate(-62.500636)"
         d="m -7.7262676,7.4468718 c 0.6785193,0 1.2247641,0.560235 1.2247641,1.2561324 v 4.0752628 c 0,0.695897 -0.5462448,1.256133 -1.2247641,1.256133 -0.6785193,0 -1.2247641,-0.560236 -1.2247641,-1.256133 V 8.7030042 c 0,-0.6958974 0.5462448,-1.2561324 1.2247641,-1.2561324 z"
         style="display:inline;fill:#f5b630;fill-opacity:1;stroke:none;stroke-width:2.8862;stroke-linecap:square;stroke-miterlimit:2;stroke-dasharray:none;stroke-opacity:1;stop-color:#000000" /><path
         id="rect3886-3-6-7-2"
         transform="rotate(-91.766065)"
         d="m -17.567478,0.89063281 c 0.678519,0 1.224764,0.56023509 1.224764,1.25613249 v 4.0752628 c 0,0.6958974 -0.546245,1.2561325 -1.224764,1.2561325 -0.678519,0 -1.224764,-0.5602351 -1.224764,-1.2561325 V 2.1467653 c 0,-0.6958974 0.546245,-1.25613249 1.224764,-1.25613249 z"
         style="display:inline;fill:#f5b630;fill-opacity:1;stroke:none;stroke-width:2.8862;stroke-linecap:square;stroke-miterlimit:2;stroke-dasharray:none;stroke-opacity:1;stop-color:#000000" /><path
         id="rect3886-3-6-7-5-9"
         transform="rotate(-118.26808)"
         d="m -23.146354,-9.0710001 c 0.678519,0 1.224764,0.5602351 1.224764,1.2561325 v 4.0752628 c 0,0.6958974 -0.546245,1.2561325 -1.224764,1.2561325 -0.67852,0 -1.224765,-0.5602351 -1.224765,-1.2561325 v -4.0752628 c 0,-0.6958974 0.546245,-1.2561325 1.224765,-1.2561325 z"
         style="display:inline;fill:#f5b630;fill-opacity:1;stroke:none;stroke-width:2.8862;stroke-linecap:square;stroke-miterlimit:2;stroke-dasharray:none;stroke-opacity:1;stop-color:#000000" /><path
         id="rect3886-3-6-7-5-7"
         transform="rotate(-148.84126)"
         d="m -22.836454,-21.07443 c 0.678519,0 1.224764,0.560235 1.224764,1.256132 v 4.075263 c 0,0.695897 -0.546245,1.256132 -1.224764,1.256132 -0.678519,0 -1.224764,-0.560235 -1.224764,-1.256132 v -4.075263 c 0,-0.695897 0.546245,-1.256132 1.224764,-1.256132 z"
         style="display:inline;fill:#f5b630;fill-opacity:1;stroke:none;stroke-width:2.8862;stroke-linecap:square;stroke-miterlimit:2;stroke-dasharray:none;stroke-opacity:1;stop-color:#000000" /><path
         id="rect3886-3-6-7-5-7-5"
         transform="rotate(-179.34036)"
         d="m -16.281782,-31.563799 c 0.678519,0 1.224764,0.560235 1.224764,1.256133 v 4.075262 c 0,0.695898 -0.546245,1.256133 -1.224764,1.256133 -0.678519,0 -1.224764,-0.560235 -1.224764,-1.256133 v -4.075262 c 0,-0.695898 0.546245,-1.256133 1.224764,-1.256133 z"
         style="display:inline;fill:#f5b630;fill-opacity:1;stroke:none;stroke-width:2.8862;stroke-linecap:square;stroke-miterlimit:2;stroke-dasharray:none;stroke-opacity:1;stop-color:#000000" /><path
         id="rect3886-3-6-7-5-7-5-3"
         transform="rotate(146.69993)"
         d="m -3.2794392,-37.953133 c 0.6785193,0 1.2247641,0.560235 1.2247641,1.256133 v 4.075263 c 0,0.695897 -0.5462448,1.256132 -1.2247641,1.256132 -0.6785193,0 -1.2247641,-0.560235 -1.2247641,-1.256132 V -36.697 c 0,-0.695898 0.5462448,-1.256133 1.2247641,-1.256133 z"
         style="display:inline;fill:#f5b630;fill-opacity:1;stroke:none;stroke-width:2.8862;stroke-linecap:square;stroke-miterlimit:2;stroke-dasharray:none;stroke-opacity:1;stop-color:#000000" /><path
         id="rect3886-3-6-7-5-7-5-3-5"
         transform="rotate(116.69993)"
         d="m 8.9750979,-36.540249 c 0.6785193,0 1.2247641,0.560235 1.2247641,1.256133 v 4.075262 c 0,0.695898 -0.5462448,1.256133 -1.2247641,1.256133 -0.6785193,0 -1.2247641,-0.560235 -1.2247641,-1.256133 v -4.075262 c 0,-0.695898 0.5462448,-1.256133 1.2247641,-1.256133 z"
         style="display:inline;fill:#f5b630;fill-opacity:1;stroke:none;stroke-width:2.8862;stroke-linecap:square;stroke-miterlimit:2;stroke-dasharray:none;stroke-opacity:1;stop-color:#000000" /></g><path
       id="path2427"
       style="display:inline;opacity:1;fill:#ffffff;fill-opacity:1;stroke:none;stroke-width:2.0902;stroke-linecap:square;stroke-miterlimit:2;stroke-dasharray:none;stroke-opacity:1;stop-color:#000000"
       d="m 15.469346,12.125965 c -2.88815,-7.2e-5 -5.9787533,1.858404 -7.0361685,4.72562 H 7.896032 c -3.1937284,-1.28e-4 -5.7827772,2.689228 -5.7826128,6.006696 1.504e-4,3.317237 2.5891069,6.182168 5.7826128,6.182037 h 0.7351301 l 15.7534319,-6.6e-5 c 0,0 0.596169,-9.37e-4 0.897679,0 2.54001,1.49e-4 4.599206,-2.193472 4.599206,-5.17284 0,-2.510889 -1.748492,-5.215738 -4.599206,-5.215738 h -0.896555 -1.72496 c -0.07,-4.086181 -3.000772,-6.525329 -6.831637,-6.525697 z" /></g></svg>
