<?xml version="1.0" encoding="UTF-8" standalone="no"?>
<!-- Created with Inkscape (http://www.inkscape.org/) -->

<svg
   width="120"
   height="130"
   viewBox="0 0 31.75 34.395834"
   version="1.1"
   id="svg5"
   xml:space="preserve"
   xmlns="http://www.w3.org/2000/svg"
   xmlns:svg="http://www.w3.org/2000/svg"><defs
     id="defs2"><filter
       id="mask-powermask-path-effect5332_inverse"
       style="color-interpolation-filters:sRGB"
       height="100"
       width="100"
       x="-50"
       y="-50"><feColorMatrix
         id="mask-powermask-path-effect5332_primitive1"
         values="1"
         type="saturate"
         result="fbSourceGraphic" /><feColorMatrix
         id="mask-powermask-path-effect5332_primitive2"
         values="-1 0 0 0 1 0 -1 0 0 1 0 0 -1 0 1 0 0 0 1 0 "
         in="fbSourceGraphic" /></filter><clipPath
       clipPathUnits="userSpaceOnUse"
       id="clipPath2"><path
         id="lpe_path-effect3"
         style="display:inline;opacity:1;fill:#002a53;fill-opacity:1;stroke:none;stroke-width:1.46828;stroke-linecap:square;stroke-miterlimit:2;stroke-dasharray:none;stroke-opacity:1;stop-color:#000000"
         class="powerclip"
         d="M -3.5689663,-2.2631888 H 35.563958 V 36.749235 H -3.5689663 Z M 30.086097,18.688012 c -3.528732,-0.474738 -7.233468,0.88505 -9.667819,3.422324 -5.24458,-0.416508 -10.036573,4.502815 -9.681455,9.714889 0.101889,4.539974 3.849402,8.776295 8.450713,9.068681 6.498378,1.15702 12.970368,2.538502 19.500981,3.46775 4.730138,0.01625 8.360246,-4.854014 7.803372,-9.388814 -0.283056,-3.607651 -3.2012,-7.069179 -6.923657,-7.305973 -0.07926,-4.590532 -4.225374,-8.310033 -8.629552,-8.83903 -0.282227,-0.05794 -0.568522,-0.09248 -0.852582,-0.139832 z" /></clipPath></defs><g
     id="layer1"
     style="display:inline"><path
       id="rect3330"
       style="display:inline;fill:#002a53;stroke-width:2.5109;stroke-linecap:square;stroke-miterlimit:2;stop-color:#000000"
       d="M 0,0 H 31.75 V 34.395832 H 0 Z" /></g><g
     id="layer3"><g
       id="layer2-3"
       style="display:inline;fill:#f5b630;fill-opacity:1;opacity:1"
       transform="matrix(0.61897155,-0.11463212,0.11463212,0.61897155,-2.0156017,1.4441026)"
       clip-path="url(#clipPath2)"><path
         id="path2446-3"
         transform="rotate(10.492172)"
         d="M 24.760359,14.20338 A 5.9045663,5.9045663 0 0 1 18.855793,20.107946 5.9045663,5.9045663 0 0 1 12.951227,14.20338 5.9045663,5.9045663 0 0 1 18.855793,8.2988133 5.9045663,5.9045663 0 0 1 24.760359,14.20338 Z"
         style="fill:none;fill-opacity:1;stroke:#f5b630;stroke-width:2.54344;stroke-linecap:square;stroke-miterlimit:2;stroke-dasharray:none;stroke-opacity:1;stop-color:#000000" /><path
         id="rect3886-6"
         transform="matrix(1.5570733,0.06316372,-0.06316372,1.5570733,3.9780491,-1.4105278)"
         d="m 7.7559357,2.3495715 c 0.4354077,0 0.7859345,0.3595044 0.7859345,0.8060636 v 2.6151076 c 0,0.4465592 -0.3505268,0.8060636 -0.7859345,0.8060636 -0.4354077,0 -0.7859345,-0.3595044 -0.7859345,-0.8060636 V 3.1556351 c 0,-0.4465592 0.3505268,-0.8060636 0.7859345,-0.8060636 z"
         style="fill:#f5b630;fill-opacity:1;stroke:none;stroke-width:1.85208;stroke-linecap:square;stroke-miterlimit:2;stroke-dasharray:none;stroke-opacity:1;stop-color:#000000" /><path
         id="rect3886-35-7"
         transform="rotate(25.443401)"
         d="m 22.642292,-5.9744473 c 0.67852,0 1.224764,0.5602351 1.224764,1.2561325 v 4.07526282 c 0,0.69589739 -0.546244,1.25613248 -1.224764,1.25613248 -0.678519,0 -1.224764,-0.56023509 -1.224764,-1.25613248 V -4.7183148 c 0,-0.6958974 0.546245,-1.2561325 1.224764,-1.2561325 z"
         style="display:inline;fill:#f5b630;fill-opacity:1;stroke:none;stroke-width:2.8862;stroke-linecap:square;stroke-miterlimit:2;stroke-dasharray:none;stroke-opacity:1;stop-color:#000000" /><path
         id="rect3886-35-6-5"
         transform="rotate(61.907377)"
         d="m 22.540154,-20.76893 c 0.678519,0 1.224764,0.560235 1.224764,1.256132 v 4.075263 c 0,0.695897 -0.546245,1.256132 -1.224764,1.256132 -0.67852,0 -1.224764,-0.560235 -1.224764,-1.256132 v -4.075263 c 0,-0.695897 0.546244,-1.256132 1.224764,-1.256132 z"
         style="display:inline;fill:#f5b630;fill-opacity:1;stroke:none;stroke-width:2.8862;stroke-linecap:square;stroke-miterlimit:2;stroke-dasharray:none;stroke-opacity:1;stop-color:#000000" /><path
         id="rect3886-35-6-2-3"
         transform="rotate(96.120402)"
         d="m 14.421802,-32.278599 c 0.678519,0 1.224764,0.560235 1.224764,1.256133 v 4.075262 c 0,0.695898 -0.546245,1.256133 -1.224764,1.256133 -0.67852,0 -1.224764,-0.560235 -1.224764,-1.256133 v -4.075262 c 0,-0.695898 0.546244,-1.256133 1.224764,-1.256133 z"
         style="display:inline;fill:#f5b630;fill-opacity:1;stroke:none;stroke-width:2.52186;stroke-linecap:square;stroke-miterlimit:2;stroke-dasharray:none;stroke-opacity:1;stop-color:#000000" /><path
         id="rect3886-3-5"
         transform="rotate(-32.500636)"
         d="m 4.4873414,8.3376808 c 0.6785193,0 1.2247641,0.5602351 1.2247641,1.2561325 v 4.0752627 c 0,0.695897 -0.5462448,1.256133 -1.2247641,1.256133 -0.6785193,0 -1.2247641,-0.560236 -1.2247641,-1.256133 V 9.5938133 c 0,-0.6958974 0.5462448,-1.2561325 1.2247641,-1.2561325 z"
         style="display:inline;fill:#f5b630;fill-opacity:1;stroke:none;stroke-width:2.8862;stroke-linecap:square;stroke-miterlimit:2;stroke-dasharray:none;stroke-opacity:1;stop-color:#000000" /><path
         id="rect3886-3-6-6"
         transform="rotate(-62.500636)"
         d="m -7.7262676,7.4468718 c 0.6785193,0 1.2247641,0.560235 1.2247641,1.2561324 v 4.0752628 c 0,0.695897 -0.5462448,1.256133 -1.2247641,1.256133 -0.6785193,0 -1.2247641,-0.560236 -1.2247641,-1.256133 V 8.7030042 c 0,-0.6958974 0.5462448,-1.2561324 1.2247641,-1.2561324 z"
         style="display:inline;fill:#f5b630;fill-opacity:1;stroke:none;stroke-width:2.8862;stroke-linecap:square;stroke-miterlimit:2;stroke-dasharray:none;stroke-opacity:1;stop-color:#000000" /><path
         id="rect3886-3-6-7-2"
         transform="rotate(-91.766065)"
         d="m -17.567478,0.89063281 c 0.678519,0 1.224764,0.56023509 1.224764,1.25613249 v 4.0752628 c 0,0.6958974 -0.546245,1.2561325 -1.224764,1.2561325 -0.678519,0 -1.224764,-0.5602351 -1.224764,-1.2561325 V 2.1467653 c 0,-0.6958974 0.546245,-1.25613249 1.224764,-1.25613249 z"
         style="display:inline;fill:#f5b630;fill-opacity:1;stroke:none;stroke-width:2.8862;stroke-linecap:square;stroke-miterlimit:2;stroke-dasharray:none;stroke-opacity:1;stop-color:#000000" /><path
         id="rect3886-3-6-7-5-9"
         transform="rotate(-118.26808)"
         d="m -23.146354,-9.0710001 c 0.678519,0 1.224764,0.5602351 1.224764,1.2561325 v 4.0752628 c 0,0.6958974 -0.546245,1.2561325 -1.224764,1.2561325 -0.67852,0 -1.224765,-0.5602351 -1.224765,-1.2561325 v -4.0752628 c 0,-0.6958974 0.546245,-1.2561325 1.224765,-1.2561325 z"
         style="display:inline;fill:#f5b630;fill-opacity:1;stroke:none;stroke-width:2.8862;stroke-linecap:square;stroke-miterlimit:2;stroke-dasharray:none;stroke-opacity:1;stop-color:#000000" /><path
         id="rect3886-3-6-7-5-7"
         transform="rotate(-148.84126)"
         d="m -22.836454,-21.07443 c 0.678519,0 1.224764,0.560235 1.224764,1.256132 v 4.075263 c 0,0.695897 -0.546245,1.256132 -1.224764,1.256132 -0.678519,0 -1.224764,-0.560235 -1.224764,-1.256132 v -4.075263 c 0,-0.695897 0.546245,-1.256132 1.224764,-1.256132 z"
         style="display:inline;fill:#f5b630;fill-opacity:1;stroke:none;stroke-width:2.8862;stroke-linecap:square;stroke-miterlimit:2;stroke-dasharray:none;stroke-opacity:1;stop-color:#000000" /><path
         id="rect3886-3-6-7-5-7-5"
         transform="rotate(-179.34036)"
         d="m -16.281782,-31.563799 c 0.678519,0 1.224764,0.560235 1.224764,1.256133 v 4.075262 c 0,0.695898 -0.546245,1.256133 -1.224764,1.256133 -0.678519,0 -1.224764,-0.560235 -1.224764,-1.256133 v -4.075262 c 0,-0.695898 0.546245,-1.256133 1.224764,-1.256133 z"
         style="display:inline;fill:#f5b630;fill-opacity:1;stroke:none;stroke-width:2.8862;stroke-linecap:square;stroke-miterlimit:2;stroke-dasharray:none;stroke-opacity:1;stop-color:#000000" /><path
         id="rect3886-3-6-7-5-7-5-3"
         transform="rotate(146.69993)"
         d="m -3.2794392,-37.953133 c 0.6785193,0 1.2247641,0.560235 1.2247641,1.256133 v 4.075263 c 0,0.695897 -0.5462448,1.256132 -1.2247641,1.256132 -0.6785193,0 -1.2247641,-0.560235 -1.2247641,-1.256132 V -36.697 c 0,-0.695898 0.5462448,-1.256133 1.2247641,-1.256133 z"
         style="display:inline;fill:#f5b630;fill-opacity:1;stroke:none;stroke-width:2.8862;stroke-linecap:square;stroke-miterlimit:2;stroke-dasharray:none;stroke-opacity:1;stop-color:#000000" /><path
         id="rect3886-3-6-7-5-7-5-3-5"
         transform="rotate(116.69993)"
         d="m 8.9750979,-36.540249 c 0.6785193,0 1.2247641,0.560235 1.2247641,1.256133 v 4.075262 c 0,0.695898 -0.5462448,1.256133 -1.2247641,1.256133 -0.6785193,0 -1.2247641,-0.560235 -1.2247641,-1.256133 v -4.075262 c 0,-0.695898 0.5462448,-1.256133 1.2247641,-1.256133 z"
         style="display:inline;fill:#f5b630;fill-opacity:1;stroke:none;stroke-width:2.8862;stroke-linecap:square;stroke-miterlimit:2;stroke-dasharray:none;stroke-opacity:1;stop-color:#000000" /></g><g
       id="layer4"
       transform="translate(0,0.1626858)"
       style="display:inline;opacity:1"><path
         id="path2427"
         style="display:inline;opacity:1;fill:#ffffff;fill-opacity:1;stroke:none;stroke-width:1.46828;stroke-linecap:square;stroke-miterlimit:2;stroke-dasharray:none;stroke-opacity:1;stop-color:#000000"
         d="m 19.185703,10.974103 c -2.044218,-5.4e-5 -4.23173,1.17474 -4.980165,3.204144 H 13.82535 c -2.260503,-9.2e-5 -4.093021,1.90342 -4.092905,4.251506 1.06e-4,2.347921 1.832559,4.375705 4.092905,4.375611 h 0.520321 l 11.150194,-4.7e-5 c 0,0 0.421968,-6.63e-4 0.635375,0 1.797803,1.05e-4 3.255292,-1.552526 3.255292,-3.661305 0,-1.777197 -1.237572,-3.691675 -3.255292,-3.691675 h -0.634577 -1.220917 c -0.04954,-2.892177 -2.123933,-4.477966 -4.835398,-4.478226 z" /><path
         style="opacity:1;fill:none;fill-opacity:0.768627;stroke:#ffffff;stroke-width:1.71979;stroke-linecap:round;stroke-dasharray:none;stroke-opacity:1"
         d="m 19.766326,21.691445 v 4.98903"
         id="path1" /><path
         style="display:inline;fill:none;fill-opacity:0.768627;stroke:#ffffff;stroke-width:1.71979;stroke-linecap:round;stroke-dasharray:none;stroke-opacity:1"
         d="m 14.814028,21.832884 v 3.347813"
         id="path1-2" /><path
         style="display:inline;fill:none;fill-opacity:0.768627;stroke:#ffffff;stroke-width:1.71979;stroke-linecap:round;stroke-dasharray:none;stroke-opacity:1"
         d="m 24.705511,21.832884 v 3.347813"
         id="path1-2-9" /></g></g></svg>
