<?xml version="1.0" encoding="UTF-8" standalone="no"?>
<!-- Created with Inkscape (http://www.inkscape.org/) -->

<svg
   width="120"
   height="130"
   viewBox="0 0 31.75 34.395834"
   version="1.1"
   id="svg5"
   xml:space="preserve"
   xmlns="http://www.w3.org/2000/svg"
   xmlns:svg="http://www.w3.org/2000/svg"><defs
     id="defs2"><clipPath
       clipPathUnits="userSpaceOnUse"
       id="clipPath2"><path
         id="lpe_path-effect2"
         style="display:inline;fill:#002a53;fill-opacity:1;stroke:none;stroke-width:1.85208;stroke-linecap:round;stroke-linejoin:round;stroke-dasharray:none;stroke-opacity:1"
         class="powerclip"
         d="M 7.147795,-0.42906068 H 36.393084 V 21.502271 H 7.147795 Z M 12.814453,8.1171876 C 9.8276117,8.4062587 7.1639722,10.285728 5.5195312,12.742188 c -1.4218169,0.692957 -3.1890565,0.683093 -4.3446021,1.893713 -3.2272022,2.565165 -4.16301,7.642566 -1.79546034,11.079739 1.75029674,2.637584 5.00892154,3.838483 8.08067004,3.793456 4.6164942,-0.22261 9.2445652,-0.02196 13.8663702,-0.09043 2.679975,-0.06093 5.383846,-0.06544 8.038889,-0.417867 3.812548,-1.313305 5.095169,-6.868684 2.29866,-9.753468 C 31.071003,18.508769 29.852528,18.380648 29.539063,17.42383 28.993952,13.484641 24.8969,10.630813 21.019144,11.032037 20.154628,11.094869 19.66795,10.162555 19.011909,9.7328009 18.098608,8.9707861 16.900007,8.7136148 15.791016,8.3632811 14.816031,8.1435335 13.812141,8.0653856 12.814453,8.1171876 Z" /></clipPath></defs><g
     id="layer1"
     style="display:inline"><path
       id="rect3330"
       style="display:inline;fill:#002a53;stroke-width:2.5109;stroke-linecap:square;stroke-miterlimit:2;stop-color:#000000"
       d="M 3.0769232e-7,0 H 31.75 V 34.395832 H 3.0769232e-7 Z" /></g><g
     id="layer2"
     style="display:inline"><path
       id="path2427"
       style="display:inline;fill:none;fill-opacity:1;stroke:#ffffff;stroke-width:1.32292;stroke-linecap:square;stroke-miterlimit:2;stroke-dasharray:none;stroke-opacity:1;stop-color:#000000"
       d="M 21.300481,5.2323993 C 19.464297,5.2323539 17.4994,6.39796 16.827134,8.1962316 h -0.341498 c -2.03046,-8e-5 -3.676486,1.6866406 -3.676381,3.7673054 9.5e-5,2.080517 1.646062,3.877356 3.676381,3.877274 h 0.467369 l 10.015475,-4.2e-5 c 0,0 0.379024,-5.88e-4 0.570714,0 1.614847,9.4e-5 3.19243,-1.260673 3.19243,-3.129285 0,-1.57479 -1.034938,-2.9261209 -2.578903,-2.9261209 H 27.582722 25.872526 C 25.828028,7.2225766 23.964742,5.2326376 21.529213,5.2324069 Z"
       clip-path="url(#clipPath2)" /><path
       d="M 13.673178,10.718266 C 10.664429,10.725666 8.025943,12.730302 7.2109119,15.6283 6.9015748,15.57517 6.588311,15.54811 6.2744506,15.54737 c -3.0997301,-6.2e-5 -5.61276138,2.514237 -5.61299032,5.615822 -6.109e-5,3.101789 2.51305502,5.616407 5.61299032,5.616346 0.1095393,-3.81e-4 0.2182357,-0.0059 0.3266848,-0.01261 0.019144,0.002 0.037544,0.0058 0.057248,0.0058 H 27.141309 c 0.0096,0 0.01842,-0.0021 0.02784,-0.0026 0.007,8.99e-4 0.014,0.0017 0.02101,0.0026 1.872712,7.5e-5 3.390871,-1.518993 3.390798,-3.392825 7.3e-5,-1.873834 -1.504307,-3.406687 -3.37702,-3.406614 -0.01616,0.0052 -0.04884,0 -0.04884,0 h -0.139305 c 0,0 3e-6,-0.827231 0,-1.272716 2e-5,-2.782531 -2.254385,-5.038284 -5.035252,-5.038262 -0.828666,0.0084 -1.642504,0.22113 -2.369252,0.6196 -1.133247,-2.120372 -3.367045,-3.563593 -5.9381,-3.56364 z"
       style="fill:none;fill-opacity:1;stroke:#ffffff;stroke-width:1.58750002;stroke-linecap:round;stroke-linejoin:round;stroke-dasharray:none"
       id="path5" /></g></svg>
