<?xml version="1.0" encoding="UTF-8" standalone="no"?>
<!-- Created with Inkscape (http://www.inkscape.org/) -->

<svg
   width="120"
   height="130"
   viewBox="0 0 31.75 34.395834"
   version="1.1"
   id="svg5"
   xml:space="preserve"
   xmlns="http://www.w3.org/2000/svg"
   xmlns:svg="http://www.w3.org/2000/svg"><defs
     id="defs2" /><g
     id="layer1"
     style="display:inline"><path
       id="rect3330"
       style="display:inline;fill:#002a53;stroke-width:2.5109;stroke-linecap:square;stroke-miterlimit:2;stop-color:#000000"
       d="M 3.0769232e-7,0 H 31.75 V 34.395832 H 3.0769232e-7 Z" /></g><g
     id="layer2"
     style="display:inline"><path
       d="m 13.837915,2.4644491 c -3.232763,0.00268 -6.1131157,2.0422432 -7.1892252,5.0906454 -0.012745,-3.832e-4 -0.025493,-7.277e-4 -0.03824,-0.00103 -3.4812121,1.142e-4 -6.30337709,2.8222791 -6.30349129,6.3034911 -1.7119e-4,3.481414 2.82207729,6.303894 6.30349129,6.304008 0.00879,-8.43e-4 0.017572,-0.0017 0.026355,-0.0026 H 26.642302 c 2.487446,-9.5e-5 4.504022,-2.016671 4.504118,-4.504117 -0.0012,-1.949373 -1.256277,-3.676888 -3.109888,-4.280359 -0.296094,-3.4073967 -3.147838,-6.0231038 -6.568075,-6.0244389 -0.5086,0.00621 -1.01478,0.071242 -1.508435,0.1937866 C 18.520945,3.607253 16.250661,2.4653081 13.837915,2.4644491 Z"
       style="display:inline;fill:#ffffff;stroke-width:1.71979;stroke-linecap:round;fill-opacity:1"
       id="path2" /><path
       style="fill:none;fill-opacity:1;stroke:#ffffff;stroke-width:1.5875;stroke-linecap:round;stroke-dasharray:none;stroke-opacity:1"
       d="M 6.4803747,22.355373 V 18.923459"
       id="path3" /><path
       style="display:inline;fill:none;fill-opacity:1;stroke:#ffffff;stroke-width:1.5875;stroke-linecap:round;stroke-dasharray:none;stroke-opacity:1"
       d="M 11.062652,27.508228 V 22.73144"
       id="path3-5" /><path
       style="display:inline;fill:none;fill-opacity:1;stroke:#ffffff;stroke-width:1.5875;stroke-linecap:round;stroke-dasharray:none;stroke-opacity:1"
       d="M 15.644928,22.355373 V 18.923459"
       id="path3-6" /><path
       style="display:inline;fill:none;fill-opacity:1;stroke:#ffffff;stroke-width:1.5875;stroke-linecap:round;stroke-dasharray:none;stroke-opacity:1"
       d="M 24.809482,22.355373 V 18.923459"
       id="path3-6-9" /><path
       style="display:inline;fill:none;fill-opacity:1;stroke:#ffffff;stroke-width:1.5875;stroke-linecap:round;stroke-dasharray:none;stroke-opacity:1"
       d="M 20.227205,27.508228 V 22.73144"
       id="path3-5-2" /></g></svg>
