<?xml version="1.0" encoding="UTF-8" standalone="no"?>
<!-- Created with Inkscape (http://www.inkscape.org/) -->

<svg
   width="120"
   height="130"
   viewBox="0 0 31.75 34.395834"
   version="1.1"
   id="svg5"
   xml:space="preserve"
   xmlns="http://www.w3.org/2000/svg"
   xmlns:svg="http://www.w3.org/2000/svg"><defs
     id="defs2"><clipPath
       clipPathUnits="userSpaceOnUse"
       id="clipPath1"><path
         id="lpe_path-effect3"
         style="display:inline;fill:#002a53;fill-opacity:1;stroke:none;stroke-width:1.5875;stroke-linecap:round;stroke-linejoin:round;stroke-dasharray:none"
         class="powerclip"
         d="M 10.864663,-3.5463436 H 36.59704 V 18.314435 H 10.864663 Z m 2.377525,6.5404843 c -3.030059,0.2254959 -5.883514,2.1226806 -7.2382817,4.845703 -4.229025,0.182009 -7.8522931,4.3186023 -7.3031446,8.5525993 0.36226026,3.860943 3.9581688,7.220855 7.894156,6.980243 6.9618683,0.01944 13.9254363,0.07271 20.8863793,-0.02765 1.826641,0.106123 3.624472,-0.837952 4.596702,-2.382751 1.333847,-1.889728 1.360405,-4.618912 -0.120605,-6.438478 C 31.328469,13.684588 30.458363,13.020728 29.472655,12.658203 29.255948,9.0247881 25.953856,5.8094947 22.2668,5.9484491 21.741459,5.947576 21.216358,6.0122002 20.705078,6.1308594 18.90387,3.981177 16.039715,2.7721444 13.242188,2.9941407 Z" /></clipPath><filter
       id="mask-powermask-path-effect39_inverse"
       style="color-interpolation-filters:sRGB"
       height="100"
       width="100"
       x="-50"
       y="-50"><feColorMatrix
         id="mask-powermask-path-effect39_primitive1"
         values="1"
         type="saturate"
         result="fbSourceGraphic" /><feColorMatrix
         id="mask-powermask-path-effect39_primitive2"
         values="-1 0 0 0 1 0 -1 0 0 1 0 0 -1 0 1 0 0 0 1 0 "
         in="fbSourceGraphic" /></filter><filter
       id="mask-powermask-path-effect40_inverse"
       style="color-interpolation-filters:sRGB"
       height="100"
       width="100"
       x="-50"
       y="-50"><feColorMatrix
         id="mask-powermask-path-effect40_primitive1"
         values="1"
         type="saturate"
         result="fbSourceGraphic" /><feColorMatrix
         id="mask-powermask-path-effect40_primitive2"
         values="-1 0 0 0 1 0 -1 0 0 1 0 0 -1 0 1 0 0 0 1 0 "
         in="fbSourceGraphic" /></filter><filter
       id="mask-powermask-path-effect41_inverse"
       style="color-interpolation-filters:sRGB"
       height="100"
       width="100"
       x="-50"
       y="-50"><feColorMatrix
         id="mask-powermask-path-effect41_primitive1"
         values="1"
         type="saturate"
         result="fbSourceGraphic" /><feColorMatrix
         id="mask-powermask-path-effect41_primitive2"
         values="-1 0 0 0 1 0 -1 0 0 1 0 0 -1 0 1 0 0 0 1 0 "
         in="fbSourceGraphic" /></filter><filter
       id="mask-powermask-path-effect42_inverse"
       style="color-interpolation-filters:sRGB"
       height="100"
       width="100"
       x="-50"
       y="-50"><feColorMatrix
         id="mask-powermask-path-effect42_primitive1"
         values="1"
         type="saturate"
         result="fbSourceGraphic" /><feColorMatrix
         id="mask-powermask-path-effect42_primitive2"
         values="-1 0 0 0 1 0 -1 0 0 1 0 0 -1 0 1 0 0 0 1 0 "
         in="fbSourceGraphic" /></filter><filter
       id="mask-powermask-path-effect43_inverse"
       style="color-interpolation-filters:sRGB"
       height="100"
       width="100"
       x="-50"
       y="-50"><feColorMatrix
         id="mask-powermask-path-effect43_primitive1"
         values="1"
         type="saturate"
         result="fbSourceGraphic" /><feColorMatrix
         id="mask-powermask-path-effect43_primitive2"
         values="-1 0 0 0 1 0 -1 0 0 1 0 0 -1 0 1 0 0 0 1 0 "
         in="fbSourceGraphic" /></filter><filter
       id="mask-powermask-path-effect47_inverse"
       style="color-interpolation-filters:sRGB"
       height="100"
       width="100"
       x="-50"
       y="-50"><feColorMatrix
         id="mask-powermask-path-effect47_primitive1"
         values="1"
         type="saturate"
         result="fbSourceGraphic" /><feColorMatrix
         id="mask-powermask-path-effect47_primitive2"
         values="-1 0 0 0 1 0 -1 0 0 1 0 0 -1 0 1 0 0 0 1 0 "
         in="fbSourceGraphic" /></filter></defs><g
     id="layer1"
     style="display:inline"><path
       id="rect3330"
       style="display:inline;fill:#002a53;stroke-width:2.5109;stroke-linecap:square;stroke-miterlimit:2;stop-color:#000000"
       d="M 3.0769232e-7,0 H 31.75 V 34.395832 H 3.0769232e-7 Z" /></g><g
     id="layer2"
     style="display:inline"><path
       d="m 21.261752,2.1151164 c -2.615305,9.81e-5 -4.735448,2.2153284 -4.735629,4.9480184 -9.2e-5,2.7328919 2.120131,4.9484372 4.735629,4.9485352 0.407515,-0.0048 0.812736,-0.06456 1.205611,-0.177767 0.556198,0.507628 1.294631,0.819072 2.110465,0.819072 h 3.22616 c 1.734957,0 3.131592,-1.396635 3.131592,-3.1315923 0,-1.7349575 -1.396635,-3.1315918 -3.131592,-3.1315918 H 25.951905 C 25.629822,3.9408586 23.627515,2.115926 21.261752,2.1151164 Z"
       style="display:inline;fill:none;stroke:#ffffff;stroke-width:1.32292;stroke-linecap:round"
       id="path8"
       clip-path="url(#clipPath1)" /><g
       id="g2"
       style="display:inline"><path
         id="rect4"
         style="fill:#ffffff;stroke-width:4.23333"
         transform="rotate(32.344342)"
         d="m 23.708757,16.440304 c 0.415445,0 0.7499,0.334455 0.7499,0.7499 v 5.040762 c 0,0.415444 -0.334455,0.7499 -0.7499,0.7499 -0.415445,0 -0.7499,-0.334456 -0.7499,-0.7499 v -5.040762 c 0,-0.415445 0.334455,-0.7499 0.7499,-0.7499 z" /><path
         id="rect4-2"
         style="display:inline;fill:#ffffff;stroke-width:4.23333"
         transform="rotate(32.344342)"
         d="m 18.960703,17.460318 c 0.432473,0 0.780636,0.348163 0.780636,0.780636 v 4.924315 c 0,0.432472 -0.348163,0.780636 -0.780636,0.780636 -0.432472,0 -0.780636,-0.348164 -0.780636,-0.780636 v -4.924315 c 0,-0.432473 0.348164,-0.780636 0.780636,-0.780636 z" /><path
         id="rect4-6-7"
         style="display:inline;fill:#ffffff;stroke-width:4.23333"
         transform="rotate(32.344342)"
         d="m 30.300738,12.28769 c 0.428981,0 0.774333,0.345353 0.774333,0.774333 v 4.993043 c 0,0.428981 -0.345352,0.774333 -0.774333,0.774333 -0.42898,0 -0.774333,-0.345352 -0.774333,-0.774333 v -4.993043 c 0,-0.42898 0.345353,-0.774333 0.774333,-0.774333 z" /><path
         id="rect4-6-7-5-3-5-6"
         style="display:inline;fill:#ffffff;stroke-width:4.23333"
         transform="rotate(32.344342)"
         d="m 34.08938,7.8940792 c 0.413011,0 0.745508,0.3324966 0.745508,0.745508 v 4.9980378 c 0,0.413011 -0.332497,0.745508 -0.745508,0.745508 -0.413011,0 -0.745508,-0.332497 -0.745508,-0.745508 V 8.6395872 c 0,-0.4130114 0.332497,-0.745508 0.745508,-0.745508 z" /><path
         id="rect4-9"
         style="display:inline;fill:#ffffff;stroke-width:4.23333"
         transform="rotate(32.344342)"
         d="m 18.834021,12.90812 c 0.416953,0 0.752622,0.335669 0.752622,0.752622 V 15.2088 c 0,0.416953 -0.335669,0.752622 -0.752622,0.752622 -0.416952,0 -0.752621,-0.335669 -0.752621,-0.752622 v -1.548058 c 0,-0.416953 0.335669,-0.752622 0.752621,-0.752622 z" /><path
         id="rect4-6-7-5"
         style="display:inline;fill:#ffffff;stroke-width:4.23333"
         transform="rotate(32.344342)"
         d="m 30.472264,5.5866151 c 0.366386,0 0.661346,0.3359855 0.661346,0.7533308 v 2.6380694 c 0,0.4173453 -0.29496,0.7533308 -0.661346,0.7533308 -0.366385,0 -0.661345,-0.3359855 -0.661345,-0.7533308 V 6.3399459 c 0,-0.4173453 0.29496,-0.7533308 0.661345,-0.7533308 z" /></g><path
       d="M 13.911012,5.0858566 C 10.877802,5.0932417 8.2178658,7.1151912 7.3962083,10.038105 7.0843562,9.9845219 6.768545,9.9572175 6.4521334,9.956479 c -3.1249308,-6.15e-5 -5.65839294,2.535854 -5.65862348,5.664105 -6.148e-5,3.128458 2.53348568,5.664695 5.65862348,5.664633 0.1104293,-3.84e-4 0.2200103,-0.0059 0.3293402,-0.01272 0.019304,0.0021 0.03785,0.0058 0.057717,0.0058 H 27.488641 c 0.0096,0 0.01858,-0.0022 0.02806,-0.0027 0.0071,9.06e-4 0.01412,0.0017 0.02118,0.0027 1.887937,7.5e-5 3.41844,-1.532053 3.418365,-3.421996 7.5e-5,-1.889944 -1.516537,-3.435977 -3.404475,-3.435903 -0.01629,0.0053 -0.04924,0 -0.04924,0 H 27.36209 c 0,0 3e-6,-0.834343 0,-1.283658 2e-5,-2.806455 -2.272713,-5.0816015 -5.076188,-5.08158 C 21.4505,8.0636188 20.630047,8.2782399 19.897388,8.6801357 18.754929,6.5415335 16.50297,5.0859048 13.911012,5.0858566 Z"
       style="display:inline;fill:none;fill-opacity:1;stroke:#ffffff;stroke-width:1.5875;stroke-linecap:round;stroke-linejoin:round;stroke-dasharray:none"
       id="path5" /><path
       d="m -9.0474538,25.395798 c -0.1204936,-0.0046 -0.6608033,0.08596 -1.5946112,1.824473 -0.962394,1.791737 -3.463722,6.99781 -3.742711,7.645351 -0.278237,0.64579 -0.129043,1.501475 0.940458,1.501475 h 3.6197859 l -4.5169689,7.823784 c 0,0 -0.0558,0.292029 0.235507,0.179061 0,0 10.7131323,-10.656849 10.9311617,-10.913599 0.1951948,-0.229859 0.5114524,-1.12391 -0.5105272,-1.12391 h -4.2137239 c 0,0 5.2694573,-5.755535 5.5653022,-6.088685 0.2055985,-0.231526 0.5130786,-0.844501 -0.1260647,-0.844501 H -9.021426 c 0,0 -0.00882,-0.0028 -0.026027,-0.0035 z"
       style="display:inline;stroke-width:4.12779;fill:#fcb928;stroke-linecap:round;stroke-linejoin:round"
       id="path2"
       transform="matrix(0.96904176,0,0,0.96904176,23.650534,-10.527981)" /></g></svg>
