<?xml version="1.0" encoding="UTF-8" standalone="no"?>
<!-- Created with Inkscape (http://www.inkscape.org/) -->

<svg
   width="120"
   height="130"
   viewBox="0 0 31.75 34.395834"
   version="1.1"
   id="svg5"
   xml:space="preserve"
   xmlns="http://www.w3.org/2000/svg"
   xmlns:svg="http://www.w3.org/2000/svg"><defs
     id="defs2" /><g
     id="layer1"
     style="display:inline"><path
       id="rect3330"
       style="display:inline;fill:#002a53;stroke-width:2.5109;stroke-linecap:square;stroke-miterlimit:2;stop-color:#000000"
       d="M 3.0769232e-7,0 H 31.75 V 34.395832 H 3.0769232e-7 Z" /></g><g
     id="layer2"
     style="display:inline"><path
       style="display:inline;fill:#fcb928;fill-opacity:1;stroke-width:3.175;stroke-linecap:round"
       d="m 13.84402,15.936631 2.422638,5.085726 c 5.222391,0 5.222391,0.502064 5.222391,0.502064 l -3.813704,3.827027 1.088771,5.22926 L 13.84402,28.17168 9.16751,30.678036 10.145521,25.4512 6.2053006,21.524421 c 0,0 0.3282747,-0.326451 4.9329564,-0.502064 0.03891,-0.0015 2.705763,-5.085726 2.705763,-5.085726 z"
       id="path1" /><path
       style="display:inline;fill:#fcb928;fill-opacity:1;stroke-width:3.175;stroke-linecap:round"
       d="m 10.186521,4.5071286 -0.03924,2.7293184 c 2.26866,1.1209957 2.160893,1.3390978 2.160893,1.3390978 L 9.8299824,9.4194288 9.1804868,11.924785 7.5602455,9.8221667 4.9907249,9.9071344 6.5375328,7.8464717 5.6687486,5.2948608 c 0,0 0.2126792,-0.071349 2.2506987,0.8407658 0.017228,0.00769 2.2670737,-1.628498 2.2670737,-1.628498 z"
       id="path1-3" /><path
       style="display:inline;fill:#fcb928;fill-opacity:1;stroke-width:3.175;stroke-linecap:round"
       d="m 26.352145,4.2957819 -0.188168,4.8059027 c 3.947286,2.0735524 3.747944,2.4530334 3.747944,2.4530334 l -4.402067,1.378387 -1.253342,4.384782 -2.762299,-3.774369 -4.529839,0.03759 2.814533,-3.562329 -1.419045,-4.5324825 c 0,0 0.377739,-0.1164032 3.92787,1.5791521 0.03002,0.014294 4.064412,-2.7696699 4.064412,-2.7696708 z"
       id="path1-3-6" /></g></svg>
