<?xml version="1.0" encoding="UTF-8" standalone="no"?>
<!-- Created with Inkscape (http://www.inkscape.org/) -->

<svg
   width="120"
   height="130"
   viewBox="0 0 31.75 34.395834"
   version="1.1"
   id="svg5"
   xml:space="preserve"
   xmlns="http://www.w3.org/2000/svg"
   xmlns:svg="http://www.w3.org/2000/svg"><defs
     id="defs2" /><g
     id="layer1"
     style="display:inline"><path
       id="rect3330"
       style="display:inline;fill:#002a53;stroke-width:2.5109;stroke-linecap:square;stroke-miterlimit:2;stop-color:#000000"
       d="M 3.0769232e-7,0 H 31.75 V 34.395832 H 3.0769232e-7 Z" /></g><g
     id="layer2"
     style="display:inline"><path
       style="display:inline;fill:#fcb928;fill-opacity:1;stroke-width:3.175;stroke-linecap:round"
       d="M 28.572504,3.0179335 28.40171,5.1606989 c 1.725299,0.9972458 1.629427,1.1631104 1.629427,1.1631104 l -1.990709,0.536069 -0.638866,1.9354746 -1.165413,-1.7353808 -2.02356,-0.064993 1.321195,-1.54001 -0.55187,-2.0496801 c 0,0 0.170787,-0.045162 1.72555,0.7761122 0.01315,0.00693 1.86504,-1.1634679 1.86504,-1.1634677 z"
       id="path1" /><path
       style="display:inline;fill:#fcb928;fill-opacity:1;stroke-width:3.175;stroke-linecap:round"
       d="m 9.7408582,9.7960436 1.2489188,1.8979944 c 2.086461,-0.288573 2.114207,-0.08799 2.114207,-0.08799 l -1.312189,1.739719 0.723947,2.029046 -2.098808,-0.690591 -1.7298753,1.259758 0.1019139,-2.142281 -1.7911909,-1.351112 c 0,0 0.1131178,-0.148563 1.943086,-0.473169 0.015463,-0.0027 0.7999893,-2.1813755 0.799987,-2.1813755 z"
       id="path1-3-6" /><path
       style="display:inline;fill:#fcb928;fill-opacity:1;stroke-width:3.175;stroke-linecap:round"
       d="M 6.597524,1.9492835 6.4686072,4.9045212 c 2.42199,1.2861228 2.2983484,1.5189656 2.2983484,1.5189656 L 6.055786,7.2591472 5.2729126,9.9524612 3.5843877,7.6235446 0.79831532,7.6342325 2.5391054,5.4510329 1.6787968,2.659545 c 0,0 0.2326395,-0.070554 2.4114059,0.9820006 0.018419,0.00887 2.5073213,-1.6922621 2.5073213,-1.6922621 z"
       id="path1-3" /><path
       style="fill:#feba27;fill-opacity:1;stroke-width:3.175;stroke-linecap:round"
       d="m 18.497827,7.8903956 c 0,0 2.375559,7.0793294 -1.45082,11.3658524 -3.82638,4.286523 -10.9807628,3.847427 -10.9807628,3.847427 0,0 1.1280184,3.186334 4.5312588,4.823688 3.649705,1.755933 10.065999,1.741665 13.615086,-3.277375 C 27.634317,19.811056 26.560008,14.023727 23.809208,11.063814 21.56262,8.6464438 18.497827,7.8903956 18.497827,7.8903956 Z"
       id="path2" /></g></svg>
