<?xml version="1.0" encoding="UTF-8" standalone="no"?>
<!-- Created with Inkscape (http://www.inkscape.org/) -->

<svg
   width="120"
   height="130"
   viewBox="0 0 31.75 34.395834"
   version="1.1"
   id="svg5"
   xml:space="preserve"
   xmlns="http://www.w3.org/2000/svg"
   xmlns:svg="http://www.w3.org/2000/svg"><defs
     id="defs2" /><g
     id="layer1"
     style="display:inline"><path
       id="rect3330"
       style="display:inline;fill:#002a53;stroke-width:2.5109;stroke-linecap:square;stroke-miterlimit:2;stop-color:#000000"
       d="M 3.0769232e-7,0 H 31.75 V 34.395832 H 3.0769232e-7 Z" /></g><g
     id="layer2"
     style="display:inline"><path
       style="display:inline;fill:#fcb928;fill-opacity:1;stroke-width:3.175;stroke-linecap:round"
       d="m 25.322566,25.115769 1.249655,1.911768 c 2.098282,-0.283699 2.125556,-0.08197 2.125556,-0.08197 l -1.324394,1.744817 0.721523,2.041898 -2.107691,-0.700638 -1.742801,1.261061 0.109017,-2.153197 -1.796441,-1.363676 c 0,0 0.11417,-0.148997 1.954719,-0.469698 0.01554,-0.0027 0.810862,-2.190359 0.810862,-2.190359 z"
       id="path1" /><path
       style="display:inline;fill:#fcb928;fill-opacity:1;stroke-width:3.175;stroke-linecap:round"
       d="m 28.575883,2.97273 -0.178494,2.1243084 c 1.706779,0.9963322 1.610996,1.1604173 1.610996,1.1604173 L 28.03187,6.780622 27.390059,8.6973652 26.241671,6.9713854 24.235132,6.8983214 25.551944,5.376675 25.013357,3.3416071 c 0,0 0.169568,-0.044062 1.707972,0.7770291 0.01301,0.00692 1.854555,-1.1459079 1.854555,-1.1459083 z"
       id="path1-3-6" /><path
       style="display:inline;fill:#fcb928;fill-opacity:1;stroke-width:3.175;stroke-linecap:round"
       d="M 6.521181,1.8633301 6.4086402,4.8233962 C 8.8412003,6.097738 8.7186913,6.331597 8.7186913,6.331597 L 6.0084361,7.1836066 5.2395628,9.8850488 3.5356452,7.562355 0.74576153,7.5886654 2.4767401,5.3926803 1.5995983,2.6021332 c 0,0 0.2325674,-0.071955 2.4202576,0.9698564 0.018494,0.00879 2.5013251,-1.7086595 2.5013251,-1.7086595 z"
       id="path1-3" /><path
       id="path2"
       style="fill:#fcb928;stroke-width:3.175;stroke-linecap:round"
       d="M 26.697282,17.258547 A 10.847917,10.847918 0 0 1 15.849365,28.106464 10.847917,10.847918 0 0 1 5.0014486,17.258547 10.847917,10.847918 0 0 1 15.849365,6.4106293 10.847917,10.847918 0 0 1 26.697282,17.258547 Z" /></g></svg>
