<?xml version="1.0" encoding="UTF-8" standalone="no"?>
<!-- Created with Inkscape (http://www.inkscape.org/) -->

<svg
   width="120"
   height="130"
   viewBox="0 0 31.75 34.395834"
   version="1.1"
   id="svg5"
   xml:space="preserve"
   xmlns="http://www.w3.org/2000/svg"
   xmlns:svg="http://www.w3.org/2000/svg"><defs
     id="defs2" /><g
     id="layer1"
     style="display:inline"><path
       id="rect3330"
       style="display:inline;fill:#002a53;stroke-width:2.5109;stroke-linecap:square;stroke-miterlimit:2;stop-color:#000000"
       d="M 3.0769232e-7,-0.24053031 H 31.75 V 34.395834 H 3.0769232e-7 Z" /></g><g
     id="layer2"
     style="display:inline"><g
       id="layer4"
       style="display:inline;stroke:#00abec;stroke-opacity:1"><path
         style="display:inline;fill:none;fill-opacity:1;stroke:#00abec;stroke-width:1.45520835;stroke-linecap:butt;stroke-dasharray:none;stroke-opacity:1"
         d="M 0,30.216049 H 3.1994875 V 10.194977 L 7.0632753,6.3311891 V 1.4571256 6.3269928 l 2.902175,1.6755716 V 24.215127 H 12.82654 V 8.9206048 h 5.150241 v 7.9173762 h 3.633317 V 7.3816105 l 1.188748,-2.0590914 h 3.493513 l 1.160323,2.0590914 V 30.178217 h 4.297319"
         id="path2" /></g><g
       id="layer3"
       style="display:inline"><path
         style="fill:none;fill-opacity:1;stroke:#ffffff;stroke-width:1.32292;stroke-linecap:round;stroke-dasharray:none;stroke-opacity:1"
         d="M 7.9453657,7.4835469 H 18.667757"
         id="path1" /><path
         style="display:inline;fill:none;fill-opacity:1;stroke:#ffffff;stroke-width:1.32292;stroke-linecap:round;stroke-dasharray:none;stroke-opacity:1"
         d="M 7.1861653,29.771502 H 15.262724"
         id="path1-7" /><path
         style="fill:none;fill-opacity:1;stroke:#ffffff;stroke-width:1.32292;stroke-linecap:round;stroke-dasharray:none;stroke-opacity:1"
         d="M 0.78719046,12.526807 H 11.509582"
         id="path1-2" /><path
         style="display:inline;fill:none;fill-opacity:1;stroke:#ffffff;stroke-width:1.32292;stroke-linecap:round;stroke-dasharray:none;stroke-opacity:1"
         d="m 21.653833,15.075552 h 8.076559"
         id="path1-2-8" /><path
         style="display:inline;fill:none;fill-opacity:1;stroke:#ffffff;stroke-width:1.32292;stroke-linecap:round;stroke-dasharray:none;stroke-opacity:1"
         d="M -0.0487395,20.195888 H 15.436152"
         id="path1-2-2" /><path
         style="display:inline;fill:none;fill-opacity:1;stroke:#ffffff;stroke-width:1.32292;stroke-linecap:round;stroke-dasharray:none;stroke-opacity:1"
         d="M 18.822813,24.425719 H 32.191038"
         id="path1-2-2-9" /></g><g
       id="layer5"><path
         d="m 13.886491,9.9973227 c -3.114808,0.00647 -5.9089381,1.9170483 -7.0450481,4.8172773 -0.079523,-0.0042 -0.1591189,-0.007 -0.2387451,-0.0083 -3.5241529,-6.7e-5 -6.38107288,2.856852 -6.3810059,6.381005 0.002491,3.061047 2.178386,5.689079 5.1852133,6.262667 0.3906392,0.07581 0.7875348,0.114909 1.1854573,0.116789 h 0.020671 20.0876629 c 2.465123,-1.77e-4 4.463402,-1.998688 4.463294,-4.46381 -0.0017,-1.997769 -1.33059,-3.751176 -3.253549,-4.292761 -0.08019,-3.464255 -2.910656,-6.231399 -6.375838,-6.233212 -0.585639,0.01001 -1.167135,0.100604 -1.72806,0.269234 -1.438178,-1.799526 -3.616435,-2.8477748 -5.920052,-2.8489213 z"
         style="display:inline;fill:#ffffff;stroke-width:1.45521;fill-opacity:0.76862746;opacity:1"
         id="path4" /></g></g></svg>
