<?xml version="1.0" encoding="UTF-8" standalone="no"?>
<!-- Created with Inkscape (http://www.inkscape.org/) -->

<svg
   width="120"
   height="130"
   viewBox="0 0 31.75 34.395834"
   version="1.1"
   id="svg5"
   xml:space="preserve"
   xmlns="http://www.w3.org/2000/svg"
   xmlns:svg="http://www.w3.org/2000/svg"><defs
     id="defs2" /><g
     id="layer1"
     style="display:inline"><path
       id="rect3330"
       style="display:inline;fill:#002a53;stroke-width:2.5109;stroke-linecap:square;stroke-miterlimit:2;stop-color:#000000"
       d="M 3.0769232e-7,-0.24053031 H 31.75 V 34.395834 H 3.0769232e-7 Z" /></g><g
     id="layer2"
     style="display:inline"><g
       aria-label="COOL"
       transform="scale(0.96772661,1.0333497)"
       id="text3"
       style="font-size:6.15522px;line-height:1;font-family:'Casey Replica v3';-inkscape-font-specification:'Casey Replica v3';letter-spacing:0px;fill:#00adee;stroke-width:1.5875;stroke-linecap:round;stroke-linejoin:round"><path
         d="m 20.142302,31.764429 c -0.190812,0.08002 -0.498573,0.135415 -0.787868,0.135415 -0.830955,0 -1.323373,-0.523194 -1.323373,-1.354148 0,-0.923283 0.578591,-1.372614 1.317217,-1.372614 0.338537,0 0.603212,0.07386 0.787869,0.15388 l 0.196967,-0.738626 c -0.166191,-0.09233 -0.535505,-0.184657 -1.021767,-0.184657 -1.255665,0 -2.265121,0.781713 -2.265121,2.197414 0,1.181802 0.738626,2.080464 2.172793,2.080464 0.498573,0 0.892507,-0.09848 1.058698,-0.178501 z"
         style="font-weight:bold;font-family:'Myriad Pro';-inkscape-font-specification:'Myriad Pro Bold'"
         id="path22" /><path
         d="m 22.542829,28.391369 c -1.218733,0 -2.018912,0.929438 -2.018912,2.172792 0,1.187958 0.726316,2.117396 1.951205,2.117396 1.218733,0 2.037378,-0.818644 2.037378,-2.185103 0,-1.151026 -0.69554,-2.105085 -1.969671,-2.105085 z m -0.01847,0.744781 c 0.646298,0 0.997145,0.640143 0.997145,1.39108 0,0.806334 -0.363158,1.409545 -0.997145,1.409545 -0.627833,0 -1.009457,-0.572435 -1.009457,-1.391079 0,-0.806334 0.369314,-1.409546 1.009457,-1.409546 z"
         style="font-weight:bold;font-family:'Myriad Pro';-inkscape-font-specification:'Myriad Pro Bold'"
         id="path24" /><path
         d="m 26.956128,28.391369 c -1.218734,0 -2.018913,0.929438 -2.018913,2.172792 0,1.187958 0.726316,2.117396 1.951205,2.117396 1.218734,0 2.037378,-0.818644 2.037378,-2.185103 0,-1.151026 -0.69554,-2.105085 -1.96967,-2.105085 z m -0.01847,0.744781 c 0.646298,0 0.997146,0.640143 0.997146,1.39108 0,0.806334 -0.363158,1.409545 -0.997146,1.409545 -0.627833,0 -1.009456,-0.572435 -1.009456,-1.391079 0,-0.806334 0.369313,-1.409546 1.009456,-1.409546 z"
         style="font-weight:bold;font-family:'Myriad Pro';-inkscape-font-specification:'Myriad Pro Bold'"
         id="path26" /><path
         d="m 29.547481,32.61385 h 2.585192 v -0.787869 h -1.649599 v -3.36075 h -0.935593 z"
         style="font-weight:bold;font-family:'Myriad Pro';-inkscape-font-specification:'Myriad Pro Bold'"
         id="path28" /></g><g
       aria-label="涼"
       id="text4"
       style="font-weight:bold;font-size:9.525px;line-height:1;font-family:'Myriad Pro';-inkscape-font-specification:'Myriad Pro Bold';letter-spacing:0px;fill:#00adee;stroke-width:1.5875;stroke-linecap:round;stroke-linejoin:round"><path
         d="m 23.87462,4.3375338 h 2.809875 v 0.923925 H 23.87462 Z m -0.790575,2.2478999 c -0.333375,0.6858 -0.8763,1.4573249 -1.381125,1.9621499 0.257175,0.142875 0.70485,0.447675 0.923925,0.619125 0.4953,-0.5715 1.12395,-1.4858999 1.54305,-2.2669499 z m 3.3147,0.371475 c 0.390525,0.676275 0.85725,1.5811499 1.057275,2.1526499 l 1.0668,-0.40005 C 28.29422,8.1475336 27.81797,7.2902837 27.408395,6.6235337 Z M 20.00747,1.7086339 c 0.59055,0.2667 1.343025,0.7239 1.69545,1.0668 l 0.638175,-0.93345 C 21.96962,1.4990839 21.18857,1.0895089 20.59802,0.86090893 Z m -0.55245,2.6384249 c 0.600075,0.257175 1.35255,0.695325 1.7145,1.0287 l 0.6096,-0.9525 c -0.40005,-0.32385 -1.171575,-0.7239 -1.7526,-0.942975 z m 0.32385,4.4767498 0.923925,0.771525 c 0.55245,-0.93345 1.12395,-2.0192999 1.609725,-3.0194249 l -0.8001,-0.762 c -0.542925,1.1049 -1.247775,2.2955249 -1.73355,3.0098999 z m 4.619625,-7.8200247 c 0.1143,0.238125 0.238125,0.51435 0.3429,0.771525 h -2.34315 v 0.9906 h 6.048375 v -0.9906 h -2.3622 c -0.142875,-0.32385 -0.3429,-0.733425 -0.51435,-1.04774996 z m -1.6383,2.3336249 v 2.9336999 h 2.028825 v 2.2288499 c 0,0.09525 -0.05715,0.123825 -0.20955,0.13335 -0.161925,0.00953 -0.74295,0.00953 -1.2192,-0.00953 0.161925,0.276225 0.352425,0.70485 0.40005,1.000125 0.762,0 1.304925,-0.00953 1.7145,-0.161925 0.4191,-0.161925 0.5334,-0.428625 0.5334,-0.9525 V 6.2711087 h 1.857375 V 3.3374088 Z"
         style="font-family:'Noto Sans CJK HK';-inkscape-font-specification:'Noto Sans CJK HK Bold'"
         id="path31" /></g><path
       style="display:inline;fill:#00adee;fill-opacity:1;stroke:none;stroke-width:1.5875;stroke-linecap:round;stroke-linejoin:round;stroke-dasharray:none;stroke-opacity:1"
       d="m 21.742462,19.364232 -0.537983,-7.093623 a 0.46351565,0.46351565 132.83148 0 1 0.462188,-0.498568 l 4.636776,0 a 0.44425486,0.44425486 48.378599 0 1 0.441169,0.496527 l -0.840973,7.097705 a 0.44425486,0.44425486 48.378599 0 0 0.441169,0.496527 h 1.638766 a 0.28253245,0.28253245 60.530733 0 1 0.242021,0.428307 l -4.106897,6.818446 a 0.29170148,0.29170148 0.80205338 0 1 -0.503867,-0.0071 L 19.771804,20.298161 A 0.29184076,0.29184076 120.27132 0 1 20.025916,19.8628 h 1.254358 a 0.46351565,0.46351565 132.83148 0 0 0.462188,-0.498568 z"
       id="path4" /><g
       id="g4"><path
         d="m 7.8390413,2.595389 c -2.3240334,0 -4.1948802,1.8964282 -4.1948802,4.2520552 V 21.38343 c 0,0.05574 0.00623,0.109852 0.00831,0.165058 -1.1876958,1.130125 -1.8619392,2.696374 -1.8664101,4.335622 -9e-7,3.318121 2.6904945,6.008001 6.0093735,6.008 3.3188785,1e-6 6.0093745,-2.689879 6.0093735,-6.008 -0.0013,-1.602595 -0.642948,-3.138264 -1.782304,-4.26555 0.0042,-0.07829 0.01142,-0.155732 0.01142,-0.23513 V 6.8474442 c 0,-2.355627 -1.870847,-4.2520552 -4.1948787,-4.2520552 z"
         style="display:inline;fill:none;stroke:#ffffff;stroke-width:1.5875;stroke-linecap:round;stroke-linejoin:round;stroke-dasharray:none"
         id="path2" /><path
         id="path3"
         style="fill:#00adee;stroke-width:1.58749;stroke-linecap:round;stroke-linejoin:round"
         d="m 11.440091,25.848097 a 3.614337,3.614337 0 0 1 -3.6143373,3.614337 3.614337,3.614337 0 0 1 -3.614337,-3.614337 3.614337,3.614337 0 0 1 3.614337,-3.614337 3.614337,3.614337 0 0 1 3.6143373,3.614337 z" /><path
         id="rect3"
         style="fill:#00adee;stroke-width:1.5875;stroke-linecap:round;stroke-linejoin:round"
         d="m 6.1278319,20.917192 h 3.335059 v 3.036802 h -3.335059 z" /><path
         id="rect4"
         style="fill:#fdfdfd;stroke-width:1.5875;stroke-linecap:round;stroke-linejoin:round"
         d="m 12.49477,6.6810703 h 2.300807 c 0.513027,0 0.926042,0.3866708 0.926042,0.8669749 0,0.4803041 -0.413015,0.8669749 -0.926042,0.8669749 H 12.49477 c -0.513027,0 -0.926042,-0.3866708 -0.926042,-0.8669749 0,-0.4803041 0.413015,-0.8669749 0.926042,-0.8669749 z" /><path
         id="rect4-4"
         style="display:inline;fill:#fdfdfd;stroke-width:1.5875;stroke-linecap:round;stroke-linejoin:round"
         d="m 12.49477,11.857701 h 2.300807 c 0.513027,0 0.926042,0.386671 0.926042,0.866975 0,0.480304 -0.413015,0.866975 -0.926042,0.866975 H 12.49477 c -0.513027,0 -0.926042,-0.386671 -0.926042,-0.866975 0,-0.480304 0.413015,-0.866975 0.926042,-0.866975 z" /><path
         id="rect4-4-9"
         style="display:inline;fill:#fdfdfd;stroke-width:1.5875;stroke-linecap:round;stroke-linejoin:round"
         d="m 12.49477,17.072678 h 2.300807 c 0.513027,0 0.926042,0.38667 0.926042,0.866975 0,0.480304 -0.413015,0.866974 -0.926042,0.866974 H 12.49477 c -0.513027,0 -0.926042,-0.38667 -0.926042,-0.866974 0,-0.480305 0.413015,-0.866975 0.926042,-0.866975 z" /></g></g></svg>
