<?xml version="1.0" encoding="UTF-8" standalone="no"?>
<!-- Created with Inkscape (http://www.inkscape.org/) -->

<svg
   width="120"
   height="130"
   viewBox="0 0 31.75 34.395834"
   version="1.1"
   id="svg5"
   xml:space="preserve"
   xmlns="http://www.w3.org/2000/svg"
   xmlns:svg="http://www.w3.org/2000/svg"><defs
     id="defs2" /><g
     id="layer1"
     style="display:inline"><path
       id="rect3330"
       style="display:inline;fill:#002a53;stroke-width:2.5109;stroke-linecap:square;stroke-miterlimit:2;stop-color:#000000"
       d="M 3.0769232e-7,-0.24053031 H 31.75 V 34.395834 H 3.0769232e-7 Z" /></g><g
     id="layer2"
     style="display:inline"
     transform="matrix(0.9593636,0,0,0.9593636,0.25992126,5.7328528)"><path
       id="rect359"
       style="fill:#ffffff;stroke-width:0.370631;stroke-linecap:square;stroke-miterlimit:2;stop-color:#000000"
       d="M 1.0583334,9.8252735 H 14.816667 V 14.058607 H 1.0583334 Z" /><path
       id="rect359-6"
       style="display:inline;fill:#ffffff;stroke-width:0.370631;stroke-linecap:square;stroke-miterlimit:2;stop-color:#000000"
       transform="rotate(90)"
       d="M 5.0627732,-10.054167 H 18.821106 v 4.2333338 H 5.0627732 Z" /></g><g
     id="layer3"><g
       aria-label="10"
       transform="scale(0.94415735,1.0591455)"
       id="text1625"
       style="font-size:17.2189px;line-height:1;font-family:'Segoe UI Variable';-inkscape-font-specification:'Segoe UI Variable';text-align:center;letter-spacing:-1.60291px;text-anchor:middle;display:inline;fill:#ffffff;stroke:#ffffff;stroke-width:0.381743;stroke-linecap:square;stroke-miterlimit:2;stop-color:#000000"><path
         d="m 19.241008,21.731264 v -9.280987 h -0.03444 l -2.049049,1.033134 -0.361597,-1.601358 2.737805,-1.343074 h 1.756328 v 11.192285 z"
         style="font-weight:600;font-family:'Myriad Pro';-inkscape-font-specification:'Myriad Pro Semi-Bold'"
         id="path16" /><path
         d="m 27.487297,10.349571 q 1.945736,0 2.944432,1.56692 1.015915,1.549701 1.015915,4.132536 0,2.755024 -1.067572,4.321944 -1.050352,1.549701 -3.030526,1.549701 -1.87686,0 -2.909994,-1.56692 -1.033134,-1.56692 -1.050353,-4.184193 0,-2.668929 1.084791,-4.235849 1.08479,-1.584139 3.013307,-1.584139 z m -0.05166,1.618576 q -0.860945,0 -1.39473,1.084791 -0.516568,1.067572 -0.516568,3.099402 0,2.014612 0.499349,3.082184 0.516567,1.067571 1.394731,1.067571 1.894079,0 1.894079,-4.201411 0,-4.132537 -1.876861,-4.132537 z"
         style="font-weight:600;font-family:'Myriad Pro';-inkscape-font-specification:'Myriad Pro Semi-Bold'"
         id="path18" /></g></g></svg>
