<?xml version="1.0" encoding="UTF-8" standalone="no"?>
<!-- Created with Inkscape (http://www.inkscape.org/) -->

<svg
   width="120"
   height="130"
   viewBox="0 0 31.75 34.395834"
   version="1.1"
   id="svg5"
   xml:space="preserve"
   xmlns="http://www.w3.org/2000/svg"
   xmlns:svg="http://www.w3.org/2000/svg"><defs
     id="defs2" /><g
     id="layer1"
     style="display:inline"><path
       id="rect3330"
       style="display:inline;fill:#002a53;stroke-width:2.5109;stroke-linecap:square;stroke-miterlimit:2;stop-color:#000000"
       d="M 3.0769232e-7,-0.24053031 H 31.75 V 34.395834 H 3.0769232e-7 Z" /></g><g
     id="layer2"
     style="display:inline"><path
       id="rect366-3"
       style="display:inline;fill:#ffffff;fill-opacity:1;stroke:none;stroke-width:2.42024;stroke-linecap:square;stroke-miterlimit:2;stop-color:#000000"
       d="m 2.9104167,24.201624 v -5.027083 h 4.7625 v -9.120374 h 4.7625003 v 9.120374 h 4.497916 v 5.027083 z" /></g><g
     id="layer3"><g
       aria-label="3"
       transform="scale(0.98158401,1.0187615)"
       id="text1625"
       style="font-size:17.5793px;line-height:1;font-family:'Segoe UI Variable';-inkscape-font-specification:'Segoe UI Variable';text-align:center;text-anchor:middle;display:inline;fill:#ffffff;stroke:#ffffff;stroke-width:0.519825;stroke-linecap:square;stroke-miterlimit:2;stop-color:#000000"><path
         d="m 20.522331,22.193613 0.49222,-1.634875 q 1.177813,0.703172 2.601737,0.703172 1.160233,0 1.722771,-0.527379 0.580117,-0.544958 0.580117,-1.300868 0,-0.949282 -0.75591,-1.441503 -0.75591,-0.49222 -1.845826,-0.49222 h -0.984441 v -1.582137 h 0.984441 q 0.861385,0 1.546978,-0.404324 0.703172,-0.404324 0.703172,-1.177813 0,-0.632855 -0.474641,-1.037179 -0.457062,-0.404324 -1.353606,-0.404324 -1.248131,0 -2.338047,0.720752 l -0.492221,-1.564558 q 0.527379,-0.351586 1.423924,-0.615275 0.914123,-0.26369 1.863406,-0.26369 1.705192,0 2.636895,0.808648 0.931702,0.791068 0.931702,1.986461 0,0.914123 -0.544958,1.617295 -0.527379,0.685593 -1.564558,1.054758 v 0.03516 q 1.089917,0.210952 1.793089,0.966861 0.703172,0.75591 0.720751,1.880986 0,1.49424 -1.195392,2.478681 -1.195392,0.984441 -3.252171,0.984441 -2.00404,0 -3.199432,-0.791069 z"
         style="font-weight:600;font-family:'Myriad Pro';-inkscape-font-specification:'Myriad Pro Semi-Bold'"
         id="path13" /></g></g></svg>
