<?xml version="1.0" encoding="UTF-8" standalone="no"?>
<!-- Created with Inkscape (http://www.inkscape.org/) -->

<svg
   width="120"
   height="130"
   viewBox="0 0 31.75 34.395834"
   version="1.1"
   id="svg5"
   xml:space="preserve"
   xmlns="http://www.w3.org/2000/svg"
   xmlns:svg="http://www.w3.org/2000/svg"><defs
     id="defs2" /><g
     id="layer1"
     style="display:inline"><path
       id="rect3330"
       style="display:inline;fill:#002a53;stroke-width:2.5109;stroke-linecap:square;stroke-miterlimit:2;stop-color:#000000"
       d="M 3.0769232e-7,-0.24053031 H 31.75 V 34.395834 H 3.0769232e-7 Z" /></g><g
     id="layer2"
     style="display:inline"><path
       style="fill:#ffffff;stroke:none;stroke-width:0.543284;stroke-linecap:square;stroke-miterlimit:2;stop-color:#000000"
       d="M 9.9989352,20.126223 3.3457258,11.94194 H 16.847009 Z"
       id="path370" /><path
       style="display:inline;fill:#ffffff;stroke:none;stroke-width:0.543284;stroke-linecap:square;stroke-miterlimit:2;stop-color:#000000"
       d="M 10.096367,11.94194 3.443158,3.7576568 h 13.501283 z"
       id="path370-3" /></g><g
     id="layer3"><g
       aria-label="8"
       transform="scale(0.98158401,1.0187615)"
       id="text1625"
       style="font-size:17.9014px;line-height:1;font-family:'Segoe UI Variable';-inkscape-font-specification:'Segoe UI Variable';text-align:center;text-anchor:middle;display:inline;fill:#ffffff;stroke:#ffffff;stroke-width:0.463021;stroke-linecap:square;stroke-miterlimit:2;stop-color:#000000"><path
         d="m 22.722884,11.638036 v -0.0537 q -1.772238,-0.859267 -1.772238,-2.5778016 0,-1.4142106 1.109886,-2.2913791 1.109887,-0.89507 2.774717,-0.89507 1.772239,0 2.703112,0.8771686 0.948774,0.8771685 0.948774,2.0586609 0,0.7876616 -0.447535,1.4858162 -0.429634,0.698155 -1.342605,1.14569 v 0.0537 q 1.002478,0.375929 1.611126,1.145689 0.608647,0.751859 0.608647,1.79014 0,1.557422 -1.181492,2.524098 -1.181492,0.948774 -3.061139,0.948774 -1.933351,0 -3.043238,-0.948774 -1.091986,-0.948775 -1.091986,-2.255577 0,-2.040759 2.183971,-3.007435 z m 2.022858,4.654364 q 0.859268,0 1.39631,-0.483338 0.537042,-0.501239 0.537042,-1.253098 0,-1.593224 -2.16607,-2.18397 -0.805563,0.232718 -1.270999,0.76976 -0.447535,0.537042 -0.447535,1.253098 -0.0358,0.787661 0.501239,1.342605 0.554943,0.554943 1.450013,0.554943 z m -0.0179,-8.9506998 q -0.787662,0 -1.235197,0.4654364 -0.447535,0.447535 -0.447535,1.1098868 0,1.3068026 1.897549,1.8259426 0.626549,-0.179014 1.038281,-0.64445 0.411732,-0.483338 0.411732,-1.109887 0,-0.6802532 -0.429633,-1.163591 -0.411733,-0.4833378 -1.235197,-0.4833378 z"
         style="font-weight:600;font-family:'Myriad Pro';-inkscape-font-specification:'Myriad Pro Semi-Bold'"
         id="path19" /></g></g><g
     id="layer4"
     style="display:inline"><g
       aria-label="東南SE"
       transform="scale(0.9841524,1.0161028)"
       id="text3299"
       style="font-weight:bold;font-size:8.75707px;line-height:1;font-family:Constantia;-inkscape-font-specification:'Constantia Bold';letter-spacing:0px;display:inline;fill:#ffffff;stroke-width:0.31103;stroke-linecap:square;stroke-miterlimit:2;stop-color:#000000"><path
         d="M 2.7831762,26.283188 H 5.506523 V 25.850657 H 2.3346249 V 24.953554 H 5.506523 v -0.49661 h 1.1373978 v 0.49661 h 3.2840358 v 0.897103 H 6.6439208 v 0.432531 h 2.7233468 v 3.444233 H 7.2366492 q 1.0492895,0.969191 2.8595138,1.473811 -0.2723344,0.456561 -0.5126297,1.04929 -1.842264,-0.680837 -2.9396125,-1.946392 v 2.002461 H 5.506523 V 30.320149 Q 4.4171843,31.497596 2.6229793,32.258532 2.3906939,31.625754 2.1023395,31.177203 3.6962983,30.640543 4.8256863,29.727421 H 2.7831762 Z m 5.5107723,2.619219 v -0.50462 H 6.6439208 v 0.50462 z M 3.8564952,27.612822 H 5.506523 v -0.50462 H 3.8564952 Z m 4.4374533,-0.50462 H 6.6439208 v 0.50462 H 8.2939485 Z M 3.8564952,28.902407 H 5.506523 v -0.50462 H 3.8564952 Z"
         style="font-size:8.20208px;font-family:'Microsoft YaHei';-inkscape-font-specification:'Microsoft YaHei';letter-spacing:0.529167px"
         id="path22" /><path
         d="m 15.647502,27.596803 0.953172,0.320393 q -0.184227,0.248305 -0.384473,0.50462 h 0.728896 v 0.849044 h -1.569929 v 0.592728 h 1.698087 v 0.849044 h -1.698087 v 1.449781 h -1.0573 v -1.449781 h -1.698086 v -0.849044 h 1.698086 V 29.27086 h -1.561919 v -0.849044 h 0.712876 q -0.168207,-0.272334 -0.328404,-0.528649 l 0.921132,-0.288355 q 0.264325,0.416512 0.504621,0.817004 h 0.560689 q 0.280344,-0.400492 0.520639,-0.825013 z m 1.674058,-0.01602 h -4.910034 v 4.757847 h -1.089339 v -5.686989 h 2.987672 v -0.592728 h -3.348115 v -0.929142 h 3.348115 v -0.688847 h 1.169437 v 0.688847 h 3.243986 v 0.929142 h -3.243986 v 0.592728 h 2.931602 v 4.365365 q 0,1.201476 -1.129388,1.273565 -0.528649,0.04005 -1.233515,0.01602 -0.0801,-0.53666 -0.232286,-1.081329 0.456561,0.04806 0.969191,0.04806 0.53666,0 0.53666,-0.50462 z"
         style="font-size:8.20208px;font-family:'Microsoft YaHei';-inkscape-font-specification:'Microsoft YaHei';letter-spacing:0.529167px"
         id="path24" /><path
         d="m 19.878893,31.363601 c 0.38206,0.211138 1.146179,0.422277 1.920352,0.422277 1.860027,0 2.724689,-0.965204 2.724689,-2.101328 0,-0.955149 -0.552981,-1.57851 -1.749431,-2.020895 -0.88477,-0.331788 -1.256775,-0.522818 -1.256775,-0.955149 0,-0.341842 0.321734,-0.653523 0.985311,-0.653523 0.653523,0 1.146179,0.19103 1.407588,0.321735 l 0.341843,-1.226613 c -0.402168,-0.191029 -0.955149,-0.341842 -1.729322,-0.341842 -1.588564,0 -2.563821,0.874715 -2.563821,2.030948 0,0.985312 0.744011,1.608672 1.870081,2.01084 0.81439,0.281518 1.136125,0.522819 1.136125,0.945095 0,0.442385 -0.372006,0.733957 -1.0758,0.733957 -0.653523,0 -1.296992,-0.211139 -1.69916,-0.422277 z"
         style="font-size:10.0542px;font-family:'Myriad Pro';-inkscape-font-specification:'Myriad Pro Bold'"
         id="path26" /><path
         d="M 29.601314,27.573168 H 27.107872 V 26.16558 h 2.644255 v -1.256775 h -4.172493 v 6.776531 h 4.313252 v -1.256775 h -2.785014 v -1.608673 h 2.493442 z"
         style="font-size:10.0542px;font-family:'Myriad Pro';-inkscape-font-specification:'Myriad Pro Bold'"
         id="path28" /></g></g></svg>
