<?xml version="1.0" encoding="UTF-8" standalone="no"?>
<!-- Created with Inkscape (http://www.inkscape.org/) -->

<svg
   width="120"
   height="130"
   viewBox="0 0 31.75 34.395834"
   version="1.1"
   id="svg5"
   xml:space="preserve"
   xmlns="http://www.w3.org/2000/svg"
   xmlns:svg="http://www.w3.org/2000/svg"><defs
     id="defs2" /><g
     id="layer1"
     style="display:inline"><path
       id="rect3330"
       style="display:inline;fill:#002a53;stroke-width:2.5109;stroke-linecap:square;stroke-miterlimit:2;stop-color:#000000"
       d="M 3.0769232e-7,-0.24053031 H 31.75 V 34.395834 H 3.0769232e-7 Z" /></g><g
     id="layer2"
     style="display:inline"><path
       style="fill:#ffffff;stroke:none;stroke-width:0.543284;stroke-linecap:square;stroke-miterlimit:2;stop-color:#000000"
       d="M 9.9989352,16.175273 3.3457258,7.9909901 H 16.847009 Z"
       id="path370" /></g><g
     id="layer3"><g
       aria-label="8"
       transform="scale(0.98158401,1.0187615)"
       id="text1625"
       style="font-size:17.9014px;line-height:1;font-family:'Segoe UI Variable';-inkscape-font-specification:'Segoe UI Variable';text-align:center;text-anchor:middle;display:inline;fill:#ffffff;stroke:#ffffff;stroke-width:0.529351;stroke-linecap:square;stroke-miterlimit:2;stop-color:#000000"><path
         d="m 22.722884,11.638036 v -0.0537 q -1.772238,-0.859267 -1.772238,-2.5778016 0,-1.4142106 1.109886,-2.2913791 1.109887,-0.89507 2.774717,-0.89507 1.772239,0 2.703112,0.8771686 0.948774,0.8771685 0.948774,2.0586609 0,0.7876616 -0.447535,1.4858162 -0.429634,0.698155 -1.342605,1.14569 v 0.0537 q 1.002478,0.375929 1.611126,1.145689 0.608647,0.751859 0.608647,1.79014 0,1.557422 -1.181492,2.524098 -1.181492,0.948774 -3.061139,0.948774 -1.933351,0 -3.043238,-0.948774 -1.091986,-0.948775 -1.091986,-2.255577 0,-2.040759 2.183971,-3.007435 z m 2.022858,4.654364 q 0.859268,0 1.39631,-0.483338 0.537042,-0.501239 0.537042,-1.253098 0,-1.593224 -2.16607,-2.18397 -0.805563,0.232718 -1.270999,0.76976 -0.447535,0.537042 -0.447535,1.253098 -0.0358,0.787661 0.501239,1.342605 0.554943,0.554943 1.450013,0.554943 z m -0.0179,-8.9506998 q -0.787662,0 -1.235197,0.4654364 -0.447535,0.447535 -0.447535,1.1098868 0,1.3068026 1.897549,1.8259426 0.626549,-0.179014 1.038281,-0.64445 0.411732,-0.483338 0.411732,-1.109887 0,-0.6802532 -0.429633,-1.163591 -0.411733,-0.4833378 -1.235197,-0.4833378 z"
         style="font-weight:600;font-family:'Myriad Pro';-inkscape-font-specification:'Myriad Pro Semi-Bold'"
         id="path19" /></g></g><g
     id="layer4"
     style="display:inline"><g
       aria-label="西南SW"
       transform="scale(0.9841524,1.0161028)"
       id="text3299"
       style="font-weight:bold;font-size:8.75707px;line-height:1;font-family:Constantia;-inkscape-font-specification:'Constantia Bold';letter-spacing:0px;display:inline;fill:#ffffff;stroke-width:0.31103;stroke-linecap:square;stroke-miterlimit:2;stop-color:#000000"><path
         d="M 1.2156931,32.32261 V 26.811838 H 3.3062623 V 25.898716 H 0.91131908 V 24.889475 H 8.7289264 v 1.009241 H 6.2218453 v 0.913122 h 2.202707 V 32.3146 H 7.3031742 V 31.793961 H 2.3370712 V 32.32261 Z M 4.3635616,26.811838 H 5.1565361 V 25.898716 H 4.3635616 Z m 0.7929745,2.202707 V 27.821078 H 4.3635616 q 0,1.746146 -1.1534174,2.667278 -0.464571,-0.388477 -0.873073,-0.660812 v 0.957176 h 4.966103 V 29.967716 H 6.1016977 q -0.9451616,0 -0.9451616,-0.953171 z M 2.3370712,29.751451 Q 3.3062623,29.054594 3.3062623,27.821078 H 2.3370712 Z m 4.966103,-1.930373 H 6.2218453 v 0.744916 q 0,0.384472 0.3924824,0.384472 h 0.6888465 z"
         style="font-size:8.20208px;font-family:'Microsoft YaHei';-inkscape-font-specification:'Microsoft YaHei';letter-spacing:0.264583px"
         id="path22" /><path
         d="m 14.087769,27.596803 0.953172,0.320393 q -0.184227,0.248305 -0.384473,0.50462 h 0.728896 v 0.849044 h -1.569929 v 0.592728 h 1.698087 v 0.849044 h -1.698087 v 1.449781 h -1.0573 v -1.449781 h -1.698086 v -0.849044 h 1.698086 V 29.27086 h -1.561919 v -0.849044 h 0.712876 q -0.168207,-0.272334 -0.328404,-0.528649 l 0.921132,-0.288355 q 0.264325,0.416512 0.504621,0.817004 h 0.560689 q 0.280344,-0.400492 0.520639,-0.825013 z m 1.674058,-0.01602 H 10.851793 V 32.33863 H 9.762454 v -5.686989 h 2.987672 V 26.058913 H 9.402011 v -0.929142 h 3.348115 v -0.688847 h 1.169437 v 0.688847 h 3.243986 v 0.929142 h -3.243986 v 0.592728 h 2.931602 v 4.365365 q 0,1.201476 -1.129387,1.273565 -0.52865,0.04005 -1.233516,0.01602 -0.0801,-0.53666 -0.232286,-1.081329 0.456561,0.04806 0.969191,0.04806 0.53666,0 0.53666,-0.50462 z"
         id="path24" /><path
         d="m 17.789994,31.363601 c 0.38206,0.211138 1.146179,0.422277 1.920352,0.422277 1.860027,0 2.724688,-0.965204 2.724688,-2.101328 0,-0.955149 -0.552981,-1.57851 -1.74943,-2.020895 -0.88477,-0.331788 -1.256775,-0.522818 -1.256775,-0.955149 0,-0.341842 0.321734,-0.653523 0.985311,-0.653523 0.653523,0 1.146179,0.19103 1.407588,0.321735 l 0.341843,-1.226613 c -0.402168,-0.191029 -0.955149,-0.341842 -1.729322,-0.341842 -1.588564,0 -2.563821,0.874715 -2.563821,2.030948 0,0.985312 0.74401,1.608672 1.870081,2.01084 0.81439,0.281518 1.136124,0.522819 1.136124,0.945095 0,0.442385 -0.372005,0.733957 -1.075799,0.733957 -0.653523,0 -1.296992,-0.211139 -1.69916,-0.422277 z"
         style="font-size:10.0542px;font-family:'Myriad Pro';-inkscape-font-specification:'Myriad Pro Bold';letter-spacing:-0.264583px"
         id="path26" /><path
         d="m 25.991056,31.685336 0.643469,-2.915719 c 0.160867,-0.683685 0.271463,-1.327154 0.392114,-2.091273 h 0.02011 c 0.08043,0.774173 0.19103,1.407588 0.321735,2.091273 l 0.573089,2.915719 h 1.658943 l 1.749431,-6.776531 h -1.558401 l -0.552981,2.764905 c -0.140759,0.81439 -0.291572,1.608672 -0.392114,2.362737 h -0.02011 c -0.100542,-0.754065 -0.211138,-1.477968 -0.361952,-2.27225 l -0.542926,-2.855392 h -1.628781 l -0.573089,2.764905 c -0.170922,0.844552 -0.331789,1.658943 -0.442385,2.392899 H 25.2571 c -0.110597,-0.683685 -0.251355,-1.558401 -0.402168,-2.372791 l -0.512765,-2.785013 h -1.638834 l 1.608672,6.776531 z"
         style="font-size:10.0542px;font-family:'Myriad Pro';-inkscape-font-specification:'Myriad Pro Bold';letter-spacing:-0.264583px"
         id="path28" /></g></g></svg>
