<?xml version="1.0" encoding="UTF-8" standalone="no"?>
<!-- Created with Inkscape (http://www.inkscape.org/) -->

<svg
   width="120"
   height="130"
   viewBox="0 0 31.75 34.395834"
   version="1.1"
   id="svg5"
   xml:space="preserve"
   xmlns="http://www.w3.org/2000/svg"
   xmlns:svg="http://www.w3.org/2000/svg"><defs
     id="defs2" /><g
     id="layer1"
     style="display:inline"><path
       id="rect3330"
       style="display:inline;fill:#002a53;stroke-width:2.5109;stroke-linecap:square;stroke-miterlimit:2;stop-color:#000000"
       d="M 3.0769232e-7,0 H 31.75 V 34.395832 H 3.0769232e-7 Z" /></g><g
     id="layer2"
     style="display:inline"><path
       style="fill:#edae26;fill-opacity:1;stroke:none;stroke-width:1.5875;stroke-linecap:round"
       d="m 13.959213,1.1388006 c -0.108457,0.027114 -4.7946597,2.5887502 -4.7946597,9.4828784 0,3.436935 0.6424044,5.770652 1.8022337,7.477355 1.893486,2.786288 4.563105,5.214976 4.908213,8.282609 0.345109,3.067634 0,4.022842 -0.402627,4.793177 -0.351691,0.672883 -1.168615,2.134134 -1.168615,2.134134 0,0 2.218325,-1.204846 3.54403,-3.626737 0.666648,-1.21788 0.583517,-2.952006 0.454365,-4.249003 -0.307237,-3.085389 0,-7.19147 1.462246,-10.079143 -0.08134,-0.05423 -6.673054,-7.701767 -5.805186,-14.2152704 z"
       id="path1" /><path
       style="fill:#edae26;fill-opacity:1;stroke:none;stroke-width:1.5875;stroke-linecap:round"
       d="m 6.4584766,12.561411 c 0,0 0.3867437,0.700486 0.2908801,1.505739 -0.095863,0.805254 -1.3294958,4.645411 -1.3294958,6.869445 0,2.224034 0.06477,4.97112 3.2507005,7.221607 2.2067876,1.558837 3.5505346,3.448434 3.6498286,4.251165 0.105506,0.85295 0.07839,0.995451 0.07839,0.995451 0,0 2.446549,-1.24653 2.781542,-4.102766 0.180609,-1.53992 -0.13939,-4.417268 -2.063012,-6.878526 -3.6067,-4.614743 -4.1825836,-5.94636 -4.2774837,-7.083411 -0.19202,-2.3007 -2.3813497,-2.778704 -2.3813497,-2.778704 z"
       id="path2" /><path
       style="opacity:1;fill:#edae26;fill-opacity:1;stroke:none;stroke-width:1.5875;stroke-linecap:round"
       d="m 16.296801,32.919536 c 0,0 2.363693,0.579036 3.9742,-0.628846 1.610507,-1.207881 4.749381,-4.720339 4.921935,-6.963546 0.172555,-2.243206 -0.140684,-3.914296 -0.276255,-6.021762 -0.135572,-2.107466 -0.644035,-4.286575 1.023991,-6.743971 0,0 -4.137331,0.03777 -5.429,3.502027 -0.864562,2.318754 -1.174023,4.111789 -1.312124,6.023519 -0.138101,1.91173 0.111623,3.355223 0.130793,4.831522 0.02445,1.882944 -0.563787,4.14041 -3.03354,6.001057 z"
       id="path3" /></g></svg>
