<?xml version="1.0" encoding="UTF-8" standalone="no"?>
<!-- Created with Inkscape (http://www.inkscape.org/) -->

<svg
   width="120"
   height="130"
   viewBox="0 0 31.75 34.395834"
   version="1.1"
   id="svg5"
   xml:space="preserve"
   xmlns="http://www.w3.org/2000/svg"
   xmlns:svg="http://www.w3.org/2000/svg"><defs
     id="defs2" /><g
     id="layer1"
     style="display:inline"><path
       id="rect3330"
       style="display:inline;fill:#002a53;stroke-width:2.5109;stroke-linecap:square;stroke-miterlimit:2;stop-color:#000000"
       d="M 3.0769232e-7,-0.24053031 H 31.75 V 34.395834 H 3.0769232e-7 Z" /></g><g
     id="layer2"
     style="display:inline"><g
       aria-label="VERY
HOT"
       transform="scale(0.96863784,1.0323776)"
       id="text3"
       style="font-size:6.16102px;line-height:0.8;font-family:'Casey Replica v3';-inkscape-font-specification:'Casey Replica v3';letter-spacing:0px;display:inline;fill:#ec1b23;stroke-width:1.71413;stroke-linecap:round;stroke-linejoin:round"><path
         d="m 19.9217,27.862823 1.398551,-4.152527 h -0.998085 l -0.529848,1.774374 c -0.141703,0.474398 -0.271085,0.96728 -0.375822,1.466323 h -0.01848 c -0.09858,-0.517526 -0.227958,-0.985764 -0.369661,-1.484806 l -0.505204,-1.755891 h -1.02889 l 1.33078,4.152527 z"
         style="font-weight:bold;font-family:'Myriad Pro';-inkscape-font-specification:'Myriad Pro Bold';text-align:center;text-anchor:middle"
         id="path24" /><path
         d="m 24.234412,25.342966 h -1.527933 v -0.862542 h 1.620348 v -0.770128 h -2.556823 v 4.152527 h 2.643077 v -0.770127 h -1.706602 v -0.985763 h 1.527933 z"
         style="font-weight:bold;font-family:'Myriad Pro';-inkscape-font-specification:'Myriad Pro Bold';text-align:center;text-anchor:middle"
         id="path26" /><path
         d="m 25.05383,27.862823 h 0.930314 v -1.63267 h 0.277246 c 0.388144,0.0062 0.566814,0.141704 0.683873,0.66539 0.11706,0.511365 0.221797,0.84406 0.283407,0.96728 h 0.961119 c -0.08009,-0.160186 -0.203313,-0.702356 -0.332695,-1.176754 -0.104737,-0.381984 -0.264924,-0.653068 -0.554492,-0.770128 v -0.01848 c 0.357339,-0.129381 0.733162,-0.492881 0.733162,-1.016568 0,-0.381983 -0.135543,-0.677712 -0.388145,-0.874865 -0.295729,-0.234119 -0.727,-0.326534 -1.343102,-0.326534 -0.505203,0 -0.948797,0.03697 -1.250687,0.08625 z m 0.930314,-3.450171 c 0.06777,-0.01848 0.197153,-0.03081 0.42511,-0.03081 0.431272,0 0.690035,0.197153 0.690035,0.572975 0,0.3635 -0.277246,0.597619 -0.745484,0.597619 h -0.369661 z"
         style="font-weight:bold;font-family:'Myriad Pro';-inkscape-font-specification:'Myriad Pro Bold';text-align:center;text-anchor:middle"
         id="path28" /><path
         d="m 30.487857,27.862823 v -1.731246 l 1.367747,-2.421281 h -1.053535 l -0.418949,0.998085 c -0.12322,0.295729 -0.221797,0.536009 -0.314212,0.794772 h -0.01232 c -0.09858,-0.271085 -0.190992,-0.492882 -0.320373,-0.794772 l -0.418949,-0.998085 h -1.078179 l 1.312297,2.452086 v 1.700441 z"
         style="font-weight:bold;font-family:'Myriad Pro';-inkscape-font-specification:'Myriad Pro Bold';text-align:center;text-anchor:middle"
         id="path30" /><path
         d="m 19.148496,28.797786 v 4.152527 h 0.936475 v -1.737408 h 1.546416 v 1.737408 h 0.936475 v -4.152527 h -0.936475 v 1.595704 h -1.546416 v -1.595704 z"
         style="font-weight:bold;font-family:'Myriad Pro';-inkscape-font-specification:'Myriad Pro Bold';text-align:center;text-anchor:middle"
         id="path32" /><path
         d="m 25.217095,28.723853 c -1.219881,0 -2.020814,0.930314 -2.020814,2.17484 0,1.189077 0.727,2.119391 1.953043,2.119391 1.219882,0 2.039298,-0.819416 2.039298,-2.187162 0,-1.152111 -0.696195,-2.107069 -1.971527,-2.107069 z m -0.01848,0.745484 c 0.646907,0 0.998086,0.640746 0.998086,1.39239 0,0.807094 -0.363501,1.410874 -0.998086,1.410874 -0.628424,0 -1.010407,-0.572975 -1.010407,-1.392391 0,-0.807093 0.369661,-1.410873 1.010407,-1.410873 z"
         style="font-weight:bold;font-family:'Myriad Pro';-inkscape-font-specification:'Myriad Pro Bold';text-align:center;text-anchor:middle"
         id="path34" /><path
         d="m 28.439316,32.950313 h 0.936475 v -3.363917 h 1.133628 v -0.78861 H 27.31801 v 0.78861 h 1.121306 z"
         style="font-weight:bold;font-family:'Myriad Pro';-inkscape-font-specification:'Myriad Pro Bold';text-align:center;text-anchor:middle"
         id="path36" /></g><path
       style="display:inline;fill:#ec1b23;fill-opacity:1;stroke:none;stroke-width:1.5875;stroke-linecap:round;stroke-linejoin:round;stroke-dasharray:none;stroke-opacity:1"
       d="m 21.729187,19.894583 -0.511433,-4.979325 a 0.45127482,0.45127482 132.06782 0 1 0.448913,-0.497384 h 4.636776 a 0.42616368,0.42616368 49.558137 0 1 0.420781,0.493685 l -0.800197,4.986723 a 0.42616368,0.42616368 49.558137 0 0 0.420781,0.493685 h 1.638766 a 0.27204406,0.27204406 61.449913 0 1 0.228414,0.41981 l -4.079683,6.306272 a 0.31329344,0.31329344 0.82910802 0 1 -0.53091,-0.0077 L 19.78524,20.819461 a 0.28149637,0.28149637 119.37919 0 1 0.240676,-0.427494 h 1.254358 a 0.45127482,0.45127482 132.06782 0 0 0.448913,-0.497384 z"
       id="path4"
       transform="matrix(1,0,0,-1,-0.1665397,37.435289)" /><g
       aria-label="熱"
       id="text4"
       style="font-weight:bold;font-size:9.525px;line-height:1;font-family:'Myriad Pro';-inkscape-font-specification:'Myriad Pro Bold';letter-spacing:0px;display:inline;fill:#ec1b23;stroke-width:1.5875;stroke-linecap:round;stroke-linejoin:round"><path
         d="m 22.375114,8.1585307 c 0.104775,0.5524499 0.161925,1.2668249 0.161925,1.7049749 l 1.133475,-0.1524 c -0.0095,-0.4191 -0.104775,-1.1239499 -0.2286,-1.6668749 z m 1.914525,-0.00953 c 0.200025,0.542925 0.390525,1.2572999 0.447675,1.6954499 l 1.143,-0.219075 c -0.06668,-0.43815 -0.28575,-1.1334749 -0.51435,-1.6573499 z m 1.905,-0.028575 c 0.409575,0.5715 0.89535,1.3525499 1.095375,1.8287999 l 1.1811,-0.371475 c -0.238125,-0.504825 -0.762,-1.2477749 -1.171575,-1.7811749 z m -5.476875,-0.295275 c -0.257175,0.638175 -0.695325,1.3049249 -1.114425,1.6763999 l 1.08585,0.43815 c 0.4572,-0.4572 0.885825,-1.16205 1.133475,-1.8287999 z M 21.374989,1.005256 v 0.5048249 h -1.27635 v 0.771525 h 1.27635 v 0.51435 h -1.6002 v 0.790575 h 1.20015 c -0.36195,0.2666999 -0.9906,0.6381749 -1.400175,0.8381999 l 0.466725,0.55245 c 0.447675,-0.180975 1.057275,-0.466725 1.552575,-0.78105 l -0.5715,-0.6095999 h 2.905125 v -0.790575 h -1.54305 v -0.51435 h 1.27635 v -0.771525 h -1.27635 V 1.005256 Z m 2.57175,3.6004498 c 0.238125,0.1524 0.504825,0.32385 0.762,0.504825 -0.1524,0.62865 -0.40005,1.1525249 -0.790575,1.5811499 v -0.3048 l -1.533525,0.13335 V 5.9296808 h 1.304925 v -0.809625 h -1.304925 v -0.523875 h -1.00965 v 0.523875 h -1.400175 v 0.809625 h 1.400175 v 0.6667499 l -1.6764,0.123825 0.0762,0.93345 c 1.114425,-0.1143 2.667,-0.2667 4.1529,-0.409575 v -0.01905 c 0.161925,0.161925 0.314325,0.352425 0.40005,0.4953 0.6096,-0.51435 0.9906,-1.16205 1.23825,-1.9526249 0.219075,0.180975 0.409575,0.36195 0.55245,0.5143499 l 0.466725,-0.9429749 c 0.1143,1.3715999 0.40005,2.2574249 1.114425,2.2574249 0.6096,0 0.78105,-0.485775 0.847725,-1.5906749 -0.1905,-0.1524 -0.43815,-0.4191 -0.6096,-0.66675 -0.0095,0.714375 -0.04763,1.2477749 -0.1524,1.2477749 -0.295275,0 -0.28575,-1.9907249 -0.2667,-4.3719748 h -1.514475 l 0.01905,-1.22872494 h -1.0287 l -0.0095,1.22872494 h -0.8382 v 1.00965 h 0.809625 c -0.01905,0.28575 -0.0381,0.5619749 -0.06668,0.8286749 l -0.485775,-0.28575 z m 2.009775,-1.3811249 h 0.561975 c 0,0.7524749 0.01905,1.4573249 0.06668,2.0669249 -0.1905,-0.1905 -0.466725,-0.409575 -0.771525,-0.62865 0.0762,-0.447675 0.1143,-0.923925 0.142875,-1.4382749 z m -3.781425,0.9334499 c 0.485775,0.219075 1.12395,0.561975 1.438275,0.790575 l 0.447675,-0.638175 c -0.32385,-0.219075 -0.97155,-0.5334 -1.4478,-0.7238999 z"
         style="font-family:'Noto Sans CJK HK';-inkscape-font-specification:'Noto Sans CJK HK Bold'"
         id="path39" /></g><g
       id="g4"
       style="display:inline"><path
         d="m 7.8390413,2.595389 c -2.3240334,0 -4.1948802,1.8964282 -4.1948802,4.2520552 V 21.38343 c 0,0.05574 0.00623,0.109852 0.00831,0.165058 -1.1876958,1.130125 -1.8619392,2.696374 -1.8664101,4.335622 -9e-7,3.318121 2.6904945,6.008001 6.0093735,6.008 3.3188785,1e-6 6.0093745,-2.689879 6.0093735,-6.008 -0.0013,-1.602595 -0.642948,-3.138264 -1.782304,-4.26555 0.0042,-0.07829 0.01142,-0.155732 0.01142,-0.23513 V 6.8474442 c 0,-2.355627 -1.870847,-4.2520552 -4.1948787,-4.2520552 z"
         style="display:inline;fill:none;stroke:#ffffff;stroke-width:1.5875;stroke-linecap:round;stroke-linejoin:round;stroke-dasharray:none"
         id="path2" /><path
         id="path3"
         style="fill:#ec1b23;stroke-width:1.58749;stroke-linecap:round;stroke-linejoin:round"
         d="m 11.440091,25.848097 a 3.614337,3.614337 0 0 1 -3.6143373,3.614337 3.614337,3.614337 0 0 1 -3.614337,-3.614337 3.614337,3.614337 0 0 1 3.614337,-3.614337 3.614337,3.614337 0 0 1 3.6143373,3.614337 z" /><path
         id="rect3"
         style="fill:#ec1b23;stroke-width:1.709;stroke-linecap:round;stroke-linejoin:round"
         d="m 6.1278319,4.940557 h 3.335059 v 19.013439 h -3.335059 z" /><path
         id="rect4"
         style="fill:#fdfdfd;stroke-width:1.5875;stroke-linecap:round;stroke-linejoin:round"
         d="m 12.49477,6.6810703 h 2.300807 c 0.513027,0 0.926042,0.3866708 0.926042,0.8669749 0,0.4803041 -0.413015,0.8669749 -0.926042,0.8669749 H 12.49477 c -0.513027,0 -0.926042,-0.3866708 -0.926042,-0.8669749 0,-0.4803041 0.413015,-0.8669749 0.926042,-0.8669749 z" /><path
         id="rect4-4"
         style="display:inline;fill:#fdfdfd;stroke-width:1.5875;stroke-linecap:round;stroke-linejoin:round"
         d="m 12.49477,11.857701 h 2.300807 c 0.513027,0 0.926042,0.386671 0.926042,0.866975 0,0.480304 -0.413015,0.866975 -0.926042,0.866975 H 12.49477 c -0.513027,0 -0.926042,-0.386671 -0.926042,-0.866975 0,-0.480304 0.413015,-0.866975 0.926042,-0.866975 z" /><path
         id="rect4-4-9"
         style="display:inline;fill:#fdfdfd;stroke-width:1.5875;stroke-linecap:round;stroke-linejoin:round"
         d="m 12.49477,17.072678 h 2.300807 c 0.513027,0 0.926042,0.38667 0.926042,0.866975 0,0.480304 -0.413015,0.866974 -0.926042,0.866974 H 12.49477 c -0.513027,0 -0.926042,-0.38667 -0.926042,-0.866974 0,-0.480305 0.413015,-0.866975 0.926042,-0.866975 z" /></g></g></svg>
