<?xml version="1.0" encoding="UTF-8" standalone="no"?>
<!-- Created with Inkscape (http://www.inkscape.org/) -->

<svg
   width="120"
   height="130"
   viewBox="0 0 31.75 34.395834"
   version="1.1"
   id="svg5"
   xml:space="preserve"
   xmlns="http://www.w3.org/2000/svg"
   xmlns:svg="http://www.w3.org/2000/svg"><defs
     id="defs2" /><g
     id="layer1"
     style="display:inline"><path
       id="rect3330"
       style="display:inline;fill:#002a53;stroke-width:2.5109;stroke-linecap:square;stroke-miterlimit:2;stop-color:#000000"
       d="M 3.0769232e-7,0 H 31.75 V 34.395832 H 3.0769232e-7 Z" /></g><g
     id="layer2"><g
       id="layer4"><g
         aria-label="MONSOONS"
         transform="scale(0.9410137,1.0626838)"
         id="text2"
         style="font-weight:bold;font-size:5.35656px;line-height:0.8;font-family:'Noto Sans CJK JP';-inkscape-font-specification:'Noto Sans CJK JP Bold';text-align:center;letter-spacing:0.129783px;text-anchor:middle;fill:#ffffff;stroke-width:1.65365"><path
           d="M 5.2313511,30.661499 H 6.024122 L 5.8312858,27.051177 H 4.7599738 L 4.379658,28.251047 C 4.2564571,28.652789 4.1332562,29.129523 4.0368381,29.547334 H 4.0154119 C 3.9350635,29.124166 3.8279323,28.674215 3.710088,28.256403 L 3.356555,27.051177 H 2.2691733 l -0.2303321,3.610322 h 0.755275 l 0.069635,-1.371279 c 0.021426,-0.449951 0.042852,-1.007034 0.058922,-1.494481 h 0.010713 c 0.091062,0.471378 0.2089059,0.985607 0.3267502,1.414132 l 0.3856724,1.392706 h 0.6374306 l 0.439238,-1.408775 c 0.1392705,-0.423169 0.2892542,-0.937399 0.4070985,-1.398063 h 0.010713 c 0,0.524943 0.01607,1.049886 0.032139,1.483767 z"
           style="font-family:'Myriad Pro';-inkscape-font-specification:'Myriad Pro Bold'"
           id="path21" /><path
           d="m 8.3715245,26.986899 c -1.0605989,0 -1.7569517,0.80884 -1.7569517,1.890865 0,1.033817 0.6320741,1.842657 1.6980296,1.842657 1.0605989,0 1.7730216,-0.712422 1.7730216,-1.901579 0,-1.001676 -0.6052915,-1.831943 -1.7140995,-1.831943 z m -0.01607,0.648143 c 0.5624388,0 0.8677627,0.557083 0.8677627,1.210583 0,0.701709 -0.316037,1.226652 -0.8677627,1.226652 -0.5463692,0 -0.8784759,-0.49816 -0.8784759,-1.210582 0,-0.70171 0.3213936,-1.226653 0.8784759,-1.226653 z"
           style="font-family:'Myriad Pro';-inkscape-font-specification:'Myriad Pro Bold'"
           id="path23" /><path
           d="m 11.500986,30.661499 v -1.087382 c 0,-0.589221 -0.01071,-1.098095 -0.0375,-1.580185 h 0.02143 c 0.17141,0.423168 0.412455,0.889189 0.626718,1.274861 l 0.771344,1.392706 h 0.85705 V 27.051177 H 12.99011 v 1.049886 c 0,0.546369 0.01607,1.033816 0.06428,1.51055 h -0.01071 c -0.166053,-0.407098 -0.374959,-0.857049 -0.589221,-1.237365 l -0.749919,-1.323071 h -0.953468 v 3.610322 z"
           style="font-family:'Myriad Pro';-inkscape-font-specification:'Myriad Pro Bold'"
           id="path25" /><path
           d="m 14.43761,30.490089 c 0.20355,0.112488 0.610648,0.224976 1.023103,0.224976 0.990964,0 1.451628,-0.51423 1.451628,-1.119521 0,-0.508874 -0.294611,-0.84098 -0.932041,-1.076669 -0.471378,-0.176767 -0.66957,-0.278541 -0.66957,-0.508873 0,-0.182123 0.171409,-0.348177 0.524942,-0.348177 0.348177,0 0.610648,0.101775 0.749919,0.17141 l 0.182123,-0.6535 c -0.214262,-0.101775 -0.508873,-0.182123 -0.921328,-0.182123 -0.846337,0 -1.365923,0.466021 -1.365923,1.082025 0,0.524943 0.396385,0.85705 0.99632,1.071312 0.433881,0.149984 0.605291,0.278541 0.605291,0.503517 0,0.235688 -0.198193,0.391029 -0.573152,0.391029 -0.348176,0 -0.690996,-0.112488 -0.905258,-0.224976 z"
           style="font-family:'Myriad Pro';-inkscape-font-specification:'Myriad Pro Bold'"
           id="path27" /><path
           d="m 19.190109,26.986899 c -1.060598,0 -1.756951,0.80884 -1.756951,1.890865 0,1.033817 0.632074,1.842657 1.698029,1.842657 1.060599,0 1.773022,-0.712422 1.773022,-1.901579 0,-1.001676 -0.605292,-1.831943 -1.7141,-1.831943 z m -0.01607,0.648143 c 0.562439,0 0.867763,0.557083 0.867763,1.210583 0,0.701709 -0.316038,1.226652 -0.867763,1.226652 -0.546369,0 -0.878476,-0.49816 -0.878476,-1.210582 0,-0.70171 0.321394,-1.226653 0.878476,-1.226653 z"
           style="font-family:'Myriad Pro';-inkscape-font-specification:'Myriad Pro Bold'"
           id="path29" /><path
           d="m 23.16055,26.986899 c -1.060599,0 -1.756951,0.80884 -1.756951,1.890865 0,1.033817 0.632074,1.842657 1.698029,1.842657 1.060599,0 1.773022,-0.712422 1.773022,-1.901579 0,-1.001676 -0.605292,-1.831943 -1.7141,-1.831943 z m -0.01607,0.648143 c 0.562438,0 0.867762,0.557083 0.867762,1.210583 0,0.701709 -0.316037,1.226652 -0.867762,1.226652 -0.54637,0 -0.878476,-0.49816 -0.878476,-1.210582 0,-0.70171 0.321393,-1.226653 0.878476,-1.226653 z"
           style="font-family:'Myriad Pro';-inkscape-font-specification:'Myriad Pro Bold'"
           id="path31" /><path
           d="m 26.290012,30.661499 v -1.087382 c 0,-0.589221 -0.01071,-1.098095 -0.0375,-1.580185 h 0.02143 c 0.17141,0.423168 0.412456,0.889189 0.626718,1.274861 l 0.771345,1.392706 h 0.857049 v -3.610322 h -0.749918 v 1.049886 c 0,0.546369 0.01607,1.033816 0.06428,1.51055 h -0.01071 c -0.166054,-0.407098 -0.37496,-0.857049 -0.589222,-1.237365 l -0.749919,-1.323071 h -0.953467 v 3.610322 z"
           style="font-family:'Myriad Pro';-inkscape-font-specification:'Myriad Pro Bold'"
           id="path33" /><path
           d="m 29.226636,30.490089 c 0.20355,0.112488 0.610648,0.224976 1.023103,0.224976 0.990964,0 1.451628,-0.51423 1.451628,-1.119521 0,-0.508874 -0.294611,-0.84098 -0.932041,-1.076669 -0.471377,-0.176767 -0.66957,-0.278541 -0.66957,-0.508873 0,-0.182123 0.17141,-0.348177 0.524943,-0.348177 0.348176,0 0.610648,0.101775 0.749918,0.17141 l 0.182123,-0.6535 c -0.214262,-0.101775 -0.508873,-0.182123 -0.921328,-0.182123 -0.846337,0 -1.365923,0.466021 -1.365923,1.082025 0,0.524943 0.396385,0.85705 0.99632,1.071312 0.433882,0.149984 0.605291,0.278541 0.605291,0.503517 0,0.235688 -0.198192,0.391029 -0.573151,0.391029 -0.348177,0 -0.690997,-0.112488 -0.905259,-0.224976 z"
           style="font-family:'Myriad Pro';-inkscape-font-specification:'Myriad Pro Bold'"
           id="path35" /></g></g><g
       id="g1"><path
         style="color:#000000;fill:#ffffff;stroke-width:1.00013;stroke-linecap:round;stroke-dasharray:none"
         d="m 19.63118,12.361078 c -0.548007,0.0096 -0.984404,0.461761 -0.974609,1.009765 0.0096,0.548007 0.461761,0.984404 1.009765,0.97461 0.575879,-0.01017 1.025922,0.427609 1.041016,1.001953 -0.0059,0.673233 -0.528188,1.197266 -1.203125,1.197266 H 5.5903158 v 1.984374 H 19.504227 c 1.751243,0 3.191445,-1.440163 3.191406,-3.191406 v -0.0098 -0.0078 c -0.02927,-1.651272 -1.413156,-2.988117 -3.064453,-2.958962 z"
         id="path1" /><path
         style="color:#000000;fill:#ffffff;stroke-width:1.00013;stroke-linecap:round;stroke-dasharray:none"
         d="m 25.037882,14.362711 c -0.548007,0.0096 -0.984404,0.461762 -0.974609,1.009766 0.0096,0.548007 0.461761,0.984404 1.009765,0.97461 0.575879,-0.01017 1.025922,0.427609 1.041016,1.001953 -0.0059,0.673233 -0.528188,1.197266 -1.203125,1.197266 h -2.38728 v 1.984374 h 2.38728 c 1.751243,0 3.191445,-1.440163 3.191406,-3.191406 v -0.0098 -0.0078 c -0.02927,-1.651272 -1.413156,-2.988118 -3.064453,-2.958963 z"
         id="path1-5" /><path
         style="color:#000000;fill:#ffffff;stroke-width:1.00013;stroke-linecap:round;stroke-dasharray:none"
         d="m 19.63118,26.765175 c -0.548007,-0.0096 -0.984404,-0.461761 -0.974609,-1.009765 0.0096,-0.548007 0.461761,-0.984404 1.009765,-0.97461 0.575879,0.01017 1.025922,-0.427609 1.041016,-1.001953 -0.0059,-0.673233 -0.528188,-1.197266 -1.203125,-1.197266 H 3.4736491 V 20.597206 H 19.504227 c 1.751243,0 3.191445,1.440164 3.191406,3.191407 v 0.0098 0.0078 c -0.02927,1.651272 -1.413156,2.988118 -3.064453,2.958962 z"
         id="path1-3" /></g><g
       id="layer3"><g
         aria-label="季候風"
         transform="scale(1.0274645,0.97326964)"
         id="text1"
         style="font-weight:bold;font-size:8.49786px;line-height:0.8;font-family:'Noto Sans CJK JP';-inkscape-font-specification:'Noto Sans CJK JP Bold';text-align:center;letter-spacing:0px;text-anchor:middle;display:inline;fill:#002a53;stroke-width:1.65365"><path
           d="M 9.0602645,2.3043761 C 7.8110791,2.5933033 5.576142,2.7547627 3.6556256,2.797252 3.7491021,3.0012006 3.8595743,3.3751064 3.8850678,3.6045487 4.6838667,3.5875529 5.5421505,3.5535615 6.3834387,3.4940765 V 4.0209438 H 3.145754 V 4.8622319 H 5.4061848 C 4.7178581,5.406095 3.7660978,5.8819751 2.8653246,6.1454088 3.0692733,6.3408596 3.3497027,6.6977697 3.4941663,6.918714 3.8680721,6.7827483 4.2504758,6.6127911 4.6243816,6.4088424 V 7.0461819 H 7.3097054 C 7.1567439,7.1481563 6.9952846,7.2416327 6.8423231,7.3266113 H 6.4089322 V 7.7430065 H 3.1202604 v 0.8582838 h 3.2886718 v 0.6628331 c 0,0.1104722 -0.050987,0.1444636 -0.2124465,0.1444636 -0.1529614,0.016996 -0.7733052,0.016996 -1.2831768,-0.0085 0.1444636,0.246438 0.3059229,0.6203439 0.3569101,0.8837779 0.7223181,0 1.2491854,0 1.6315891,-0.135966 C 7.2927097,10.020433 7.4116797,9.7824928 7.4116797,9.2981148 V 8.6012903 H 10.700352 V 7.7430065 H 7.6241262 C 8.1679893,7.4455814 8.7203501,7.0716755 9.153741,6.7232633 L 8.5503929,6.2048938 8.3464443,6.255881 H 4.8963132 C 5.4401762,5.9329623 5.9585457,5.5335629 6.3834387,5.1086699 V 6.0519323 H 7.3861861 V 5.0661806 C 8.1509935,5.8479837 9.2302217,6.5108168 10.283956,6.859229 10.42842,6.6212889 10.708849,6.2473831 10.921296,6.0604302 10.020523,5.8224901 9.0687624,5.3806014 8.3889336,4.8622319 H 10.691854 V 4.0209438 H 7.3861861 V 3.4090979 C 8.2954571,3.3156214 9.1622389,3.1881535 9.8930548,3.0181963 Z"
           style="fill:#ffffff"
           id="path38" /><path
           d="m 13.6831,3.3326171 v 5.583094 h 0.883778 v -5.583094 z m 1.079229,0.8922753 v 0.849786 h 0.798798 c -0.203948,0.6118459 -0.543863,1.2236919 -0.934764,1.6230913 0.220944,0.11897 0.611846,0.365408 0.790301,0.5183694 0.178455,-0.2039486 0.35691,-0.4503865 0.518369,-0.7308159 h 0.603348 v 0.7478117 h -1.759057 v 0.8497859 h 1.640087 c -0.195451,0.5353652 -0.705322,1.096224 -1.954508,1.4956234 0.229443,0.1784551 0.51837,0.5098718 0.654336,0.7223178 1.019743,-0.3993991 1.623091,-0.9007729 1.971503,-1.436138 0.331417,0.5693566 0.892275,1.1302153 1.903521,1.436138 0.110472,-0.254936 0.365408,-0.6373392 0.577854,-0.8242921 C 18.356923,9.1621491 17.872545,8.6012903 17.660099,8.0829208 h 1.78455 V 7.2331349 H 17.532631 V 6.4853232 h 1.66558 V 5.6525329 h -2.85528 c 0.06798,-0.1699572 0.135965,-0.3399144 0.186952,-0.5098716 l -0.280429,-0.067983 h 3.05923 V 4.2248924 H 18.467396 V 2.6612862 h -3.220689 v 0.8327903 h 2.285924 v 0.7308159 z m -1.82704,-1.8950227 c -0.373906,1.2406875 -1.011246,2.4898729 -1.699572,3.2886718 0.161459,0.2719315 0.416395,0.849786 0.492876,1.1047218 0.186952,-0.2209444 0.365408,-0.4673823 0.543863,-0.730816 v 4.2829217 h 0.968756 V 4.2163946 c 0.23794,-0.5353652 0.458884,-1.0792282 0.628841,-1.6145934 z"
           style="fill:#ffffff"
           id="path40" /><path
           d="m 20.804307,2.6442905 v 2.9657531 c 0,1.2916747 -0.07648,2.9912467 -0.943262,4.1469557 0.229442,0.1019743 0.654335,0.3824037 0.824292,0.5523607 0.943262,-1.2576831 1.087726,-3.2801738 1.087726,-4.6993164 V 3.5875529 h 4.180947 c 0,3.645582 0.017,6.6963141 1.266181,6.6963141 0.526868,0 0.722318,-0.4758806 0.815795,-1.5041216 -0.178455,-0.186953 -0.407897,-0.5183695 -0.569357,-0.8072967 -0.0085,0.6883266 -0.06798,1.2066961 -0.144463,1.2066961 -0.407898,0 -0.407898,-3.1781996 -0.356911,-6.5348543 z m 2.030989,3.4756247 h 0.543863 v 0.9262667 h -0.543863 z m 1.42764,0 h 0.560859 v 0.9262667 h -0.560859 z m 0.348412,1.9545078 c 0.09348,0.1699572 0.178455,0.3484122 0.263434,0.5353652 l -0.611846,0.042489 V 7.8194872 h 1.385151 V 5.3381121 H 24.262936 V 4.734764 c 0.569357,-0.076481 1.121718,-0.1699572 1.5891,-0.2889272 l -0.671331,-0.730816 c -0.807297,0.2209444 -2.149959,0.365408 -3.322663,0.4333909 0.09348,0.1954508 0.212446,0.543863 0.246438,0.7563095 0.407897,-0.016996 0.841288,-0.042489 1.274679,-0.076481 v 0.5098716 h -1.325667 v 2.4813751 h 1.325667 v 0.8922753 l -1.70807,0.093476 0.06798,0.9092711 3.458629,-0.2804294 c 0.06798,0.2124465 0.11897,0.4078973 0.152961,0.5778544 l 0.83279,-0.2804293 C 26.081478,9.2131362 25.733066,8.4228352 25.384654,7.8364829 Z"
           style="fill:#ffffff"
           id="path42" /></g></g></g></svg>
