<?xml version="1.0" encoding="UTF-8" standalone="no"?>
<!-- Created with Inkscape (http://www.inkscape.org/) -->

<svg
   width="368.63275"
   height="368.63275"
   viewBox="0 0 97.534088 97.534082"
   version="1.1"
   id="svg1"
   xml:space="preserve"
   xmlns="http://www.w3.org/2000/svg"
   xmlns:svg="http://www.w3.org/2000/svg"><defs
     id="defs1" /><g
     id="layer1"
     transform="translate(-1.6148911,-3.9300995)"><path
       id="path2"
       style="fill:#1b756e;stroke-width:1.18713"
       d="M 99.148979,52.697144 A 48.767044,48.767044 0 0 1 50.381935,101.46419 48.767044,48.767044 0 0 1 1.6148911,52.697144 48.767044,48.767044 0 0 1 50.381935,3.9300995 48.767044,48.767044 0 0 1 99.148979,52.697144 Z" /><path
       style="font-size:92.1885px;line-height:1;font-family:'Myriad Pro';-inkscape-font-specification:'Myriad Pro';text-align:center;letter-spacing:0px;text-anchor:middle;fill:#ffffff;stroke:#ffffff;stroke-width:1.1"
       d="M 61.679921,83.183784 V 66.774232 h 8.389153 V 60.505414 H 61.679921 V 23.26126 H 52.922013 L 26.187348,61.519487 v 5.254745 H 54.028275 V 83.183784 Z M 34.392125,60.505414 V 60.321037 L 49.050096,39.947378 c 1.659393,-2.765655 3.134409,-5.346933 4.978179,-8.850096 h 0.276566 c -0.184377,3.134409 -0.276566,6.268818 -0.276566,9.403227 v 20.004905 z"
       id="text1"
       aria-label="4" /></g></svg>
