<?xml version="1.0" encoding="UTF-8" standalone="no"?>
<!-- Created with Inkscape (http://www.inkscape.org/) -->

<svg
   width="368.63275"
   height="368.63275"
   viewBox="0 0 97.534088 97.534082"
   version="1.1"
   id="svg1"
   xml:space="preserve"
   xmlns="http://www.w3.org/2000/svg"
   xmlns:svg="http://www.w3.org/2000/svg"><defs
     id="defs1" /><g
     id="layer1"
     transform="translate(-1.6148911,-3.9300995)"><path
       id="path2"
       style="fill:#5db5e3;stroke-width:1.18713"
       d="M 99.148979,52.697144 A 48.767044,48.767044 0 0 1 50.381935,101.46419 48.767044,48.767044 0 0 1 1.6148911,52.697144 48.767044,48.767044 0 0 1 50.381935,3.9300995 48.767044,48.767044 0 0 1 99.148979,52.697144 Z" /><path
       style="font-size:92.1885px;line-height:1;font-family:'Myriad Pro';-inkscape-font-specification:'Myriad Pro';text-align:center;letter-spacing:0px;text-anchor:middle;fill:#ffffff;stroke:#ffffff;stroke-width:1.1"
       d="m 41.641114,51.931883 c -7.37508,3.134409 -11.892316,8.573531 -11.892316,16.132988 0,8.757907 7.559457,16.132987 20.097092,16.132987 11.431374,0 20.373659,-6.914137 20.373659,-17.423626 0,-7.190703 -4.609425,-12.537636 -12.076694,-15.487668 v -0.276566 c 7.37508,-3.410974 9.956358,-8.942284 9.956358,-14.012652 0,-7.559457 -5.900064,-14.75016 -17.515815,-14.75016 -10.601677,0 -18.622076,6.453195 -18.622076,15.948611 0,5.162556 2.857843,10.325112 9.587604,13.459521 z m 8.389153,26.365911 c -7.651645,0 -12.26107,-5.346933 -11.984504,-11.339185 0,-5.715687 3.779728,-10.417301 10.786054,-12.445448 8.112588,2.304713 13.182955,5.900064 13.182955,13.090767 0,6.17663 -4.701613,10.693866 -11.984505,10.693866 z m 0.09219,-50.242732 c 7.282891,0 10.140735,4.978179 10.140735,9.771981 0,5.439121 -3.964106,9.126661 -9.126662,10.878243 -6.914137,-1.84377 -11.523562,-5.070368 -11.431373,-11.06262 0,-5.162556 3.687539,-9.587604 10.4173,-9.587604 z"
       id="text1"
       aria-label="8" /></g></svg>
