<?xml version="1.0" encoding="UTF-8" standalone="no"?>
<!-- Created with Inkscape (http://www.inkscape.org/) -->

<svg
   width="368.63275"
   height="368.63275"
   viewBox="0 0 97.534088 97.534082"
   version="1.1"
   id="svg1"
   xml:space="preserve"
   xmlns="http://www.w3.org/2000/svg"
   xmlns:svg="http://www.w3.org/2000/svg"><defs
     id="defs1" /><g
     id="layer1"
     transform="translate(-1.6148911,-3.9300995)"><path
       id="path2"
       style="fill:#c59900;stroke-width:1.18713"
       d="M 99.148979,52.697144 A 48.767044,48.767044 0 0 1 50.381935,101.46419 48.767044,48.767044 0 0 1 1.6148911,52.697144 48.767044,48.767044 0 0 1 50.381935,3.9300995 48.767044,48.767044 0 0 1 99.148979,52.697144 Z" /><path
       style="font-size:92.1885px;line-height:1;font-family:'Myriad Pro';-inkscape-font-specification:'Myriad Pro';text-align:center;letter-spacing:0px;text-anchor:middle;fill:#ffffff;stroke:#ffffff;stroke-width:1.1"
       d="m 32.010937,80.141564 c 2.950032,1.935958 8.850096,4.056294 15.579857,4.056294 14.289217,0 21.848674,-8.389153 21.848674,-17.976757 C 69.347279,57.831947 63.447215,52.300637 56.072135,50.91781 v -0.184377 c 7.282892,-2.673467 11.06262,-7.928211 11.06262,-14.197029 0,-7.282892 -5.346933,-14.289218 -17.14706,-14.289218 -6.453195,0 -12.537636,2.304713 -15.764234,4.609425 l 2.212524,5.900064 c 2.581278,-1.84377 7.190703,-3.964105 11.984505,-3.964105 7.467268,0 10.509489,4.240671 10.509489,9.034473 0,7.098514 -7.467268,10.140735 -13.367332,10.140735 H 41.04541 v 6.084441 h 4.517237 c 7.836022,0 15.395479,3.595351 15.487667,11.984505 0.09219,5.070367 -3.226597,11.615751 -13.551709,11.615751 -5.715687,0 -10.970431,-2.304713 -13.275144,-3.68754 z"
       id="text1"
       aria-label="3" /></g></svg>
