<?xml version="1.0" encoding="UTF-8" standalone="no"?>
<!-- Created with Inkscape (http://www.inkscape.org/) -->

<svg
   width="368.63275"
   height="368.63275"
   viewBox="0 0 97.534088 97.534082"
   version="1.1"
   id="svg1"
   xml:space="preserve"
   xmlns="http://www.w3.org/2000/svg"
   xmlns:svg="http://www.w3.org/2000/svg"><defs
     id="defs1" /><g
     id="layer1"
     transform="translate(-1.6148911,-3.9300995)"><path
       id="path2"
       style="fill:#b4bd00;stroke-width:1.18713"
       d="M 99.148979,52.697144 A 48.767044,48.767044 0 0 1 50.381935,101.46419 48.767044,48.767044 0 0 1 1.6148911,52.697144 48.767044,48.767044 0 0 1 50.381935,3.9300995 48.767044,48.767044 0 0 1 99.148979,52.697144 Z" /><path
       style="font-size:92.1885px;line-height:1;font-family:'Myriad Pro';-inkscape-font-specification:'Myriad Pro';text-align:center;letter-spacing:0px;text-anchor:middle;fill:#ffffff;stroke:#ffffff;stroke-width:1.1"
       d="M 67.619991,23.26126 H 38.949368 l -3.871917,28.762812 c 2.212524,-0.276566 4.88599,-0.553131 8.389153,-0.553131 11.892317,0 17.147061,5.439121 17.147061,13.182955 0.09219,8.0204 -6.545383,12.998579 -14.10484,12.998579 -5.53131,0 -10.417301,-1.84377 -12.90639,-3.318786 l -2.028147,6.176629 c 2.950032,1.84377 8.389153,3.68754 14.934537,3.68754 12.998578,0 22.309617,-8.757907 22.309617,-20.465847 0,-7.467268 -3.871917,-12.722013 -8.573531,-15.303291 -3.68754,-2.304712 -8.204776,-3.226597 -12.90639,-3.226597 -2.212524,0 -3.503163,0.09219 -4.88599,0.276565 l 2.304712,-15.395479 h 22.862748 z"
       id="text1"
       aria-label="5" /></g></svg>
