<?xml version="1.0" encoding="UTF-8" standalone="no"?>
<!-- Created with Inkscape (http://www.inkscape.org/) -->

<svg
   width="368.63275"
   height="368.63275"
   viewBox="0 0 97.534088 97.534082"
   version="1.1"
   id="svg1"
   xml:space="preserve"
   xmlns="http://www.w3.org/2000/svg"
   xmlns:svg="http://www.w3.org/2000/svg"><defs
     id="defs1" /><g
     id="layer1"
     transform="translate(-1.6148911,-3.9300995)"><path
       id="path2"
       style="fill:#b4bd00;stroke-width:1.18713"
       d="M 99.148979,52.697144 A 48.767044,48.767044 0 0 1 50.381935,101.46419 48.767044,48.767044 0 0 1 1.6148911,52.697144 48.767044,48.767044 0 0 1 50.381935,3.9300995 48.767044,48.767044 0 0 1 99.148979,52.697144 Z" /><path
       style="font-size:92.1885px;line-height:1;font-family:'Myriad Pro';-inkscape-font-specification:'Myriad Pro';text-align:center;letter-spacing:0px;text-anchor:middle;fill:#ffffff;stroke:#ffffff;stroke-width:1.1"
       d="m 64.225398,22.339375 c -1.475016,0 -3.503163,0.09219 -5.900064,0.460942 -7.559457,0.921885 -14.197029,3.964106 -19.175208,8.850096 -5.992252,5.900064 -10.140735,15.211103 -10.140735,27.011231 0,15.579856 8.389153,25.536214 21.111166,25.536214 12.537636,0 20.004905,-10.140735 20.004905,-21.203355 0,-11.615751 -7.467269,-19.359585 -18.068946,-19.359585 -6.637572,0 -11.70794,3.134409 -14.565783,7.006326 h -0.184377 c 1.382827,-9.956358 8.020399,-19.175208 20.834601,-21.203355 2.304712,-0.368754 4.425048,-0.553131 6.084441,-0.460942 z M 50.304934,77.92904 c -8.57353,0 -13.182955,-7.37508 -13.275144,-17.239249 0,-1.475016 0.368754,-2.581278 0.829697,-3.503163 2.212524,-4.425048 6.821949,-7.37508 11.707939,-7.37508 7.467269,0 12.353259,5.162556 12.353259,13.736086 0,8.573531 -4.701613,14.381406 -11.615751,14.381406 z"
       id="text1"
       aria-label="6" /></g></svg>
