<?xml version="1.0" encoding="UTF-8" standalone="no"?>
<!-- Created with Inkscape (http://www.inkscape.org/) -->

<svg
   width="368.63275"
   height="368.63275"
   viewBox="0 0 97.534088 97.534082"
   version="1.1"
   id="svg1"
   xml:space="preserve"
   xmlns="http://www.w3.org/2000/svg"
   xmlns:svg="http://www.w3.org/2000/svg"><defs
     id="defs1" /><g
     id="layer1"
     transform="translate(-1.6148911,-3.9300995)"><path
       id="path2"
       style="fill:#ff0000;stroke-width:1.18713"
       d="M 99.148979,52.697144 A 48.767044,48.767044 0 0 1 50.381935,101.46419 48.767044,48.767044 0 0 1 1.6148911,52.697144 48.767044,48.767044 0 0 1 50.381935,3.9300995 48.767044,48.767044 0 0 1 99.148979,52.697144 Z" /><path
       style="font-size:92.1885px;line-height:1;font-family:'Myriad Pro';-inkscape-font-specification:'Myriad Pro';text-align:center;letter-spacing:0px;text-anchor:middle;fill:#ffffff;stroke:#ffffff;stroke-width:1.1"
       d="m 70.54573,83.183784 v -6.72976 H 43.718877 V 76.269647 L 48.42049,71.844599 C 61.050314,59.675717 69.070714,50.733433 69.070714,39.670813 c 0,-8.573531 -5.439122,-17.423627 -18.345511,-17.423627 -6.821949,0 -12.814202,2.673467 -16.870496,6.084441 l 2.581278,5.715687 c 2.765655,-2.304712 7.282892,-5.070367 12.722013,-5.070367 8.942284,0 11.800128,5.623498 11.800128,11.707939 0,9.034473 -7.006326,16.778307 -22.309617,31.34409 l -6.361006,6.17663 v 4.978178 z"
       id="text1"
       aria-label="2" /></g></svg>
