<?xml version="1.0" encoding="UTF-8" standalone="no"?>
<!-- Created with Inkscape (http://www.inkscape.org/) -->

<svg
   width="120"
   height="130"
   viewBox="0 0 31.75 34.395834"
   version="1.1"
   id="svg5"
   xml:space="preserve"
   xmlns="http://www.w3.org/2000/svg"
   xmlns:svg="http://www.w3.org/2000/svg"><defs
     id="defs2"><filter
       id="mask-powermask-path-effect5332_inverse"
       style="color-interpolation-filters:sRGB"
       height="100"
       width="100"
       x="-50"
       y="-50"><feColorMatrix
         id="mask-powermask-path-effect5332_primitive1"
         values="1"
         type="saturate"
         result="fbSourceGraphic" /><feColorMatrix
         id="mask-powermask-path-effect5332_primitive2"
         values="-1 0 0 0 1 0 -1 0 0 1 0 0 -1 0 1 0 0 0 1 0 "
         in="fbSourceGraphic" /></filter><clipPath
       clipPathUnits="userSpaceOnUse"
       id="clipPath1"><path
         id="lpe_path-effect3"
         style="display:inline;opacity:1;fill:#002a53;fill-opacity:1;stroke:none;stroke-width:1.71979;stroke-linecap:round;stroke-dasharray:none;stroke-opacity:1"
         class="powerclip"
         d="M 7.138323,2.2623845 H 35.985794 V 23.394321 H 7.138323 Z m 5.537458,8.0032405 c -3.121436,0.23028 -6.2068801,1.994129 -7.6425778,4.832031 -4.46723661,0.691105 -7.7109228,5.533967 -6.7207855,9.933013 0.6200946,3.531568 3.7243934,6.714405 7.4224372,6.753746 3.446874,0.184475 6.9003971,0.01066 10.3498971,0.10129 4.06597,-0.01042 8.145962,0.14582 12.201995,-0.139282 3.739899,-0.826688 5.968635,-5.47353 4.261059,-8.908185 -0.532325,-1.456423 -1.67468,-2.650611 -2.936478,-3.463238 -0.621411,-3.536991 -4.014841,-5.983978 -7.425781,-6.455078 -0.737552,-0.13369 -1.552162,-6.88e-4 -2.248099,-0.236605 -1.990245,-1.694426 -4.645177,-2.622427 -7.261667,-2.417692 z" /></clipPath><clipPath
       clipPathUnits="userSpaceOnUse"
       id="clipPath2"><path
         id="lpe_path-effect4"
         style="display:inline;opacity:1;fill:#002a53;fill-opacity:1;stroke:none;stroke-width:1.71979;stroke-linecap:round;stroke-dasharray:none;stroke-opacity:1"
         class="powerclip"
         d="M -3.5689663,-2.2631888 H 35.563958 V 36.749235 H -3.5689663 Z M 21.886919,14.710437 c -4.942327,-0.543271 -10.272066,1.319319 -13.3355883,5.336828 -7.1777872,-0.212772 -13.6454,6.413487 -13.3713548,13.571264 -0.05302,5.695722 3.87518967,11.565355 9.640187,12.696578 5.3306831,1.285266 10.7753981,2.012806 16.1373321,3.15224 6.354097,1.159923 12.681883,2.58424 19.099918,3.31224 6.0809,-0.209414 10.906447,-6.823094 9.232777,-12.682025 -0.410183,-2.428937 -1.849095,-4.62473 -3.584958,-6.259074 0.05253,-5.704575 -4.54017,-10.508444 -9.731809,-12.231025 -1.113389,-0.422184 -2.424292,-0.450084 -3.443106,-1.01991 -2.618616,-3.222448 -6.497191,-5.440014 -10.643398,-5.877116 z" /></clipPath></defs><g
     id="layer1"
     style="display:inline" /><g
     id="layer3"
     style="display:inline"><g
       id="layer2-3"
       style="display:inline;fill:#f5b630;fill-opacity:1"
       transform="matrix(0.61897155,-0.11463212,0.11463212,0.61897155,-2.5578877,3.6692266)"
       clip-path="url(#clipPath2)"><path
         id="path2446-3"
         transform="matrix(1.5322979,0.28377809,-0.28377809,1.5322979,3.9780491,-1.4105278)"
         d="M 13.472324,10.430119 A 3.7568147,3.7568147 0 0 1 9.7155094,14.186933 3.7568147,3.7568147 0 0 1 5.9586947,10.430119 3.7568147,3.7568147 0 0 1 9.7155094,6.6733038 3.7568147,3.7568147 0 0 1 13.472324,10.430119 Z"
         style="fill:none;fill-opacity:1;stroke:#f5b630;stroke-width:1.68795;stroke-linecap:square;stroke-miterlimit:2;stroke-dasharray:none;stroke-opacity:1;stop-color:#000000" /><path
         id="rect3886-6"
         transform="matrix(1.5570733,0.06316372,-0.06316372,1.5570733,3.9780491,-1.4105278)"
         d="m 7.7559357,2.3495715 c 0.4354077,0 0.7859345,0.3595044 0.7859345,0.8060636 v 2.6151076 c 0,0.4465592 -0.3505268,0.8060636 -0.7859345,0.8060636 -0.4354077,0 -0.7859345,-0.3595044 -0.7859345,-0.8060636 V 3.1556351 c 0,-0.4465592 0.3505268,-0.8060636 0.7859345,-0.8060636 z"
         style="fill:#f5b630;fill-opacity:1;stroke:none;stroke-width:1.85208;stroke-linecap:square;stroke-miterlimit:2;stroke-dasharray:none;stroke-opacity:1;stop-color:#000000" /><path
         id="rect3886-35-7"
         transform="rotate(25.443401)"
         d="m 22.642292,-5.9744473 c 0.67852,0 1.224764,0.5602351 1.224764,1.2561325 v 4.07526282 c 0,0.69589739 -0.546244,1.25613248 -1.224764,1.25613248 -0.678519,0 -1.224764,-0.56023509 -1.224764,-1.25613248 V -4.7183148 c 0,-0.6958974 0.546245,-1.2561325 1.224764,-1.2561325 z"
         style="display:inline;fill:#f5b630;fill-opacity:1;stroke:none;stroke-width:2.8862;stroke-linecap:square;stroke-miterlimit:2;stroke-dasharray:none;stroke-opacity:1;stop-color:#000000" /><path
         id="rect3886-35-6-5"
         transform="rotate(61.907377)"
         d="m 22.540154,-20.76893 c 0.678519,0 1.224764,0.560235 1.224764,1.256132 v 4.075263 c 0,0.695897 -0.546245,1.256132 -1.224764,1.256132 -0.67852,0 -1.224764,-0.560235 -1.224764,-1.256132 v -4.075263 c 0,-0.695897 0.546244,-1.256132 1.224764,-1.256132 z"
         style="display:inline;fill:#f5b630;fill-opacity:1;stroke:none;stroke-width:2.8862;stroke-linecap:square;stroke-miterlimit:2;stroke-dasharray:none;stroke-opacity:1;stop-color:#000000" /><path
         id="rect3886-35-6-2-3"
         transform="rotate(96.120402)"
         d="m 14.421802,-32.278599 c 0.678519,0 1.224764,0.560235 1.224764,1.256133 v 4.075262 c 0,0.695898 -0.546245,1.256133 -1.224764,1.256133 -0.67852,0 -1.224764,-0.560235 -1.224764,-1.256133 v -4.075262 c 0,-0.695898 0.546244,-1.256133 1.224764,-1.256133 z"
         style="display:inline;fill:#f5b630;fill-opacity:1;stroke:none;stroke-width:2.8862;stroke-linecap:square;stroke-miterlimit:2;stroke-dasharray:none;stroke-opacity:1;stop-color:#000000" /><path
         id="rect3886-3-5"
         transform="rotate(-32.500636)"
         d="m 4.4873414,8.3376808 c 0.6785193,0 1.2247641,0.5602351 1.2247641,1.2561325 v 4.0752627 c 0,0.695897 -0.5462448,1.256133 -1.2247641,1.256133 -0.6785193,0 -1.2247641,-0.560236 -1.2247641,-1.256133 V 9.5938133 c 0,-0.6958974 0.5462448,-1.2561325 1.2247641,-1.2561325 z"
         style="display:inline;fill:#f5b630;fill-opacity:1;stroke:none;stroke-width:2.8862;stroke-linecap:square;stroke-miterlimit:2;stroke-dasharray:none;stroke-opacity:1;stop-color:#000000" /><path
         id="rect3886-3-6-6"
         transform="rotate(-62.500636)"
         d="m -7.7262676,7.4468718 c 0.6785193,0 1.2247641,0.560235 1.2247641,1.2561324 v 4.0752628 c 0,0.695897 -0.5462448,1.256133 -1.2247641,1.256133 -0.6785193,0 -1.2247641,-0.560236 -1.2247641,-1.256133 V 8.7030042 c 0,-0.6958974 0.5462448,-1.2561324 1.2247641,-1.2561324 z"
         style="display:inline;fill:#f5b630;fill-opacity:1;stroke:none;stroke-width:2.8862;stroke-linecap:square;stroke-miterlimit:2;stroke-dasharray:none;stroke-opacity:1;stop-color:#000000" /><path
         id="rect3886-3-6-7-2"
         transform="rotate(-91.766065)"
         d="m -17.567478,0.89063281 c 0.678519,0 1.224764,0.56023509 1.224764,1.25613249 v 4.0752628 c 0,0.6958974 -0.546245,1.2561325 -1.224764,1.2561325 -0.678519,0 -1.224764,-0.5602351 -1.224764,-1.2561325 V 2.1467653 c 0,-0.6958974 0.546245,-1.25613249 1.224764,-1.25613249 z"
         style="display:inline;fill:#f5b630;fill-opacity:1;stroke:none;stroke-width:2.8862;stroke-linecap:square;stroke-miterlimit:2;stroke-dasharray:none;stroke-opacity:1;stop-color:#000000" /><path
         id="rect3886-3-6-7-5-9"
         transform="rotate(-118.26808)"
         d="m -23.146354,-9.0710001 c 0.678519,0 1.224764,0.5602351 1.224764,1.2561325 v 4.0752628 c 0,0.6958974 -0.546245,1.2561325 -1.224764,1.2561325 -0.67852,0 -1.224765,-0.5602351 -1.224765,-1.2561325 v -4.0752628 c 0,-0.6958974 0.546245,-1.2561325 1.224765,-1.2561325 z"
         style="display:inline;fill:#f5b630;fill-opacity:1;stroke:none;stroke-width:2.8862;stroke-linecap:square;stroke-miterlimit:2;stroke-dasharray:none;stroke-opacity:1;stop-color:#000000" /><path
         id="rect3886-3-6-7-5-7"
         transform="rotate(-148.84126)"
         d="m -22.836454,-21.07443 c 0.678519,0 1.224764,0.560235 1.224764,1.256132 v 4.075263 c 0,0.695897 -0.546245,1.256132 -1.224764,1.256132 -0.678519,0 -1.224764,-0.560235 -1.224764,-1.256132 v -4.075263 c 0,-0.695897 0.546245,-1.256132 1.224764,-1.256132 z"
         style="display:inline;fill:#f5b630;fill-opacity:1;stroke:none;stroke-width:2.8862;stroke-linecap:square;stroke-miterlimit:2;stroke-dasharray:none;stroke-opacity:1;stop-color:#000000" /><path
         id="rect3886-3-6-7-5-7-5"
         transform="rotate(-179.34036)"
         d="m -16.281782,-31.563799 c 0.678519,0 1.224764,0.560235 1.224764,1.256133 v 4.075262 c 0,0.695898 -0.546245,1.256133 -1.224764,1.256133 -0.678519,0 -1.224764,-0.560235 -1.224764,-1.256133 v -4.075262 c 0,-0.695898 0.546245,-1.256133 1.224764,-1.256133 z"
         style="display:inline;fill:#f5b630;fill-opacity:1;stroke:none;stroke-width:2.8862;stroke-linecap:square;stroke-miterlimit:2;stroke-dasharray:none;stroke-opacity:1;stop-color:#000000" /><path
         id="rect3886-3-6-7-5-7-5-3"
         transform="rotate(146.69993)"
         d="m -3.2794392,-37.953133 c 0.6785193,0 1.2247641,0.560235 1.2247641,1.256133 v 4.075263 c 0,0.695897 -0.5462448,1.256132 -1.2247641,1.256132 -0.6785193,0 -1.2247641,-0.560235 -1.2247641,-1.256132 V -36.697 c 0,-0.695898 0.5462448,-1.256133 1.2247641,-1.256133 z"
         style="display:inline;fill:#f5b630;fill-opacity:1;stroke:none;stroke-width:2.8862;stroke-linecap:square;stroke-miterlimit:2;stroke-dasharray:none;stroke-opacity:1;stop-color:#000000" /><path
         id="rect3886-3-6-7-5-7-5-3-5"
         transform="rotate(116.69993)"
         d="m 8.9750979,-36.540249 c 0.6785193,0 1.2247641,0.560235 1.2247641,1.256133 v 4.075262 c 0,0.695898 -0.5462448,1.256133 -1.2247641,1.256133 -0.6785193,0 -1.2247641,-0.560235 -1.2247641,-1.256133 v -4.075262 c 0,-0.695898 0.5462448,-1.256133 1.2247641,-1.256133 z"
         style="display:inline;fill:#f5b630;fill-opacity:1;stroke:none;stroke-width:2.8862;stroke-linecap:square;stroke-miterlimit:2;stroke-dasharray:none;stroke-opacity:1;stop-color:#000000" /></g><path
       id="path2427"
       style="display:inline;opacity:1;fill:#ffffff;fill-opacity:1;stroke:none;stroke-width:1.32292;stroke-linecap:square;stroke-miterlimit:2;stroke-dasharray:none;stroke-opacity:1;stop-color:#000000"
       d="m 21.203611,7.2623845 c -1.960321,-4.81e-5 -4.058058,1.2230819 -4.775775,3.1100965 h -0.364585 c -2.167731,-8.4e-5 -3.925039,1.769877 -3.924928,3.95322 1.02e-4,2.183193 1.757347,4.068707 3.924928,4.06862 h 0.498966 l 10.692586,-4.4e-5 c 0,0 0.404649,-6.17e-4 0.609297,0 1.724023,9.9e-5 3.121694,-1.443601 3.121694,-3.40443 0,-1.652506 -1.186783,-3.432663 -3.121694,-3.432663 H 27.255567 26.084755 C 26.037246,8.8679248 24.047993,7.2626339 21.447807,7.2623922 Z"
       clip-path="url(#clipPath1)" /><path
       d="m 13.380682,12.349787 c -0.04862,0.0029 -0.09719,0.0063 -0.145731,0.01 -1.179671,0.0203 -1.875764,0.202188 -3.5499993,0.89909 -1.607957,0.871204 -2.6599007,2.15148 -3.1447048,3.847339 -0.037374,-0.0015 -0.074514,-0.0024 -0.1119097,-0.0033 -0.197125,-8e-6 -0.3909252,0.01163 -0.5824276,0.02937 -3.1891342,0.295511 -5.55308371,2.995631 -5.55320651,6.28629 9.703e-4,3.478882 2.49501221,6.301954 5.96553161,6.314181 0.00748,7.12e-4 0.014903,0.0017 0.022381,0.0024 l 20.4859363,0.07318 c 2.330151,-3.3e-5 4.21921,-1.893617 4.219242,-4.229367 -0.0016,-2.089574 -1.398986,-4.343798 -3.443833,-4.662956 8.2e-4,-0.315692 -0.0015,-0.478161 0,-0.84677 0,-2.883342 -3.85276,-5.266429 -6.755518,-5.140245 -0.837869,-0.0018 -0.833207,0 -1.560267,0 -1.422793,-1.509006 -3.449614,-2.578462 -5.845494,-2.579085 z"
       style="display:inline;opacity:1;fill:#ffffff;fill-opacity:1;stroke:none;stroke-width:1.71979;stroke-linecap:round;stroke-dasharray:none;stroke-opacity:1"
       id="path7" /></g></svg>
