<?xml version="1.0" encoding="UTF-8" standalone="no"?>
<!-- Created with Inkscape (http://www.inkscape.org/) -->

<svg
   width="120"
   height="130"
   viewBox="0 0 31.75 34.395834"
   version="1.1"
   id="svg5"
   xml:space="preserve"
   xmlns="http://www.w3.org/2000/svg"
   xmlns:svg="http://www.w3.org/2000/svg"><defs
     id="defs2"><filter
       id="mask-powermask-path-effect5332_inverse"
       style="color-interpolation-filters:sRGB"
       height="100"
       width="100"
       x="-50"
       y="-50"><feColorMatrix
         id="mask-powermask-path-effect5332_primitive1"
         values="1"
         type="saturate"
         result="fbSourceGraphic" /><feColorMatrix
         id="mask-powermask-path-effect5332_primitive2"
         values="-1 0 0 0 1 0 -1 0 0 1 0 0 -1 0 1 0 0 0 1 0 "
         in="fbSourceGraphic" /></filter><clipPath
       clipPathUnits="userSpaceOnUse"
       id="clipPath2"><path
         id="lpe_path-effect2"
         style="display:inline;opacity:1;fill:#002a53;fill-opacity:1;stroke:none;stroke-width:1.71979;stroke-linecap:round;stroke-dasharray:none;stroke-opacity:1"
         class="powerclip"
         d="M -3.5689663,-2.2631888 H 35.563958 V 36.749235 H -3.5689663 Z M 22.477123,14.266699 c -4.66508,-0.512161 -9.781279,1.275279 -12.4829429,5.213903 -5.9599949,-0.388422 -11.6043913,4.407127 -12.4364516,10.278781 -1.0417488,5.552011 2.17261837,11.94229 7.7741199,13.541221 3.5271276,1.059205 7.2212816,1.382085 10.8061626,2.199646 7.847708,1.422131 15.658034,3.115544 23.544364,4.285288 5.179194,0.126576 9.698897,-4.969413 8.9977,-10.098988 -0.206728,-2.752368 -1.490072,-5.494699 -3.743028,-7.152378 0.428784,-4.568548 -2.930342,-8.582966 -6.728366,-10.677668 -1.722866,-0.910925 -3.627787,-1.416952 -5.544084,-1.720948 -2.401237,-3.240222 -6.160346,-5.464967 -10.187474,-5.868857 z" /></clipPath></defs><g
     id="layer1"
     style="display:inline" /><g
     id="layer3"
     style="display:inline"><g
       id="layer2-3"
       style="display:inline;fill:#f5b630;fill-opacity:1"
       transform="matrix(0.61897155,-0.11463212,0.11463212,0.61897155,-2.5578877,1.5525598)"
       clip-path="url(#clipPath2)"><path
         id="path2446-3"
         transform="matrix(1.5322979,0.28377809,-0.28377809,1.5322979,3.9780491,-1.4105278)"
         d="M 13.472324,10.430119 A 3.7568147,3.7568147 0 0 1 9.7155094,14.186933 3.7568147,3.7568147 0 0 1 5.9586947,10.430119 3.7568147,3.7568147 0 0 1 9.7155094,6.6733038 3.7568147,3.7568147 0 0 1 13.472324,10.430119 Z"
         style="fill:none;fill-opacity:1;stroke:#f5b630;stroke-width:1.68795;stroke-linecap:square;stroke-miterlimit:2;stroke-dasharray:none;stroke-opacity:1;stop-color:#000000" /><path
         id="rect3886-6"
         transform="matrix(1.5570733,0.06316372,-0.06316372,1.5570733,3.9780491,-1.4105278)"
         d="m 7.7559357,2.3495715 c 0.4354077,0 0.7859345,0.3595044 0.7859345,0.8060636 v 2.6151076 c 0,0.4465592 -0.3505268,0.8060636 -0.7859345,0.8060636 -0.4354077,0 -0.7859345,-0.3595044 -0.7859345,-0.8060636 V 3.1556351 c 0,-0.4465592 0.3505268,-0.8060636 0.7859345,-0.8060636 z"
         style="fill:#f5b630;fill-opacity:1;stroke:none;stroke-width:1.85208;stroke-linecap:square;stroke-miterlimit:2;stroke-dasharray:none;stroke-opacity:1;stop-color:#000000" /><path
         id="rect3886-35-7"
         transform="rotate(25.443401)"
         d="m 22.642292,-5.9744473 c 0.67852,0 1.224764,0.5602351 1.224764,1.2561325 v 4.07526282 c 0,0.69589739 -0.546244,1.25613248 -1.224764,1.25613248 -0.678519,0 -1.224764,-0.56023509 -1.224764,-1.25613248 V -4.7183148 c 0,-0.6958974 0.546245,-1.2561325 1.224764,-1.2561325 z"
         style="display:inline;fill:#f5b630;fill-opacity:1;stroke:none;stroke-width:2.8862;stroke-linecap:square;stroke-miterlimit:2;stroke-dasharray:none;stroke-opacity:1;stop-color:#000000" /><path
         id="rect3886-35-6-5"
         transform="rotate(61.907377)"
         d="m 22.540154,-20.76893 c 0.678519,0 1.224764,0.560235 1.224764,1.256132 v 4.075263 c 0,0.695897 -0.546245,1.256132 -1.224764,1.256132 -0.67852,0 -1.224764,-0.560235 -1.224764,-1.256132 v -4.075263 c 0,-0.695897 0.546244,-1.256132 1.224764,-1.256132 z"
         style="display:inline;fill:#f5b630;fill-opacity:1;stroke:none;stroke-width:2.8862;stroke-linecap:square;stroke-miterlimit:2;stroke-dasharray:none;stroke-opacity:1;stop-color:#000000" /><path
         id="rect3886-35-6-2-3"
         transform="rotate(96.120402)"
         d="m 14.421802,-32.278599 c 0.678519,0 1.224764,0.560235 1.224764,1.256133 v 4.075262 c 0,0.695898 -0.546245,1.256133 -1.224764,1.256133 -0.67852,0 -1.224764,-0.560235 -1.224764,-1.256133 v -4.075262 c 0,-0.695898 0.546244,-1.256133 1.224764,-1.256133 z"
         style="display:inline;fill:#f5b630;fill-opacity:1;stroke:none;stroke-width:2.8862;stroke-linecap:square;stroke-miterlimit:2;stroke-dasharray:none;stroke-opacity:1;stop-color:#000000" /><path
         id="rect3886-3-5"
         transform="rotate(-32.500636)"
         d="m 4.4873414,8.3376808 c 0.6785193,0 1.2247641,0.5602351 1.2247641,1.2561325 v 4.0752627 c 0,0.695897 -0.5462448,1.256133 -1.2247641,1.256133 -0.6785193,0 -1.2247641,-0.560236 -1.2247641,-1.256133 V 9.5938133 c 0,-0.6958974 0.5462448,-1.2561325 1.2247641,-1.2561325 z"
         style="display:inline;fill:#f5b630;fill-opacity:1;stroke:none;stroke-width:2.8862;stroke-linecap:square;stroke-miterlimit:2;stroke-dasharray:none;stroke-opacity:1;stop-color:#000000" /><path
         id="rect3886-3-6-6"
         transform="rotate(-62.500636)"
         d="m -7.7262676,7.4468718 c 0.6785193,0 1.2247641,0.560235 1.2247641,1.2561324 v 4.0752628 c 0,0.695897 -0.5462448,1.256133 -1.2247641,1.256133 -0.6785193,0 -1.2247641,-0.560236 -1.2247641,-1.256133 V 8.7030042 c 0,-0.6958974 0.5462448,-1.2561324 1.2247641,-1.2561324 z"
         style="display:inline;fill:#f5b630;fill-opacity:1;stroke:none;stroke-width:2.8862;stroke-linecap:square;stroke-miterlimit:2;stroke-dasharray:none;stroke-opacity:1;stop-color:#000000" /><path
         id="rect3886-3-6-7-2"
         transform="rotate(-91.766065)"
         d="m -17.567478,0.89063281 c 0.678519,0 1.224764,0.56023509 1.224764,1.25613249 v 4.0752628 c 0,0.6958974 -0.546245,1.2561325 -1.224764,1.2561325 -0.678519,0 -1.224764,-0.5602351 -1.224764,-1.2561325 V 2.1467653 c 0,-0.6958974 0.546245,-1.25613249 1.224764,-1.25613249 z"
         style="display:inline;fill:#f5b630;fill-opacity:1;stroke:none;stroke-width:2.8862;stroke-linecap:square;stroke-miterlimit:2;stroke-dasharray:none;stroke-opacity:1;stop-color:#000000" /><path
         id="rect3886-3-6-7-5-9"
         transform="rotate(-118.26808)"
         d="m -23.146354,-9.0710001 c 0.678519,0 1.224764,0.5602351 1.224764,1.2561325 v 4.0752628 c 0,0.6958974 -0.546245,1.2561325 -1.224764,1.2561325 -0.67852,0 -1.224765,-0.5602351 -1.224765,-1.2561325 v -4.0752628 c 0,-0.6958974 0.546245,-1.2561325 1.224765,-1.2561325 z"
         style="display:inline;fill:#f5b630;fill-opacity:1;stroke:none;stroke-width:2.8862;stroke-linecap:square;stroke-miterlimit:2;stroke-dasharray:none;stroke-opacity:1;stop-color:#000000" /><path
         id="rect3886-3-6-7-5-7"
         transform="rotate(-148.84126)"
         d="m -22.836454,-21.07443 c 0.678519,0 1.224764,0.560235 1.224764,1.256132 v 4.075263 c 0,0.695897 -0.546245,1.256132 -1.224764,1.256132 -0.678519,0 -1.224764,-0.560235 -1.224764,-1.256132 v -4.075263 c 0,-0.695897 0.546245,-1.256132 1.224764,-1.256132 z"
         style="display:inline;fill:#f5b630;fill-opacity:1;stroke:none;stroke-width:2.8862;stroke-linecap:square;stroke-miterlimit:2;stroke-dasharray:none;stroke-opacity:1;stop-color:#000000" /><path
         id="rect3886-3-6-7-5-7-5"
         transform="rotate(-179.34036)"
         d="m -16.281782,-31.563799 c 0.678519,0 1.224764,0.560235 1.224764,1.256133 v 4.075262 c 0,0.695898 -0.546245,1.256133 -1.224764,1.256133 -0.678519,0 -1.224764,-0.560235 -1.224764,-1.256133 v -4.075262 c 0,-0.695898 0.546245,-1.256133 1.224764,-1.256133 z"
         style="display:inline;fill:#f5b630;fill-opacity:1;stroke:none;stroke-width:2.8862;stroke-linecap:square;stroke-miterlimit:2;stroke-dasharray:none;stroke-opacity:1;stop-color:#000000" /><path
         id="rect3886-3-6-7-5-7-5-3"
         transform="rotate(146.69993)"
         d="m -3.2794392,-37.953133 c 0.6785193,0 1.2247641,0.560235 1.2247641,1.256133 v 4.075263 c 0,0.695897 -0.5462448,1.256132 -1.2247641,1.256132 -0.6785193,0 -1.2247641,-0.560235 -1.2247641,-1.256132 V -36.697 c 0,-0.695898 0.5462448,-1.256133 1.2247641,-1.256133 z"
         style="display:inline;fill:#f5b630;fill-opacity:1;stroke:none;stroke-width:2.8862;stroke-linecap:square;stroke-miterlimit:2;stroke-dasharray:none;stroke-opacity:1;stop-color:#000000" /><path
         id="rect3886-3-6-7-5-7-5-3-5"
         transform="rotate(116.69993)"
         d="m 8.9750979,-36.540249 c 0.6785193,0 1.2247641,0.560235 1.2247641,1.256133 v 4.075262 c 0,0.695898 -0.5462448,1.256133 -1.2247641,1.256133 -0.6785193,0 -1.2247641,-0.560235 -1.2247641,-1.256133 v -4.075262 c 0,-0.695898 0.5462448,-1.256133 1.2247641,-1.256133 z"
         style="display:inline;fill:#f5b630;fill-opacity:1;stroke:none;stroke-width:2.8862;stroke-linecap:square;stroke-miterlimit:2;stroke-dasharray:none;stroke-opacity:1;stop-color:#000000" /></g><path
       d="m 13.654457,9.3626472 c -0.04725,0.00283 -0.09446,0.00612 -0.141623,0.00968 -1.146416,0.019726 -1.822885,0.1964876 -3.449921,0.8737438 -1.562627,0.846642 -2.584915,2.090824 -3.0560519,3.738876 -0.03632,-0.0015 -0.072414,-0.0023 -0.1087549,-0.0033 -0.1915678,-8e-6 -0.3799045,0.01131 -0.5660081,0.02854 -3.0992286,0.2872 -5.39653541,2.911202 -5.39665474,6.109091 9.4294e-4,3.380809 2.42467464,6.124295 5.79735564,6.136177 0.00727,6.91e-4 0.014484,0.0016 0.02175,0.0023 l 19.908411,0.07112 c 2.264461,-3e-5 4.100266,-1.840233 4.100297,-4.110135 -0.0016,-2.030667 -1.359547,-4.22134 -3.346747,-4.531502 7.96e-4,-0.306793 -0.0015,-0.46468 0,-0.822897 0,-2.802058 -3.744145,-5.117962 -6.565071,-4.995335 -0.814249,-0.0017 -0.809718,0 -1.516282,0 C 17.952475,10.40254 15.982792,9.3632354 13.654456,9.3626296 Z"
       style="display:inline;opacity:1;fill:#ffffff;fill-opacity:1;stroke:none;stroke-width:1.71979;stroke-linecap:round;stroke-dasharray:none;stroke-opacity:1"
       id="path7" /><path
       style="display:inline;fill:none;fill-opacity:1;stroke:#ffffff;stroke-width:1.45521;stroke-linecap:round;stroke-dasharray:none;stroke-opacity:1"
       d="M 10.977842,31.460572 V 26.406268"
       id="path1-3" /><path
       style="display:inline;fill:none;fill-opacity:1;stroke:#ffffff;stroke-width:1.45521;stroke-linecap:round;stroke-dasharray:none;stroke-opacity:1"
       d="M 6.347634,29.873074 V 24.81877"
       id="path1-3-6" /><path
       style="display:inline;fill:none;fill-opacity:1;stroke:#ffffff;stroke-width:1.45521;stroke-linecap:round;stroke-dasharray:none;stroke-opacity:1"
       d="M 20.238259,31.460572 V 26.406268"
       id="path1-3-7" /><path
       style="display:inline;fill:none;fill-opacity:1;stroke:#ffffff;stroke-width:1.45521;stroke-linecap:round;stroke-dasharray:none;stroke-opacity:1"
       d="M 15.60805,29.873074 V 24.81877"
       id="path1-3-6-5" /><path
       style="display:inline;fill:none;fill-opacity:1;stroke:#ffffff;stroke-width:1.45521;stroke-linecap:round;stroke-dasharray:none;stroke-opacity:1"
       d="M 24.868467,29.873074 V 24.81877"
       id="path1-3-6-5-3" /></g></svg>
