<?xml version="1.0" encoding="UTF-8" standalone="no"?>
<!-- Created with Inkscape (http://www.inkscape.org/) -->

<svg
   width="120"
   height="130"
   viewBox="0 0 31.75 34.395834"
   version="1.1"
   id="svg5"
   xml:space="preserve"
   xmlns="http://www.w3.org/2000/svg"
   xmlns:svg="http://www.w3.org/2000/svg"><defs
     id="defs2" /><g
     id="layer1"
     style="display:inline" /><g
     id="layer2"
     style="display:inline"><path
       d="m 13.728361,10.865487 c -2.960329,0.0072 -5.5563534,1.978473 -6.3582682,4.828129 -0.3043589,-0.05224 -0.6125814,-0.07886 -0.9213908,-0.07958 -3.049846,-6e-5 -5.52243507,2.472297 -5.52266032,5.522144 -6.011e-5,3.050049 2.47261242,5.52272 5.52266032,5.52266 0.1077765,-3.75e-4 0.2147237,-0.0058 0.3214275,-0.0124 0.018836,0.002 0.03694,0.0057 0.056327,0.0057 H 26.979749 c 0.0094,0 0.01813,-0.0021 0.02739,-0.0026 0.0069,8.83e-4 0.01378,0.0017 0.02067,0.0026 1.842575,7.3e-5 3.336303,-1.493655 3.33623,-3.33623 7.3e-5,-1.842576 -1.480098,-3.34986 -3.322673,-3.349788 -0.0159,0.0052 -0.04806,0 -0.04806,0 h -0.137064 c 0,0 3e-6,-0.813432 0,-1.251486 2e-5,-2.736115 -2.218105,-4.95424 -4.954219,-4.954219 -0.81533,0.0082 -1.61607,0.217442 -2.331124,0.609265 C 18.45589,12.28468 16.25804,10.865534 13.728361,10.865487 Z"
       style="fill:none;stroke:#ffffff;stroke-width:1.58750002;stroke-linecap:round;stroke-linejoin:round;stroke-dasharray:none;fill-opacity:1"
       id="path5" /></g></svg>
