<?xml version="1.0" encoding="UTF-8" standalone="no"?>
<!-- Created with Inkscape (http://www.inkscape.org/) -->

<svg
   width="120"
   height="130"
   viewBox="0 0 31.75 34.395834"
   version="1.1"
   id="svg5"
   xml:space="preserve"
   xmlns="http://www.w3.org/2000/svg"
   xmlns:svg="http://www.w3.org/2000/svg"><defs
     id="defs2" /><g
     id="layer1"
     style="display:inline" /><g
     id="layer2"
     style="display:inline"><path
       d="m 13.728361,2.9279868 c -2.960329,0.0072 -5.5563534,1.978473 -6.3582682,4.8281287 -0.3043589,-0.05224 -0.6125814,-0.07886 -0.9213908,-0.07958 -3.049846,-6e-5 -5.52243507,2.4722955 -5.52266032,5.5221425 -6.011e-5,3.050049 2.47261242,5.52272 5.52266032,5.52266 0.1077765,-3.75e-4 0.2147237,-0.0058 0.3214275,-0.0124 0.018836,0.002 0.03694,0.0057 0.056327,0.0057 H 26.979749 c 0.0094,0 0.01813,-0.0021 0.02739,-0.0026 0.0069,8.83e-4 0.01378,0.0017 0.02067,0.0026 1.842575,7.3e-5 3.336303,-1.493655 3.33623,-3.33623 7.3e-5,-1.842576 -1.480098,-3.34986 -3.322673,-3.349788 -0.0159,0.0052 -0.04806,0 -0.04806,0 h -0.137064 c 0,0 3e-6,-0.813432 0,-1.251486 2e-5,-2.7361138 -2.218105,-4.9542382 -4.954219,-4.9542172 -0.81533,0.0082 -1.61607,0.217442 -2.331124,0.609265 -1.115009,-2.085002 -3.312859,-3.504148 -5.842538,-3.504195 z"
       style="fill:none;fill-opacity:1;stroke:#ffffff;stroke-width:1.32291668;stroke-linecap:round;stroke-linejoin:round;stroke-dasharray:none"
       id="path5" /><g
       id="g1"><path
         style="opacity:1;fill:none;fill-opacity:1;stroke:#ffffff;stroke-width:1.45521;stroke-linecap:round;stroke-dasharray:none;stroke-opacity:1"
         d="M 6.4260893,22.324373 V 19.250461"
         id="path1" /><path
         style="display:inline;fill:none;fill-opacity:1;stroke:#ffffff;stroke-width:1.45520835;stroke-linecap:round;stroke-dasharray:none;stroke-opacity:1"
         d="M 11.104229,26.751 V 22.109465"
         id="path1-1" /><path
         style="display:inline;fill:none;fill-opacity:1;stroke:#ffffff;stroke-width:1.45520835;stroke-linecap:round;stroke-dasharray:none;stroke-opacity:1"
         d="M 20.154291,26.751 V 22.109465"
         id="path1-1-7" /><path
         style="display:inline;fill:none;fill-opacity:1;stroke:#ffffff;stroke-width:1.45521;stroke-linecap:round;stroke-dasharray:none;stroke-opacity:1"
         d="M 6.4260893,28.800642 V 25.72673"
         id="path1-6" /><path
         style="display:inline;fill:none;fill-opacity:1;stroke:#ffffff;stroke-width:1.45521;stroke-linecap:round;stroke-dasharray:none;stroke-opacity:1"
         d="M 15.651992,22.324373 V 19.250461"
         id="path1-5" /><path
         style="display:inline;fill:none;fill-opacity:1;stroke:#ffffff;stroke-width:1.45521;stroke-linecap:round;stroke-dasharray:none;stroke-opacity:1"
         d="M 15.651992,28.800642 V 25.72673"
         id="path1-6-3" /><path
         style="display:inline;fill:none;fill-opacity:1;stroke:#ffffff;stroke-width:1.45521;stroke-linecap:round;stroke-dasharray:none;stroke-opacity:1"
         d="M 24.916243,22.324373 V 19.250461"
         id="path1-5-6" /><path
         style="display:inline;fill:none;fill-opacity:1;stroke:#ffffff;stroke-width:1.45521;stroke-linecap:round;stroke-dasharray:none;stroke-opacity:1"
         d="M 24.916243,28.800642 V 25.72673"
         id="path1-6-3-2" /></g></g></svg>
