<?xml version="1.0" encoding="UTF-8" standalone="no"?>
<!-- Created with Inkscape (http://www.inkscape.org/) -->

<svg
   width="120"
   height="130"
   viewBox="0 0 31.75 34.395834"
   version="1.1"
   id="svg5"
   xml:space="preserve"
   xmlns="http://www.w3.org/2000/svg"
   xmlns:svg="http://www.w3.org/2000/svg"><defs
     id="defs2"><clipPath
       clipPathUnits="userSpaceOnUse"
       id="clipPath1"><path
         id="lpe_path-effect2"
         style="display:inline;fill:#002a53;fill-opacity:1;stroke:none;stroke-width:1.5875;stroke-linecap:round;stroke-linejoin:round;stroke-dasharray:none;stroke-opacity:1"
         class="powerclip"
         d="M 10.864663,-3.5463436 H 36.59704 V 18.314435 H 10.864663 Z m 2.408775,6.630328 C 10.246234,3.306272 7.4028676,5.2062484 6.0429688,7.919922 c -4.2405014,0.1829988 -7.8645551,4.352105 -7.2844529,8.593505 0.38523816,3.880284 4.0458455,7.212012 7.9946081,6.922933 7.121812,0.0072 14.24688,0.07204 21.366523,-0.0403 3.237405,-0.160912 5.586963,-3.705899 4.816203,-6.780604 -0.426535,-1.751182 -1.764361,-3.257777 -3.455382,-3.884987 -0.219652,-3.5969181 -3.461073,-6.7873812 -7.111718,-6.6972659 -0.554031,-0.0078 -1.108473,0.057074 -1.648047,0.1816406 -1.797608,-2.1456282 -4.6552,-3.3521086 -7.447265,-3.1308593 z" /></clipPath></defs><g
     id="layer1"
     style="display:inline" /><g
     id="layer2"
     style="display:inline"><path
       d="m 21.261752,2.1151164 c -2.615305,9.81e-5 -4.735448,2.2153284 -4.735629,4.9480184 -9.2e-5,2.7328919 2.120131,4.9484372 4.735629,4.9485352 0.407515,-0.0048 0.812736,-0.06456 1.205611,-0.177767 0.556198,0.507628 1.294631,0.819072 2.110465,0.819072 h 3.22616 c 1.734957,0 3.131592,-1.396635 3.131592,-3.1315923 0,-1.7349575 -1.396635,-3.1315918 -3.131592,-3.1315918 H 25.951905 C 25.629822,3.9408586 23.627515,2.115926 21.261752,2.1151164 Z"
       style="display:inline;fill:none;stroke:#ffffff;stroke-width:1.32292;stroke-linecap:round"
       id="path8"
       clip-path="url(#clipPath1)" /><g
       id="g2"
       style="display:inline"><path
         id="rect4"
         style="fill:#ffffff;stroke-width:4.23333"
         transform="rotate(32.344342)"
         d="m 22.86992,16.922844 c 0.415445,0 0.7499,0.334455 0.7499,0.7499 v 5.040762 c 0,0.415445 -0.334455,0.7499 -0.7499,0.7499 -0.415445,0 -0.7499,-0.334455 -0.7499,-0.7499 v -5.040762 c 0,-0.415445 0.334455,-0.7499 0.7499,-0.7499 z" /><path
         id="rect4-2"
         style="display:inline;fill:#ffffff;stroke-width:4.23333"
         transform="rotate(32.344342)"
         d="m 18.995438,17.438324 c 0.432472,0 0.780636,0.348164 0.780636,0.780636 v 4.924315 c 0,0.432472 -0.348164,0.780636 -0.780636,0.780636 -0.432472,0 -0.780636,-0.348164 -0.780636,-0.780636 V 18.21896 c 0,-0.432472 0.348164,-0.780636 0.780636,-0.780636 z" /><path
         id="rect4-9"
         style="display:inline;fill:#ffffff;stroke-width:4.23333"
         transform="rotate(32.344342)"
         d="m 18.853494,13.17837 c 0.425407,0 0.767882,0.335986 0.767882,0.753331 v 1.254398 c 0,0.417345 -0.342475,0.753331 -0.767882,0.753331 -0.425407,0 -0.767883,-0.335986 -0.767883,-0.753331 v -1.254398 c 0,-0.417345 0.342476,-0.753331 0.767883,-0.753331 z" /><path
         id="rect4-6"
         style="display:inline;fill:#ffffff;stroke-width:4.23333"
         transform="rotate(32.344342)"
         d="m 26.737208,12.547825 c 0.425916,0 0.768802,0.342886 0.768802,0.768803 v 4.834592 c 0,0.425917 -0.342886,0.768803 -0.768802,0.768803 -0.425917,0 -0.768803,-0.342886 -0.768803,-0.768803 v -4.834592 c 0,-0.425917 0.342886,-0.768803 0.768803,-0.768803 z" /><path
         id="rect4-6-7"
         style="display:inline;fill:#ffffff;stroke-width:4.23333"
         transform="rotate(32.344342)"
         d="m 30.747804,12.004582 c 0.42898,0 0.774333,0.345353 0.774333,0.774333 v 4.993043 c 0,0.428981 -0.345353,0.774333 -0.774333,0.774333 -0.428981,0 -0.774333,-0.345352 -0.774333,-0.774333 v -4.993043 c 0,-0.42898 0.345352,-0.774333 0.774333,-0.774333 z" /><path
         id="rect4-6-7-5-3"
         style="display:inline;fill:#ffffff;stroke-width:4.23333"
         transform="rotate(32.344342)"
         d="m 26.691563,7.7125387 c 0.406093,0 0.73302,0.3359856 0.73302,0.7533308 v 1.8459075 c 0,0.417345 -0.326927,0.75333 -0.73302,0.75333 -0.406094,0 -0.733021,-0.335985 -0.733021,-0.75333 V 8.4658695 c 0,-0.4173452 0.326927,-0.7533308 0.733021,-0.7533308 z" /><path
         id="rect4-6-7-5-3-5-6"
         style="display:inline;fill:#ffffff;stroke-width:4.23333"
         transform="rotate(32.344342)"
         d="m 34.536447,7.6109715 c 0.413012,0 0.745508,0.3324965 0.745508,0.7455079 v 4.9980376 c 0,0.413012 -0.332496,0.745508 -0.745508,0.745508 -0.413011,0 -0.745508,-0.332496 -0.745508,-0.745508 V 8.3564794 c 0,-0.4130114 0.332497,-0.7455079 0.745508,-0.7455079 z" /><path
         id="rect4-3"
         style="display:inline;fill:#ffffff;stroke-width:4.23333"
         transform="rotate(32.344342)"
         d="m 22.857604,10.326144 c 0.405738,0 0.73238,0.335986 0.73238,0.753331 v 3.483495 c 0,0.417345 -0.326642,0.753331 -0.73238,0.753331 -0.405739,0 -0.732381,-0.335986 -0.732381,-0.753331 v -3.483495 c 0,-0.417345 0.326642,-0.753331 0.732381,-0.753331 z" /><path
         id="rect4-6-7-5-3-0"
         style="display:inline;fill:#ffffff;stroke-width:4.23333"
         transform="rotate(32.344342)"
         d="m 34.518429,2.7561061 c 0.406093,0 0.733021,0.3359856 0.733021,0.7533309 v 1.8459069 c 0,0.4173453 -0.326928,0.7533309 -0.733021,0.7533309 -0.406094,0 -0.733021,-0.3359856 -0.733021,-0.7533309 V 3.509437 c 0,-0.4173453 0.326927,-0.7533309 0.733021,-0.7533309 z" /><path
         id="rect4-3-6"
         style="display:inline;fill:#ffffff;stroke-width:4.23333"
         transform="rotate(32.344342)"
         d="m 30.684489,5.3697124 c 0.405739,0 0.73238,0.3359855 0.73238,0.7533308 v 3.483495 c 0,0.4173448 -0.326641,0.7533308 -0.73238,0.7533308 -0.405739,0 -0.732381,-0.335986 -0.732381,-0.7533308 v -3.483495 c 0,-0.4173453 0.326642,-0.7533308 0.732381,-0.7533308 z" /></g><path
       d="M 13.940137,5.1749146 C 10.91211,5.1822846 8.2567189,7.2006322 7.4364653,10.11833 7.1251461,10.06484 6.8098746,10.03759 6.4940036,10.03685 c -3.1195909,-6.2e-5 -5.64872393,2.531334 -5.64895408,5.654009 -6.137e-5,3.122881 2.52915658,5.654598 5.64895408,5.654537 0.1102407,-3.84e-4 0.2196344,-0.0059 0.3287775,-0.01269 0.019271,0.002 0.037785,0.0058 0.057618,0.0058 H 27.494565 c 0.0097,0 0.01854,-0.0021 0.02801,-0.0026 0.007,9.04e-4 0.0141,0.0017 0.02115,0.0026 1.884711,7.4e-5 3.412598,-1.529323 3.412524,-3.415897 7.4e-5,-1.886576 -1.513946,-3.429852 -3.398657,-3.429779 -0.01627,0.0053 -0.04916,0 -0.04916,0 h -0.140197 c 0,0 3e-6,-0.832856 0,-1.28137 2e-5,-2.801452 -2.26883,-5.072538 -5.067514,-5.0725166 -0.833976,0.0084 -1.653028,0.2226344 -2.384434,0.623814 C 18.77578,6.6279969 16.527668,5.1749628 13.94014,5.1749146 Z"
       style="display:inline;fill:none;fill-opacity:1;stroke:#ffffff;stroke-width:1.5875;stroke-linecap:round;stroke-linejoin:round;stroke-dasharray:none"
       id="path5-6" /></g></svg>
