<?xml version="1.0" encoding="UTF-8" standalone="no"?>
<!-- Created with Inkscape (http://www.inkscape.org/) -->

<svg
   width="120"
   height="130"
   viewBox="0 0 31.75 34.395834"
   version="1.1"
   id="svg5"
   xml:space="preserve"
   xmlns="http://www.w3.org/2000/svg"
   xmlns:svg="http://www.w3.org/2000/svg"><defs
     id="defs2"><clipPath
       clipPathUnits="userSpaceOnUse"
       id="clipPath6"><path
         id="lpe_path-effect7"
         style="display:inline;fill:#002a53;fill-opacity:1;stroke:none;stroke-width:1.85208;stroke-linecap:round;stroke-linejoin:round;stroke-dasharray:none;stroke-opacity:1"
         class="powerclip"
         d="M -3.4585128,-1.426208 H 18.618697 v 22.07721 H -3.4585128 Z M 12.783203,8.1171876 C 9.7828665,8.4083531 7.1326087,10.325194 5.4824218,12.785156 c -1.3165733,0.60114 -2.9144866,0.58376 -4.0199828,1.632849 -3.0492429,2.236514 -4.2885827,6.60745 -2.7616496,10.083661 1.2447303,2.825686 4.1795455,4.641932 7.2047091,4.92189 1.8338509,0.215133 3.6707866,-0.10713 5.5105175,-0.02122 5.923881,-0.01447 11.867491,0.206989 17.773437,-0.339844 3.889036,-1.187328 5.329663,-6.789141 2.537108,-9.728516 C 31.199773,18.517398 29.92628,18.440095 29.584859,17.504598 29.019831,13.48045 24.831529,10.549075 20.859303,11.047037 20.04833,10.9717 19.60417,10.069724 18.946641,9.6557929 17.299068,8.6152422 15.309831,8.1007837 13.364936,8.0921848 c -0.193911,0.00833 -0.387822,0.016669 -0.581733,0.025003 z" /></clipPath><clipPath
       clipPathUnits="userSpaceOnUse"
       id="clipPath7"><path
         id="lpe_path-effect8"
         style="display:inline;fill:#002a53;fill-opacity:1;stroke:none;stroke-width:1.85208;stroke-linecap:round;stroke-linejoin:round;stroke-dasharray:none;stroke-opacity:1"
         class="powerclip"
         d="M 7.147795,-0.42906068 H 36.393084 V 21.502271 H 7.147795 Z M 12.783203,8.1171876 C 9.7828665,8.4083531 7.1326087,10.325194 5.4824218,12.785156 c -1.3165733,0.60114 -2.9144866,0.58376 -4.0199828,1.632849 -3.0492429,2.236514 -4.2885827,6.60745 -2.7616496,10.083661 1.2447303,2.825686 4.1795455,4.641932 7.2047091,4.92189 1.8338509,0.215133 3.6707866,-0.10713 5.5105175,-0.02122 5.923881,-0.01447 11.867491,0.206989 17.773437,-0.339844 3.889036,-1.187328 5.329663,-6.789141 2.537108,-9.728516 C 31.199773,18.517398 29.92628,18.440095 29.584859,17.504598 29.019831,13.48045 24.831529,10.549075 20.859303,11.047037 20.04833,10.9717 19.60417,10.069724 18.946641,9.6557929 17.299068,8.6152422 15.309831,8.1007837 13.364936,8.0921848 c -0.193911,0.00833 -0.387822,0.016669 -0.581733,0.025003 z" /></clipPath></defs><g
     id="layer1"
     style="display:inline" /><g
     id="layer2"
     style="display:inline"><path
       id="path2427"
       style="display:inline;fill:none;fill-opacity:1;stroke:#ffffff;stroke-width:1.32292;stroke-linecap:square;stroke-miterlimit:2;stroke-dasharray:none;stroke-opacity:1;stop-color:#000000"
       d="M 21.300481,5.2323993 C 19.464297,5.2323539 17.4994,6.39796 16.827134,8.1962316 h -0.341498 c -2.03046,-8e-5 -3.676486,1.6866406 -3.676381,3.7673054 9.5e-5,2.080517 1.646062,3.877356 3.676381,3.877274 h 0.467369 l 10.015475,-4.2e-5 c 0,0 0.379024,-5.88e-4 0.570714,0 1.614847,9.4e-5 3.19243,-1.260673 3.19243,-3.129285 0,-1.57479 -1.034938,-2.9261209 -2.578903,-2.9261209 H 27.582722 25.872526 C 25.828028,7.2225766 23.964742,5.2326376 21.529213,5.2324069 Z"
       clip-path="url(#clipPath7)" /><path
       id="path2"
       clip-path="url(#clipPath6)"
       d="M 13.618697,9.6123972 A 6.0386047,6.0386052 0 0 1 7.580092,15.651002 6.0386047,6.0386052 0 0 1 1.5414872,9.6123972 6.0386047,6.0386052 0 0 1 7.580092,3.573792 6.0386047,6.0386052 0 0 1 13.618697,9.6123972 Z"
       style="display:inline;fill:#fcb928;stroke-width:3.175;stroke-linecap:round" /><path
       d="M 13.673178,10.718266 C 10.664429,10.725666 8.025943,12.730302 7.2109119,15.6283 6.9015748,15.57517 6.588311,15.54811 6.2744506,15.54737 c -3.0997301,-6.2e-5 -5.61276138,2.514237 -5.61299032,5.615822 -6.109e-5,3.101789 2.51305502,5.616407 5.61299032,5.616346 0.1095393,-3.81e-4 0.2182357,-0.0059 0.3266848,-0.01261 0.019144,0.002 0.037544,0.0058 0.057248,0.0058 H 27.141309 c 0.0096,0 0.01842,-0.0021 0.02784,-0.0026 0.007,8.99e-4 0.014,0.0017 0.02101,0.0026 1.872712,7.5e-5 3.390871,-1.518993 3.390798,-3.392825 7.3e-5,-1.873834 -1.504307,-3.406687 -3.37702,-3.406614 -0.01616,0.0052 -0.04884,0 -0.04884,0 h -0.139305 c 0,0 3e-6,-0.827231 0,-1.272716 2e-5,-2.782531 -2.254385,-5.038284 -5.035252,-5.038262 -0.828666,0.0084 -1.642504,0.22113 -2.369252,0.6196 -1.133247,-2.120372 -3.367045,-3.563593 -5.9381,-3.56364 z"
       style="fill:none;fill-opacity:1;stroke:#ffffff;stroke-width:1.58750002;stroke-linecap:round;stroke-linejoin:round;stroke-dasharray:none"
       id="path5" /><path
       style="display:inline;fill:#fcb928;fill-opacity:1;stroke-width:3.175;stroke-linecap:round"
       d="m 23.454021,23.21924 -0.12061,3.172312 c 2.606982,1.365716 2.475688,1.616344 2.475688,1.616344 l -2.904588,0.913101 -0.824004,2.895144 -1.826094,-2.489238 -2.989926,0.0282 1.855095,-2.353444 -0.940036,-2.990637 c 0,0 0.249244,-0.07712 2.593798,1.039398 0.01982,0.0094 2.680677,-1.831176 2.680677,-1.831176 z"
       id="path1-3" /><path
       style="display:inline;fill:#fcb928;fill-opacity:1;stroke-width:3.175;stroke-linecap:round"
       d="m 27.860466,27.490701 1.223275,2.010124 c 2.170083,-0.222403 2.191465,-0.01378 2.191465,-0.01378 l -1.421744,1.752676 0.67512,2.126574 -2.147065,-0.791506 -1.836514,1.240637 0.183804,-2.213583 -1.804527,-1.463911 c 0,0 0.122502,-0.149637 2.028434,-0.418704 0.0161,-0.0023 0.907755,-2.228526 0.907755,-2.228526 z"
       id="path1-3-6" /></g></svg>
