<?xml version="1.0" encoding="UTF-8" standalone="no"?>
<!-- Created with Inkscape (http://www.inkscape.org/) -->

<svg
   width="120"
   height="130"
   viewBox="0 0 31.75 34.395834"
   version="1.1"
   id="svg5"
   xml:space="preserve"
   xmlns="http://www.w3.org/2000/svg"
   xmlns:svg="http://www.w3.org/2000/svg"><defs
     id="defs2" /><g
     id="layer1"
     style="display:inline" /><g
     id="layer2"><path
       style="color:#000000;fill:#ffffff;stroke-linecap:round;stroke-width:1.00012501;stroke-dasharray:none"
       d="m 19.439453,9.8554688 c -0.548007,0.00962 -0.984404,0.4617612 -0.974609,1.0097652 0.0096,0.548007 0.461761,0.984404 1.009765,0.97461 0.575879,-0.01017 1.025922,0.427609 1.041016,1.001953 -0.0059,0.673233 -0.528188,1.197266 -1.203125,1.197266 H 5.3985888 v 1.984374 H 19.3125 c 1.751243,0 3.191445,-1.440163 3.191406,-3.191406 v -0.0098 -0.0078 C 22.474638,11.163159 21.09075,9.8263131 19.439453,9.8554688 Z"
       id="path1"
       transform="translate(0.19172705,0.07669082)" /><path
       style="color:#000000;fill:#ffffff;stroke-width:1.00013;stroke-linecap:round;stroke-dasharray:none"
       d="m 25.037882,11.933792 c -0.548007,0.0096 -0.984404,0.461762 -0.974609,1.009766 0.0096,0.548007 0.461761,0.984404 1.009765,0.97461 0.575879,-0.01017 1.025922,0.427609 1.041016,1.001953 -0.0059,0.673233 -0.528188,1.197266 -1.203125,1.197266 h -2.38728 v 1.984374 h 2.38728 c 1.751243,0 3.191445,-1.440163 3.191406,-3.191406 v -0.0098 -0.0078 c -0.02927,-1.651272 -1.413156,-2.988118 -3.064453,-2.958963 z"
       id="path1-5" /><path
       style="color:#000000;fill:#ffffff;stroke-width:1.00013;stroke-linecap:round;stroke-dasharray:none"
       d="m 19.63118,24.336256 c -0.548007,-0.0096 -0.984404,-0.461761 -0.974609,-1.009765 0.0096,-0.548007 0.461761,-0.984404 1.009765,-0.97461 0.575879,0.01017 1.025922,-0.427609 1.041016,-1.001953 -0.0059,-0.673233 -0.528188,-1.197266 -1.203125,-1.197266 H 3.4736491 V 18.168287 H 19.504227 c 1.751243,0 3.191445,1.440164 3.191406,3.191407 v 0.0098 0.0078 c -0.02927,1.651272 -1.413156,2.988118 -3.064453,2.958962 z"
       id="path1-3" /></g></svg>
