<?xml version="1.0" encoding="UTF-8" standalone="no"?>
<!-- Created with Inkscape (http://www.inkscape.org/) -->

<svg
   width="120"
   height="130"
   viewBox="0 0 31.75 34.395834"
   version="1.1"
   id="svg5"
   xml:space="preserve"
   xmlns="http://www.w3.org/2000/svg"
   xmlns:svg="http://www.w3.org/2000/svg"><defs
     id="defs2"><clipPath
       clipPathUnits="userSpaceOnUse"
       id="clipPath3"><path
         id="lpe_path-effect3"
         style="opacity:1;fill:#002a53;fill-opacity:1;stroke:none;stroke-width:1.5875;stroke-linecap:round"
         class="powerclip"
         d="M -1.6459566,5.061168 H 29.272499 V 35.187975 H -1.6459566 Z M 23.296875,2.7402343 C 21.050497,2.7658619 18.9139,4.1209815 17.947266,6.1503907 17.264405,5.517205 16.504449,4.9493107 15.621094,4.6250001 14.499657,5.779596 13.37793,6.9339109 12.255859,8.0878906 c 0.926822,0.1054317 1.858507,0.1800346 2.775391,0.3574219 -1.432419,1.2483227 -2.639784,3.6794585 -2.266829,5.6617355 0,0 1.401703,0.169516 2.209984,0.05276 0.273759,0.799649 0.646689,2.018505 1.068564,2.904648 0.450192,0.918029 1.110133,1.706604 1.792969,2.458985 1.236017,-0.656972 2.259825,-1.655842 3.007812,-2.833985 1.950911,1.282957 4.291702,2.078347 6.646485,1.871094 0.401989,-2.445939 -0.141221,-4.996594 -1.394532,-7.123047 1.163202,-0.450815 2.561308,-1.23831 2.632327,-2.6283466 C 28.392395,7.0030936 26.491015,6.2059752 24.898438,5.8203156 24.402837,5.4383787 24.914977,4.7511132 25.007258,4.2694612 25.28133,3.7351724 25.242928,2.7505565 24.470703,2.7695343 24.083132,2.7161511 23.687006,2.7495 23.296875,2.7402372 Z" /></clipPath></defs><g
     id="layer1"
     style="display:inline" /><g
     id="layer2"
     style="display:inline"><path
       style="fill:#ffffff;fill-opacity:1;stroke:none;stroke-width:1.5875;stroke-linecap:round"
       d="m 15.369526,14.649558 c 0,0 -3.21592,-4.233223 -8.1078304,-3.158745 0,0 -0.1775685,2.285129 1.6469917,3.274956 0,0 -4.539858,2.210522 -5.5546439,5.228616 0,0 1.5847476,1.561178 5.1286083,1.256628 -0.2121843,0.638946 -1.7174643,5.159182 -0.055085,8.936962 0,0 4.4349603,-0.826534 6.9265653,-5.828789 0,0 3.328821,3.23345 4.383013,3.099701 0.302064,-0.03834 2.24654,-2.417092 0.539772,-6.689509 0.188977,-0.11668 3.995582,-0.646952 3.995582,-0.646952 0,0 -2.199098,-6.635083 -7.97246,-4.354297 l 1.218652,-4.73898 -2.407298,-0.967981 c 0,0 1.081912,3.22614 0.258172,4.588387 z"
       id="path1-2"
       clip-path="url(#clipPath3)" /><path
       style="opacity:1;fill:#ffffff;fill-opacity:1;stroke:none;stroke-width:1.5875;stroke-linecap:round"
       d="m 17.759867,8.3783189 c 0,0 -4.229831,0.9490005 -4.040031,4.9619171 0,0 1.450615,0.149566 2.291158,-0.175806 0,0 0.257586,3.429522 2.04713,4.975037 0,0 1.518401,-0.650743 2.304715,-3.172373 0.379601,0.325371 3.063916,2.630087 6.127832,2.548744 0,0 0.677858,-3.28083 -2.060687,-6.398975 0,0 3.157934,-1.3797952 3.362174,-2.1420296 0.05852,-0.2184089 -1.030344,-2.2233727 -4.446746,-2.250487 -0.02711,-0.1626858 0.677858,-2.9283444 0.677858,-2.9283444 0,0 -5.178831,-0.3524859 -5.23306,4.2569451 L 15.875,5.8838031 14.533265,7.2666324 c 0,0 2.521631,0.1626861 3.226602,1.1116865 z"
       id="path1" /></g></svg>
