<?xml version="1.0" encoding="UTF-8" standalone="no"?>
<!-- Created with Inkscape (http://www.inkscape.org/) -->

<svg
   width="120"
   height="130"
   viewBox="0 0 31.75 34.395834"
   version="1.1"
   id="svg5"
   xml:space="preserve"
   xmlns="http://www.w3.org/2000/svg"
   xmlns:svg="http://www.w3.org/2000/svg"><defs
     id="defs2" /><g
     id="layer1"
     style="display:inline" /><g
     id="layer2"
     style="display:inline"><g
       id="g4"><path
         d="m 7.8390413,2.595389 c -2.3240334,0 -4.1948802,1.8964282 -4.1948802,4.2520552 V 21.38343 c 0,0.05574 0.00623,0.109852 0.00831,0.165058 -1.1876958,1.130125 -1.8619392,2.696374 -1.8664101,4.335622 -9e-7,3.318121 2.6904945,6.008001 6.0093735,6.008 3.3188785,1e-6 6.0093745,-2.689879 6.0093735,-6.008 -0.0013,-1.602595 -0.642948,-3.138264 -1.782304,-4.26555 0.0042,-0.07829 0.01142,-0.155732 0.01142,-0.23513 V 6.8474442 c 0,-2.355627 -1.870847,-4.2520552 -4.1948787,-4.2520552 z"
         style="display:inline;fill:none;stroke:#ffffff;stroke-width:1.5875;stroke-linecap:round;stroke-linejoin:round;stroke-dasharray:none"
         id="path2" /><path
         id="path3"
         style="fill:#ec1a23;stroke-width:1.58749;stroke-linecap:round;stroke-linejoin:round"
         d="m 11.440091,25.848097 a 3.614337,3.614337 0 0 1 -3.6143373,3.614337 3.614337,3.614337 0 0 1 -3.614337,-3.614337 3.614337,3.614337 0 0 1 3.614337,-3.614337 3.614337,3.614337 0 0 1 3.6143373,3.614337 z" /><path
         id="rect3"
         style="fill:#ec1a23;stroke-width:1.5875;stroke-linecap:round;stroke-linejoin:round"
         d="m 6.1278319,7.5480447 h 3.335059 V 23.953995 h -3.335059 z" /><path
         id="rect4"
         style="fill:#fdfdfd;stroke-width:1.5875;stroke-linecap:round;stroke-linejoin:round"
         d="m 12.49477,6.6810703 h 2.300807 c 0.513027,0 0.926042,0.3866708 0.926042,0.8669749 0,0.4803041 -0.413015,0.8669749 -0.926042,0.8669749 H 12.49477 c -0.513027,0 -0.926042,-0.3866708 -0.926042,-0.8669749 0,-0.4803041 0.413015,-0.8669749 0.926042,-0.8669749 z" /><path
         id="rect4-4"
         style="display:inline;fill:#fdfdfd;stroke-width:1.5875;stroke-linecap:round;stroke-linejoin:round"
         d="m 12.49477,11.857701 h 2.300807 c 0.513027,0 0.926042,0.386671 0.926042,0.866975 0,0.480304 -0.413015,0.866975 -0.926042,0.866975 H 12.49477 c -0.513027,0 -0.926042,-0.386671 -0.926042,-0.866975 0,-0.480304 0.413015,-0.866975 0.926042,-0.866975 z" /><path
         id="rect4-4-9"
         style="display:inline;fill:#fdfdfd;stroke-width:1.5875;stroke-linecap:round;stroke-linejoin:round"
         d="m 12.49477,17.072678 h 2.300807 c 0.513027,0 0.926042,0.38667 0.926042,0.866975 0,0.480304 -0.413015,0.866974 -0.926042,0.866974 H 12.49477 c -0.513027,0 -0.926042,-0.38667 -0.926042,-0.866974 0,-0.480305 0.413015,-0.866975 0.926042,-0.866975 z" /></g><g
       id="layer2-3"
       style="display:inline;fill:#f5b630;fill-opacity:1"
       transform="matrix(0.47532309,-0.08802875,0.08802875,0.47532309,15.006717,1.81888)"><path
         id="path2446"
         style="fill:none;stroke:#ec1a23;stroke-width:1.68795;stroke-linecap:square;stroke-miterlimit:2;stop-color:#000000"
         transform="matrix(1.5322979,0.28377809,-0.28377809,1.5322979,3.9780491,-1.4105278)"
         d="M 13.472324,10.430119 A 3.7568147,3.7568147 0 0 1 9.7155094,14.186933 3.7568147,3.7568147 0 0 1 5.9586947,10.430119 3.7568147,3.7568147 0 0 1 9.7155094,6.6733038 3.7568147,3.7568147 0 0 1 13.472324,10.430119 Z" /><path
         id="rect3886"
         style="fill:#ec1a23;stroke-width:1.85208;stroke-linecap:square;stroke-miterlimit:2;stop-color:#000000"
         transform="matrix(1.5570733,0.06316372,-0.06316372,1.5570733,3.9780491,-1.4105278)"
         d="m 7.7559357,2.3495715 c 0.4354077,0 0.7859345,0.3595044 0.7859345,0.8060636 v 2.6151076 c 0,0.4465592 -0.3505268,0.8060636 -0.7859345,0.8060636 -0.4354077,0 -0.7859345,-0.3595044 -0.7859345,-0.8060636 V 3.1556351 c 0,-0.4465592 0.3505268,-0.8060636 0.7859345,-0.8060636 z" /><path
         id="rect3886-35"
         style="display:inline;fill:#ec1a23;stroke-width:2.8862;stroke-linecap:square;stroke-miterlimit:2;stop-color:#000000"
         transform="rotate(25.443401)"
         d="m 22.642292,-5.9744473 c 0.67852,0 1.224764,0.5602351 1.224764,1.2561325 v 4.07526282 c 0,0.69589739 -0.546244,1.25613248 -1.224764,1.25613248 -0.678519,0 -1.224764,-0.56023509 -1.224764,-1.25613248 V -4.7183148 c 0,-0.6958974 0.546245,-1.2561325 1.224764,-1.2561325 z" /><path
         id="rect3886-35-6"
         style="display:inline;fill:#ec1a23;stroke-width:2.8862;stroke-linecap:square;stroke-miterlimit:2;stop-color:#000000"
         transform="rotate(61.907377)"
         d="m 22.540154,-20.76893 c 0.678519,0 1.224764,0.560235 1.224764,1.256132 v 4.075263 c 0,0.695897 -0.546245,1.256132 -1.224764,1.256132 -0.67852,0 -1.224764,-0.560235 -1.224764,-1.256132 v -4.075263 c 0,-0.695897 0.546244,-1.256132 1.224764,-1.256132 z" /><path
         id="rect3886-35-6-2"
         style="display:inline;fill:#ec1a23;stroke-width:2.8862;stroke-linecap:square;stroke-miterlimit:2;stop-color:#000000"
         transform="rotate(96.120402)"
         d="m 14.421802,-32.278599 c 0.678519,0 1.224764,0.560235 1.224764,1.256133 v 4.075262 c 0,0.695898 -0.546245,1.256133 -1.224764,1.256133 -0.67852,0 -1.224764,-0.560235 -1.224764,-1.256133 v -4.075262 c 0,-0.695898 0.546244,-1.256133 1.224764,-1.256133 z" /><path
         id="rect3886-3"
         style="display:inline;fill:#ec1a23;stroke-width:2.8862;stroke-linecap:square;stroke-miterlimit:2;stop-color:#000000"
         transform="rotate(-32.500636)"
         d="m 4.4873414,8.3376808 c 0.6785193,0 1.2247641,0.5602351 1.2247641,1.2561325 v 4.0752627 c 0,0.695897 -0.5462448,1.256133 -1.2247641,1.256133 -0.6785193,0 -1.2247641,-0.560236 -1.2247641,-1.256133 V 9.5938133 c 0,-0.6958974 0.5462448,-1.2561325 1.2247641,-1.2561325 z" /><path
         id="rect3886-3-6"
         style="display:inline;fill:#ec1a23;stroke-width:2.8862;stroke-linecap:square;stroke-miterlimit:2;stop-color:#000000"
         transform="rotate(-62.500636)"
         d="m -7.7262676,7.4468718 c 0.6785193,0 1.2247641,0.560235 1.2247641,1.2561324 v 4.0752628 c 0,0.695897 -0.5462448,1.256133 -1.2247641,1.256133 -0.6785193,0 -1.2247641,-0.560236 -1.2247641,-1.256133 V 8.7030042 c 0,-0.6958974 0.5462448,-1.2561324 1.2247641,-1.2561324 z" /><path
         id="rect3886-3-6-7"
         style="display:inline;fill:#ec1a23;stroke-width:2.8862;stroke-linecap:square;stroke-miterlimit:2;stop-color:#000000"
         transform="rotate(-91.766065)"
         d="m -17.567478,0.89063281 c 0.678519,0 1.224764,0.56023509 1.224764,1.25613249 v 4.0752628 c 0,0.6958974 -0.546245,1.2561325 -1.224764,1.2561325 -0.678519,0 -1.224764,-0.5602351 -1.224764,-1.2561325 V 2.1467653 c 0,-0.6958974 0.546245,-1.25613249 1.224764,-1.25613249 z" /><path
         id="rect3886-3-6-7-5"
         style="display:inline;fill:#ec1a23;stroke-width:2.8862;stroke-linecap:square;stroke-miterlimit:2;stop-color:#000000"
         transform="rotate(-118.26808)"
         d="m -23.146354,-9.0710001 c 0.678519,0 1.224764,0.5602351 1.224764,1.2561325 v 4.0752628 c 0,0.6958974 -0.546245,1.2561325 -1.224764,1.2561325 -0.67852,0 -1.224765,-0.5602351 -1.224765,-1.2561325 v -4.0752628 c 0,-0.6958974 0.546245,-1.2561325 1.224765,-1.2561325 z" /><path
         id="rect3886-3-6-7-5-7"
         style="display:inline;fill:#ec1a23;stroke-width:2.8862;stroke-linecap:square;stroke-miterlimit:2;stop-color:#000000"
         transform="rotate(-148.84126)"
         d="m -22.836454,-21.07443 c 0.678519,0 1.224764,0.560235 1.224764,1.256132 v 4.075263 c 0,0.695897 -0.546245,1.256132 -1.224764,1.256132 -0.678519,0 -1.224764,-0.560235 -1.224764,-1.256132 v -4.075263 c 0,-0.695897 0.546245,-1.256132 1.224764,-1.256132 z" /><path
         id="rect3886-3-6-7-5-7-5"
         style="display:inline;fill:#ec1a23;stroke-width:2.8862;stroke-linecap:square;stroke-miterlimit:2;stop-color:#000000"
         transform="rotate(-179.34036)"
         d="m -16.281782,-31.563799 c 0.678519,0 1.224764,0.560235 1.224764,1.256133 v 4.075262 c 0,0.695898 -0.546245,1.256133 -1.224764,1.256133 -0.678519,0 -1.224764,-0.560235 -1.224764,-1.256133 v -4.075262 c 0,-0.695898 0.546245,-1.256133 1.224764,-1.256133 z" /><path
         id="rect3886-3-6-7-5-7-5-3"
         style="display:inline;fill:#ec1a23;stroke-width:2.8862;stroke-linecap:square;stroke-miterlimit:2;stop-color:#000000"
         transform="rotate(146.69993)"
         d="m -3.2794392,-37.953133 c 0.6785193,0 1.2247641,0.560235 1.2247641,1.256133 v 4.075263 c 0,0.695897 -0.5462448,1.256132 -1.2247641,1.256132 -0.6785193,0 -1.2247641,-0.560235 -1.2247641,-1.256132 V -36.697 c 0,-0.695898 0.5462448,-1.256133 1.2247641,-1.256133 z" /><path
         id="rect3886-3-6-7-5-7-5-3-5"
         style="display:inline;fill:#ec1a23;stroke-width:2.8862;stroke-linecap:square;stroke-miterlimit:2;stop-color:#000000"
         transform="rotate(116.69993)"
         d="m 8.9750979,-36.540249 c 0.6785193,0 1.2247641,0.560235 1.2247641,1.256133 v 4.075262 c 0,0.695898 -0.5462448,1.256133 -1.2247641,1.256133 -0.6785193,0 -1.2247641,-0.560235 -1.2247641,-1.256133 v -4.075262 c 0,-0.695898 0.5462448,-1.256133 1.2247641,-1.256133 z" /></g></g></svg>
