<?xml version="1.0" encoding="UTF-8" standalone="no"?>
<!-- Created with Inkscape (http://www.inkscape.org/) -->

<svg
   width="120"
   height="130"
   viewBox="0 0 31.75 34.395834"
   version="1.1"
   id="svg5"
   xml:space="preserve"
   xmlns="http://www.w3.org/2000/svg"
   xmlns:svg="http://www.w3.org/2000/svg"><defs
     id="defs2" /><g
     id="layer1"
     style="display:inline" /><g
     id="layer2"
     style="display:inline"><g
       aria-label="WARM"
       transform="scale(0.89708263,1.1147245)"
       id="text3"
       style="font-size:5.70589px;line-height:1;font-family:'Casey Replica v3';-inkscape-font-specification:'Casey Replica v3';letter-spacing:0px;fill:#fab929;stroke-width:1.5875;stroke-linecap:round;stroke-linejoin:round"><path
         d="m 19.694174,30.23304 0.365177,-1.654708 c 0.09129,-0.388001 0.154059,-0.753178 0.22253,-1.186825 h 0.01141 c 0.04565,0.439353 0.108412,0.798824 0.182588,1.186825 l 0.325236,1.654708 h 0.941472 l 0.992825,-3.84577 h -0.884413 l -0.313824,1.56912 c -0.07988,0.462177 -0.165471,0.912942 -0.22253,1.340884 h -0.01141 c -0.05706,-0.427942 -0.119824,-0.838766 -0.205412,-1.289531 L 20.789705,26.38727 h -0.924354 l -0.325236,1.56912 c -0.097,0.479294 -0.188294,0.941472 -0.251059,1.358002 h -0.01141 c -0.06276,-0.388001 -0.142647,-0.884413 -0.228235,-1.346591 L 18.758408,26.38727 h -0.93006 l 0.912942,3.84577 z"
         style="font-weight:bold;font-family:'Myriad Pro';-inkscape-font-specification:'Myriad Pro Bold'"
         id="path22" /><path
         d="m 24.87512,29.245921 0.296707,0.987119 h 0.941472 l -1.198237,-3.84577 h -1.141178 l -1.169708,3.84577 h 0.895825 l 0.273883,-0.987119 z m -0.975707,-0.650472 0.228236,-0.815942 c 0.06276,-0.22253 0.119823,-0.51353 0.176882,-0.741766 h 0.01141 c 0.05706,0.228236 0.12553,0.51353 0.194,0.741766 l 0.239648,0.815942 z"
         style="font-weight:bold;font-family:'Myriad Pro';-inkscape-font-specification:'Myriad Pro Bold'"
         id="path24" /><path
         d="m 26.621123,30.23304 h 0.86159 v -1.512061 h 0.256765 c 0.359471,0.0057 0.524942,0.131235 0.633354,0.616236 0.108411,0.473589 0.205412,0.781707 0.26247,0.895825 h 0.890119 c -0.07418,-0.148353 -0.188294,-0.650472 -0.308118,-1.089825 -0.097,-0.353765 -0.245353,-0.604825 -0.51353,-0.713236 v -0.01712 c 0.330942,-0.119824 0.679001,-0.456471 0.679001,-0.941472 0,-0.353765 -0.125529,-0.627648 -0.359471,-0.810236 -0.273883,-0.216824 -0.673295,-0.302413 -1.243884,-0.302413 -0.467883,0 -0.878707,0.03424 -1.158296,0.07988 z m 0.86159,-3.195299 c 0.06276,-0.01712 0.182588,-0.02853 0.393706,-0.02853 0.399412,0 0.63906,0.182588 0.63906,0.530648 0,0.336647 -0.256765,0.553471 -0.690413,0.553471 h -0.342353 z"
         style="font-weight:bold;font-family:'Myriad Pro';-inkscape-font-specification:'Myriad Pro Bold'"
         id="path26" /><path
         d="m 33.319841,30.23304 h 0.844472 l -0.205412,-3.84577 h -1.141178 l -0.405119,1.278119 c -0.131235,0.427942 -0.262471,0.935766 -0.365177,1.380826 h -0.02282 c -0.08559,-0.450766 -0.199706,-0.93006 -0.325236,-1.37512 L 31.322779,26.38727 h -1.158295 l -0.245354,3.84577 h 0.804531 l 0.07418,-1.460708 c 0.02282,-0.479295 0.04565,-1.072707 0.06276,-1.591943 h 0.01141 c 0.097,0.502118 0.22253,1.049883 0.348059,1.506355 l 0.410824,1.483531 h 0.679001 l 0.467883,-1.500649 c 0.148353,-0.450765 0.308118,-0.998531 0.433648,-1.489237 h 0.01141 c 0,0.559177 0.01712,1.118354 0.03423,1.580531 z"
         style="font-weight:bold;font-family:'Myriad Pro';-inkscape-font-specification:'Myriad Pro Bold'"
         id="path28" /></g><g
       aria-label="暖"
       id="text4"
       style="font-weight:bold;font-size:9.525px;line-height:1;font-family:'Myriad Pro';-inkscape-font-specification:'Myriad Pro Bold';letter-spacing:0px;fill:#fab929;stroke-width:1.5875;stroke-linecap:round;stroke-linejoin:round"><path
         d="m 27.00491,1.033831 c -1.190625,0.2476499 -3.14325,0.4000499 -4.829175,0.4571999 0.104775,0.2286 0.2286,0.600075 0.24765,0.847725 1.7145,-0.028575 3.7719,-0.161925 5.2197,-0.466725 z m -0.55245,1.0382249 c -0.17145,0.4572 -0.466725,1.076325 -0.733425,1.524 H 24.54746 l 0.85725,-0.1905 c -0.04763,-0.295275 -0.1524,-0.790575 -0.257175,-1.16205 l -0.89535,0.161925 c 0.09525,0.371475 0.180975,0.885825 0.20955,1.190625 h -1.0668 l 0.4953,-0.161925 c -0.08573,-0.28575 -0.276225,-0.752475 -0.428625,-1.1049 l -0.85725,0.238125 c 0.1143,0.314325 0.257175,0.7239 0.3429,1.0287 h -0.581025 v 0.8953499 h 1.038225 l -0.0381,0.447675 h -1.27635 v 0.923925 h 1.152525 c -0.219075,1.2287249 -0.70485,2.4574499 -1.981199,3.2289748 0.276225,0.1905 0.59055,0.561975 0.733424,0.81915 0.85725,-0.55245 1.4097,-1.2858749 1.781175,-2.0954999 0.219075,0.28575 0.4572,0.542925 0.7239,0.78105 -0.4572,0.2285999 -0.981075,0.4000499 -1.552575,0.5143499 0.1905,0.180975 0.4953,0.6096 0.6096,0.847725 0.66675,-0.17145 1.27635,-0.409575 1.80975,-0.752475 0.59055,0.333375 1.2573,0.581025 2.0193,0.74295 0.142875,-0.28575 0.43815,-0.714375 0.676275,-0.93345 -0.676275,-0.104775 -1.2954,-0.276225 -1.838325,-0.5143499 0.4953,-0.523875 0.8763,-1.190625 1.1049,-2.03835 l -0.619125,-0.24765 -0.1905,0.028575 H 24.26171 l 0.0762,-0.3809999 h 3.495675 V 4.9390808 H 24.45221 l 0.0381,-0.447675 h 3.133725 V 3.5960559 H 26.71916 c 0.257175,-0.36195 0.5334,-0.809625 0.790575,-1.2192 z m -2.0574,4.9910998 h 1.666875 c -0.1905,0.371475 -0.428625,0.6858 -0.714375,0.9525 -0.390525,-0.276225 -0.714375,-0.59055 -0.9525,-0.9525 z M 21.032736,5.4058058 V 7.1584057 H 20.318361 V 5.4058058 Z m 0,-0.981075 H 20.318361 V 2.7388059 h 0.714375 z M 19.327761,1.7386809 v 7.1627997 h 0.9906 V 8.1585307 h 1.724024 V 1.7386809 Z"
         style="font-family:'Noto Sans CJK HK';-inkscape-font-specification:'Noto Sans CJK HK Bold'"
         id="path31" /></g><path
       style="display:inline;fill:#fab929;fill-opacity:1;stroke:none;stroke-width:1.5875;stroke-linecap:round;stroke-linejoin:round;stroke-dasharray:none;stroke-opacity:1"
       d="m 21.742462,19.364232 -0.537983,-7.093623 a 0.46351565,0.46351565 132.83148 0 1 0.462188,-0.498568 l 4.636776,0 a 0.44425486,0.44425486 48.378599 0 1 0.441169,0.496527 l -0.840973,7.097705 a 0.44425486,0.44425486 48.378599 0 0 0.441169,0.496527 h 1.638766 a 0.28253245,0.28253245 60.530733 0 1 0.242021,0.428307 l -4.106897,6.818446 a 0.29170148,0.29170148 0.80205338 0 1 -0.503867,-0.0071 L 19.771804,20.298161 A 0.29184076,0.29184076 120.27132 0 1 20.025916,19.8628 h 1.254358 a 0.46351565,0.46351565 132.83148 0 0 0.462188,-0.498568 z"
       id="path4"
       transform="matrix(1,0,0,-1,-0.3834541,39.02279)" /><g
       id="g4"><path
         d="m 7.8390413,2.595389 c -2.3240334,0 -4.1948802,1.8964282 -4.1948802,4.2520552 V 21.38343 c 0,0.05574 0.00623,0.109852 0.00831,0.165058 -1.1876958,1.130125 -1.8619392,2.696374 -1.8664101,4.335622 -9e-7,3.318121 2.6904945,6.008001 6.0093735,6.008 3.3188785,1e-6 6.0093745,-2.689879 6.0093735,-6.008 -0.0013,-1.602595 -0.642948,-3.138264 -1.782304,-4.26555 0.0042,-0.07829 0.01142,-0.155732 0.01142,-0.23513 V 6.8474442 c 0,-2.355627 -1.870847,-4.2520552 -4.1948787,-4.2520552 z"
         style="display:inline;fill:none;stroke:#ffffff;stroke-width:1.5875;stroke-linecap:round;stroke-linejoin:round;stroke-dasharray:none"
         id="path2" /><path
         id="path3"
         style="fill:#fab929;stroke-width:1.58749;stroke-linecap:round;stroke-linejoin:round"
         d="m 11.440091,25.848097 a 3.614337,3.614337 0 0 1 -3.6143373,3.614337 3.614337,3.614337 0 0 1 -3.614337,-3.614337 3.614337,3.614337 0 0 1 3.614337,-3.614337 3.614337,3.614337 0 0 1 3.6143373,3.614337 z" /><path
         id="rect3"
         style="fill:#fab929;stroke-width:1.5875;stroke-linecap:round;stroke-linejoin:round"
         d="m 6.1278319,10.947387 h 3.335059 v 13.006609 h -3.335059 z" /><path
         id="rect4"
         style="fill:#fdfdfd;stroke-width:1.5875;stroke-linecap:round;stroke-linejoin:round"
         d="m 12.49477,6.6810703 h 2.300807 c 0.513027,0 0.926042,0.3866708 0.926042,0.8669749 0,0.4803041 -0.413015,0.8669749 -0.926042,0.8669749 H 12.49477 c -0.513027,0 -0.926042,-0.3866708 -0.926042,-0.8669749 0,-0.4803041 0.413015,-0.8669749 0.926042,-0.8669749 z" /><path
         id="rect4-4"
         style="display:inline;fill:#fdfdfd;stroke-width:1.5875;stroke-linecap:round;stroke-linejoin:round"
         d="m 12.49477,11.857701 h 2.300807 c 0.513027,0 0.926042,0.386671 0.926042,0.866975 0,0.480304 -0.413015,0.866975 -0.926042,0.866975 H 12.49477 c -0.513027,0 -0.926042,-0.386671 -0.926042,-0.866975 0,-0.480304 0.413015,-0.866975 0.926042,-0.866975 z" /><path
         id="rect4-4-9"
         style="display:inline;fill:#fdfdfd;stroke-width:1.5875;stroke-linecap:round;stroke-linejoin:round"
         d="m 12.49477,17.072678 h 2.300807 c 0.513027,0 0.926042,0.38667 0.926042,0.866975 0,0.480304 -0.413015,0.866974 -0.926042,0.866974 H 12.49477 c -0.513027,0 -0.926042,-0.38667 -0.926042,-0.866974 0,-0.480305 0.413015,-0.866975 0.926042,-0.866975 z" /></g></g></svg>
