<?xml version="1.0" encoding="UTF-8" standalone="no"?>
<!-- Created with Inkscape (http://www.inkscape.org/) -->

<svg
   width="120"
   height="130"
   viewBox="0 0 31.75 34.395834"
   version="1.1"
   id="svg5"
   xml:space="preserve"
   xmlns="http://www.w3.org/2000/svg"
   xmlns:svg="http://www.w3.org/2000/svg"><defs
     id="defs2" /><g
     id="layer1"
     style="display:inline" /><g
     id="layer2"
     style="display:inline"><g
       aria-label="COLD"
       transform="scale(0.96772664,1.0333497)"
       id="text3"
       style="font-size:6.15522px;line-height:1;font-family:'Casey Replica v3';-inkscape-font-specification:'Casey Replica v3';letter-spacing:0px;fill:#00adee;stroke-width:1.5875;stroke-linecap:round;stroke-linejoin:round"><path
         d="m 20.380047,31.764429 c -0.190812,0.08002 -0.498573,0.135415 -0.787868,0.135415 -0.830955,0 -1.323372,-0.523194 -1.323372,-1.354148 0,-0.923283 0.57859,-1.372614 1.317217,-1.372614 0.338537,0 0.603211,0.07386 0.787868,0.15388 l 0.196967,-0.738626 c -0.166191,-0.09233 -0.535504,-0.184657 -1.021767,-0.184657 -1.255665,0 -2.265121,0.781713 -2.265121,2.197414 0,1.181802 0.738627,2.080464 2.172793,2.080464 0.498573,0 0.892507,-0.09848 1.058698,-0.178501 z"
         style="font-weight:bold;font-family:'Myriad Pro';-inkscape-font-specification:'Myriad Pro Bold'"
         id="path22" /><path
         d="m 22.780574,28.391369 c -1.218733,0 -2.018912,0.929438 -2.018912,2.172792 0,1.187958 0.726316,2.117396 1.951205,2.117396 1.218734,0 2.037378,-0.818644 2.037378,-2.185103 0,-1.151026 -0.69554,-2.105085 -1.969671,-2.105085 z m -0.01847,0.744781 c 0.646298,0 0.997145,0.640143 0.997145,1.39108 0,0.806334 -0.363158,1.409545 -0.997145,1.409545 -0.627833,0 -1.009456,-0.572435 -1.009456,-1.391079 0,-0.806334 0.369313,-1.409546 1.009456,-1.409546 z"
         style="font-weight:bold;font-family:'Myriad Pro';-inkscape-font-specification:'Myriad Pro Bold'"
         id="path24" /><path
         d="m 25.371928,32.61385 h 2.585192 v -0.787869 h -1.649599 v -3.36075 h -0.935593 z"
         style="font-weight:bold;font-family:'Myriad Pro';-inkscape-font-specification:'Myriad Pro Bold'"
         id="path26" /><path
         d="m 28.511088,32.595384 c 0.227743,0.03078 0.57859,0.06155 1.064853,0.06155 0.812489,0 1.483408,-0.172346 1.920428,-0.535504 0.393934,-0.338537 0.68323,-0.886352 0.68323,-1.680375 0,-0.732471 -0.27083,-1.243354 -0.701695,-1.563426 -0.393934,-0.29545 -0.910973,-0.443176 -1.704996,-0.443176 -0.467797,0 -0.917128,0.03693 -1.26182,0.09233 z m 0.935593,-3.403837 c 0.08002,-0.01846 0.221588,-0.03693 0.42471,-0.03693 0.812489,0 1.317217,0.455486 1.317217,1.317217 0,0.99099 -0.560125,1.458787 -1.4157,1.452632 -0.110794,0 -0.246209,0 -0.326227,-0.01847 z"
         style="font-weight:bold;font-family:'Myriad Pro';-inkscape-font-specification:'Myriad Pro Bold'"
         id="path28" /></g><g
       aria-label="冷"
       id="text4"
       style="font-weight:bold;font-size:9.525px;line-height:1;font-family:'Myriad Pro';-inkscape-font-specification:'Myriad Pro Bold';letter-spacing:0px;fill:#00adee;stroke-width:1.5875;stroke-linecap:round;stroke-linejoin:round"><path
         d="m 19.558814,1.6324339 c 0.4191,0.66675 0.93345,1.5811499 1.143,2.1526499 l 0.97155,-0.6096 c -0.2286,-0.5810249 -0.78105,-1.4477999 -1.209675,-2.0764499 z m 0.01905,7.1246997 1.00965,0.55245 c 0.43815,-0.9525 0.89535,-2.0954999 1.2954,-3.2099249 l -0.885825,-0.581025 c -0.447675,1.20015 -1.00965,2.4574499 -1.419225,3.2384999 z m 5.343525,-6.5246247 c 0.40005,0.4953 0.866775,0.9810749 1.343025,1.4096999 h -2.600325 c 0.466725,-0.428625 0.885825,-0.8953499 1.2573,-1.4096999 z m -0.32385,-1.50494996 c -0.6096,1.22872496 -1.819275,2.46697486 -3.209925,3.22897486 0.238125,0.180975 0.619125,0.581025 0.78105,0.8001 0.381,-0.2286 0.733425,-0.47625 1.076325,-0.752475 v 0.600075 h 3.286125 v -0.733425 c 0.36195,0.314325 0.733425,0.59055 1.095375,0.809625 0.200025,-0.28575 0.5715,-0.695325 0.8382,-0.904875 -1.0668,-0.523875 -2.26695,-1.4668499 -3.000375,-2.3812499 l 0.180975,-0.333375 z m -2.0193,4.53389986 v 0.9620249 h 3.60045 c -0.40005,0.504825 -0.923925,1.057275 -1.3716,1.457325 l -0.885825,-0.78105 -0.8001,0.619125 c 0.762,0.6857999 1.80975,1.6859249 2.295525,2.2764749 l 0.847725,-0.714375 c -0.180975,-0.200025 -0.4191,-0.43815 -0.6858,-0.695325 0.74295,-0.7429499 1.666875,-1.8002249 2.2098,-2.7050999 l -0.752475,-0.4762499 -0.161925,0.05715 z"
         style="font-family:'Noto Sans CJK HK';-inkscape-font-specification:'Noto Sans CJK HK Bold'"
         id="path31" /></g><path
       style="display:inline;fill:#00adee;fill-opacity:1;stroke:none;stroke-width:1.5875;stroke-linecap:round;stroke-linejoin:round;stroke-dasharray:none;stroke-opacity:1"
       d="m 21.742462,19.364232 -0.537983,-7.093623 a 0.46351565,0.46351565 132.83148 0 1 0.462188,-0.498568 l 4.636776,0 a 0.44425486,0.44425486 48.378599 0 1 0.441169,0.496527 l -0.840973,7.097705 a 0.44425486,0.44425486 48.378599 0 0 0.441169,0.496527 h 1.638766 a 0.28253245,0.28253245 60.530733 0 1 0.242021,0.428307 l -4.106897,6.818446 a 0.29170148,0.29170148 0.80205338 0 1 -0.503867,-0.0071 L 19.771804,20.298161 A 0.29184076,0.29184076 120.27132 0 1 20.025916,19.8628 h 1.254358 a 0.46351565,0.46351565 132.83148 0 0 0.462188,-0.498568 z"
       id="path4" /><g
       id="g4"><path
         d="m 7.8390413,2.595389 c -2.3240334,0 -4.1948802,1.8964282 -4.1948802,4.2520552 V 21.38343 c 0,0.05574 0.00623,0.109852 0.00831,0.165058 -1.1876958,1.130125 -1.8619392,2.696374 -1.8664101,4.335622 -9e-7,3.318121 2.6904945,6.008001 6.0093735,6.008 3.3188785,1e-6 6.0093745,-2.689879 6.0093735,-6.008 -0.0013,-1.602595 -0.642948,-3.138264 -1.782304,-4.26555 0.0042,-0.07829 0.01142,-0.155732 0.01142,-0.23513 V 6.8474442 c 0,-2.355627 -1.870847,-4.2520552 -4.1948787,-4.2520552 z"
         style="display:inline;fill:none;stroke:#ffffff;stroke-width:1.5875;stroke-linecap:round;stroke-linejoin:round;stroke-dasharray:none"
         id="path2" /><path
         id="path3"
         style="fill:#00adee;stroke-width:1.58749;stroke-linecap:round;stroke-linejoin:round"
         d="m 11.440091,25.848097 a 3.614337,3.614337 0 0 1 -3.6143373,3.614337 3.614337,3.614337 0 0 1 -3.614337,-3.614337 3.614337,3.614337 0 0 1 3.614337,-3.614337 3.614337,3.614337 0 0 1 3.6143373,3.614337 z" /><path
         id="rect3"
         style="fill:#00adee;stroke-width:1.5875;stroke-linecap:round;stroke-linejoin:round"
         d="m 6.1278319,20.917192 h 3.335059 v 3.036802 h -3.335059 z" /><path
         id="rect4"
         style="fill:#fdfdfd;stroke-width:1.5875;stroke-linecap:round;stroke-linejoin:round"
         d="m 12.49477,6.6810703 h 2.300807 c 0.513027,0 0.926042,0.3866708 0.926042,0.8669749 0,0.4803041 -0.413015,0.8669749 -0.926042,0.8669749 H 12.49477 c -0.513027,0 -0.926042,-0.3866708 -0.926042,-0.8669749 0,-0.4803041 0.413015,-0.8669749 0.926042,-0.8669749 z" /><path
         id="rect4-4"
         style="display:inline;fill:#fdfdfd;stroke-width:1.5875;stroke-linecap:round;stroke-linejoin:round"
         d="m 12.49477,11.857701 h 2.300807 c 0.513027,0 0.926042,0.386671 0.926042,0.866975 0,0.480304 -0.413015,0.866975 -0.926042,0.866975 H 12.49477 c -0.513027,0 -0.926042,-0.386671 -0.926042,-0.866975 0,-0.480304 0.413015,-0.866975 0.926042,-0.866975 z" /><path
         id="rect4-4-9"
         style="display:inline;fill:#fdfdfd;stroke-width:1.5875;stroke-linecap:round;stroke-linejoin:round"
         d="m 12.49477,17.072678 h 2.300807 c 0.513027,0 0.926042,0.38667 0.926042,0.866975 0,0.480304 -0.413015,0.866974 -0.926042,0.866974 H 12.49477 c -0.513027,0 -0.926042,-0.38667 -0.926042,-0.866974 0,-0.480305 0.413015,-0.866975 0.926042,-0.866975 z" /></g></g></svg>
