<?xml version="1.0" encoding="UTF-8" standalone="no"?>
<!-- Created with Inkscape (http://www.inkscape.org/) -->

<svg
   width="120"
   height="130"
   viewBox="0 0 31.75 34.395834"
   version="1.1"
   id="svg5"
   xml:space="preserve"
   xmlns="http://www.w3.org/2000/svg"
   xmlns:svg="http://www.w3.org/2000/svg"><defs
     id="defs2" /><g
     id="layer1"
     style="display:inline" /><g
     id="layer2"
     style="display:inline"><path
       style="fill:#ffffff;stroke:none;stroke-width:0.543284;stroke-linecap:square;stroke-miterlimit:2;stop-color:#000000"
       d="M 9.9989352,3.7576568 3.3457258,11.94194 H 16.847009 Z"
       id="path370" /><path
       style="display:inline;fill:#ffffff;stroke:none;stroke-width:0.543284;stroke-linecap:square;stroke-miterlimit:2;stop-color:#000000"
       d="M 10.096367,11.94194 3.443158,20.126223 H 16.944441 Z"
       id="path370-3" /></g><g
     id="layer3"><g
       aria-label="8"
       transform="scale(0.98158401,1.0187615)"
       id="text1625"
       style="font-size:17.9014px;line-height:1;font-family:'Segoe UI Variable';-inkscape-font-specification:'Segoe UI Variable';text-align:center;text-anchor:middle;display:inline;fill:#ffffff;stroke:#ffffff;stroke-width:0.529351;stroke-linecap:square;stroke-miterlimit:2;stop-color:#000000"><path
         d="m 22.722884,11.638036 v -0.0537 q -1.772238,-0.859267 -1.772238,-2.5778016 0,-1.4142106 1.109886,-2.2913791 1.109887,-0.89507 2.774717,-0.89507 1.772239,0 2.703112,0.8771686 0.948774,0.8771685 0.948774,2.0586609 0,0.7876616 -0.447535,1.4858162 -0.429634,0.698155 -1.342605,1.14569 v 0.0537 q 1.002478,0.375929 1.611126,1.145689 0.608647,0.751859 0.608647,1.79014 0,1.557422 -1.181492,2.524098 -1.181492,0.948774 -3.061139,0.948774 -1.933351,0 -3.043238,-0.948774 -1.091986,-0.948775 -1.091986,-2.255577 0,-2.040759 2.183971,-3.007435 z m 2.022858,4.654364 q 0.859268,0 1.39631,-0.483338 0.537042,-0.501239 0.537042,-1.253098 0,-1.593224 -2.16607,-2.18397 -0.805563,0.232718 -1.270999,0.76976 -0.447535,0.537042 -0.447535,1.253098 -0.0358,0.787661 0.501239,1.342605 0.554943,0.554943 1.450013,0.554943 z m -0.0179,-8.9506998 q -0.787662,0 -1.235197,0.4654364 -0.447535,0.447535 -0.447535,1.1098868 0,1.3068026 1.897549,1.8259426 0.626549,-0.179014 1.038281,-0.64445 0.411732,-0.483338 0.411732,-1.109887 0,-0.6802532 -0.429633,-1.163591 -0.411733,-0.4833378 -1.235197,-0.4833378 z"
         style="font-weight:600;font-family:'Myriad Pro';-inkscape-font-specification:'Myriad Pro Semi-Bold'"
         id="path20" /></g></g><g
     id="layer4"
     style="display:inline"><g
       aria-label="東北NE"
       transform="scale(0.98415239,1.0161028)"
       id="text3299-2"
       style="font-weight:bold;font-size:8.28422px;line-height:1;font-family:Constantia;-inkscape-font-specification:'Constantia Bold';letter-spacing:0px;display:inline;fill:#ffffff;stroke-width:0.31103;stroke-linecap:square;stroke-miterlimit:2;stop-color:#000000"><path
         d="M 2.7548187,25.771321 H 5.4781655 V 25.338789 H 2.3062674 v -0.897102 h 3.1718981 v -0.496611 h 1.1373978 v 0.496611 h 3.2840358 v 0.897102 H 6.6155633 v 0.432532 h 2.7233468 v 3.444232 H 7.2082917 q 1.0492895,0.969192 2.8595143,1.473812 -0.2723349,0.456561 -0.5126302,1.049289 -1.842264,-0.680837 -2.9396125,-1.946392 v 2.002461 H 5.4781655 V 29.808282 Q 4.3888268,30.985729 2.5946218,31.746664 2.3623363,31.113886 2.073982,30.665335 3.6679408,30.128676 4.7973288,29.215553 H 2.7548187 Z M 8.265591,28.39054 V 27.885919 H 6.6155633 V 28.39054 Z M 3.8281377,27.100955 h 1.6500278 v -0.50462 H 3.8281377 Z M 8.265591,26.596335 H 6.6155633 v 0.50462 H 8.265591 Z M 3.8281377,28.39054 H 5.4781655 V 27.885919 H 3.8281377 Z"
         style="font-size:8.20208px;font-family:'Microsoft YaHei';-inkscape-font-specification:'Microsoft YaHei';letter-spacing:0.500594px"
         id="path23" /><path
         d="m 18.001535,25.146553 0.825014,0.945161 q -1.189462,0.861059 -2.55514,1.702092 v 2.366909 q 0,0.456561 0.4886,0.456561 h 0.200246 q 0.204251,0 0.336414,-0.112138 0.136167,-0.112138 0.200246,-0.340418 0.06408,-0.228281 0.136167,-1.493836 l 1.129388,0.344423 q -0.06408,0.833024 -0.152187,1.429757 -0.08811,0.596734 -0.444546,0.897103 -0.356438,0.300369 -0.981206,0.300369 h -0.712876 q -1.401723,0 -1.401723,-1.265555 v -6.287727 h 1.201477 v 2.354894 q 0.941156,-0.644793 1.730126,-1.297595 z m -6.976574,5.951314 -0.216266,-1.241526 q 1.0573,-0.280345 2.08256,-0.576709 v -2.178677 h -1.930373 v -1.0573 h 1.930373 v -1.946392 h 1.201476 v 7.72149 h -1.201476 v -1.345654 z"
         id="path25" /><path
         d="m 20.852776,31.273468 v -1.933575 c 0,-1.04775 -0.01905,-1.952625 -0.06668,-2.809875 h 0.0381 c 0.3048,0.752475 0.733425,1.58115 1.114425,2.26695 l 1.3716,2.4765 h 1.524 v -6.41985 h -1.3335 v 1.8669 c 0,0.97155 0.02858,1.838325 0.1143,2.68605 h -0.01905 c -0.295275,-0.7239 -0.66675,-1.524 -1.04775,-2.200275 l -1.3335,-2.352675 h -1.69545 v 6.41985 z"
         style="font-size:9.525px;font-family:'Myriad Pro';-inkscape-font-specification:'Myriad Pro Bold';word-spacing:0px"
         id="path27" /><path
         d="m 29.911057,27.377743 h -2.3622 v -1.3335 h 2.505075 v -1.190625 h -3.952875 v 6.41985 h 4.086225 v -1.190625 h -2.638425 v -1.524 h 2.3622 z"
         style="font-size:9.525px;font-family:'Myriad Pro';-inkscape-font-specification:'Myriad Pro Bold';word-spacing:0px"
         id="path29" /></g></g></svg>
