<?xml version="1.0" encoding="UTF-8" standalone="no"?>
<!-- Created with Inkscape (http://www.inkscape.org/) -->

<svg
   width="120"
   height="130"
   viewBox="0 0 31.75 34.395834"
   version="1.1"
   id="svg5"
   xml:space="preserve"
   xmlns="http://www.w3.org/2000/svg"
   xmlns:svg="http://www.w3.org/2000/svg"><defs
     id="defs2" /><g
     id="layer1"
     style="display:inline" /><g
     id="layer2"
     style="display:inline"><path
       style="fill:#ffffff;stroke:none;stroke-width:0.543284;stroke-linecap:square;stroke-miterlimit:2;stop-color:#000000"
       d="M 9.9989352,7.9909901 3.3457258,16.175273 H 16.847009 Z"
       id="path370" /></g><g
     id="layer3"><g
       aria-label="8"
       transform="scale(0.98158401,1.0187615)"
       id="text1625"
       style="font-size:17.9014px;line-height:1;font-family:'Segoe UI Variable';-inkscape-font-specification:'Segoe UI Variable';text-align:center;text-anchor:middle;display:inline;fill:#ffffff;stroke:#ffffff;stroke-width:0.529351;stroke-linecap:square;stroke-miterlimit:2;stop-color:#000000"><path
         d="m 22.722884,11.638036 v -0.0537 q -1.772238,-0.859267 -1.772238,-2.5778016 0,-1.4142106 1.109886,-2.2913791 1.109887,-0.89507 2.774717,-0.89507 1.772239,0 2.703112,0.8771686 0.948774,0.8771685 0.948774,2.0586609 0,0.7876616 -0.447535,1.4858162 -0.429634,0.698155 -1.342605,1.14569 v 0.0537 q 1.002478,0.375929 1.611126,1.145689 0.608647,0.751859 0.608647,1.79014 0,1.557422 -1.181492,2.524098 -1.181492,0.948774 -3.061139,0.948774 -1.933351,0 -3.043238,-0.948774 -1.091986,-0.948775 -1.091986,-2.255577 0,-2.040759 2.183971,-3.007435 z m 2.022858,4.654364 q 0.859268,0 1.39631,-0.483338 0.537042,-0.501239 0.537042,-1.253098 0,-1.593224 -2.16607,-2.18397 -0.805563,0.232718 -1.270999,0.76976 -0.447535,0.537042 -0.447535,1.253098 -0.0358,0.787661 0.501239,1.342605 0.554943,0.554943 1.450013,0.554943 z m -0.0179,-8.9506998 q -0.787662,0 -1.235197,0.4654364 -0.447535,0.447535 -0.447535,1.1098868 0,1.3068026 1.897549,1.8259426 0.626549,-0.179014 1.038281,-0.64445 0.411732,-0.483338 0.411732,-1.109887 0,-0.6802532 -0.429633,-1.163591 -0.411733,-0.4833378 -1.235197,-0.4833378 z"
         style="font-weight:600;font-family:'Myriad Pro';-inkscape-font-specification:'Myriad Pro Semi-Bold'"
         id="path19" /></g></g><g
     id="layer4"
     style="display:inline"><g
       aria-label="西北NW"
       transform="scale(0.98415239,1.0161028)"
       id="text3299-2"
       style="font-weight:bold;font-size:8.28422px;line-height:1;font-family:Constantia;-inkscape-font-specification:'Constantia Bold';letter-spacing:0px;display:inline;fill:#ffffff;stroke-width:0.31103;stroke-linecap:square;stroke-miterlimit:2;stop-color:#000000"><path
         d="M 0.95700757,31.810743 V 26.29997 H 3.0475767 V 25.386848 H 0.65263352 v -1.00924 H 8.4702408 v 1.00924 h -2.507081 v 0.913122 h 2.2027069 v 5.502763 h -1.121378 v -0.52064 h -4.966103 v 0.52865 z M 4.1048761,26.29997 H 4.8978506 V 25.386848 H 4.1048761 Z m 0.7929745,2.202707 V 27.309211 H 4.1048761 q 0,1.746146 -1.1534175,2.667278 -0.4645709,-0.388478 -0.8730729,-0.660813 v 0.957177 h 4.966103 V 29.455849 H 5.8430121 q -0.9451615,0 -0.9451615,-0.953172 z m -2.8194649,0.736906 q 0.969191,-0.696856 0.969191,-1.930372 h -0.969191 z m 4.966103,-1.930372 H 5.9631598 v 0.744915 q 0,0.384473 0.3924823,0.384473 h 0.6888466 z"
         style="font-size:8.20208px;font-family:'Microsoft YaHei';-inkscape-font-specification:'Microsoft YaHei';letter-spacing:0.500594px"
         id="path22" /><path
         d="m 16.476058,25.146553 0.825014,0.945161 q -1.189462,0.861059 -2.55514,1.702092 v 2.366909 q 0,0.456561 0.488601,0.456561 h 0.200246 q 0.204251,0 0.336413,-0.112138 0.136167,-0.112138 0.200246,-0.340418 0.06408,-0.228281 0.136168,-1.493836 l 1.129387,0.344423 q -0.06408,0.833024 -0.152187,1.429757 -0.08811,0.596734 -0.444546,0.897103 -0.356438,0.300369 -0.981206,0.300369 h -0.712876 q -1.401722,0 -1.401722,-1.265555 v -6.287727 h 1.201476 v 2.354894 q 0.941157,-0.644793 1.730126,-1.297595 z M 9.4994846,31.097867 9.2832188,29.856341 Q 10.340518,29.575996 11.365778,29.279632 V 27.100955 H 9.4354059 v -1.0573 h 1.9303721 v -1.946392 h 1.201477 v 7.72149 h -1.201477 v -1.345654 z"
         id="path24" /><path
         d="m 19.272796,31.273468 v -1.879865 c 0,-1.018646 -0.01852,-1.898386 -0.06482,-2.731824 h 0.03704 c 0.296334,0.731573 0.713053,1.53723 1.083469,2.20398 l 1.333501,2.407709 h 1.481667 v -6.241523 h -1.296459 v 1.815042 c 0,0.944563 0.02778,1.787261 0.111125,2.611439 h -0.01852 c -0.287073,-0.703792 -0.648229,-1.481667 -1.018646,-2.139157 l -1.296459,-2.287324 h -1.648354 v 6.241523 z"
         style="font-size:9.26042px;font-family:'Myriad Pro';-inkscape-font-specification:'Myriad Pro Bold';word-spacing:0px"
         id="path26" /><path
         d="m 26.92191,31.273468 0.592667,-2.685522 c 0.148166,-0.629708 0.250031,-1.222375 0.361156,-1.926167 h 0.01852 c 0.07408,0.713052 0.175948,1.296459 0.296333,1.926167 l 0.527844,2.685522 H 30.2464 l 1.611313,-6.241523 h -1.435365 l -0.509323,2.546615 c -0.129646,0.750095 -0.268552,1.481668 -0.361156,2.176199 h -0.01852 c -0.0926,-0.694531 -0.194469,-1.361282 -0.333375,-2.092855 L 28.69991,25.031945 h -1.500188 l -0.527844,2.546615 c -0.157427,0.777876 -0.305593,1.52797 -0.407458,2.20398 h -0.01852 c -0.101865,-0.629708 -0.23151,-1.435365 -0.370417,-2.185459 l -0.472281,-2.565136 h -1.509449 l 1.481668,6.241523 z"
         style="font-size:9.26042px;font-family:'Myriad Pro';-inkscape-font-specification:'Myriad Pro Bold';word-spacing:0px"
         id="path28" /></g></g></svg>
