<?xml version="1.0" encoding="UTF-8" standalone="no"?>
<!-- Created with Inkscape (http://www.inkscape.org/) -->

<svg
   width="120"
   height="130"
   viewBox="0 0 31.75 34.395834"
   version="1.1"
   id="svg5"
   xml:space="preserve"
   xmlns="http://www.w3.org/2000/svg"
   xmlns:svg="http://www.w3.org/2000/svg"><defs
     id="defs2" /><g
     id="layer1"
     style="display:inline" /><g
     id="layer2"
     style="display:inline"
     transform="translate(0,5.2559769)"><path
       style="fill:#ffffff;stroke:none;stroke-width:0.543284;stroke-linecap:square;stroke-miterlimit:2;stop-color:#000000"
       d="M 10.096367,11.94194 3.4431576,20.126223 H 16.944441 Z"
       id="path370" /><path
       style="display:inline;fill:#ffffff;stroke:none;stroke-width:0.543284;stroke-linecap:square;stroke-miterlimit:2;stop-color:#000000"
       d="M 10.096367,11.94194 3.443158,3.7576568 h 13.501283 z"
       id="path370-3" /></g><g
     id="layer3"><g
       aria-label="9"
       transform="scale(0.98158401,1.0187615)"
       id="text1625"
       style="font-size:17.9014px;line-height:1;font-family:'Segoe UI Variable';-inkscape-font-specification:'Segoe UI Variable';text-align:center;text-anchor:middle;display:inline;fill:#ffffff;stroke:#ffffff;stroke-width:0.396875;stroke-linecap:square;stroke-miterlimit:2;stop-color:#000000"><path
         d="m 21.577195,22.87817 v -1.754337 q 0.447535,0.0358 1.217295,-0.0358 1.396309,-0.107409 2.362985,-0.89507 1.181492,-0.930873 1.503717,-2.595703 h -0.0358 q -0.930872,1.02038 -2.541998,1.02038 -1.539521,0 -2.541999,-1.002479 -0.984577,-1.002478 -0.984577,-2.595703 0,-1.718534 1.181492,-2.935829 1.199394,-1.217295 3.007435,-1.217295 1.987056,0 3.06114,1.378407 1.091985,1.378408 1.091985,3.58028 0,3.490773 -2.022858,5.424124 -1.53952,1.432112 -3.974111,1.593225 -0.662352,0.07161 -1.324703,0.0358 z m 3.061139,-10.382812 q -0.841366,0 -1.378408,0.680253 -0.51914,0.662352 -0.51914,1.718535 0,0.930872 0.501239,1.53952 0.51914,0.590746 1.41421,0.590746 1.271,0 1.879647,-0.966675 0.12531,-0.286423 0.12531,-0.644451 0,-1.270999 -0.501239,-2.094464 -0.501239,-0.823464 -1.521619,-0.823464 z"
         style="font-weight:600;font-family:'Myriad Pro';-inkscape-font-specification:'Myriad Pro Semi-Bold'"
         id="path14" /></g></g></svg>
