<?xml version="1.0" encoding="UTF-8" standalone="no"?>
<!-- Created with Inkscape (http://www.inkscape.org/) -->

<svg
   width="120"
   height="130"
   viewBox="0 0 31.75 34.395834"
   version="1.1"
   id="svg5"
   xml:space="preserve"
   xmlns="http://www.w3.org/2000/svg"
   xmlns:svg="http://www.w3.org/2000/svg"><defs
     id="defs2" /><g
     id="layer1"
     style="display:inline" /><g
     id="layer2"
     style="display:inline"><g
       id="g4"><path
         d="m 7.8390413,2.595389 c -2.3240334,0 -4.1948802,1.8964282 -4.1948802,4.2520552 V 21.38343 c 0,0.05574 0.00623,0.109852 0.00831,0.165058 -1.1876958,1.130125 -1.8619392,2.696374 -1.8664101,4.335622 -9e-7,3.318121 2.6904945,6.008001 6.0093735,6.008 3.3188785,1e-6 6.0093745,-2.689879 6.0093735,-6.008 -0.0013,-1.602595 -0.642948,-3.138264 -1.782304,-4.26555 0.0042,-0.07829 0.01142,-0.155732 0.01142,-0.23513 V 6.8474442 c 0,-2.355627 -1.870847,-4.2520552 -4.1948787,-4.2520552 z"
         style="display:inline;fill:none;stroke:#ffffff;stroke-width:1.5875;stroke-linecap:round;stroke-linejoin:round;stroke-dasharray:none"
         id="path2" /><path
         id="path3"
         style="fill:#00adee;stroke-width:1.58749;stroke-linecap:round;stroke-linejoin:round"
         d="m 11.440091,25.848097 a 3.614337,3.614337 0 0 1 -3.6143373,3.614337 3.614337,3.614337 0 0 1 -3.614337,-3.614337 3.614337,3.614337 0 0 1 3.614337,-3.614337 3.614337,3.614337 0 0 1 3.6143373,3.614337 z" /><path
         id="rect3"
         style="fill:#00adee;stroke-width:1.5875;stroke-linecap:round;stroke-linejoin:round"
         d="m 6.1278319,20.917192 h 3.335059 v 3.036802 h -3.335059 z" /><path
         id="rect4"
         style="fill:#fdfdfd;stroke-width:1.5875;stroke-linecap:round;stroke-linejoin:round"
         d="m 12.49477,6.6810703 h 2.300807 c 0.513027,0 0.926042,0.3866708 0.926042,0.8669749 0,0.4803041 -0.413015,0.8669749 -0.926042,0.8669749 H 12.49477 c -0.513027,0 -0.926042,-0.3866708 -0.926042,-0.8669749 0,-0.4803041 0.413015,-0.8669749 0.926042,-0.8669749 z" /><path
         id="rect4-4"
         style="display:inline;fill:#fdfdfd;stroke-width:1.5875;stroke-linecap:round;stroke-linejoin:round"
         d="m 12.49477,11.857701 h 2.300807 c 0.513027,0 0.926042,0.386671 0.926042,0.866975 0,0.480304 -0.413015,0.866975 -0.926042,0.866975 H 12.49477 c -0.513027,0 -0.926042,-0.386671 -0.926042,-0.866975 0,-0.480304 0.413015,-0.866975 0.926042,-0.866975 z" /><path
         id="rect4-4-9"
         style="display:inline;fill:#fdfdfd;stroke-width:1.5875;stroke-linecap:round;stroke-linejoin:round"
         d="m 12.49477,17.072678 h 2.300807 c 0.513027,0 0.926042,0.38667 0.926042,0.866975 0,0.480304 -0.413015,0.866974 -0.926042,0.866974 H 12.49477 c -0.513027,0 -0.926042,-0.38667 -0.926042,-0.866974 0,-0.480305 0.413015,-0.866975 0.926042,-0.866975 z" /></g><g
       id="g5"
       style="display:inline;stroke-width:1.05833334;stroke-dasharray:none"><path
         style="fill:#ec1a23;stroke:#00adee;stroke-width:1.05833334;stroke-linecap:round;stroke-opacity:1;stroke-dasharray:none"
         d="M 30.60622,8.7969824 H 17.645469"
         id="path1" /><path
         style="display:inline;fill:#ec1a23;stroke:#00adee;stroke-width:1.05833334;stroke-linecap:round;stroke-opacity:1;stroke-dasharray:none"
         d="M 24.044505,14.995168 V 2.3207395"
         id="path1-3" /><path
         style="fill:#00adee;fill-opacity:1;stroke:#00adee;stroke-width:1.05833334;stroke-linecap:round;stroke-opacity:1;stroke-dasharray:none"
         d="m 18.546182,5.0432598 3.753722,3.7537227"
         id="path4" /><path
         style="fill:#00adee;fill-opacity:1;stroke:#00adee;stroke-width:1.05833334;stroke-linecap:round;stroke-opacity:1;stroke-dasharray:none"
         d="m 20.504385,3.1994875 3.454086,3.4540858"
         id="path5" /><path
         style="display:inline;fill:#00adee;fill-opacity:1;stroke:#00adee;stroke-width:1.05833334;stroke-linecap:round;stroke-opacity:1;stroke-dasharray:none"
         d="M 29.547001,5.0432598 25.793279,8.7969825"
         id="path4-0" /><path
         style="display:inline;fill:#00adee;fill-opacity:1;stroke:#00adee;stroke-width:1.05833334;stroke-linecap:round;stroke-opacity:1;stroke-dasharray:none"
         d="M 27.588798,3.1994875 24.134712,6.6535733"
         id="path5-2" /><path
         style="display:inline;fill:#00adee;fill-opacity:1;stroke:#00adee;stroke-width:1.05833334;stroke-linecap:round;stroke-opacity:1;stroke-dasharray:none"
         d="M 18.546182,12.502904 22.299904,8.749178"
         id="path4-3" /><path
         style="display:inline;fill:#00adee;fill-opacity:1;stroke:#00adee;stroke-width:1.05833334;stroke-linecap:round;stroke-opacity:1;stroke-dasharray:none"
         d="M 20.504385,14.346676 23.958471,10.89259"
         id="path5-7" /><path
         style="display:inline;fill:#00adee;fill-opacity:1;stroke:#00adee;stroke-width:1.05833334;stroke-linecap:round;stroke-opacity:1;stroke-dasharray:none"
         d="M 29.547001,12.502904 25.793279,8.749178"
         id="path4-0-5" /><path
         style="display:inline;fill:#00adee;fill-opacity:1;stroke:#00adee;stroke-width:1.05833334;stroke-linecap:round;stroke-opacity:1;stroke-dasharray:none"
         d="M 27.588798,14.346676 24.134712,10.89259"
         id="path5-2-9" /></g></g></svg>
