<?xml version="1.0" encoding="UTF-8" standalone="no"?>
<!-- Created with Inkscape (http://www.inkscape.org/) -->

<svg
   width="120"
   height="130"
   viewBox="0 0 31.75 34.395834"
   version="1.1"
   id="svg5"
   xml:space="preserve"
   xmlns="http://www.w3.org/2000/svg"
   xmlns:svg="http://www.w3.org/2000/svg"><defs
     id="defs2" /><g
     id="layer1"
     style="display:inline" /><g
     id="layer2"
     style="display:inline"><g
       id="layer4"><g
         aria-label="FROST"
         transform="scale(0.96078782,1.0408125)"
         id="text2"
         style="font-weight:bold;font-size:6.16056px;line-height:0.8;font-family:'Noto Sans CJK JP';-inkscape-font-specification:'Noto Sans CJK JP Bold';text-align:end;letter-spacing:0.149263px;text-anchor:end;fill:#ffffff;stroke-width:1.65365"><path
           d="m 13.753213,32.679321 h 0.936405 v -1.669512 h 1.490855 V 30.2459 h -1.490855 v -0.948726 h 1.595585 v -0.77007 h -2.53199 z"
           style="font-family:'Myriad Pro';-inkscape-font-specification:'Myriad Pro Bold'"
           id="path18" /><path
           d="m 17.142933,32.679321 h 0.930244 v -1.632548 h 0.277225 c 0.388116,0.0062 0.566772,0.141693 0.683823,0.66534 0.11705,0.511327 0.22178,0.843997 0.283385,0.967208 h 0.961048 c -0.08009,-0.160174 -0.203299,-0.702304 -0.33267,-1.176667 -0.10473,-0.381954 -0.264905,-0.653019 -0.554451,-0.77007 v -0.01848 c 0.357313,-0.129372 0.733107,-0.492845 0.733107,-1.016493 0,-0.381955 -0.135533,-0.677661 -0.388115,-0.874799 -0.295707,-0.234102 -0.726947,-0.32651 -1.343003,-0.32651 -0.505166,0 -0.948726,0.03696 -1.250593,0.08625 z m 0.930244,-3.449913 c 0.06777,-0.01848 0.197138,-0.0308 0.425079,-0.0308 0.431239,0 0.689983,0.197138 0.689983,0.572932 0,0.363473 -0.277226,0.597574 -0.745428,0.597574 h -0.369634 z"
           style="font-family:'Myriad Pro';-inkscape-font-specification:'Myriad Pro Bold'"
           id="path20" /><path
           d="m 22.750456,28.453177 c -1.219791,0 -2.020663,0.930245 -2.020663,2.174678 0,1.188988 0.726946,2.119232 1.952897,2.119232 1.219791,0 2.039146,-0.819354 2.039146,-2.186998 0,-1.152025 -0.696144,-2.106912 -1.97138,-2.106912 z m -0.01848,0.745428 c 0.646858,0 0.99801,0.640698 0.99801,1.392286 0,0.807034 -0.363473,1.410769 -0.99801,1.410769 -0.628377,0 -1.010332,-0.572932 -1.010332,-1.392287 0,-0.807033 0.369633,-1.410768 1.010332,-1.410768 z"
           style="font-family:'Myriad Pro';-inkscape-font-specification:'Myriad Pro Bold'"
           id="path22" /><path
           d="m 25.326986,32.482183 c 0.234101,0.129372 0.702304,0.258744 1.176667,0.258744 1.139704,0 1.669512,-0.591414 1.669512,-1.287557 0,-0.585253 -0.338831,-0.967208 -1.071938,-1.238273 -0.542129,-0.203298 -0.77007,-0.320349 -0.77007,-0.585253 0,-0.209459 0.197138,-0.400436 0.603735,-0.400436 0.400437,0 0.702304,0.11705 0.862479,0.197138 l 0.209459,-0.751589 c -0.246423,-0.11705 -0.585254,-0.209459 -1.059617,-0.209459 -0.973368,0 -1.570943,0.535969 -1.570943,1.244433 0,0.603735 0.455882,0.98569 1.145865,1.232112 0.499005,0.172496 0.696143,0.320349 0.696143,0.579093 0,0.271065 -0.227941,0.449721 -0.65918,0.449721 -0.400436,0 -0.794712,-0.129372 -1.041135,-0.258744 z"
           style="font-family:'Myriad Pro';-inkscape-font-specification:'Myriad Pro Bold'"
           id="path24" /><path
           d="m 29.770165,32.679321 h 0.936405 v -3.363666 h 1.133543 v -0.788551 h -3.19117 v 0.788551 h 1.121222 z"
           style="font-family:'Myriad Pro';-inkscape-font-specification:'Myriad Pro Bold'"
           id="path26" /></g></g><g
       id="layer3"><g
         aria-label="霜"
         transform="scale(1.0262374,0.97443343)"
         id="text1"
         style="font-weight:bold;font-size:9.73426px;line-height:0.8;font-family:'Noto Sans CJK JP';-inkscape-font-specification:'Noto Sans CJK JP Bold';text-align:end;letter-spacing:0px;text-anchor:end;display:inline;fill:#002a53;stroke-width:1.65365"><path
           d="m 22.455548,3.6451775 v 0.564587 h 1.927384 v -0.564587 z m -0.272559,0.8760833 v 0.5645871 h 2.209677 V 4.5212608 Z m 4.000781,0.019469 v 0.564587 h 2.238879 v -0.564587 z m 0,-0.8955519 v 0.564587 h 1.946852 v -0.564587 z m -3.640613,1.6548241 v 0.7300695 h -1.557482 v 0.9150204 h 1.372531 c -0.408839,0.788475 -1.070769,1.5672158 -1.732699,1.9955232 0.223888,0.1752167 0.545119,0.5353843 0.710601,0.7787408 0.428308,-0.3309649 0.846881,-0.8079436 1.207049,-1.3530621 v 1.8008376 h 1.099971 V 8.3078878 c 0.340699,0.3212306 0.681398,0.6619297 0.885818,0.9052862 L 25.151938,8.3468249 C 24.918316,8.1618739 24.042233,7.4610072 23.643128,7.188448 V 6.9450915 h 1.382265 V 6.0300711 H 23.643128 V 5.3000016 Z m 3.854766,2.1415371 h 1.859244 v 0.4380417 h -1.859244 z m 0,-0.7106009 V 6.2928961 h 1.859244 v 0.4380417 z m 0,1.8495093 h 1.859244 V 9.028223 H 26.397923 Z M 25.317421,5.4849525 v 4.6724445 h 1.080502 V 9.8361666 h 1.859244 v 0.3212304 h 1.129174 V 5.4849525 Z M 21.014878,2.5549404 v 1.8787121 h 1.041566 V 3.3142127 h 2.667187 v 1.9371176 h 1.129174 V 3.3142127 h 2.715858 v 1.1194398 h 1.080503 V 2.5549404 H 25.852805 V 2.2142413 h 3.037089 V 1.3576265 h -7.193618 v 0.8566148 h 3.027355 v 0.3406991 z"
           style="fill:#ffffff"
           id="path29" /></g></g><path
       d="M 10.292912,1.9451009 C 9.8535374,1.944528 9.4972698,2.3010272 9.4981283,2.7404012 v 2.523877 L 6.2518148,3.5822103 C 6.135104,3.5215198 6.0063433,3.4914315 5.8771607,3.4928101 5.7996512,3.4936373 5.7219516,3.5057419 5.6466838,3.5295004 5.4464935,3.5937548 5.2799605,3.7348246 5.183663,3.9217245 4.9815547,4.310579 5.132851,4.7896839 5.5216268,4.9919434 L 9.4981283,7.0527995 V 13.520622 L 6.1810181,11.490255 7.6227906,9.2578329 C 7.8597323,8.8904984 7.7550748,8.4007102 7.3886964,8.1622926 7.2507895,8.0729115 7.0955431,8.0317584 6.9427287,8.0346518 6.6880382,8.0394741 6.4401551,8.1666054 6.2910889,8.3963868 L 4.8270956,10.660848 2.8184326,9.4314657 C 2.4445879,9.2021316 1.9555881,9.3194638 1.7265096,9.6934653 1.4974518,10.067714 1.6155059,10.556829 1.9900594,10.785388 l 2.5931234,1.588017 0.1281576,0.07855 4.7867879,2.930571 v 7.951452 L 6.8305909,22.148519 5.18573,17.027385 C 5.0763437,16.688103 4.7600471,16.473201 4.4214356,16.477031 4.3432945,16.477914 4.264056,16.49045 4.1857911,16.515788 3.7690813,16.65022 3.53993,17.09673 3.6736776,17.51366 l 1.2107788,3.770312 -2.9507243,-1.311547 c -0.4013916,-0.178721 -0.8716217,0.0027 -1.04903157,0.404626 -0.17739679,0.4007 0.003499,0.869365 0.40410967,1.046965 l 2.4396444,1.084171 -1.5234212,0.669727 c -0.4011178,0.176808 -0.582971,0.645323 -0.4061768,1.046447 0.1766048,0.40045 0.6440475,0.582387 1.0448975,0.406694 l 2.8463379,-1.251603 3.7610108,1.671216 c 0.015599,0.0029 0.031282,0.0053 0.047026,0.0072 V 29.5429 c 2.852e-4,0.438575 0.3562084,0.793804 0.7947837,0.793233 0.43797,-2.85e-4 0.792948,-0.355263 0.793233,-0.793233 v -4.576465 l 5.329391,-2.257227 3.804935,2.767273 c 0.354816,0.258182 0.85181,0.179478 1.109493,-0.1757 0.258182,-0.354815 0.179478,-0.851809 -0.175699,-1.109493 l -3.033407,-2.204516 4.662248,-1.975073 c 0.404167,-0.170633 0.593265,-0.636781 0.422196,-1.040764 -0.08231,-0.193831 -0.23828,-0.347009 -0.433565,-0.425814 -0.19503,-0.07946 -0.413645,-0.07816 -0.607715,0.0036 l -4.477763,1.897042 1.481563,-5.78156 c 0.108081,-0.424334 -0.147894,-0.856048 -0.572058,-0.964799 -0.07944,-0.02029 -0.15938,-0.02773 -0.237194,-0.02377 -0.337197,0.01714 -0.638493,0.24981 -0.727605,0.593762 l -0.595829,2.323373 -3.316593,-1.383895 c -0.0972,-0.04024 -0.200143,-0.06046 -0.303341,-0.06046 -0.103199,0 -0.206658,0.02022 -0.303857,0.06046 -0.194894,0.07974 -0.350119,0.233665 -0.431499,0.427881 -0.169432,0.404979 0.02205,0.870593 0.427364,1.039213 l 3.528984,1.470711 -0.789616,3.078365 -4.760433,2.016415 v -7.906495 l 7.429521,-4.549593 c 0.374549,-0.228557 0.492605,-0.717678 0.26355,-1.0919227 -0.15749,-0.2571229 -0.438027,-0.3930237 -0.719336,-0.3782715 -0.127868,0.00671 -0.255762,0.044606 -0.372587,0.1162719 L 11.086145,13.473596 V 7.8754884 l 1.521354,0.7885823 c 0.389405,0.2018013 0.8687,0.049519 1.070219,-0.3400309 0.201802,-0.3894042 0.04952,-0.8686994 -0.340031,-1.0702189 L 11.838037,6.4771241 14.353646,5.3572958 C 14.75433,5.1789022 14.934382,4.709331 14.755689,4.308781 14.577502,3.9090593 14.109382,3.7289775 13.709241,3.9062216 L 11.086145,5.0735922 V 2.7404012 C 11.087002,2.3016331 10.731681,1.9453857 10.292912,1.9451009 Z"
       style="fill:#ffffff;stroke-linecap:round"
       id="path2" /></g></svg>
