<?xml version="1.0" encoding="UTF-8" standalone="no"?>
<!-- Created with Inkscape (http://www.inkscape.org/) -->

<svg
   width="120"
   height="130"
   viewBox="0 0 31.75 34.395834"
   version="1.1"
   id="svg5"
   xml:space="preserve"
   xmlns="http://www.w3.org/2000/svg"
   xmlns:svg="http://www.w3.org/2000/svg"><defs
     id="defs2" /><g
     id="layer1"
     style="display:inline" /><g
     id="layer2"
     style="display:inline"><path
       style="fill:#00adee;fill-opacity:1;stroke-width:3.175;stroke-linecap:round"
       d="m 15.875,29.679348 c 0,0 -7.592391,-4.831521 -7.8224635,-13.881038 C 7.8224639,6.7487923 12.11715,6.1352659 12.11715,6.1352659 c 0,0 2.766674,-0.7441721 3.905475,0.7742285 1.1388,1.518401 0.0033,3.5566256 0.0033,3.5566256 -1.54642,2.20257 -4.10049,1.055531 -4.10049,1.055531 0,0 0.492937,2.431757 3.502848,2.453444 3.577536,0.02578 5.27527,-1.20336 6.046254,-2.966689 0.770984,-1.7633286 1.89141,-5.4579159 -0.86767,-8.3512045 C 17.801785,-0.28432739 15.875,0 15.875,0 H 10.574577 C 10.574577,0 3.0769233e-7,0.75920041 3.0769233e-7,15.834751 3.0769233e-7,30.910303 -0.069022,34.395832 -0.069022,34.395832 H 22.225 Z"
       id="path1" /><path
       style="fill:#00adee;fill-opacity:1;stroke-width:3.175;stroke-linecap:round"
       d="m 31.749998,34.395832 c 0,0 -5.584698,-1.940015 -8.269014,-5.112388 -2.684315,-3.172372 -1.898001,-6.480317 -1.898001,-6.480317 0,0 0.466836,-4.180624 3.362174,-3.985803 1.909321,0.128474 1.954629,2.638069 0.949,3.267274 -0.925553,0.579102 -2.182701,0.427299 -2.23693,0.4745 0,0 1.372539,1.656072 3.174746,1.46879 2.14806,-0.223222 3.849069,-2.431959 3.797882,-3.989622 -0.108458,-3.300495 -1.606343,-3.811919 -2.872752,-4.675688 -1.26641,-0.86377 -4.370055,-1.073949 -6.445263,-0.2109 -1.78517,0.742427 -3.064479,1.767872 -4.244352,2.969976 -1.22605,1.249152 -3.653909,5.679962 -1.384215,11.557691 1.480079,3.832898 5.931807,4.716487 5.931807,4.716487 z"
       id="path2" /></g></svg>
