<?xml version="1.0" encoding="UTF-8" standalone="no"?>
<!-- Created with Inkscape (http://www.inkscape.org/) -->

<svg
   width="120"
   height="130"
   viewBox="0 0 31.75 34.395834"
   version="1.1"
   id="svg5"
   xml:space="preserve"
   sodipodi:docname="W-2.svg"
   inkscape:version="1.3.2 (091e20ef0f, 2023-11-25)"
   inkscape:export-filename="../w_icon/W-2.svg"
   inkscape:export-xdpi="96"
   inkscape:export-ydpi="96"
   xmlns:inkscape="http://www.inkscape.org/namespaces/inkscape"
   xmlns:sodipodi="http://sodipodi.sourceforge.net/DTD/sodipodi-0.dtd"
   xmlns="http://www.w3.org/2000/svg"
   xmlns:svg="http://www.w3.org/2000/svg"><sodipodi:namedview
     id="namedview22"
     pagecolor="#ffffff"
     bordercolor="#000000"
     borderopacity="0.25"
     inkscape:showpageshadow="2"
     inkscape:pageopacity="0.0"
     inkscape:pagecheckerboard="0"
     inkscape:deskcolor="#d1d1d1"
     showgrid="false"
     inkscape:zoom="4.8790368"
     inkscape:cx="32.280962"
     inkscape:cy="64.971841"
     inkscape:window-width="1920"
     inkscape:window-height="1000"
     inkscape:window-x="0"
     inkscape:window-y="0"
     inkscape:window-maximized="1"
     inkscape:current-layer="layer3" /><defs
     id="defs2"><inkscape:path-effect
       effect="powerclip"
       id="path-effect1"
       is_visible="true"
       lpeversion="1"
       inverse="true"
       flatten="false"
       hide_clip="false"
       message="Use fill-rule evenodd on &lt;b&gt;fill and stroke&lt;/b&gt; dialog if no flatten result after convert clip to paths." /><inkscape:path-effect
       effect="powerclip"
       id="path-effect2"
       is_visible="true"
       lpeversion="1"
       inverse="true"
       flatten="false"
       hide_clip="false"
       message="Use fill-rule evenodd on &lt;b&gt;fill and stroke&lt;/b&gt; dialog if no flatten result after convert clip to paths." /><filter
       id="mask-powermask-path-effect5332_inverse"
       inkscape:label="filtermask-powermask-path-effect5332"
       style="color-interpolation-filters:sRGB"
       height="100"
       width="100"
       x="-50"
       y="-50"><feColorMatrix
         id="mask-powermask-path-effect5332_primitive1"
         values="1"
         type="saturate"
         result="fbSourceGraphic" /><feColorMatrix
         id="mask-powermask-path-effect5332_primitive2"
         values="-1 0 0 0 1 0 -1 0 0 1 0 0 -1 0 1 0 0 0 1 0 "
         in="fbSourceGraphic" /></filter><clipPath
       clipPathUnits="userSpaceOnUse"
       id="clipPath1"><path
         id="path1"
         style="display:none;opacity:1;fill:#002a53;fill-opacity:1;stroke:none;stroke-width:2.0902;stroke-linecap:square;stroke-miterlimit:2;stroke-dasharray:none;stroke-opacity:1;stop-color:#000000"
         inkscape:label="small_cloud_back"
         d="M 23.771034,19.12756 C 18.9152,18.584398 13.866564,20.583786 10.698495,24.304845 6.1056893,23.705507 1.3995034,26.506009 -0.81091185,30.276488 -3.2614466,34.245721 -2.8521997,39.708935 -0.34158602,43.417445 1.4394433,46.259847 4.514523,48.19355 7.8558145,48.544407 16.980112,50.336343 26.128568,52.02729 35.291798,53.595481 40.351953,54.036218 44.900563,49.836134 45.757674,44.994776 46.852827,40.191021 44.458433,34.541497 39.706585,32.737842 38.623596,32.303065 37.460884,32.127892 36.304944,32.022676 36.426741,26.133047 31.865171,20.634046 26.089649,19.570215 25.328521,19.364407 24.546731,19.260691 23.771033,19.127566 Z" /><path
         id="lpe_path-effect1"
         style="display:block;opacity:1;fill:#002a53;fill-opacity:1;stroke:none;stroke-width:2.0902;stroke-linecap:square;stroke-miterlimit:2;stroke-dasharray:none;stroke-opacity:1;stop-color:#000000"
         class="powerclip"
         d="M -3.5689663,-2.2631888 H 35.563958 V 36.749235 H -3.5689663 Z M 23.771034,19.12756 c -4.855834,-0.543162 -9.90447,1.456226 -13.072539,5.177285 -4.5928057,-0.599338 -9.2989916,2.201164 -11.50940685,5.971643 -2.45053475,3.969233 -2.04128785,9.432447 0.46932583,13.140957 1.78102932,2.842402 4.85610902,4.776105 8.19740052,5.126962 9.1242975,1.791936 18.2727535,3.482883 27.4359835,5.051074 5.060155,0.440737 9.608765,-3.759347 10.465876,-8.600705 1.095153,-4.803755 -1.299241,-10.453279 -6.051089,-12.256934 -1.082989,-0.434777 -2.245701,-0.60995 -3.401641,-0.715166 0.121797,-5.889629 -4.439773,-11.38863 -10.215295,-12.452461 -0.761128,-0.205808 -1.542918,-0.309524 -2.318616,-0.442649 z" /></clipPath></defs><g
     inkscape:groupmode="layer"
     id="layer1"
     inkscape:label="Layer 1"
     style="display:inline"><rect
       style="display:inline;fill:#002a53;fill-opacity:1;stroke-width:2.5109;stroke-linecap:square;stroke-miterlimit:2;stop-color:#000000"
       id="rect3330"
       width="31.75"
       height="34.395832"
       x="0"
       y="0" /></g><g
     inkscape:groupmode="layer"
     id="layer3"
     inkscape:label="Layer 2"><g
       id="layer2-3"
       style="display:inline;fill:#f5b630;fill-opacity:1"
       transform="matrix(0.61897155,-0.11463212,0.11463212,0.61897155,-2.0156017,1.4441026)"
       inkscape:label="sun"
       clip-path="url(#clipPath1)"
       inkscape:path-effect="#path-effect1"><circle
         style="fill:none;fill-opacity:1;stroke:#f5b630;stroke-width:1.68795;stroke-linecap:square;stroke-miterlimit:2;stroke-dasharray:none;stroke-opacity:1;stop-color:#000000"
         id="path2446-3"
         cx="9.7155094"
         cy="10.430119"
         r="3.7568147"
         transform="matrix(1.5322979,0.28377809,-0.28377809,1.5322979,3.9780491,-1.4105278)"
         d="M 13.472324,10.430119 A 3.7568147,3.7568147 0 0 1 9.7155094,14.186933 3.7568147,3.7568147 0 0 1 5.9586947,10.430119 3.7568147,3.7568147 0 0 1 9.7155094,6.6733038 3.7568147,3.7568147 0 0 1 13.472324,10.430119 Z" /><path
         style="fill:#f5b630;fill-opacity:1;stroke:none;stroke-width:1.85208;stroke-linecap:square;stroke-miterlimit:2;stroke-dasharray:none;stroke-opacity:1;stop-color:#000000"
         id="rect3886-6"
         width="1.571869"
         height="4.2272348"
         x="6.9700012"
         y="2.3495715"
         rx="0.78593451"
         ry="0.80606365"
         transform="matrix(1.5570733,0.06316372,-0.06316372,1.5570733,3.9780491,-1.4105278)"
         sodipodi:type="rect"
         d="m 7.7559357,2.3495715 c 0.4354077,0 0.7859345,0.3595044 0.7859345,0.8060636 l 0,2.6151076 c 0,0.4465592 -0.3505268,0.8060636 -0.7859345,0.8060636 -0.4354077,0 -0.7859345,-0.3595044 -0.7859345,-0.8060636 l 0,-2.6151076 c 0,-0.4465592 0.3505268,-0.8060636 0.7859345,-0.8060636 z" /><path
         style="display:inline;fill:#f5b630;fill-opacity:1;stroke:none;stroke-width:2.8862;stroke-linecap:square;stroke-miterlimit:2;stroke-dasharray:none;stroke-opacity:1;stop-color:#000000"
         id="rect3886-35-7"
         width="2.4495282"
         height="6.5875278"
         x="21.417528"
         y="-5.9744473"
         rx="1.2247641"
         ry="1.2561325"
         transform="rotate(25.443401)"
         sodipodi:type="rect"
         d="m 22.642292,-5.9744473 c 0.67852,0 1.224764,0.5602351 1.224764,1.2561325 l 0,4.07526282 c 0,0.69589739 -0.546244,1.25613248 -1.224764,1.25613248 -0.678519,0 -1.224764,-0.56023509 -1.224764,-1.25613248 V -4.7183148 c 0,-0.6958974 0.546245,-1.2561325 1.224764,-1.2561325 z" /><path
         style="display:inline;fill:#f5b630;fill-opacity:1;stroke:none;stroke-width:2.8862;stroke-linecap:square;stroke-miterlimit:2;stroke-dasharray:none;stroke-opacity:1;stop-color:#000000"
         id="rect3886-35-6-5"
         width="2.4495282"
         height="6.5875278"
         x="21.31539"
         y="-20.76893"
         rx="1.2247641"
         ry="1.2561325"
         transform="rotate(61.907377)"
         sodipodi:type="rect"
         d="m 22.540154,-20.76893 c 0.678519,0 1.224764,0.560235 1.224764,1.256132 l 0,4.075263 c 0,0.695897 -0.546245,1.256132 -1.224764,1.256132 -0.67852,0 -1.224764,-0.560235 -1.224764,-1.256132 v -4.075263 c 0,-0.695897 0.546244,-1.256132 1.224764,-1.256132 z" /><path
         style="display:inline;fill:#f5b630;fill-opacity:1;stroke:none;stroke-width:2.8862;stroke-linecap:square;stroke-miterlimit:2;stroke-dasharray:none;stroke-opacity:1;stop-color:#000000"
         id="rect3886-35-6-2-3"
         width="2.4495282"
         height="6.5875278"
         x="13.197038"
         y="-32.278599"
         rx="1.2247641"
         ry="1.2561325"
         transform="rotate(96.120402)"
         sodipodi:type="rect"
         d="m 14.421802,-32.278599 c 0.678519,0 1.224764,0.560235 1.224764,1.256133 l 0,4.075262 c 0,0.695898 -0.546245,1.256133 -1.224764,1.256133 -0.67852,0 -1.224764,-0.560235 -1.224764,-1.256133 l 0,-4.075262 c 0,-0.695898 0.546244,-1.256133 1.224764,-1.256133 z" /><path
         style="display:inline;fill:#f5b630;fill-opacity:1;stroke:none;stroke-width:2.8862;stroke-linecap:square;stroke-miterlimit:2;stroke-dasharray:none;stroke-opacity:1;stop-color:#000000"
         id="rect3886-3-5"
         width="2.4495282"
         height="6.5875278"
         x="3.2625773"
         y="8.3376808"
         rx="1.2247641"
         ry="1.2561325"
         transform="rotate(-32.500636)"
         sodipodi:type="rect"
         d="m 4.4873414,8.3376808 c 0.6785193,0 1.2247641,0.5602351 1.2247641,1.2561325 l 0,4.0752627 c 0,0.695897 -0.5462448,1.256133 -1.2247641,1.256133 -0.6785193,0 -1.2247641,-0.560236 -1.2247641,-1.256133 l 0,-4.0752627 c 0,-0.6958974 0.5462448,-1.2561325 1.2247641,-1.2561325 z" /><path
         style="display:inline;fill:#f5b630;fill-opacity:1;stroke:none;stroke-width:2.8862;stroke-linecap:square;stroke-miterlimit:2;stroke-dasharray:none;stroke-opacity:1;stop-color:#000000"
         id="rect3886-3-6-6"
         width="2.4495282"
         height="6.5875278"
         x="-8.9510317"
         y="7.4468718"
         rx="1.2247641"
         ry="1.2561325"
         transform="rotate(-62.500636)"
         sodipodi:type="rect"
         d="m -7.7262676,7.4468718 c 0.6785193,0 1.2247641,0.560235 1.2247641,1.2561324 l 0,4.0752628 c 0,0.695897 -0.5462448,1.256133 -1.2247641,1.256133 -0.6785193,0 -1.2247641,-0.560236 -1.2247641,-1.256133 V 8.7030042 c 0,-0.6958974 0.5462448,-1.2561324 1.2247641,-1.2561324 z" /><path
         style="display:inline;fill:#f5b630;fill-opacity:1;stroke:none;stroke-width:2.8862;stroke-linecap:square;stroke-miterlimit:2;stroke-dasharray:none;stroke-opacity:1;stop-color:#000000"
         id="rect3886-3-6-7-2"
         width="2.4495282"
         height="6.5875278"
         x="-18.792242"
         y="0.89063281"
         rx="1.2247641"
         ry="1.2561325"
         transform="rotate(-91.766065)"
         inkscape:transform-center-x="-0.0014282454"
         inkscape:transform-center-y="0.030281693"
         sodipodi:type="rect"
         d="m -17.567478,0.89063281 c 0.678519,0 1.224764,0.56023509 1.224764,1.25613249 v 4.0752628 c 0,0.6958974 -0.546245,1.2561325 -1.224764,1.2561325 -0.678519,0 -1.224764,-0.5602351 -1.224764,-1.2561325 V 2.1467653 c 0,-0.6958974 0.546245,-1.25613249 1.224764,-1.25613249 z" /><path
         style="display:inline;fill:#f5b630;fill-opacity:1;stroke:none;stroke-width:2.8862;stroke-linecap:square;stroke-miterlimit:2;stroke-dasharray:none;stroke-opacity:1;stop-color:#000000"
         id="rect3886-3-6-7-5-9"
         width="2.4495282"
         height="6.5875278"
         x="-24.371119"
         y="-9.0710001"
         rx="1.2247641"
         ry="1.2561325"
         transform="rotate(-118.26808)"
         inkscape:transform-center-x="-0.014791785"
         inkscape:transform-center-y="0.026461755"
         sodipodi:type="rect"
         d="m -23.146354,-9.0710001 c 0.678519,0 1.224764,0.5602351 1.224764,1.2561325 v 4.0752628 c 0,0.6958974 -0.546245,1.2561325 -1.224764,1.2561325 -0.67852,0 -1.224765,-0.5602351 -1.224765,-1.2561325 l 0,-4.0752628 c 0,-0.6958974 0.546245,-1.2561325 1.224765,-1.2561325 z" /><path
         style="display:inline;fill:#f5b630;fill-opacity:1;stroke:none;stroke-width:2.8862;stroke-linecap:square;stroke-miterlimit:2;stroke-dasharray:none;stroke-opacity:1;stop-color:#000000"
         id="rect3886-3-6-7-5-7"
         width="2.4495282"
         height="6.5875278"
         x="-24.061218"
         y="-21.07443"
         rx="1.2247641"
         ry="1.2561325"
         transform="rotate(-148.84126)"
         inkscape:transform-center-x="-0.026194653"
         inkscape:transform-center-y="0.015259507"
         sodipodi:type="rect"
         d="m -22.836454,-21.07443 c 0.678519,0 1.224764,0.560235 1.224764,1.256132 v 4.075263 c 0,0.695897 -0.546245,1.256132 -1.224764,1.256132 -0.678519,0 -1.224764,-0.560235 -1.224764,-1.256132 v -4.075263 c 0,-0.695897 0.546245,-1.256132 1.224764,-1.256132 z" /><path
         style="display:inline;fill:#f5b630;fill-opacity:1;stroke:none;stroke-width:2.8862;stroke-linecap:square;stroke-miterlimit:2;stroke-dasharray:none;stroke-opacity:1;stop-color:#000000"
         id="rect3886-3-6-7-5-7-5"
         width="2.4495282"
         height="6.5875278"
         x="-17.506546"
         y="-31.563799"
         rx="1.2247641"
         ry="1.2561325"
         transform="rotate(-179.34036)"
         inkscape:transform-center-y="-0.00014489471"
         inkscape:transform-center-x="-0.030313386"
         sodipodi:type="rect"
         d="m -16.281782,-31.563799 c 0.678519,0 1.224764,0.560235 1.224764,1.256133 l 0,4.075262 c 0,0.695898 -0.546245,1.256133 -1.224764,1.256133 -0.678519,0 -1.224764,-0.560235 -1.224764,-1.256133 v -4.075262 c 0,-0.695898 0.546245,-1.256133 1.224764,-1.256133 z" /><path
         style="display:inline;fill:#f5b630;fill-opacity:1;stroke:none;stroke-width:2.8862;stroke-linecap:square;stroke-miterlimit:2;stroke-dasharray:none;stroke-opacity:1;stop-color:#000000"
         id="rect3886-3-6-7-5-7-5-3"
         width="2.4495282"
         height="6.5875278"
         x="-4.5042033"
         y="-37.953133"
         rx="1.2247641"
         ry="1.2561325"
         transform="rotate(146.69993)"
         inkscape:transform-center-y="-0.017052749"
         inkscape:transform-center-x="-0.025061347"
         sodipodi:type="rect"
         d="m -3.2794392,-37.953133 c 0.6785193,0 1.2247641,0.560235 1.2247641,1.256133 l 0,4.075263 c 0,0.695897 -0.5462448,1.256132 -1.2247641,1.256132 -0.6785193,0 -1.2247641,-0.560235 -1.2247641,-1.256132 l 0,-4.075263 c 0,-0.695898 0.5462448,-1.256133 1.2247641,-1.256133 z" /><path
         style="display:inline;fill:#f5b630;fill-opacity:1;stroke:none;stroke-width:2.8862;stroke-linecap:square;stroke-miterlimit:2;stroke-dasharray:none;stroke-opacity:1;stop-color:#000000"
         id="rect3886-3-6-7-5-7-5-3-5"
         width="2.4495282"
         height="6.5875278"
         x="7.7503338"
         y="-36.540249"
         rx="1.2247641"
         ry="1.2561325"
         transform="rotate(116.69993)"
         inkscape:transform-center-y="-0.02729889"
         inkscape:transform-center-x="-0.013177294"
         sodipodi:type="rect"
         d="m 8.9750979,-36.540249 c 0.6785193,0 1.2247641,0.560235 1.2247641,1.256133 l 0,4.075262 c 0,0.695898 -0.5462448,1.256133 -1.2247641,1.256133 -0.6785193,0 -1.2247641,-0.560235 -1.2247641,-1.256133 l 0,-4.075262 c 0,-0.695898 0.5462448,-1.256133 1.2247641,-1.256133 z" /></g><path
       id="path2427"
       style="display:inline;opacity:1;fill:#ffffff;fill-opacity:1;stroke:none;stroke-width:2.0902;stroke-linecap:square;stroke-miterlimit:2;stroke-dasharray:none;stroke-opacity:1;stop-color:#000000"
       d="m 15.469346,12.125965 c -2.88815,-7.2e-5 -5.9787533,1.858404 -7.0361685,4.72562 H 7.896032 c -3.1937284,-1.28e-4 -5.7827772,2.689228 -5.7826128,6.006696 1.504e-4,3.317237 2.5891069,6.182168 5.7826128,6.182037 h 0.7351301 l 15.7534319,-6.6e-5 c 0,0 0.596169,-9.37e-4 0.897679,0 2.54001,1.49e-4 4.599206,-2.193472 4.599206,-5.17284 0,-2.510889 -1.748492,-5.215738 -4.599206,-5.215738 h -0.896555 -1.72496 c -0.07,-4.086181 -3.000772,-6.525329 -6.831637,-6.525697 z"
       sodipodi:nodetypes="cccccccccscccc"
       inkscape:label="small_cloud" /></g></svg>
