<?xml version="1.0" encoding="UTF-8" standalone="no"?>
<!-- Created with Inkscape (http://www.inkscape.org/) -->

<svg
   width="120"
   height="130"
   viewBox="0 0 31.75 34.395834"
   version="1.1"
   id="svg5"
   xml:space="preserve"
   sodipodi:docname="W-4.svg"
   inkscape:version="1.3.2 (091e20ef0f, 2023-11-25)"
   inkscape:export-filename="../w_icon/W-4.svg"
   inkscape:export-xdpi="96"
   inkscape:export-ydpi="96"
   xmlns:inkscape="http://www.inkscape.org/namespaces/inkscape"
   xmlns:sodipodi="http://sodipodi.sourceforge.net/DTD/sodipodi-0.dtd"
   xmlns="http://www.w3.org/2000/svg"
   xmlns:svg="http://www.w3.org/2000/svg"><sodipodi:namedview
     id="namedview22"
     pagecolor="#ffffff"
     bordercolor="#000000"
     borderopacity="0.25"
     inkscape:showpageshadow="2"
     inkscape:pageopacity="0.0"
     inkscape:pagecheckerboard="0"
     inkscape:deskcolor="#d1d1d1"
     showgrid="false"
     inkscape:zoom="1.2197592"
     inkscape:cx="1.6396679"
     inkscape:cy="1.6396679"
     inkscape:window-width="1920"
     inkscape:window-height="1000"
     inkscape:window-x="0"
     inkscape:window-y="0"
     inkscape:window-maximized="1"
     inkscape:current-layer="layer1" /><defs
     id="defs2"><inkscape:path-effect
       effect="powerclip"
       id="path-effect3"
       is_visible="true"
       lpeversion="1"
       inverse="true"
       flatten="false"
       hide_clip="false"
       message="Use fill-rule evenodd on &lt;b&gt;fill and stroke&lt;/b&gt; dialog if no flatten result after convert clip to paths." /><filter
       id="mask-powermask-path-effect5332_inverse"
       inkscape:label="filtermask-powermask-path-effect5332"
       style="color-interpolation-filters:sRGB"
       height="100"
       width="100"
       x="-50"
       y="-50"><feColorMatrix
         id="mask-powermask-path-effect5332_primitive1"
         values="1"
         type="saturate"
         result="fbSourceGraphic" /><feColorMatrix
         id="mask-powermask-path-effect5332_primitive2"
         values="-1 0 0 0 1 0 -1 0 0 1 0 0 -1 0 1 0 0 0 1 0 "
         in="fbSourceGraphic" /></filter><clipPath
       clipPathUnits="userSpaceOnUse"
       id="clipPath2"><path
         id="path3"
         style="display:none;opacity:1;fill:#002a53;fill-opacity:1;stroke:none;stroke-width:1.46828;stroke-linecap:square;stroke-miterlimit:2;stroke-dasharray:none;stroke-opacity:1;stop-color:#000000"
         inkscape:label="small_cloud_back"
         d="m 30.086097,18.688012 c -3.528732,-0.474738 -7.233468,0.88505 -9.667819,3.422324 -5.24458,-0.416508 -10.036573,4.502815 -9.681455,9.714889 0.101889,4.539974 3.849402,8.776295 8.450713,9.068681 6.498378,1.15702 12.970368,2.538502 19.500981,3.46775 4.730138,0.01625 8.360246,-4.854014 7.803372,-9.388814 -0.283056,-3.607651 -3.2012,-7.069179 -6.923657,-7.305973 -0.07926,-4.590532 -4.225374,-8.310033 -8.629552,-8.83903 -0.282227,-0.05794 -0.568522,-0.09248 -0.852582,-0.139832 z" /><path
         id="lpe_path-effect3"
         style="display:inline;opacity:1;fill:#002a53;fill-opacity:1;stroke:none;stroke-width:1.46828;stroke-linecap:square;stroke-miterlimit:2;stroke-dasharray:none;stroke-opacity:1;stop-color:#000000"
         class="powerclip"
         d="M -3.5689663,-2.2631888 H 35.563958 V 36.749235 H -3.5689663 Z M 30.086097,18.688012 c -3.528732,-0.474738 -7.233468,0.88505 -9.667819,3.422324 -5.24458,-0.416508 -10.036573,4.502815 -9.681455,9.714889 0.101889,4.539974 3.849402,8.776295 8.450713,9.068681 6.498378,1.15702 12.970368,2.538502 19.500981,3.46775 4.730138,0.01625 8.360246,-4.854014 7.803372,-9.388814 -0.283056,-3.607651 -3.2012,-7.069179 -6.923657,-7.305973 -0.07926,-4.590532 -4.225374,-8.310033 -8.629552,-8.83903 -0.282227,-0.05794 -0.568522,-0.09248 -0.852582,-0.139832 z" /></clipPath></defs><g
     inkscape:groupmode="layer"
     id="layer1"
     inkscape:label="Layer 1"
     style="display:inline"><rect
       style="display:inline;fill:#002a53;fill-opacity:1;stroke-width:2.5109;stroke-linecap:square;stroke-miterlimit:2;stop-color:#000000"
       id="rect3330"
       width="31.75"
       height="34.395832"
       x="0"
       y="0" /></g><g
     inkscape:groupmode="layer"
     id="layer3"
     inkscape:label="Layer 2"><g
       id="layer2-3"
       style="display:inline;fill:#f5b630;fill-opacity:1;opacity:1"
       transform="matrix(0.61897155,-0.11463212,0.11463212,0.61897155,-2.0156017,1.4441026)"
       inkscape:label="sun"
       clip-path="url(#clipPath2)"
       inkscape:path-effect="#path-effect3"><circle
         style="fill:none;fill-opacity:1;stroke:#f5b630;stroke-width:2.54344;stroke-linecap:square;stroke-miterlimit:2;stroke-dasharray:none;stroke-opacity:1;stop-color:#000000"
         id="path2446-3"
         cx="18.855793"
         cy="14.20338"
         r="5.9045663"
         transform="rotate(10.492172)"
         d="M 24.760359,14.20338 A 5.9045663,5.9045663 0 0 1 18.855793,20.107946 5.9045663,5.9045663 0 0 1 12.951227,14.20338 5.9045663,5.9045663 0 0 1 18.855793,8.2988133 5.9045663,5.9045663 0 0 1 24.760359,14.20338 Z" /><path
         style="fill:#f5b630;fill-opacity:1;stroke:none;stroke-width:1.85208;stroke-linecap:square;stroke-miterlimit:2;stroke-dasharray:none;stroke-opacity:1;stop-color:#000000"
         id="rect3886-6"
         width="1.571869"
         height="4.2272348"
         x="6.9700012"
         y="2.3495715"
         rx="0.78593451"
         ry="0.80606365"
         transform="matrix(1.5570733,0.06316372,-0.06316372,1.5570733,3.9780491,-1.4105278)"
         sodipodi:type="rect"
         d="m 7.7559357,2.3495715 c 0.4354077,0 0.7859345,0.3595044 0.7859345,0.8060636 l 0,2.6151076 c 0,0.4465592 -0.3505268,0.8060636 -0.7859345,0.8060636 -0.4354077,0 -0.7859345,-0.3595044 -0.7859345,-0.8060636 l 0,-2.6151076 c 0,-0.4465592 0.3505268,-0.8060636 0.7859345,-0.8060636 z" /><path
         style="display:inline;fill:#f5b630;fill-opacity:1;stroke:none;stroke-width:2.8862;stroke-linecap:square;stroke-miterlimit:2;stroke-dasharray:none;stroke-opacity:1;stop-color:#000000"
         id="rect3886-35-7"
         width="2.4495282"
         height="6.5875278"
         x="21.417528"
         y="-5.9744473"
         rx="1.2247641"
         ry="1.2561325"
         transform="rotate(25.443401)"
         sodipodi:type="rect"
         d="m 22.642292,-5.9744473 c 0.67852,0 1.224764,0.5602351 1.224764,1.2561325 l 0,4.07526282 c 0,0.69589739 -0.546244,1.25613248 -1.224764,1.25613248 -0.678519,0 -1.224764,-0.56023509 -1.224764,-1.25613248 V -4.7183148 c 0,-0.6958974 0.546245,-1.2561325 1.224764,-1.2561325 z" /><path
         style="display:inline;fill:#f5b630;fill-opacity:1;stroke:none;stroke-width:2.8862;stroke-linecap:square;stroke-miterlimit:2;stroke-dasharray:none;stroke-opacity:1;stop-color:#000000"
         id="rect3886-35-6-5"
         width="2.4495282"
         height="6.5875278"
         x="21.31539"
         y="-20.76893"
         rx="1.2247641"
         ry="1.2561325"
         transform="rotate(61.907377)"
         sodipodi:type="rect"
         d="m 22.540154,-20.76893 c 0.678519,0 1.224764,0.560235 1.224764,1.256132 l 0,4.075263 c 0,0.695897 -0.546245,1.256132 -1.224764,1.256132 -0.67852,0 -1.224764,-0.560235 -1.224764,-1.256132 v -4.075263 c 0,-0.695897 0.546244,-1.256132 1.224764,-1.256132 z" /><path
         style="display:inline;fill:#f5b630;fill-opacity:1;stroke:none;stroke-width:2.52186;stroke-linecap:square;stroke-miterlimit:2;stroke-dasharray:none;stroke-opacity:1;stop-color:#000000"
         id="rect3886-35-6-2-3"
         width="2.4495282"
         height="6.5875278"
         x="13.197038"
         y="-32.278599"
         rx="1.2247641"
         ry="1.2561325"
         transform="rotate(96.120402)"
         sodipodi:type="rect"
         d="m 14.421802,-32.278599 c 0.678519,0 1.224764,0.560235 1.224764,1.256133 l 0,4.075262 c 0,0.695898 -0.546245,1.256133 -1.224764,1.256133 -0.67852,0 -1.224764,-0.560235 -1.224764,-1.256133 l 0,-4.075262 c 0,-0.695898 0.546244,-1.256133 1.224764,-1.256133 z" /><path
         style="display:inline;fill:#f5b630;fill-opacity:1;stroke:none;stroke-width:2.8862;stroke-linecap:square;stroke-miterlimit:2;stroke-dasharray:none;stroke-opacity:1;stop-color:#000000"
         id="rect3886-3-5"
         width="2.4495282"
         height="6.5875278"
         x="3.2625773"
         y="8.3376808"
         rx="1.2247641"
         ry="1.2561325"
         transform="rotate(-32.500636)"
         sodipodi:type="rect"
         d="m 4.4873414,8.3376808 c 0.6785193,0 1.2247641,0.5602351 1.2247641,1.2561325 l 0,4.0752627 c 0,0.695897 -0.5462448,1.256133 -1.2247641,1.256133 -0.6785193,0 -1.2247641,-0.560236 -1.2247641,-1.256133 l 0,-4.0752627 c 0,-0.6958974 0.5462448,-1.2561325 1.2247641,-1.2561325 z" /><path
         style="display:inline;fill:#f5b630;fill-opacity:1;stroke:none;stroke-width:2.8862;stroke-linecap:square;stroke-miterlimit:2;stroke-dasharray:none;stroke-opacity:1;stop-color:#000000"
         id="rect3886-3-6-6"
         width="2.4495282"
         height="6.5875278"
         x="-8.9510317"
         y="7.4468718"
         rx="1.2247641"
         ry="1.2561325"
         transform="rotate(-62.500636)"
         sodipodi:type="rect"
         d="m -7.7262676,7.4468718 c 0.6785193,0 1.2247641,0.560235 1.2247641,1.2561324 l 0,4.0752628 c 0,0.695897 -0.5462448,1.256133 -1.2247641,1.256133 -0.6785193,0 -1.2247641,-0.560236 -1.2247641,-1.256133 V 8.7030042 c 0,-0.6958974 0.5462448,-1.2561324 1.2247641,-1.2561324 z" /><path
         style="display:inline;fill:#f5b630;fill-opacity:1;stroke:none;stroke-width:2.8862;stroke-linecap:square;stroke-miterlimit:2;stroke-dasharray:none;stroke-opacity:1;stop-color:#000000"
         id="rect3886-3-6-7-2"
         width="2.4495282"
         height="6.5875278"
         x="-18.792242"
         y="0.89063281"
         rx="1.2247641"
         ry="1.2561325"
         transform="rotate(-91.766065)"
         inkscape:transform-center-x="-0.0014282454"
         inkscape:transform-center-y="0.030281693"
         sodipodi:type="rect"
         d="m -17.567478,0.89063281 c 0.678519,0 1.224764,0.56023509 1.224764,1.25613249 v 4.0752628 c 0,0.6958974 -0.546245,1.2561325 -1.224764,1.2561325 -0.678519,0 -1.224764,-0.5602351 -1.224764,-1.2561325 V 2.1467653 c 0,-0.6958974 0.546245,-1.25613249 1.224764,-1.25613249 z" /><path
         style="display:inline;fill:#f5b630;fill-opacity:1;stroke:none;stroke-width:2.8862;stroke-linecap:square;stroke-miterlimit:2;stroke-dasharray:none;stroke-opacity:1;stop-color:#000000"
         id="rect3886-3-6-7-5-9"
         width="2.4495282"
         height="6.5875278"
         x="-24.371119"
         y="-9.0710001"
         rx="1.2247641"
         ry="1.2561325"
         transform="rotate(-118.26808)"
         inkscape:transform-center-x="-0.014791785"
         inkscape:transform-center-y="0.026461755"
         sodipodi:type="rect"
         d="m -23.146354,-9.0710001 c 0.678519,0 1.224764,0.5602351 1.224764,1.2561325 v 4.0752628 c 0,0.6958974 -0.546245,1.2561325 -1.224764,1.2561325 -0.67852,0 -1.224765,-0.5602351 -1.224765,-1.2561325 l 0,-4.0752628 c 0,-0.6958974 0.546245,-1.2561325 1.224765,-1.2561325 z" /><path
         style="display:inline;fill:#f5b630;fill-opacity:1;stroke:none;stroke-width:2.8862;stroke-linecap:square;stroke-miterlimit:2;stroke-dasharray:none;stroke-opacity:1;stop-color:#000000"
         id="rect3886-3-6-7-5-7"
         width="2.4495282"
         height="6.5875278"
         x="-24.061218"
         y="-21.07443"
         rx="1.2247641"
         ry="1.2561325"
         transform="rotate(-148.84126)"
         inkscape:transform-center-x="-0.026194653"
         inkscape:transform-center-y="0.015259507"
         sodipodi:type="rect"
         d="m -22.836454,-21.07443 c 0.678519,0 1.224764,0.560235 1.224764,1.256132 v 4.075263 c 0,0.695897 -0.546245,1.256132 -1.224764,1.256132 -0.678519,0 -1.224764,-0.560235 -1.224764,-1.256132 v -4.075263 c 0,-0.695897 0.546245,-1.256132 1.224764,-1.256132 z" /><path
         style="display:inline;fill:#f5b630;fill-opacity:1;stroke:none;stroke-width:2.8862;stroke-linecap:square;stroke-miterlimit:2;stroke-dasharray:none;stroke-opacity:1;stop-color:#000000"
         id="rect3886-3-6-7-5-7-5"
         width="2.4495282"
         height="6.5875278"
         x="-17.506546"
         y="-31.563799"
         rx="1.2247641"
         ry="1.2561325"
         transform="rotate(-179.34036)"
         inkscape:transform-center-y="-0.00014489471"
         inkscape:transform-center-x="-0.030313386"
         sodipodi:type="rect"
         d="m -16.281782,-31.563799 c 0.678519,0 1.224764,0.560235 1.224764,1.256133 l 0,4.075262 c 0,0.695898 -0.546245,1.256133 -1.224764,1.256133 -0.678519,0 -1.224764,-0.560235 -1.224764,-1.256133 v -4.075262 c 0,-0.695898 0.546245,-1.256133 1.224764,-1.256133 z" /><path
         style="display:inline;fill:#f5b630;fill-opacity:1;stroke:none;stroke-width:2.8862;stroke-linecap:square;stroke-miterlimit:2;stroke-dasharray:none;stroke-opacity:1;stop-color:#000000"
         id="rect3886-3-6-7-5-7-5-3"
         width="2.4495282"
         height="6.5875278"
         x="-4.5042033"
         y="-37.953133"
         rx="1.2247641"
         ry="1.2561325"
         transform="rotate(146.69993)"
         inkscape:transform-center-y="-0.017052749"
         inkscape:transform-center-x="-0.025061347"
         sodipodi:type="rect"
         d="m -3.2794392,-37.953133 c 0.6785193,0 1.2247641,0.560235 1.2247641,1.256133 l 0,4.075263 c 0,0.695897 -0.5462448,1.256132 -1.2247641,1.256132 -0.6785193,0 -1.2247641,-0.560235 -1.2247641,-1.256132 l 0,-4.075263 c 0,-0.695898 0.5462448,-1.256133 1.2247641,-1.256133 z" /><path
         style="display:inline;fill:#f5b630;fill-opacity:1;stroke:none;stroke-width:2.8862;stroke-linecap:square;stroke-miterlimit:2;stroke-dasharray:none;stroke-opacity:1;stop-color:#000000"
         id="rect3886-3-6-7-5-7-5-3-5"
         width="2.4495282"
         height="6.5875278"
         x="7.7503338"
         y="-36.540249"
         rx="1.2247641"
         ry="1.2561325"
         transform="rotate(116.69993)"
         inkscape:transform-center-y="-0.02729889"
         inkscape:transform-center-x="-0.013177294"
         sodipodi:type="rect"
         d="m 8.9750979,-36.540249 c 0.6785193,0 1.2247641,0.560235 1.2247641,1.256133 l 0,4.075262 c 0,0.695898 -0.5462448,1.256133 -1.2247641,1.256133 -0.6785193,0 -1.2247641,-0.560235 -1.2247641,-1.256133 l 0,-4.075262 c 0,-0.695898 0.5462448,-1.256133 1.2247641,-1.256133 z" /></g><g
       inkscape:groupmode="layer"
       id="layer4"
       inkscape:label="Cloud"
       transform="translate(0,0.1626858)"
       style="display:inline;opacity:1"><path
         id="path2427"
         style="display:inline;opacity:1;fill:#ffffff;fill-opacity:1;stroke:none;stroke-width:1.46828;stroke-linecap:square;stroke-miterlimit:2;stroke-dasharray:none;stroke-opacity:1;stop-color:#000000"
         d="m 19.185703,10.974103 c -2.044218,-5.4e-5 -4.23173,1.17474 -4.980165,3.204144 H 13.82535 c -2.260503,-9.2e-5 -4.093021,1.90342 -4.092905,4.251506 1.06e-4,2.347921 1.832559,4.375705 4.092905,4.375611 h 0.520321 l 11.150194,-4.7e-5 c 0,0 0.421968,-6.63e-4 0.635375,0 1.797803,1.05e-4 3.255292,-1.552526 3.255292,-3.661305 0,-1.777197 -1.237572,-3.691675 -3.255292,-3.691675 h -0.634577 -1.220917 c -0.04954,-2.892177 -2.123933,-4.477966 -4.835398,-4.478226 z"
         sodipodi:nodetypes="cccccccccscccc"
         inkscape:label="small_cloud" /><path
         style="opacity:1;fill:none;fill-opacity:0.768627;stroke:#ffffff;stroke-width:1.71979;stroke-linecap:round;stroke-dasharray:none;stroke-opacity:1"
         d="m 19.766326,21.691445 v 4.98903"
         id="path1"
         inkscape:label="rain2" /><path
         style="display:inline;fill:none;fill-opacity:0.768627;stroke:#ffffff;stroke-width:1.71979;stroke-linecap:round;stroke-dasharray:none;stroke-opacity:1"
         d="m 14.814028,21.832884 v 3.347813"
         id="path1-2"
         inkscape:label="rain2" /><path
         style="display:inline;fill:none;fill-opacity:0.768627;stroke:#ffffff;stroke-width:1.71979;stroke-linecap:round;stroke-dasharray:none;stroke-opacity:1"
         d="m 24.705511,21.832884 v 3.347813"
         id="path1-2-9"
         inkscape:label="rain2" /></g></g></svg>
