<?xml version="1.0" encoding="UTF-8" standalone="no"?>
<!-- Created with Inkscape (http://www.inkscape.org/) -->

<svg
   width="120"
   height="130"
   viewBox="0 0 31.75 34.395834"
   version="1.1"
   id="svg5"
   xml:space="preserve"
   sodipodi:docname="W-5.svg"
   inkscape:version="1.3.2 (091e20ef0f, 2023-11-25)"
   inkscape:export-filename="../w_icon/W-5.svg"
   inkscape:export-xdpi="96"
   inkscape:export-ydpi="96"
   xmlns:inkscape="http://www.inkscape.org/namespaces/inkscape"
   xmlns:sodipodi="http://sodipodi.sourceforge.net/DTD/sodipodi-0.dtd"
   xmlns="http://www.w3.org/2000/svg"
   xmlns:svg="http://www.w3.org/2000/svg"><sodipodi:namedview
     id="namedview22"
     pagecolor="#ffffff"
     bordercolor="#000000"
     borderopacity="0.25"
     inkscape:showpageshadow="2"
     inkscape:pageopacity="0.0"
     inkscape:pagecheckerboard="0"
     inkscape:deskcolor="#d1d1d1"
     showgrid="false"
     inkscape:zoom="4"
     inkscape:cx="30.625"
     inkscape:cy="73.25"
     inkscape:window-width="1920"
     inkscape:window-height="1000"
     inkscape:window-x="0"
     inkscape:window-y="0"
     inkscape:window-maximized="1"
     inkscape:current-layer="layer3" /><defs
     id="defs2"><inkscape:path-effect
       effect="powerclip"
       id="path-effect2"
       is_visible="true"
       lpeversion="1"
       inverse="true"
       flatten="false"
       hide_clip="false"
       message="Use fill-rule evenodd on &lt;b&gt;fill and stroke&lt;/b&gt; dialog if no flatten result after convert clip to paths." /><filter
       id="mask-powermask-path-effect5332_inverse"
       inkscape:label="filtermask-powermask-path-effect5332"
       style="color-interpolation-filters:sRGB"
       height="100"
       width="100"
       x="-50"
       y="-50"><feColorMatrix
         id="mask-powermask-path-effect5332_primitive1"
         values="1"
         type="saturate"
         result="fbSourceGraphic" /><feColorMatrix
         id="mask-powermask-path-effect5332_primitive2"
         values="-1 0 0 0 1 0 -1 0 0 1 0 0 -1 0 1 0 0 0 1 0 "
         in="fbSourceGraphic" /></filter><clipPath
       clipPathUnits="userSpaceOnUse"
       id="clipPath2"><path
         id="path2"
         style="display:none;opacity:1;fill:#002a53;fill-opacity:1;stroke:none;stroke-width:1.71979;stroke-linecap:round;stroke-dasharray:none;stroke-opacity:1"
         d="m 22.477123,14.266699 c -4.66508,-0.512161 -9.781279,1.275279 -12.4829429,5.213903 -5.9599949,-0.388422 -11.6043913,4.407127 -12.4364516,10.278781 -1.0417488,5.552011 2.17261837,11.94229 7.7741199,13.541221 3.5271276,1.059205 7.2212816,1.382085 10.8061626,2.199646 7.847708,1.422131 15.658034,3.115544 23.544364,4.285288 5.179194,0.126576 9.698897,-4.969413 8.9977,-10.098988 -0.206728,-2.752368 -1.490072,-5.494699 -3.743028,-7.152378 0.428784,-4.568548 -2.930342,-8.582966 -6.728366,-10.677668 -1.722866,-0.910925 -3.627787,-1.416952 -5.544084,-1.720948 -2.401237,-3.240222 -6.160346,-5.464967 -10.187474,-5.868857 z"
         inkscape:label="big_cloud_back" /><path
         id="lpe_path-effect2"
         style="display:inline;opacity:1;fill:#002a53;fill-opacity:1;stroke:none;stroke-width:1.71979;stroke-linecap:round;stroke-dasharray:none;stroke-opacity:1"
         class="powerclip"
         d="M -3.5689663,-2.2631888 H 35.563958 V 36.749235 H -3.5689663 Z M 22.477123,14.266699 c -4.66508,-0.512161 -9.781279,1.275279 -12.4829429,5.213903 -5.9599949,-0.388422 -11.6043913,4.407127 -12.4364516,10.278781 -1.0417488,5.552011 2.17261837,11.94229 7.7741199,13.541221 3.5271276,1.059205 7.2212816,1.382085 10.8061626,2.199646 7.847708,1.422131 15.658034,3.115544 23.544364,4.285288 5.179194,0.126576 9.698897,-4.969413 8.9977,-10.098988 -0.206728,-2.752368 -1.490072,-5.494699 -3.743028,-7.152378 0.428784,-4.568548 -2.930342,-8.582966 -6.728366,-10.677668 -1.722866,-0.910925 -3.627787,-1.416952 -5.544084,-1.720948 -2.401237,-3.240222 -6.160346,-5.464967 -10.187474,-5.868857 z" /></clipPath></defs><g
     inkscape:groupmode="layer"
     id="layer1"
     inkscape:label="Layer 1"
     style="display:inline"><rect
       style="display:inline;fill:#002a53;fill-opacity:1;stroke-width:2.5109;stroke-linecap:square;stroke-miterlimit:2;stop-color:#000000"
       id="rect3330"
       width="31.75"
       height="34.395832"
       x="3.0769232e-07"
       y="-3.7410186e-09" /></g><g
     inkscape:groupmode="layer"
     id="layer3"
     inkscape:label="Layer 2"
     style="display:inline"><g
       id="layer2-3"
       style="display:inline;fill:#f5b630;fill-opacity:1"
       transform="matrix(0.61897155,-0.11463212,0.11463212,0.61897155,-2.5578877,1.5525598)"
       inkscape:label="sun"
       clip-path="url(#clipPath2)"
       inkscape:path-effect="#path-effect2"><circle
         style="fill:none;fill-opacity:1;stroke:#f5b630;stroke-width:1.68795;stroke-linecap:square;stroke-miterlimit:2;stroke-dasharray:none;stroke-opacity:1;stop-color:#000000"
         id="path2446-3"
         cx="9.7155094"
         cy="10.430119"
         r="3.7568147"
         transform="matrix(1.5322979,0.28377809,-0.28377809,1.5322979,3.9780491,-1.4105278)"
         d="M 13.472324,10.430119 A 3.7568147,3.7568147 0 0 1 9.7155094,14.186933 3.7568147,3.7568147 0 0 1 5.9586947,10.430119 3.7568147,3.7568147 0 0 1 9.7155094,6.6733038 3.7568147,3.7568147 0 0 1 13.472324,10.430119 Z" /><path
         style="fill:#f5b630;fill-opacity:1;stroke:none;stroke-width:1.85208;stroke-linecap:square;stroke-miterlimit:2;stroke-dasharray:none;stroke-opacity:1;stop-color:#000000"
         id="rect3886-6"
         width="1.571869"
         height="4.2272348"
         x="6.9700012"
         y="2.3495715"
         rx="0.78593451"
         ry="0.80606365"
         transform="matrix(1.5570733,0.06316372,-0.06316372,1.5570733,3.9780491,-1.4105278)"
         sodipodi:type="rect"
         d="m 7.7559357,2.3495715 c 0.4354077,0 0.7859345,0.3595044 0.7859345,0.8060636 l 0,2.6151076 c 0,0.4465592 -0.3505268,0.8060636 -0.7859345,0.8060636 -0.4354077,0 -0.7859345,-0.3595044 -0.7859345,-0.8060636 l 0,-2.6151076 c 0,-0.4465592 0.3505268,-0.8060636 0.7859345,-0.8060636 z" /><path
         style="display:inline;fill:#f5b630;fill-opacity:1;stroke:none;stroke-width:2.8862;stroke-linecap:square;stroke-miterlimit:2;stroke-dasharray:none;stroke-opacity:1;stop-color:#000000"
         id="rect3886-35-7"
         width="2.4495282"
         height="6.5875278"
         x="21.417528"
         y="-5.9744473"
         rx="1.2247641"
         ry="1.2561325"
         transform="rotate(25.443401)"
         sodipodi:type="rect"
         d="m 22.642292,-5.9744473 c 0.67852,0 1.224764,0.5602351 1.224764,1.2561325 l 0,4.07526282 c 0,0.69589739 -0.546244,1.25613248 -1.224764,1.25613248 -0.678519,0 -1.224764,-0.56023509 -1.224764,-1.25613248 V -4.7183148 c 0,-0.6958974 0.546245,-1.2561325 1.224764,-1.2561325 z" /><path
         style="display:inline;fill:#f5b630;fill-opacity:1;stroke:none;stroke-width:2.8862;stroke-linecap:square;stroke-miterlimit:2;stroke-dasharray:none;stroke-opacity:1;stop-color:#000000"
         id="rect3886-35-6-5"
         width="2.4495282"
         height="6.5875278"
         x="21.31539"
         y="-20.76893"
         rx="1.2247641"
         ry="1.2561325"
         transform="rotate(61.907377)"
         sodipodi:type="rect"
         d="m 22.540154,-20.76893 c 0.678519,0 1.224764,0.560235 1.224764,1.256132 l 0,4.075263 c 0,0.695897 -0.546245,1.256132 -1.224764,1.256132 -0.67852,0 -1.224764,-0.560235 -1.224764,-1.256132 v -4.075263 c 0,-0.695897 0.546244,-1.256132 1.224764,-1.256132 z" /><path
         style="display:inline;fill:#f5b630;fill-opacity:1;stroke:none;stroke-width:2.8862;stroke-linecap:square;stroke-miterlimit:2;stroke-dasharray:none;stroke-opacity:1;stop-color:#000000"
         id="rect3886-35-6-2-3"
         width="2.4495282"
         height="6.5875278"
         x="13.197038"
         y="-32.278599"
         rx="1.2247641"
         ry="1.2561325"
         transform="rotate(96.120402)"
         sodipodi:type="rect"
         d="m 14.421802,-32.278599 c 0.678519,0 1.224764,0.560235 1.224764,1.256133 l 0,4.075262 c 0,0.695898 -0.546245,1.256133 -1.224764,1.256133 -0.67852,0 -1.224764,-0.560235 -1.224764,-1.256133 l 0,-4.075262 c 0,-0.695898 0.546244,-1.256133 1.224764,-1.256133 z" /><path
         style="display:inline;fill:#f5b630;fill-opacity:1;stroke:none;stroke-width:2.8862;stroke-linecap:square;stroke-miterlimit:2;stroke-dasharray:none;stroke-opacity:1;stop-color:#000000"
         id="rect3886-3-5"
         width="2.4495282"
         height="6.5875278"
         x="3.2625773"
         y="8.3376808"
         rx="1.2247641"
         ry="1.2561325"
         transform="rotate(-32.500636)"
         sodipodi:type="rect"
         d="m 4.4873414,8.3376808 c 0.6785193,0 1.2247641,0.5602351 1.2247641,1.2561325 l 0,4.0752627 c 0,0.695897 -0.5462448,1.256133 -1.2247641,1.256133 -0.6785193,0 -1.2247641,-0.560236 -1.2247641,-1.256133 l 0,-4.0752627 c 0,-0.6958974 0.5462448,-1.2561325 1.2247641,-1.2561325 z" /><path
         style="display:inline;fill:#f5b630;fill-opacity:1;stroke:none;stroke-width:2.8862;stroke-linecap:square;stroke-miterlimit:2;stroke-dasharray:none;stroke-opacity:1;stop-color:#000000"
         id="rect3886-3-6-6"
         width="2.4495282"
         height="6.5875278"
         x="-8.9510317"
         y="7.4468718"
         rx="1.2247641"
         ry="1.2561325"
         transform="rotate(-62.500636)"
         sodipodi:type="rect"
         d="m -7.7262676,7.4468718 c 0.6785193,0 1.2247641,0.560235 1.2247641,1.2561324 l 0,4.0752628 c 0,0.695897 -0.5462448,1.256133 -1.2247641,1.256133 -0.6785193,0 -1.2247641,-0.560236 -1.2247641,-1.256133 V 8.7030042 c 0,-0.6958974 0.5462448,-1.2561324 1.2247641,-1.2561324 z" /><path
         style="display:inline;fill:#f5b630;fill-opacity:1;stroke:none;stroke-width:2.8862;stroke-linecap:square;stroke-miterlimit:2;stroke-dasharray:none;stroke-opacity:1;stop-color:#000000"
         id="rect3886-3-6-7-2"
         width="2.4495282"
         height="6.5875278"
         x="-18.792242"
         y="0.89063281"
         rx="1.2247641"
         ry="1.2561325"
         transform="rotate(-91.766065)"
         inkscape:transform-center-x="-0.0014282454"
         inkscape:transform-center-y="0.030281693"
         sodipodi:type="rect"
         d="m -17.567478,0.89063281 c 0.678519,0 1.224764,0.56023509 1.224764,1.25613249 v 4.0752628 c 0,0.6958974 -0.546245,1.2561325 -1.224764,1.2561325 -0.678519,0 -1.224764,-0.5602351 -1.224764,-1.2561325 V 2.1467653 c 0,-0.6958974 0.546245,-1.25613249 1.224764,-1.25613249 z" /><path
         style="display:inline;fill:#f5b630;fill-opacity:1;stroke:none;stroke-width:2.8862;stroke-linecap:square;stroke-miterlimit:2;stroke-dasharray:none;stroke-opacity:1;stop-color:#000000"
         id="rect3886-3-6-7-5-9"
         width="2.4495282"
         height="6.5875278"
         x="-24.371119"
         y="-9.0710001"
         rx="1.2247641"
         ry="1.2561325"
         transform="rotate(-118.26808)"
         inkscape:transform-center-x="-0.014791785"
         inkscape:transform-center-y="0.026461755"
         sodipodi:type="rect"
         d="m -23.146354,-9.0710001 c 0.678519,0 1.224764,0.5602351 1.224764,1.2561325 v 4.0752628 c 0,0.6958974 -0.546245,1.2561325 -1.224764,1.2561325 -0.67852,0 -1.224765,-0.5602351 -1.224765,-1.2561325 l 0,-4.0752628 c 0,-0.6958974 0.546245,-1.2561325 1.224765,-1.2561325 z" /><path
         style="display:inline;fill:#f5b630;fill-opacity:1;stroke:none;stroke-width:2.8862;stroke-linecap:square;stroke-miterlimit:2;stroke-dasharray:none;stroke-opacity:1;stop-color:#000000"
         id="rect3886-3-6-7-5-7"
         width="2.4495282"
         height="6.5875278"
         x="-24.061218"
         y="-21.07443"
         rx="1.2247641"
         ry="1.2561325"
         transform="rotate(-148.84126)"
         inkscape:transform-center-x="-0.026194653"
         inkscape:transform-center-y="0.015259507"
         sodipodi:type="rect"
         d="m -22.836454,-21.07443 c 0.678519,0 1.224764,0.560235 1.224764,1.256132 v 4.075263 c 0,0.695897 -0.546245,1.256132 -1.224764,1.256132 -0.678519,0 -1.224764,-0.560235 -1.224764,-1.256132 v -4.075263 c 0,-0.695897 0.546245,-1.256132 1.224764,-1.256132 z" /><path
         style="display:inline;fill:#f5b630;fill-opacity:1;stroke:none;stroke-width:2.8862;stroke-linecap:square;stroke-miterlimit:2;stroke-dasharray:none;stroke-opacity:1;stop-color:#000000"
         id="rect3886-3-6-7-5-7-5"
         width="2.4495282"
         height="6.5875278"
         x="-17.506546"
         y="-31.563799"
         rx="1.2247641"
         ry="1.2561325"
         transform="rotate(-179.34036)"
         inkscape:transform-center-y="-0.00014489471"
         inkscape:transform-center-x="-0.030313386"
         sodipodi:type="rect"
         d="m -16.281782,-31.563799 c 0.678519,0 1.224764,0.560235 1.224764,1.256133 l 0,4.075262 c 0,0.695898 -0.546245,1.256133 -1.224764,1.256133 -0.678519,0 -1.224764,-0.560235 -1.224764,-1.256133 v -4.075262 c 0,-0.695898 0.546245,-1.256133 1.224764,-1.256133 z" /><path
         style="display:inline;fill:#f5b630;fill-opacity:1;stroke:none;stroke-width:2.8862;stroke-linecap:square;stroke-miterlimit:2;stroke-dasharray:none;stroke-opacity:1;stop-color:#000000"
         id="rect3886-3-6-7-5-7-5-3"
         width="2.4495282"
         height="6.5875278"
         x="-4.5042033"
         y="-37.953133"
         rx="1.2247641"
         ry="1.2561325"
         transform="rotate(146.69993)"
         inkscape:transform-center-y="-0.017052749"
         inkscape:transform-center-x="-0.025061347"
         sodipodi:type="rect"
         d="m -3.2794392,-37.953133 c 0.6785193,0 1.2247641,0.560235 1.2247641,1.256133 l 0,4.075263 c 0,0.695897 -0.5462448,1.256132 -1.2247641,1.256132 -0.6785193,0 -1.2247641,-0.560235 -1.2247641,-1.256132 l 0,-4.075263 c 0,-0.695898 0.5462448,-1.256133 1.2247641,-1.256133 z" /><path
         style="display:inline;fill:#f5b630;fill-opacity:1;stroke:none;stroke-width:2.8862;stroke-linecap:square;stroke-miterlimit:2;stroke-dasharray:none;stroke-opacity:1;stop-color:#000000"
         id="rect3886-3-6-7-5-7-5-3-5"
         width="2.4495282"
         height="6.5875278"
         x="7.7503338"
         y="-36.540249"
         rx="1.2247641"
         ry="1.2561325"
         transform="rotate(116.69993)"
         inkscape:transform-center-y="-0.02729889"
         inkscape:transform-center-x="-0.013177294"
         sodipodi:type="rect"
         d="m 8.9750979,-36.540249 c 0.6785193,0 1.2247641,0.560235 1.2247641,1.256133 l 0,4.075262 c 0,0.695898 -0.5462448,1.256133 -1.2247641,1.256133 -0.6785193,0 -1.2247641,-0.560235 -1.2247641,-1.256133 l 0,-4.075262 c 0,-0.695898 0.5462448,-1.256133 1.2247641,-1.256133 z" /></g><path
       d="m 13.654457,9.3626472 c -0.04725,0.00283 -0.09446,0.00612 -0.141623,0.00968 -1.146416,0.019726 -1.822885,0.1964876 -3.449921,0.8737438 -1.562627,0.846642 -2.584915,2.090824 -3.0560519,3.738876 -0.03632,-0.0015 -0.072414,-0.0023 -0.1087549,-0.0033 -0.1915678,-8e-6 -0.3799045,0.01131 -0.5660081,0.02854 -3.0992286,0.2872 -5.39653541,2.911202 -5.39665474,6.109091 9.4294e-4,3.380809 2.42467464,6.124295 5.79735564,6.136177 0.00727,6.91e-4 0.014484,0.0016 0.02175,0.0023 l 19.908411,0.07112 c 2.264461,-3e-5 4.100266,-1.840233 4.100297,-4.110135 -0.0016,-2.030667 -1.359547,-4.22134 -3.346747,-4.531502 7.96e-4,-0.306793 -0.0015,-0.46468 0,-0.822897 0,-2.802058 -3.744145,-5.117962 -6.565071,-4.995335 -0.814249,-0.0017 -0.809718,0 -1.516282,0 C 17.952475,10.40254 15.982792,9.3632354 13.654456,9.3626296 Z"
       style="display:inline;opacity:1;fill:#ffffff;fill-opacity:1;stroke:none;stroke-width:1.71979;stroke-linecap:round;stroke-dasharray:none;stroke-opacity:1"
       id="path7"
       sodipodi:nodetypes="ccccccccccccccccc"
       inkscape:label="big_cloud" /><path
       style="display:inline;fill:none;fill-opacity:1;stroke:#ffffff;stroke-width:1.45521;stroke-linecap:round;stroke-dasharray:none;stroke-opacity:1"
       d="M 10.977842,31.460572 V 26.406268"
       id="path1-3"
       inkscape:label="raindrop" /><path
       style="display:inline;fill:none;fill-opacity:1;stroke:#ffffff;stroke-width:1.45521;stroke-linecap:round;stroke-dasharray:none;stroke-opacity:1"
       d="M 6.347634,29.873074 V 24.81877"
       id="path1-3-6"
       inkscape:label="raindrop" /><path
       style="display:inline;fill:none;fill-opacity:1;stroke:#ffffff;stroke-width:1.45521;stroke-linecap:round;stroke-dasharray:none;stroke-opacity:1"
       d="M 20.238259,31.460572 V 26.406268"
       id="path1-3-7"
       inkscape:label="raindrop" /><path
       style="display:inline;fill:none;fill-opacity:1;stroke:#ffffff;stroke-width:1.45521;stroke-linecap:round;stroke-dasharray:none;stroke-opacity:1"
       d="M 15.60805,29.873074 V 24.81877"
       id="path1-3-6-5"
       inkscape:label="raindrop" /><path
       style="display:inline;fill:none;fill-opacity:1;stroke:#ffffff;stroke-width:1.45521;stroke-linecap:round;stroke-dasharray:none;stroke-opacity:1"
       d="M 24.868467,29.873074 V 24.81877"
       id="path1-3-6-5-3"
       inkscape:label="raindrop" /></g></svg>
