<?xml version="1.0" encoding="UTF-8" standalone="no"?>
<!-- Created with Inkscape (http://www.inkscape.org/) -->

<svg
   width="120"
   height="130"
   viewBox="0 0 31.75 34.395834"
   version="1.1"
   id="svg5"
   xml:space="preserve"
   sodipodi:docname="W-6.svg"
   inkscape:version="1.3.2 (091e20ef0f, 2023-11-25)"
   inkscape:export-filename="../w_icon/W-6.svg"
   inkscape:export-xdpi="96"
   inkscape:export-ydpi="96"
   xmlns:inkscape="http://www.inkscape.org/namespaces/inkscape"
   xmlns:sodipodi="http://sodipodi.sourceforge.net/DTD/sodipodi-0.dtd"
   xmlns="http://www.w3.org/2000/svg"
   xmlns:svg="http://www.w3.org/2000/svg"><sodipodi:namedview
     id="namedview22"
     pagecolor="#ffffff"
     bordercolor="#000000"
     borderopacity="0.25"
     inkscape:showpageshadow="2"
     inkscape:pageopacity="0.0"
     inkscape:pagecheckerboard="0"
     inkscape:deskcolor="#d1d1d1"
     showgrid="false"
     inkscape:zoom="3.45"
     inkscape:cx="10.57971"
     inkscape:cy="47.536232"
     inkscape:window-width="1920"
     inkscape:window-height="1000"
     inkscape:window-x="0"
     inkscape:window-y="0"
     inkscape:window-maximized="1"
     inkscape:current-layer="layer2" /><defs
     id="defs2"><inkscape:path-effect
       effect="fillet_chamfer"
       id="path-effect4"
       is_visible="true"
       lpeversion="1"
       nodesatellites_param="F,0,0,1,0,0.5,0,1 @ F,0,0,1,0,0.5,0,1 @ F,0,0,1,0,0.5,0,1 @ F,0,0,1,0,0.5,0,1 @ F,0,0,1,0,0.5,0,1 @ F,0,0,1,0,0.5,0,1 @ F,0,0,1,0,0.5,0,1"
       radius="0.5"
       unit="px"
       method="auto"
       mode="F"
       chamfer_steps="1"
       flexible="false"
       use_knot_distance="true"
       apply_no_radius="true"
       apply_with_radius="true"
       only_selected="false"
       hide_knots="false" /></defs><g
     inkscape:groupmode="layer"
     id="layer1"
     inkscape:label="Layer 1"
     style="display:inline"
     sodipodi:insensitive="true"><rect
       style="display:inline;fill:#002a53;fill-opacity:1;stroke-width:2.5109;stroke-linecap:square;stroke-miterlimit:2;stop-color:#000000"
       id="rect3330"
       width="31.75"
       height="34.395832"
       x="3.0769232e-07"
       y="-3.7410186e-09" /></g><g
     inkscape:groupmode="layer"
     id="layer2"
     inkscape:label="Layer 2"
     style="display:inline"><path
       d="m 13.728361,10.865487 c -2.960329,0.0072 -5.5563534,1.978473 -6.3582682,4.828129 -0.3043589,-0.05224 -0.6125814,-0.07886 -0.9213908,-0.07958 -3.049846,-6e-5 -5.52243507,2.472297 -5.52266032,5.522144 -6.011e-5,3.050049 2.47261242,5.52272 5.52266032,5.52266 0.1077765,-3.75e-4 0.2147237,-0.0058 0.3214275,-0.0124 0.018836,0.002 0.03694,0.0057 0.056327,0.0057 H 26.979749 c 0.0094,0 0.01813,-0.0021 0.02739,-0.0026 0.0069,8.83e-4 0.01378,0.0017 0.02067,0.0026 1.842575,7.3e-5 3.336303,-1.493655 3.33623,-3.33623 7.3e-5,-1.842576 -1.480098,-3.34986 -3.322673,-3.349788 -0.0159,0.0052 -0.04806,0 -0.04806,0 h -0.137064 c 0,0 3e-6,-0.813432 0,-1.251486 2e-5,-2.736115 -2.218105,-4.95424 -4.954219,-4.954219 -0.81533,0.0082 -1.61607,0.217442 -2.331124,0.609265 C 18.45589,12.28468 16.25804,10.865534 13.728361,10.865487 Z"
       style="fill:none;stroke:#ffffff;stroke-width:1.58750002;stroke-linecap:round;stroke-linejoin:round;stroke-dasharray:none;fill-opacity:1"
       id="path5"
       sodipodi:nodetypes="ccccccssccccsccccc"
       inkscape:label="big_cloud" /></g></svg>
