<?xml version="1.0" encoding="UTF-8" standalone="no"?>
<!-- Created with Inkscape (http://www.inkscape.org/) -->

<svg
   width="120"
   height="130"
   viewBox="0 0 31.75 34.395834"
   version="1.1"
   id="svg5"
   xml:space="preserve"
   sodipodi:docname="W-10.svg"
   inkscape:version="1.3.2 (091e20ef0f, 2023-11-25)"
   inkscape:export-filename="../w_icon/W-10.svg"
   inkscape:export-xdpi="96"
   inkscape:export-ydpi="96"
   xmlns:inkscape="http://www.inkscape.org/namespaces/inkscape"
   xmlns:sodipodi="http://sodipodi.sourceforge.net/DTD/sodipodi-0.dtd"
   xmlns="http://www.w3.org/2000/svg"
   xmlns:svg="http://www.w3.org/2000/svg"><sodipodi:namedview
     id="namedview22"
     pagecolor="#ffffff"
     bordercolor="#000000"
     borderopacity="0.25"
     inkscape:showpageshadow="2"
     inkscape:pageopacity="0.0"
     inkscape:pagecheckerboard="0"
     inkscape:deskcolor="#d1d1d1"
     showgrid="false"
     inkscape:zoom="2.4395184"
     inkscape:cx="7.173547"
     inkscape:cy="26.234686"
     inkscape:window-width="1920"
     inkscape:window-height="1000"
     inkscape:window-x="0"
     inkscape:window-y="0"
     inkscape:window-maximized="1"
     inkscape:current-layer="layer1" /><defs
     id="defs2"><inkscape:path-effect
       effect="powerclip"
       id="path-effect2"
       is_visible="true"
       lpeversion="1"
       inverse="true"
       flatten="false"
       hide_clip="false"
       message="Use fill-rule evenodd on &lt;b&gt;fill and stroke&lt;/b&gt; dialog if no flatten result after convert clip to paths." /><inkscape:path-effect
       effect="fillet_chamfer"
       id="path-effect4"
       is_visible="true"
       lpeversion="1"
       nodesatellites_param="F,0,0,1,0,0.5,0,1 @ F,0,0,1,0,0.5,0,1 @ F,0,0,1,0,0.5,0,1 @ F,0,0,1,0,0.5,0,1 @ F,0,0,1,0,0.5,0,1 @ F,0,0,1,0,0.5,0,1 @ F,0,0,1,0,0.5,0,1"
       radius="0.5"
       unit="px"
       method="auto"
       mode="F"
       chamfer_steps="1"
       flexible="false"
       use_knot_distance="true"
       apply_no_radius="true"
       apply_with_radius="true"
       only_selected="false"
       hide_knots="false" /><clipPath
       clipPathUnits="userSpaceOnUse"
       id="clipPath1"><path
         id="path2"
         style="display:none;fill:#002a53;fill-opacity:1;stroke:none;stroke-width:1.5875;stroke-linecap:round;stroke-linejoin:round;stroke-dasharray:none;stroke-opacity:1"
         d="M 13.273438,3.0839844 C 10.246234,3.306272 7.4028676,5.2062484 6.0429688,7.919922 c -4.2405014,0.1829988 -7.8645551,4.352105 -7.2844529,8.593505 0.38523816,3.880284 4.0458455,7.212012 7.9946081,6.922933 7.121812,0.0072 14.24688,0.07204 21.366523,-0.0403 3.237405,-0.160912 5.586963,-3.705899 4.816203,-6.780604 -0.426535,-1.751182 -1.764361,-3.257777 -3.455382,-3.884987 -0.219652,-3.5969181 -3.461073,-6.7873812 -7.111718,-6.6972659 -0.554031,-0.0078 -1.108473,0.057074 -1.648047,0.1816406 -1.797608,-2.1456282 -4.6552,-3.3521086 -7.447265,-3.1308593 z"
         inkscape:label="big_cloud_back" /><path
         id="lpe_path-effect2"
         style="display:inline;fill:#002a53;fill-opacity:1;stroke:none;stroke-width:1.5875;stroke-linecap:round;stroke-linejoin:round;stroke-dasharray:none;stroke-opacity:1"
         class="powerclip"
         d="M 10.864663,-3.5463436 H 36.59704 V 18.314435 H 10.864663 Z m 2.408775,6.630328 C 10.246234,3.306272 7.4028676,5.2062484 6.0429688,7.919922 c -4.2405014,0.1829988 -7.8645551,4.352105 -7.2844529,8.593505 0.38523816,3.880284 4.0458455,7.212012 7.9946081,6.922933 7.121812,0.0072 14.24688,0.07204 21.366523,-0.0403 3.237405,-0.160912 5.586963,-3.705899 4.816203,-6.780604 -0.426535,-1.751182 -1.764361,-3.257777 -3.455382,-3.884987 -0.219652,-3.5969181 -3.461073,-6.7873812 -7.111718,-6.6972659 -0.554031,-0.0078 -1.108473,0.057074 -1.648047,0.1816406 -1.797608,-2.1456282 -4.6552,-3.3521086 -7.447265,-3.1308593 z" /></clipPath></defs><g
     inkscape:groupmode="layer"
     id="layer1"
     inkscape:label="Layer 1"
     style="display:inline"><rect
       style="display:inline;fill:#002a53;fill-opacity:1;stroke-width:2.5109;stroke-linecap:square;stroke-miterlimit:2;stop-color:#000000"
       id="rect3330"
       width="31.75"
       height="34.395832"
       x="3.0769232e-07"
       y="-3.7410186e-09" /></g><g
     inkscape:groupmode="layer"
     id="layer2"
     inkscape:label="Layer 2"
     style="display:inline"><path
       d="m 21.261752,2.1151164 c -2.615305,9.81e-5 -4.735448,2.2153284 -4.735629,4.9480184 -9.2e-5,2.7328919 2.120131,4.9484372 4.735629,4.9485352 0.407515,-0.0048 0.812736,-0.06456 1.205611,-0.177767 0.556198,0.507628 1.294631,0.819072 2.110465,0.819072 h 3.22616 c 1.734957,0 3.131592,-1.396635 3.131592,-3.1315923 0,-1.7349575 -1.396635,-3.1315918 -3.131592,-3.1315918 H 25.951905 C 25.629822,3.9408586 23.627515,2.115926 21.261752,2.1151164 Z"
       style="display:inline;fill:none;stroke:#ffffff;stroke-width:1.32292;stroke-linecap:round"
       id="path8"
       inkscape:label="small_cloud"
       clip-path="url(#clipPath1)"
       inkscape:path-effect="#path-effect2"
       inkscape:original-d="m 21.261752,2.1151164 c -2.615305,9.81e-5 -4.735448,2.2153284 -4.735629,4.9480184 -9.2e-5,2.7328919 2.120131,4.9484372 4.735629,4.9485352 0.407515,-0.0048 0.812736,-0.06456 1.205611,-0.177767 0.556198,0.507628 1.294631,0.819072 2.110465,0.819072 h 3.22616 c 1.734957,0 3.131592,-1.396635 3.131592,-3.1315923 0,-1.7349575 -1.396635,-3.1315918 -3.131592,-3.1315918 H 25.951905 C 25.629822,3.9408586 23.627515,2.115926 21.261752,2.1151164 Z" /><g
       id="g2"
       inkscape:label="raindrops"
       style="display:inline"><rect
         style="fill:#ffffff;fill-opacity:1;stroke-width:4.23333"
         id="rect4"
         width="1.4998006"
         height="6.5405622"
         x="22.12002"
         y="16.922844"
         ry="0.74990028"
         rx="0.74990028"
         transform="rotate(32.344342)" /><rect
         style="display:inline;fill:#ffffff;fill-opacity:1;stroke-width:4.23333"
         id="rect4-2"
         width="1.5612723"
         height="6.4855871"
         x="18.214802"
         y="17.438324"
         ry="0.78063613"
         rx="0.78063613"
         transform="rotate(32.344342)" /><rect
         style="display:inline;fill:#ffffff;fill-opacity:1;stroke-width:4.23333"
         id="rect4-9"
         width="1.5357647"
         height="2.761059"
         x="18.085611"
         y="13.17837"
         ry="0.75333083"
         rx="0.76788235"
         transform="rotate(32.344342)" /><rect
         style="display:inline;fill:#ffffff;fill-opacity:1;stroke-width:4.23333"
         id="rect4-6"
         width="1.5376056"
         height="6.3721981"
         x="25.968405"
         y="12.547825"
         ry="0.76880282"
         rx="0.76880282"
         transform="rotate(32.344342)" /><rect
         style="display:inline;fill:#ffffff;fill-opacity:1;stroke-width:4.23333"
         id="rect4-6-7"
         width="1.5486661"
         height="6.5417089"
         x="29.973471"
         y="12.004582"
         ry="0.77433306"
         rx="0.77433306"
         transform="rotate(32.344342)" /><rect
         style="display:inline;fill:#ffffff;fill-opacity:1;stroke-width:4.23333"
         id="rect4-6-7-5-3"
         width="1.4660416"
         height="3.3525686"
         x="25.958542"
         y="7.7125387"
         ry="0.75333083"
         rx="0.73302078"
         transform="rotate(32.344342)" /><rect
         style="display:inline;fill:#ffffff;fill-opacity:1;stroke-width:4.23333"
         id="rect4-6-7-5-3-5-6"
         width="1.4910159"
         height="6.4890537"
         x="33.790939"
         y="7.6109715"
         ry="0.74550796"
         rx="0.74550796"
         transform="rotate(32.344342)" /><rect
         style="display:inline;fill:#ffffff;fill-opacity:1;stroke-width:4.23333"
         id="rect4-3"
         width="1.4647609"
         height="4.9901567"
         x="22.125223"
         y="10.326144"
         ry="0.75333083"
         rx="0.73238045"
         transform="rotate(32.344342)" /><rect
         style="display:inline;fill:#ffffff;fill-opacity:1;stroke-width:4.23333"
         id="rect4-6-7-5-3-0"
         width="1.4660416"
         height="3.3525686"
         x="33.785408"
         y="2.7561061"
         ry="0.75333083"
         rx="0.73302078"
         transform="rotate(32.344342)" /><rect
         style="display:inline;fill:#ffffff;fill-opacity:1;stroke-width:4.23333"
         id="rect4-3-6"
         width="1.4647609"
         height="4.9901567"
         x="29.952108"
         y="5.3697124"
         ry="0.75333083"
         rx="0.73238045"
         transform="rotate(32.344342)" /></g><path
       d="M 13.940137,5.1749146 C 10.91211,5.1822846 8.2567189,7.2006322 7.4364653,10.11833 7.1251461,10.06484 6.8098746,10.03759 6.4940036,10.03685 c -3.1195909,-6.2e-5 -5.64872393,2.531334 -5.64895408,5.654009 -6.137e-5,3.122881 2.52915658,5.654598 5.64895408,5.654537 0.1102407,-3.84e-4 0.2196344,-0.0059 0.3287775,-0.01269 0.019271,0.002 0.037785,0.0058 0.057618,0.0058 H 27.494565 c 0.0097,0 0.01854,-0.0021 0.02801,-0.0026 0.007,9.04e-4 0.0141,0.0017 0.02115,0.0026 1.884711,7.4e-5 3.412598,-1.529323 3.412524,-3.415897 7.4e-5,-1.886576 -1.513946,-3.429852 -3.398657,-3.429779 -0.01627,0.0053 -0.04916,0 -0.04916,0 h -0.140197 c 0,0 3e-6,-0.832856 0,-1.28137 2e-5,-2.801452 -2.26883,-5.072538 -5.067514,-5.0725166 -0.833976,0.0084 -1.653028,0.2226344 -2.384434,0.623814 C 18.77578,6.6279969 16.527668,5.1749628 13.94014,5.1749146 Z"
       style="display:inline;fill:none;fill-opacity:1;stroke:#ffffff;stroke-width:1.5875;stroke-linecap:round;stroke-linejoin:round;stroke-dasharray:none"
       id="path5-6"
       sodipodi:nodetypes="ccccccssccccsccccc"
       inkscape:label="big_cloud" /></g></svg>
