<?xml version="1.0" encoding="UTF-8" standalone="no"?>
<!-- Created with Inkscape (http://www.inkscape.org/) -->

<svg
   width="120"
   height="130"
   viewBox="0 0 31.75 34.395834"
   version="1.1"
   id="svg5"
   xml:space="preserve"
   sodipodi:docname="W-11.svg"
   inkscape:version="1.3.2 (091e20ef0f, 2023-11-25)"
   inkscape:export-filename="../w_icon/W-11.svg"
   inkscape:export-xdpi="96"
   inkscape:export-ydpi="96"
   xmlns:inkscape="http://www.inkscape.org/namespaces/inkscape"
   xmlns:sodipodi="http://sodipodi.sourceforge.net/DTD/sodipodi-0.dtd"
   xmlns="http://www.w3.org/2000/svg"
   xmlns:svg="http://www.w3.org/2000/svg"><sodipodi:namedview
     id="namedview22"
     pagecolor="#ffffff"
     bordercolor="#000000"
     borderopacity="0.25"
     inkscape:showpageshadow="2"
     inkscape:pageopacity="0.0"
     inkscape:pagecheckerboard="0"
     inkscape:deskcolor="#d1d1d1"
     showgrid="false"
     inkscape:zoom="1.725"
     inkscape:cx="54.202898"
     inkscape:cy="49.275362"
     inkscape:window-width="1920"
     inkscape:window-height="1000"
     inkscape:window-x="0"
     inkscape:window-y="0"
     inkscape:window-maximized="1"
     inkscape:current-layer="layer2" /><defs
     id="defs2"><inkscape:path-effect
       effect="powerclip"
       id="path-effect3"
       is_visible="true"
       lpeversion="1"
       inverse="true"
       flatten="false"
       hide_clip="false"
       message="Use fill-rule evenodd on &lt;b&gt;fill and stroke&lt;/b&gt; dialog if no flatten result after convert clip to paths." /><inkscape:path-effect
       effect="fillet_chamfer"
       id="path-effect4"
       is_visible="true"
       lpeversion="1"
       nodesatellites_param="F,0,0,1,0,0.5,0,1 @ F,0,0,1,0,0.5,0,1 @ F,0,0,1,0,0.5,0,1 @ F,0,0,1,0,0.5,0,1 @ F,0,0,1,0,0.5,0,1 @ F,0,0,1,0,0.5,0,1 @ F,0,0,1,0,0.5,0,1"
       radius="0.5"
       unit="px"
       method="auto"
       mode="F"
       chamfer_steps="1"
       flexible="false"
       use_knot_distance="true"
       apply_no_radius="true"
       apply_with_radius="true"
       only_selected="false"
       hide_knots="false" /><clipPath
       clipPathUnits="userSpaceOnUse"
       id="clipPath1"><path
         id="path3"
         style="display:none;fill:#002a53;fill-opacity:1;stroke:none;stroke-width:1.5875;stroke-linecap:round;stroke-linejoin:round;stroke-dasharray:none"
         inkscape:label="big_cloud_back"
         d="m 13.242188,2.9941407 c -3.030059,0.2254959 -5.883514,2.1226806 -7.2382817,4.845703 -4.229025,0.182009 -7.8522931,4.3186023 -7.3031446,8.5525993 0.36226026,3.860943 3.9581688,7.220855 7.894156,6.980243 6.9618683,0.01944 13.9254363,0.07271 20.8863793,-0.02765 1.826641,0.106123 3.624472,-0.837952 4.596702,-2.382751 1.333847,-1.889728 1.360405,-4.618912 -0.120605,-6.438478 C 31.328469,13.684588 30.458363,13.020728 29.472655,12.658203 29.255948,9.0247881 25.953856,5.8094947 22.2668,5.9484491 21.741459,5.947576 21.216358,6.0122002 20.705078,6.1308594 18.90387,3.981177 16.039715,2.7721444 13.242188,2.9941407 Z" /><path
         id="lpe_path-effect3"
         style="display:inline;fill:#002a53;fill-opacity:1;stroke:none;stroke-width:1.5875;stroke-linecap:round;stroke-linejoin:round;stroke-dasharray:none"
         class="powerclip"
         d="M 10.864663,-3.5463436 H 36.59704 V 18.314435 H 10.864663 Z m 2.377525,6.5404843 c -3.030059,0.2254959 -5.883514,2.1226806 -7.2382817,4.845703 -4.229025,0.182009 -7.8522931,4.3186023 -7.3031446,8.5525993 0.36226026,3.860943 3.9581688,7.220855 7.894156,6.980243 6.9618683,0.01944 13.9254363,0.07271 20.8863793,-0.02765 1.826641,0.106123 3.624472,-0.837952 4.596702,-2.382751 1.333847,-1.889728 1.360405,-4.618912 -0.120605,-6.438478 C 31.328469,13.684588 30.458363,13.020728 29.472655,12.658203 29.255948,9.0247881 25.953856,5.8094947 22.2668,5.9484491 21.741459,5.947576 21.216358,6.0122002 20.705078,6.1308594 18.90387,3.981177 16.039715,2.7721444 13.242188,2.9941407 Z" /></clipPath><filter
       id="mask-powermask-path-effect39_inverse"
       inkscape:label="filtermask-powermask-path-effect39"
       style="color-interpolation-filters:sRGB"
       height="100"
       width="100"
       x="-50"
       y="-50"><feColorMatrix
         id="mask-powermask-path-effect39_primitive1"
         values="1"
         type="saturate"
         result="fbSourceGraphic" /><feColorMatrix
         id="mask-powermask-path-effect39_primitive2"
         values="-1 0 0 0 1 0 -1 0 0 1 0 0 -1 0 1 0 0 0 1 0 "
         in="fbSourceGraphic" /></filter><filter
       id="mask-powermask-path-effect40_inverse"
       inkscape:label="filtermask-powermask-path-effect40"
       style="color-interpolation-filters:sRGB"
       height="100"
       width="100"
       x="-50"
       y="-50"><feColorMatrix
         id="mask-powermask-path-effect40_primitive1"
         values="1"
         type="saturate"
         result="fbSourceGraphic" /><feColorMatrix
         id="mask-powermask-path-effect40_primitive2"
         values="-1 0 0 0 1 0 -1 0 0 1 0 0 -1 0 1 0 0 0 1 0 "
         in="fbSourceGraphic" /></filter><filter
       id="mask-powermask-path-effect41_inverse"
       inkscape:label="filtermask-powermask-path-effect41"
       style="color-interpolation-filters:sRGB"
       height="100"
       width="100"
       x="-50"
       y="-50"><feColorMatrix
         id="mask-powermask-path-effect41_primitive1"
         values="1"
         type="saturate"
         result="fbSourceGraphic" /><feColorMatrix
         id="mask-powermask-path-effect41_primitive2"
         values="-1 0 0 0 1 0 -1 0 0 1 0 0 -1 0 1 0 0 0 1 0 "
         in="fbSourceGraphic" /></filter><filter
       id="mask-powermask-path-effect42_inverse"
       inkscape:label="filtermask-powermask-path-effect42"
       style="color-interpolation-filters:sRGB"
       height="100"
       width="100"
       x="-50"
       y="-50"><feColorMatrix
         id="mask-powermask-path-effect42_primitive1"
         values="1"
         type="saturate"
         result="fbSourceGraphic" /><feColorMatrix
         id="mask-powermask-path-effect42_primitive2"
         values="-1 0 0 0 1 0 -1 0 0 1 0 0 -1 0 1 0 0 0 1 0 "
         in="fbSourceGraphic" /></filter><filter
       id="mask-powermask-path-effect43_inverse"
       inkscape:label="filtermask-powermask-path-effect43"
       style="color-interpolation-filters:sRGB"
       height="100"
       width="100"
       x="-50"
       y="-50"><feColorMatrix
         id="mask-powermask-path-effect43_primitive1"
         values="1"
         type="saturate"
         result="fbSourceGraphic" /><feColorMatrix
         id="mask-powermask-path-effect43_primitive2"
         values="-1 0 0 0 1 0 -1 0 0 1 0 0 -1 0 1 0 0 0 1 0 "
         in="fbSourceGraphic" /></filter><filter
       id="mask-powermask-path-effect47_inverse"
       inkscape:label="filtermask-powermask-path-effect47"
       style="color-interpolation-filters:sRGB"
       height="100"
       width="100"
       x="-50"
       y="-50"><feColorMatrix
         id="mask-powermask-path-effect47_primitive1"
         values="1"
         type="saturate"
         result="fbSourceGraphic" /><feColorMatrix
         id="mask-powermask-path-effect47_primitive2"
         values="-1 0 0 0 1 0 -1 0 0 1 0 0 -1 0 1 0 0 0 1 0 "
         in="fbSourceGraphic" /></filter></defs><g
     inkscape:groupmode="layer"
     id="layer1"
     inkscape:label="Layer 1"
     style="display:inline"><rect
       style="display:inline;fill:#002a53;fill-opacity:1;stroke-width:2.5109;stroke-linecap:square;stroke-miterlimit:2;stop-color:#000000"
       id="rect3330"
       width="31.75"
       height="34.395832"
       x="3.0769232e-07"
       y="-3.7410186e-09" /></g><g
     inkscape:groupmode="layer"
     id="layer2"
     inkscape:label="Layer 2"
     style="display:inline"><path
       d="m 21.261752,2.1151164 c -2.615305,9.81e-5 -4.735448,2.2153284 -4.735629,4.9480184 -9.2e-5,2.7328919 2.120131,4.9484372 4.735629,4.9485352 0.407515,-0.0048 0.812736,-0.06456 1.205611,-0.177767 0.556198,0.507628 1.294631,0.819072 2.110465,0.819072 h 3.22616 c 1.734957,0 3.131592,-1.396635 3.131592,-3.1315923 0,-1.7349575 -1.396635,-3.1315918 -3.131592,-3.1315918 H 25.951905 C 25.629822,3.9408586 23.627515,2.115926 21.261752,2.1151164 Z"
       style="display:inline;fill:none;stroke:#ffffff;stroke-width:1.32292;stroke-linecap:round"
       id="path8"
       inkscape:label="small_cloud"
       clip-path="url(#clipPath1)"
       inkscape:path-effect="#path-effect3"
       inkscape:original-d="m 21.261752,2.1151164 c -2.615305,9.81e-5 -4.735448,2.2153284 -4.735629,4.9480184 -9.2e-5,2.7328919 2.120131,4.9484372 4.735629,4.9485352 0.407515,-0.0048 0.812736,-0.06456 1.205611,-0.177767 0.556198,0.507628 1.294631,0.819072 2.110465,0.819072 h 3.22616 c 1.734957,0 3.131592,-1.396635 3.131592,-3.1315923 0,-1.7349575 -1.396635,-3.1315918 -3.131592,-3.1315918 H 25.951905 C 25.629822,3.9408586 23.627515,2.115926 21.261752,2.1151164 Z" /><g
       id="g2"
       inkscape:label="raindrops"
       style="display:inline"><rect
         style="fill:#ffffff;fill-opacity:1;stroke-width:4.23333"
         id="rect4"
         width="1.4998006"
         height="6.5405622"
         x="22.958857"
         y="16.440304"
         ry="0.74990028"
         rx="0.74990028"
         transform="rotate(32.344342)" /><rect
         style="display:inline;fill:#ffffff;fill-opacity:1;stroke-width:4.23333"
         id="rect4-2"
         width="1.5612723"
         height="6.4855871"
         x="18.180067"
         y="17.460318"
         ry="0.78063613"
         rx="0.78063613"
         transform="rotate(32.344342)" /><rect
         style="display:inline;fill:#ffffff;fill-opacity:1;stroke-width:4.23333"
         id="rect4-6-7"
         width="1.5486661"
         height="6.5417089"
         x="29.526405"
         y="12.28769"
         ry="0.77433306"
         rx="0.77433306"
         transform="rotate(32.344342)" /><rect
         style="display:inline;fill:#ffffff;fill-opacity:1;stroke-width:4.23333"
         id="rect4-6-7-5-3-5-6"
         width="1.4910159"
         height="6.4890537"
         x="33.343872"
         y="7.8940792"
         ry="0.74550796"
         rx="0.74550796"
         transform="rotate(32.344342)" /><rect
         style="display:inline;fill:#ffffff;fill-opacity:1;stroke-width:4.23333"
         id="rect4-9"
         width="1.5052431"
         height="3.0533018"
         x="18.0814"
         y="12.90812"
         ry="0.75262153"
         rx="0.75262153"
         transform="rotate(32.344342)" /><rect
         style="display:inline;fill:#ffffff;fill-opacity:1;stroke-width:4.23333"
         id="rect4-6-7-5"
         width="1.3226911"
         height="4.144731"
         x="29.810919"
         y="5.5866151"
         ry="0.75333083"
         rx="0.66134554"
         transform="rotate(32.344342)" /></g><path
       d="M 13.911012,5.0858566 C 10.877802,5.0932417 8.2178658,7.1151912 7.3962083,10.038105 7.0843562,9.9845219 6.768545,9.9572175 6.4521334,9.956479 c -3.1249308,-6.15e-5 -5.65839294,2.535854 -5.65862348,5.664105 -6.148e-5,3.128458 2.53348568,5.664695 5.65862348,5.664633 0.1104293,-3.84e-4 0.2200103,-0.0059 0.3293402,-0.01272 0.019304,0.0021 0.03785,0.0058 0.057717,0.0058 H 27.488641 c 0.0096,0 0.01858,-0.0022 0.02806,-0.0027 0.0071,9.06e-4 0.01412,0.0017 0.02118,0.0027 1.887937,7.5e-5 3.41844,-1.532053 3.418365,-3.421996 7.5e-5,-1.889944 -1.516537,-3.435977 -3.404475,-3.435903 -0.01629,0.0053 -0.04924,0 -0.04924,0 H 27.36209 c 0,0 3e-6,-0.834343 0,-1.283658 2e-5,-2.806455 -2.272713,-5.0816015 -5.076188,-5.08158 C 21.4505,8.0636188 20.630047,8.2782399 19.897388,8.6801357 18.754929,6.5415335 16.50297,5.0859048 13.911012,5.0858566 Z"
       style="display:inline;fill:none;fill-opacity:1;stroke:#ffffff;stroke-width:1.5875;stroke-linecap:round;stroke-linejoin:round;stroke-dasharray:none"
       id="path5"
       sodipodi:nodetypes="ccccccssccccsccccc"
       inkscape:label="big_cloud" /><path
       d="m -9.0474538,25.395798 c -0.1204936,-0.0046 -0.6608033,0.08596 -1.5946112,1.824473 -0.962394,1.791737 -3.463722,6.99781 -3.742711,7.645351 -0.278237,0.64579 -0.129043,1.501475 0.940458,1.501475 h 3.6197859 l -4.5169689,7.823784 c 0,0 -0.0558,0.292029 0.235507,0.179061 0,0 10.7131323,-10.656849 10.9311617,-10.913599 0.1951948,-0.229859 0.5114524,-1.12391 -0.5105272,-1.12391 h -4.2137239 c 0,0 5.2694573,-5.755535 5.5653022,-6.088685 0.2055985,-0.231526 0.5130786,-0.844501 -0.1260647,-0.844501 H -9.021426 c 0,0 -0.00882,-0.0028 -0.026027,-0.0035 z"
       style="display:inline;stroke-width:4.12779;fill:#fcb928;stroke-linecap:round;stroke-linejoin:round"
       id="path2"
       sodipodi:nodetypes="cssscccsscssccc"
       transform="matrix(0.96904176,0,0,0.96904176,23.650534,-10.527981)"
       inkscape:label="thunder" /></g></svg>
