<?xml version="1.0" encoding="UTF-8" standalone="no"?>
<!-- Created with Inkscape (http://www.inkscape.org/) -->

<svg
   width="120"
   height="130"
   viewBox="0 0 31.75 34.395834"
   version="1.1"
   id="svg5"
   xml:space="preserve"
   sodipodi:docname="W-12.svg"
   inkscape:version="1.3.2 (091e20ef0f, 2023-11-25)"
   inkscape:export-filename="../w_icon/W-12.svg"
   inkscape:export-xdpi="96"
   inkscape:export-ydpi="96"
   xmlns:inkscape="http://www.inkscape.org/namespaces/inkscape"
   xmlns:sodipodi="http://sodipodi.sourceforge.net/DTD/sodipodi-0.dtd"
   xmlns="http://www.w3.org/2000/svg"
   xmlns:svg="http://www.w3.org/2000/svg"><sodipodi:namedview
     id="namedview22"
     pagecolor="#ffffff"
     bordercolor="#000000"
     borderopacity="0.25"
     inkscape:showpageshadow="2"
     inkscape:pageopacity="0.0"
     inkscape:pagecheckerboard="0"
     inkscape:deskcolor="#d1d1d1"
     showgrid="false"
     inkscape:zoom="1.725"
     inkscape:cx="-20"
     inkscape:cy="4.057971"
     inkscape:window-width="1920"
     inkscape:window-height="1000"
     inkscape:window-x="0"
     inkscape:window-y="0"
     inkscape:window-maximized="1"
     inkscape:current-layer="layer1" /><defs
     id="defs2"><inkscape:path-effect
       effect="fillet_chamfer"
       id="path-effect4"
       is_visible="true"
       lpeversion="1"
       nodesatellites_param="F,0,0,1,0,0.5,0,1 @ F,0,0,1,0,0.5,0,1 @ F,0,0,1,0,0.5,0,1 @ F,0,0,1,0,0.5,0,1 @ F,0,0,1,0,0.5,0,1 @ F,0,0,1,0,0.5,0,1 @ F,0,0,1,0,0.5,0,1"
       radius="0.5"
       unit="px"
       method="auto"
       mode="F"
       chamfer_steps="1"
       flexible="false"
       use_knot_distance="true"
       apply_no_radius="true"
       apply_with_radius="true"
       only_selected="false"
       hide_knots="false" /></defs><g
     inkscape:groupmode="layer"
     id="layer1"
     inkscape:label="Layer 1"
     style="display:inline"
     sodipodi:insensitive="true"><rect
       style="display:inline;fill:#002a53;fill-opacity:1;stroke-width:2.5109;stroke-linecap:square;stroke-miterlimit:2;stop-color:#000000"
       id="rect3330"
       width="31.75"
       height="34.395832"
       x="3.0769232e-07"
       y="-3.7410186e-09" /></g><g
     inkscape:groupmode="layer"
     id="layer2"
     inkscape:label="Layer 2"
     style="display:inline"><path
       style="display:inline;fill:#fcb928;fill-opacity:1;stroke-width:3.175;stroke-linecap:round"
       d="m 13.84402,15.936631 2.422638,5.085726 c 5.222391,0 5.222391,0.502064 5.222391,0.502064 l -3.813704,3.827027 1.088771,5.22926 L 13.84402,28.17168 9.16751,30.678036 10.145521,25.4512 6.2053006,21.524421 c 0,0 0.3282747,-0.326451 4.9329564,-0.502064 0.03891,-0.0015 2.705763,-5.085726 2.705763,-5.085726 z"
       id="path1"
       sodipodi:nodetypes="cccccccccsc" /><path
       style="display:inline;fill:#fcb928;fill-opacity:1;stroke-width:3.175;stroke-linecap:round"
       d="m 10.186521,4.5071286 -0.03924,2.7293184 c 2.26866,1.1209957 2.160893,1.3390978 2.160893,1.3390978 L 9.8299824,9.4194288 9.1804868,11.924785 7.5602455,9.8221667 4.9907249,9.9071344 6.5375328,7.8464717 5.6687486,5.2948608 c 0,0 0.2126792,-0.071349 2.2506987,0.8407658 0.017228,0.00769 2.2670737,-1.628498 2.2670737,-1.628498 z"
       id="path1-3"
       sodipodi:nodetypes="cccccccccsc" /><path
       style="display:inline;fill:#fcb928;fill-opacity:1;stroke-width:3.175;stroke-linecap:round"
       d="m 26.352145,4.2957819 -0.188168,4.8059027 c 3.947286,2.0735524 3.747944,2.4530334 3.747944,2.4530334 l -4.402067,1.378387 -1.253342,4.384782 -2.762299,-3.774369 -4.529839,0.03759 2.814533,-3.562329 -1.419045,-4.5324825 c 0,0 0.377739,-0.1164032 3.92787,1.5791521 0.03002,0.014294 4.064412,-2.7696699 4.064412,-2.7696708 z"
       id="path1-3-6"
       sodipodi:nodetypes="cccccccccsc" /></g></svg>
