<?xml version="1.0" encoding="UTF-8" standalone="no"?>
<!-- Created with Inkscape (http://www.inkscape.org/) -->

<svg
   width="120"
   height="130"
   viewBox="0 0 31.75 34.395834"
   version="1.1"
   id="svg5"
   xml:space="preserve"
   sodipodi:docname="W-15.svg"
   inkscape:version="1.3.2 (091e20ef0f, 2023-11-25)"
   inkscape:export-filename="../w_icon/W-15.svg"
   inkscape:export-xdpi="96"
   inkscape:export-ydpi="96"
   xmlns:inkscape="http://www.inkscape.org/namespaces/inkscape"
   xmlns:sodipodi="http://sodipodi.sourceforge.net/DTD/sodipodi-0.dtd"
   xmlns="http://www.w3.org/2000/svg"
   xmlns:svg="http://www.w3.org/2000/svg"><sodipodi:namedview
     id="namedview22"
     pagecolor="#ffffff"
     bordercolor="#000000"
     borderopacity="0.25"
     inkscape:showpageshadow="2"
     inkscape:pageopacity="0.0"
     inkscape:pagecheckerboard="0"
     inkscape:deskcolor="#d1d1d1"
     showgrid="false"
     inkscape:zoom="3.45"
     inkscape:cx="41.304348"
     inkscape:cy="37.681159"
     inkscape:window-width="1920"
     inkscape:window-height="1000"
     inkscape:window-x="0"
     inkscape:window-y="0"
     inkscape:window-maximized="1"
     inkscape:current-layer="layer1" /><defs
     id="defs2"><inkscape:path-effect
       effect="fillet_chamfer"
       id="path-effect4"
       is_visible="true"
       lpeversion="1"
       nodesatellites_param="F,0,0,1,0,0.5,0,1 @ F,0,0,1,0,0.5,0,1 @ F,0,0,1,0,0.5,0,1 @ F,0,0,1,0,0.5,0,1 @ F,0,0,1,0,0.5,0,1 @ F,0,0,1,0,0.5,0,1 @ F,0,0,1,0,0.5,0,1"
       radius="0.5"
       unit="px"
       method="auto"
       mode="F"
       chamfer_steps="1"
       flexible="false"
       use_knot_distance="true"
       apply_no_radius="true"
       apply_with_radius="true"
       only_selected="false"
       hide_knots="false" /></defs><g
     inkscape:groupmode="layer"
     id="layer1"
     inkscape:label="Layer 1"
     style="display:inline"><rect
       style="display:inline;fill:#002a53;fill-opacity:1;stroke-width:2.5109;stroke-linecap:square;stroke-miterlimit:2;stop-color:#000000"
       id="rect3330"
       width="31.75"
       height="34.395832"
       x="3.0769232e-07"
       y="-3.7410186e-09" /></g><g
     inkscape:groupmode="layer"
     id="layer2"
     inkscape:label="Layer 2"
     style="display:inline"><path
       style="display:inline;fill:#fcb928;fill-opacity:1;stroke-width:3.175;stroke-linecap:round"
       d="m 25.322566,25.115769 1.249655,1.911768 c 2.098282,-0.283699 2.125556,-0.08197 2.125556,-0.08197 l -1.324394,1.744817 0.721523,2.041898 -2.107691,-0.700638 -1.742801,1.261061 0.109017,-2.153197 -1.796441,-1.363676 c 0,0 0.11417,-0.148997 1.954719,-0.469698 0.01554,-0.0027 0.810862,-2.190359 0.810862,-2.190359 z"
       id="path1"
       sodipodi:nodetypes="cccccccccsc"
       inkscape:label="star3" /><path
       style="display:inline;fill:#fcb928;fill-opacity:1;stroke-width:3.175;stroke-linecap:round"
       d="m 28.575883,2.97273 -0.178494,2.1243084 c 1.706779,0.9963322 1.610996,1.1604173 1.610996,1.1604173 L 28.03187,6.780622 27.390059,8.6973652 26.241671,6.9713854 24.235132,6.8983214 25.551944,5.376675 25.013357,3.3416071 c 0,0 0.169568,-0.044062 1.707972,0.7770291 0.01301,0.00692 1.854555,-1.1459079 1.854555,-1.1459083 z"
       id="path1-3-6"
       sodipodi:nodetypes="cccccccccsc"
       inkscape:label="star2" /><path
       style="display:inline;fill:#fcb928;fill-opacity:1;stroke-width:3.175;stroke-linecap:round"
       d="M 6.521181,1.8633301 6.4086402,4.8233962 C 8.8412003,6.097738 8.7186913,6.331597 8.7186913,6.331597 L 6.0084361,7.1836066 5.2395628,9.8850488 3.5356452,7.562355 0.74576153,7.5886654 2.4767401,5.3926803 1.5995983,2.6021332 c 0,0 0.2325674,-0.071955 2.4202576,0.9698564 0.018494,0.00879 2.5013251,-1.7086595 2.5013251,-1.7086595 z"
       id="path1-3"
       sodipodi:nodetypes="cccccccccsc"
       inkscape:label="star1" /><ellipse
       style="fill:#fcb928;stroke-width:3.175;stroke-linecap:round"
       id="path2"
       cx="15.849365"
       cy="17.258547"
       rx="10.847917"
       ry="10.847918"
       inkscape:label="moon" /></g></svg>
