<?xml version="1.0" encoding="UTF-8" standalone="no"?>
<!-- Created with Inkscape (http://www.inkscape.org/) -->

<svg
   width="120"
   height="130"
   viewBox="0 0 31.75 34.395834"
   version="1.1"
   id="svg5"
   xml:space="preserve"
   sodipodi:docname="W-19.svg"
   inkscape:version="1.3.2 (091e20ef0f, 2023-11-25)"
   inkscape:export-filename="../w_icon/W-19.svg"
   inkscape:export-xdpi="96"
   inkscape:export-ydpi="96"
   xmlns:inkscape="http://www.inkscape.org/namespaces/inkscape"
   xmlns:sodipodi="http://sodipodi.sourceforge.net/DTD/sodipodi-0.dtd"
   xmlns="http://www.w3.org/2000/svg"
   xmlns:svg="http://www.w3.org/2000/svg"><sodipodi:namedview
     id="namedview22"
     pagecolor="#ffffff"
     bordercolor="#000000"
     borderopacity="0.25"
     inkscape:showpageshadow="2"
     inkscape:pageopacity="0.0"
     inkscape:pagecheckerboard="0"
     inkscape:deskcolor="#d1d1d1"
     showgrid="false"
     inkscape:zoom="0.6098796"
     inkscape:cx="-84.442897"
     inkscape:cy="-173.8048"
     inkscape:window-width="1920"
     inkscape:window-height="1000"
     inkscape:window-x="0"
     inkscape:window-y="0"
     inkscape:window-maximized="1"
     inkscape:current-layer="layer1" /><defs
     id="defs2"><inkscape:path-effect
       effect="fillet_chamfer"
       id="path-effect4"
       is_visible="true"
       lpeversion="1"
       nodesatellites_param="F,0,0,1,0,0.5,0,1 @ F,0,0,1,0,0.5,0,1 @ F,0,0,1,0,0.5,0,1 @ F,0,0,1,0,0.5,0,1 @ F,0,0,1,0,0.5,0,1 @ F,0,0,1,0,0.5,0,1 @ F,0,0,1,0,0.5,0,1"
       radius="0.5"
       unit="px"
       method="auto"
       mode="F"
       chamfer_steps="1"
       flexible="false"
       use_knot_distance="true"
       apply_no_radius="true"
       apply_with_radius="true"
       only_selected="false"
       hide_knots="false" /></defs><g
     inkscape:groupmode="layer"
     id="layer1"
     inkscape:label="Layer 1"
     style="display:inline"><rect
       style="display:inline;fill:#002a53;fill-opacity:1;stroke-width:2.5109;stroke-linecap:square;stroke-miterlimit:2;stop-color:#000000"
       id="rect3330"
       width="31.75"
       height="34.395832"
       x="3.0769232e-07"
       y="-3.7410186e-09" /></g><g
     inkscape:groupmode="layer"
     id="layer2"
     inkscape:label="Layer 2"
     style="display:inline"
     transform="matrix(-1,0,0,1,30.830411,0)"><path
       style="display:inline;fill:#fcb928;fill-opacity:1;stroke-width:3.175;stroke-linecap:round"
       d="M 28.572504,3.0179335 28.40171,5.1606989 c 1.725299,0.9972458 1.629427,1.1631104 1.629427,1.1631104 l -1.990709,0.536069 -0.638866,1.9354746 -1.165413,-1.7353808 -2.02356,-0.064993 1.321195,-1.54001 -0.55187,-2.0496801 c 0,0 0.170787,-0.045162 1.72555,0.7761122 0.01315,0.00693 1.86504,-1.1634679 1.86504,-1.1634677 z"
       id="path1"
       sodipodi:nodetypes="cccccccccsc" /><path
       style="display:inline;fill:#fcb928;fill-opacity:1;stroke-width:3.175;stroke-linecap:round"
       d="M 6.597524,1.9492835 6.4686072,4.9045212 c 2.42199,1.2861228 2.2983484,1.5189656 2.2983484,1.5189656 L 6.055786,7.2591472 5.2729126,9.9524612 3.5843877,7.6235446 0.79831532,7.6342325 2.5391054,5.4510329 1.6787968,2.659545 c 0,0 0.2326395,-0.070554 2.4114059,0.9820006 0.018419,0.00887 2.5073213,-1.6922621 2.5073213,-1.6922621 z"
       id="path1-3"
       sodipodi:nodetypes="cccccccccsc" /><path
       style="display:inline;fill:#fcb928;fill-opacity:1;stroke-width:3.175;stroke-linecap:round"
       d="m 9.7408582,9.7960436 1.2489188,1.8979944 c 2.086461,-0.288573 2.114207,-0.08799 2.114207,-0.08799 l -1.312189,1.739719 0.723947,2.029046 -2.098808,-0.690591 -1.7298753,1.259758 0.1019139,-2.142281 -1.7911909,-1.351112 c 0,0 0.1131178,-0.148563 1.943086,-0.473169 0.015463,-0.0027 0.7999893,-2.1813755 0.799987,-2.1813755 z"
       id="path1-3-6"
       sodipodi:nodetypes="cccccccccsc" /><path
       style="fill:#fcb928;stroke-width:3.175;stroke-linecap:round"
       d="m 20.162018,7.0172103 c 0,0 3.852463,8.4639587 -0.448505,13.7519887 -4.300968,5.288029 -13.1181021,2.659848 -13.1181021,2.659848 0,0 9.9275821,8.220825 16.5818531,-0.460146 6.654271,-8.68097 -3.015246,-15.9516907 -3.015246,-15.9516907 z"
       id="path2"
       sodipodi:nodetypes="czczc" /></g></svg>
