<?xml version="1.0" encoding="UTF-8" standalone="no"?>
<!-- Created with Inkscape (http://www.inkscape.org/) -->

<svg
   width="120"
   height="130"
   viewBox="0 0 31.75 34.395834"
   version="1.1"
   id="svg5"
   xml:space="preserve"
   sodipodi:docname="W-17.svg"
   inkscape:version="1.3.2 (091e20ef0f, 2023-11-25)"
   inkscape:export-filename="../w_icon/W-16.png"
   inkscape:export-xdpi="96"
   inkscape:export-ydpi="96"
   xmlns:inkscape="http://www.inkscape.org/namespaces/inkscape"
   xmlns:sodipodi="http://sodipodi.sourceforge.net/DTD/sodipodi-0.dtd"
   xmlns="http://www.w3.org/2000/svg"
   xmlns:svg="http://www.w3.org/2000/svg"><sodipodi:namedview
     id="namedview22"
     pagecolor="#ffffff"
     bordercolor="#000000"
     borderopacity="0.25"
     inkscape:showpageshadow="2"
     inkscape:pageopacity="0.0"
     inkscape:pagecheckerboard="0"
     inkscape:deskcolor="#d1d1d1"
     showgrid="false"
     inkscape:zoom="2.4395184"
     inkscape:cx="8.813215"
     inkscape:cy="65.996633"
     inkscape:window-width="1920"
     inkscape:window-height="1000"
     inkscape:window-x="0"
     inkscape:window-y="0"
     inkscape:window-maximized="1"
     inkscape:current-layer="layer1" /><defs
     id="defs2"><inkscape:path-effect
       effect="powerclip"
       id="path-effect5"
       is_visible="true"
       lpeversion="1"
       inverse="true"
       flatten="false"
       hide_clip="false"
       message="Use fill-rule evenodd on &lt;b&gt;fill and stroke&lt;/b&gt; dialog if no flatten result after convert clip to paths." /><inkscape:path-effect
       effect="fillet_chamfer"
       id="path-effect4"
       is_visible="true"
       lpeversion="1"
       nodesatellites_param="F,0,0,1,0,0.5,0,1 @ F,0,0,1,0,0.5,0,1 @ F,0,0,1,0,0.5,0,1 @ F,0,0,1,0,0.5,0,1 @ F,0,0,1,0,0.5,0,1 @ F,0,0,1,0,0.5,0,1 @ F,0,0,1,0,0.5,0,1"
       radius="0.5"
       unit="px"
       method="auto"
       mode="F"
       chamfer_steps="1"
       flexible="false"
       use_knot_distance="true"
       apply_no_radius="true"
       apply_with_radius="true"
       only_selected="false"
       hide_knots="false" /><clipPath
       clipPathUnits="userSpaceOnUse"
       id="clipPath4"><path
         id="path4"
         style="display:none;fill:#002a53;fill-opacity:1;stroke:none;stroke-width:1.5875;stroke-linecap:square;stroke-miterlimit:2;stroke-dasharray:none;stroke-opacity:1;stop-color:#000000"
         inkscape:label="small_cloud_back"
         d="m 15.125,11.333984 c -2.854663,0.115831 -5.6630821,1.57783 -7.2910155,3.94336 -4.5161603,0.711712 -7.55229043,6.17375 -5.6038584,10.354177 1.2867886,3.251036 4.947116,5.303354 8.3936949,4.765186 4.843696,-0.07953 9.707891,0.231862 14.534382,-0.279519 C 29.217882,29.036177 31.382298,23.6028 28.961242,20.103581 27.790545,18.196433 25.515666,17.103366 23.302734,17.185547 22.211692,13.757802 18.755083,11.176353 15.125,11.333984 Z" /><path
         id="lpe_path-effect5"
         style="display:inline;fill:#002a53;fill-opacity:1;stroke:none;stroke-width:1.5875;stroke-linecap:square;stroke-miterlimit:2;stroke-dasharray:none;stroke-opacity:1;stop-color:#000000"
         class="powerclip"
         d="M -2.9293461,-1.426208 H 19.147863 v 22.07721 H -2.9293461 Z M 15.125,11.333984 c -2.854663,0.115831 -5.6630821,1.57783 -7.2910155,3.94336 -4.5161603,0.711712 -7.55229043,6.17375 -5.6038584,10.354177 1.2867886,3.251036 4.947116,5.303354 8.3936949,4.765186 4.843696,-0.07953 9.707891,0.231862 14.534382,-0.279519 C 29.217882,29.036177 31.382298,23.6028 28.961242,20.103581 27.790545,18.196433 25.515666,17.103366 23.302734,17.185547 22.211692,13.757802 18.755083,11.176353 15.125,11.333984 Z" /></clipPath></defs><g
     inkscape:groupmode="layer"
     id="layer1"
     inkscape:label="Layer 1"
     style="display:inline"><rect
       style="display:inline;fill:#002a53;fill-opacity:1;stroke-width:2.5109;stroke-linecap:square;stroke-miterlimit:2;stop-color:#000000"
       id="rect3330"
       width="31.75"
       height="34.395832"
       x="3.0769232e-07"
       y="-3.7410186e-09" /></g><g
     inkscape:groupmode="layer"
     id="layer2"
     inkscape:label="Layer 2"
     style="display:inline"><path
       style="display:inline;fill:#fcb928;stroke-width:3.175;stroke-linecap:round"
       id="path2"
       inkscape:label="moon"
       clip-path="url(#clipPath4)"
       inkscape:path-effect="#path-effect5"
       sodipodi:type="arc"
       sodipodi:cx="8.1092587"
       sodipodi:cy="9.6123972"
       sodipodi:rx="6.0386047"
       sodipodi:ry="6.0386052"
       d="M 14.147863,9.6123972 A 6.0386047,6.0386052 0 0 1 8.1092587,15.651002 6.0386047,6.0386052 0 0 1 2.0706539,9.6123972 6.0386047,6.0386052 0 0 1 8.1092587,3.573792 6.0386047,6.0386052 0 0 1 14.147863,9.6123972 Z" /><path
       id="path2427"
       style="display:inline;fill:none;fill-opacity:1;stroke:#ffffff;stroke-width:1.5875;stroke-linecap:square;stroke-miterlimit:2;stroke-dasharray:none;stroke-opacity:1;stop-color:#000000"
       d="m 15.209012,14.007951 c -2.355207,-6e-5 -4.875507,1.510424 -5.7377988,3.840766 h -0.438027 c -2.6043966,-1.05e-4 -4.7156939,2.18568 -4.7155593,4.881968 1.218e-4,2.696095 2.1113434,5.02458 4.7155593,5.024474 h 0.5994772 l 12.8464826,-5.5e-5 c 0,0 0.48616,-7.62e-4 0.732035,0 2.071305,1.23e-4 4.094812,-1.633679 4.094812,-4.055172 0,-2.040736 -1.327477,-3.791894 -3.307865,-3.791894 h -0.731117 -2.152934 c -0.08693,0 -0.06294,-0.502145 -0.09371,-0.745929 -0.372772,-2.953393 -2.632209,-5.153872 -5.51797,-5.154149 z"
       sodipodi:nodetypes="cccccccccsccscc"
       inkscape:label="small_cloud" /><path
       style="display:inline;fill:#fcb928;fill-opacity:1;stroke-width:3.175;stroke-linecap:round"
       d="M 23.239724,1.7447143 23.124346,4.779399 c 2.493881,1.3064659 2.368283,1.5462207 2.368283,1.5462207 L 22.714054,7.1991068 21.925798,9.9686484 20.178927,7.587403 17.318716,7.6143796 19.09333,5.3630372 18.194076,2.5021457 c 0,0 0.238431,-0.073774 2.481269,0.9943049 0.01896,0.00899 2.564379,-1.7517325 2.564379,-1.7517325 z"
       id="path1-3"
       sodipodi:nodetypes="cccccccccsc"
       inkscape:label="star2" /><path
       style="display:inline;fill:#fcb928;fill-opacity:1;stroke-width:3.175;stroke-linecap:round"
       d="m 27.878854,5.6908037 1.129269,1.8556495 c 2.003316,-0.2053117 2.023054,-0.012721 2.023054,-0.012721 l -1.312485,1.6179859 0.623238,1.9631499 -1.982067,-0.73068 -1.695381,1.145296 0.169679,-2.0434723 -1.665852,-1.351412 c 0,0 0.113088,-0.1381377 1.872552,-0.3865274 0.01486,-0.00212 0.837996,-2.0572677 0.837996,-2.0572677 z"
       id="path1-3-6"
       sodipodi:nodetypes="cccccccccsc"
       inkscape:label="star1" /></g></svg>
