<?xml version="1.0" encoding="UTF-8" standalone="no"?>
<!-- Created with Inkscape (http://www.inkscape.org/) -->

<svg
   width="120"
   height="130"
   viewBox="0 0 31.75 34.395834"
   version="1.1"
   id="svg5"
   xml:space="preserve"
   sodipodi:docname="W-20.svg"
   inkscape:version="1.3.2 (091e20ef0f, 2023-11-25)"
   inkscape:export-filename="../w_icon/W-20.svg"
   inkscape:export-xdpi="96"
   inkscape:export-ydpi="96"
   xmlns:inkscape="http://www.inkscape.org/namespaces/inkscape"
   xmlns:sodipodi="http://sodipodi.sourceforge.net/DTD/sodipodi-0.dtd"
   xmlns="http://www.w3.org/2000/svg"
   xmlns:svg="http://www.w3.org/2000/svg"><sodipodi:namedview
     id="namedview22"
     pagecolor="#ffffff"
     bordercolor="#000000"
     borderopacity="0.25"
     inkscape:showpageshadow="2"
     inkscape:pageopacity="0.0"
     inkscape:pagecheckerboard="0"
     inkscape:deskcolor="#d1d1d1"
     showgrid="false"
     inkscape:zoom="3.45"
     inkscape:cx="50"
     inkscape:cy="27.536232"
     inkscape:window-width="1920"
     inkscape:window-height="1000"
     inkscape:window-x="0"
     inkscape:window-y="0"
     inkscape:window-maximized="1"
     inkscape:current-layer="layer1" /><defs
     id="defs2"><inkscape:path-effect
       effect="fillet_chamfer"
       id="path-effect1"
       is_visible="true"
       lpeversion="1"
       nodesatellites_param="F,0,0,1,0,0,0,1 @ F,0,0,1,0,2.2,0,1 @ F,0,0,1,0,2.2,0,1 @ F,0,0,1,0,2.2,0,1"
       radius="2.2"
       unit="px"
       method="auto"
       mode="F"
       chamfer_steps="1"
       flexible="false"
       use_knot_distance="true"
       apply_no_radius="true"
       apply_with_radius="true"
       only_selected="false"
       hide_knots="false" /><inkscape:path-effect
       effect="fillet_chamfer"
       id="path-effect4"
       is_visible="true"
       lpeversion="1"
       nodesatellites_param="F,0,0,1,0,0.5,0,1 @ F,0,0,1,0,0.5,0,1 @ F,0,0,1,0,0.5,0,1 @ F,0,0,1,0,0.5,0,1 @ F,0,0,1,0,0.5,0,1 @ F,0,0,1,0,0.5,0,1 @ F,0,0,1,0,0.5,0,1"
       radius="0.5"
       unit="px"
       method="auto"
       mode="F"
       chamfer_steps="1"
       flexible="false"
       use_knot_distance="true"
       apply_no_radius="true"
       apply_with_radius="true"
       only_selected="false"
       hide_knots="false" /></defs><g
     inkscape:groupmode="layer"
     id="layer1"
     inkscape:label="Layer 1"
     style="display:inline"
     sodipodi:insensitive="true"><rect
       style="display:inline;fill:#002a53;fill-opacity:1;stroke-width:2.5109;stroke-linecap:square;stroke-miterlimit:2;stop-color:#000000"
       id="rect3330"
       width="31.75"
       height="34.395832"
       x="3.0769232e-07"
       y="-3.7410186e-09" /></g><g
     inkscape:groupmode="layer"
     id="layer2"
     inkscape:label="Layer 2"><path
       style="color:#000000;fill:#ffffff;stroke-linecap:round;stroke-width:1.00012501;stroke-dasharray:none"
       d="m 19.439453,9.8554688 c -0.548007,0.00962 -0.984404,0.4617612 -0.974609,1.0097652 0.0096,0.548007 0.461761,0.984404 1.009765,0.97461 0.575879,-0.01017 1.025922,0.427609 1.041016,1.001953 -0.0059,0.673233 -0.528188,1.197266 -1.203125,1.197266 H 5.3985888 v 1.984374 H 19.3125 c 1.751243,0 3.191445,-1.440163 3.191406,-3.191406 v -0.0098 -0.0078 C 22.474638,11.163159 21.09075,9.8263131 19.439453,9.8554688 Z"
       id="path1"
       transform="translate(0.19172705,0.07669082)"
       sodipodi:nodetypes="ccccsccssccc" /><path
       style="color:#000000;fill:#ffffff;stroke-width:1.00013;stroke-linecap:round;stroke-dasharray:none"
       d="m 25.037882,11.933792 c -0.548007,0.0096 -0.984404,0.461762 -0.974609,1.009766 0.0096,0.548007 0.461761,0.984404 1.009765,0.97461 0.575879,-0.01017 1.025922,0.427609 1.041016,1.001953 -0.0059,0.673233 -0.528188,1.197266 -1.203125,1.197266 h -2.38728 v 1.984374 h 2.38728 c 1.751243,0 3.191445,-1.440163 3.191406,-3.191406 v -0.0098 -0.0078 c -0.02927,-1.651272 -1.413156,-2.988118 -3.064453,-2.958963 z"
       id="path1-5"
       sodipodi:nodetypes="ccccsccssccc" /><path
       style="color:#000000;fill:#ffffff;stroke-width:1.00013;stroke-linecap:round;stroke-dasharray:none"
       d="m 19.63118,24.336256 c -0.548007,-0.0096 -0.984404,-0.461761 -0.974609,-1.009765 0.0096,-0.548007 0.461761,-0.984404 1.009765,-0.97461 0.575879,0.01017 1.025922,-0.427609 1.041016,-1.001953 -0.0059,-0.673233 -0.528188,-1.197266 -1.203125,-1.197266 H 3.4736491 V 18.168287 H 19.504227 c 1.751243,0 3.191445,1.440164 3.191406,3.191407 v 0.0098 0.0078 c -0.02927,1.651272 -1.413156,2.988118 -3.064453,2.958962 z"
       id="path1-3"
       sodipodi:nodetypes="ccccsccssccc" /></g></svg>
