<?xml version="1.0" encoding="UTF-8" standalone="no"?>
<!-- Created with Inkscape (http://www.inkscape.org/) -->

<svg
   width="120"
   height="130"
   viewBox="0 0 31.75 34.395834"
   version="1.1"
   id="svg5"
   xml:space="preserve"
   sodipodi:docname="W-44.svg"
   inkscape:version="1.3.2 (091e20ef0f, 2023-11-25)"
   inkscape:export-filename="../w_icon/W-44.svg"
   inkscape:export-xdpi="96"
   inkscape:export-ydpi="96"
   xmlns:inkscape="http://www.inkscape.org/namespaces/inkscape"
   xmlns:sodipodi="http://sodipodi.sourceforge.net/DTD/sodipodi-0.dtd"
   xmlns="http://www.w3.org/2000/svg"
   xmlns:svg="http://www.w3.org/2000/svg"><sodipodi:namedview
     id="namedview22"
     pagecolor="#ffffff"
     bordercolor="#000000"
     borderopacity="0.25"
     inkscape:showpageshadow="2"
     inkscape:pageopacity="0.0"
     inkscape:pagecheckerboard="0"
     inkscape:deskcolor="#d1d1d1"
     showgrid="false"
     inkscape:zoom="3.45"
     inkscape:cx="58.985507"
     inkscape:cy="48.985507"
     inkscape:window-width="1920"
     inkscape:window-height="1000"
     inkscape:window-x="0"
     inkscape:window-y="0"
     inkscape:window-maximized="1"
     inkscape:current-layer="layer1" /><defs
     id="defs2"><inkscape:path-effect
       effect="fillet_chamfer"
       id="path-effect3"
       is_visible="true"
       lpeversion="1"
       nodesatellites_param="F,0,0,1,0,0,0,1 @ F,0,0,1,0,0.5,0,1 @ F,0,0,1,0,0.5,0,1 @ F,0,0,1,0,0.5,0,1"
       radius="0.5"
       unit="px"
       method="auto"
       mode="F"
       chamfer_steps="1"
       flexible="false"
       use_knot_distance="true"
       apply_no_radius="true"
       apply_with_radius="true"
       only_selected="false"
       hide_knots="false" /></defs><g
     inkscape:groupmode="layer"
     id="layer1"
     inkscape:label="Layer 1"
     style="display:inline"
     sodipodi:insensitive="true"><rect
       style="display:inline;fill:#002a53;fill-opacity:1;stroke-width:2.5109;stroke-linecap:square;stroke-miterlimit:2;stop-color:#000000"
       id="rect3330"
       width="31.75"
       height="34.395832"
       x="3.0769232e-07"
       y="-3.7410186e-09" /></g><g
     inkscape:groupmode="layer"
     id="layer2"
     inkscape:label="Layer 2"><g
       id="g1"
       inkscape:label="Wind"><path
         style="fill:none;fill-opacity:0.768627;stroke:#ffffff;stroke-width:1.65364585;stroke-linecap:round;stroke-dasharray:none"
         d="m 3.2582312,20.259535 c 0,0 4.9040766,-1.318295 8.0596608,-1.131754 3.155583,0.186541 5.433819,3.307999 8.798694,3.448362 3.364875,0.140363 8.422835,-1.505903 8.422835,-1.505903"
         id="path1"
         sodipodi:nodetypes="czzc" /><path
         style="fill:none;fill-opacity:0.768627;stroke:#ffffff;stroke-width:1.65364585;stroke-linecap:round;stroke-dasharray:none"
         d="m 3.2582312,25.022035 c 0,0 4.9040766,-1.318295 8.0596608,-1.131754 3.155583,0.186541 5.433819,3.307999 8.798694,3.448362 3.364875,0.140363 8.422835,-1.505903 8.422835,-1.505903"
         id="path1-3"
         sodipodi:nodetypes="czzc" /><path
         style="fill:none;fill-opacity:0.768627;stroke:#ffffff;stroke-width:1.65364585;stroke-linecap:round;stroke-dasharray:none"
         d="m 3.2582312,29.567619 c 0,0 4.9040766,-1.318295 8.0596608,-1.131754 3.155583,0.186541 5.433819,3.307999 8.798694,3.448362 3.364875,0.140363 8.422835,-1.505903 8.422835,-1.505903"
         id="path1-3-6"
         sodipodi:nodetypes="czzc" /></g><g
       inkscape:groupmode="layer"
       id="layer3"
       inkscape:label="text_zh"><path
         style="font-weight:bold;font-size:15.875px;line-height:0.8;font-family:'Noto Sans CJK JP';-inkscape-font-specification:'Noto Sans CJK JP Bold';text-align:center;letter-spacing:0px;text-anchor:middle;display:inline;fill:#ffffff;stroke-width:2.38125"
         d="m 8.1736571,12.665584 0.85725,1.9685 3.5579679,-1.476375 v 3.177668 H 14.57325 V 2.0808699 H 12.588875 V 5.4742087 H 8.2159904 v 1.889125 h 4.3728846 v 3.8576253 c -1.61925,0.5715 -3.3198429,1.127125 -4.4152179,1.444625 z M 22.29661,4.819704 C 21.174582,5.4073864 19.9439,6.1603786 18.682207,6.787198 V 1.9658337 H 16.697832 V 13.083582 c 0,2.238375 0.523875,2.921 2.3495,2.921 h 2.005236 c 1.604075,0 2.582639,-0.777509 2.582639,-3.167134 l -1.825625,-0.732627 c -0.06324,1.454692 -0.328389,2.026511 -0.947514,2.026511 h -1.513111 c -0.587375,0 -0.66675,-0.142875 -0.66675,-1.031875 V 8.787448 c 1.60997,-0.6850024 3.223299,-1.3190278 4.8464,-2.0770011 z"
         id="text3"
         aria-label="北"
         sodipodi:nodetypes="cccccccccccccccccsssccsssccc" /></g></g></svg>
