<?xml version="1.0" encoding="UTF-8" standalone="no"?>
<!-- Created with Inkscape (http://www.inkscape.org/) -->

<svg
   width="120"
   height="130"
   viewBox="0 0 31.75 34.395834"
   version="1.1"
   id="svg5"
   xml:space="preserve"
   sodipodi:docname="W-47.svg"
   inkscape:version="1.3.2 (091e20ef0f, 2023-11-25)"
   inkscape:export-filename="../w_icon/W-46.svg"
   inkscape:export-xdpi="96"
   inkscape:export-ydpi="96"
   xmlns:inkscape="http://www.inkscape.org/namespaces/inkscape"
   xmlns:sodipodi="http://sodipodi.sourceforge.net/DTD/sodipodi-0.dtd"
   xmlns="http://www.w3.org/2000/svg"
   xmlns:svg="http://www.w3.org/2000/svg"><sodipodi:namedview
     id="namedview22"
     pagecolor="#ffffff"
     bordercolor="#000000"
     borderopacity="0.25"
     inkscape:showpageshadow="2"
     inkscape:pageopacity="0.0"
     inkscape:pagecheckerboard="0"
     inkscape:deskcolor="#d1d1d1"
     showgrid="false"
     inkscape:zoom="3.45"
     inkscape:cx="1.3043478"
     inkscape:cy="53.623188"
     inkscape:window-width="1920"
     inkscape:window-height="1000"
     inkscape:window-x="0"
     inkscape:window-y="0"
     inkscape:window-maximized="1"
     inkscape:current-layer="layer1" /><defs
     id="defs2"><inkscape:path-effect
       effect="fillet_chamfer"
       id="path-effect1"
       is_visible="true"
       lpeversion="1"
       nodesatellites_param="F,0,0,1,0,0,0,1 @ F,0,0,1,0,2.2,0,1 @ F,0,0,1,0,2.2,0,1 @ F,0,0,1,0,2.2,0,1"
       radius="2.2"
       unit="px"
       method="auto"
       mode="F"
       chamfer_steps="1"
       flexible="false"
       use_knot_distance="true"
       apply_no_radius="true"
       apply_with_radius="true"
       only_selected="false"
       hide_knots="false" /><inkscape:path-effect
       effect="fillet_chamfer"
       id="path-effect4"
       is_visible="true"
       lpeversion="1"
       nodesatellites_param="F,0,0,1,0,0.5,0,1 @ F,0,0,1,0,0.5,0,1 @ F,0,0,1,0,0.5,0,1 @ F,0,0,1,0,0.5,0,1 @ F,0,0,1,0,0.5,0,1 @ F,0,0,1,0,0.5,0,1 @ F,0,0,1,0,0.5,0,1"
       radius="0.5"
       unit="px"
       method="auto"
       mode="F"
       chamfer_steps="1"
       flexible="false"
       use_knot_distance="true"
       apply_no_radius="true"
       apply_with_radius="true"
       only_selected="false"
       hide_knots="false" /></defs><g
     inkscape:groupmode="layer"
     id="layer1"
     inkscape:label="Layer 1"
     style="display:inline"><rect
       style="display:inline;fill:#002a53;fill-opacity:1;stroke-width:2.5109;stroke-linecap:square;stroke-miterlimit:2;stop-color:#000000"
       id="rect3330"
       width="31.75"
       height="34.395832"
       x="3.0769232e-07"
       y="-3.7410186e-09" /></g><g
     inkscape:groupmode="layer"
     id="layer2"
     inkscape:label="Layer 2"
     style="display:inline"><g
       inkscape:groupmode="layer"
       id="layer4"
       inkscape:label="text_en"><text
         xml:space="preserve"
         style="font-weight:bold;font-size:6.16056px;line-height:0.8;font-family:'Noto Sans CJK JP';-inkscape-font-specification:'Noto Sans CJK JP Bold';text-align:end;letter-spacing:0.149263px;text-anchor:end;fill:#ffffff;fill-opacity:1;stroke-width:1.65365"
         x="31.932524"
         y="32.679321"
         id="text2"
         transform="scale(0.96078782,1.0408125)"><tspan
           sodipodi:role="line"
           id="tspan2"
           style="font-style:normal;font-variant:normal;font-weight:bold;font-stretch:normal;font-family:'Myriad Pro';-inkscape-font-specification:'Myriad Pro Bold';text-align:end;letter-spacing:0.149263px;text-anchor:end;stroke-width:1.65365"
           x="32.081787"
           y="32.679321">FROST</tspan></text></g><g
       inkscape:groupmode="layer"
       id="layer3"
       inkscape:label="text_zh"><text
         xml:space="preserve"
         style="font-weight:bold;font-size:9.73426px;line-height:0.8;font-family:'Noto Sans CJK JP';-inkscape-font-specification:'Noto Sans CJK JP Bold';text-align:end;letter-spacing:0px;text-anchor:end;display:inline;fill:#002a53;stroke-width:1.65365"
         x="30.174816"
         y="9.291048"
         id="text1"
         transform="scale(1.0262374,0.97443343)"><tspan
           sodipodi:role="line"
           id="tspan1"
           style="font-size:9.73426px;text-align:end;text-anchor:end;fill:#ffffff;fill-opacity:1;stroke-width:1.65365"
           x="30.174816"
           y="9.291048">霜</tspan></text></g><path
       d="M 10.292912,1.9451009 C 9.8535374,1.944528 9.4972698,2.3010272 9.4981283,2.7404012 v 2.523877 L 6.2518148,3.5822103 C 6.135104,3.5215198 6.0063433,3.4914315 5.8771607,3.4928101 5.7996512,3.4936373 5.7219516,3.5057419 5.6466838,3.5295004 5.4464935,3.5937548 5.2799605,3.7348246 5.183663,3.9217245 4.9815547,4.310579 5.132851,4.7896839 5.5216268,4.9919434 L 9.4981283,7.0527995 V 13.520622 L 6.1810181,11.490255 7.6227906,9.2578329 C 7.8597323,8.8904984 7.7550748,8.4007102 7.3886964,8.1622926 7.2507895,8.0729115 7.0955431,8.0317584 6.9427287,8.0346518 6.6880382,8.0394741 6.4401551,8.1666054 6.2910889,8.3963868 L 4.8270956,10.660848 2.8184326,9.4314657 C 2.4445879,9.2021316 1.9555881,9.3194638 1.7265096,9.6934653 1.4974518,10.067714 1.6155059,10.556829 1.9900594,10.785388 l 2.5931234,1.588017 0.1281576,0.07855 4.7867879,2.930571 v 7.951452 L 6.8305909,22.148519 5.18573,17.027385 C 5.0763437,16.688103 4.7600471,16.473201 4.4214356,16.477031 4.3432945,16.477914 4.264056,16.49045 4.1857911,16.515788 3.7690813,16.65022 3.53993,17.09673 3.6736776,17.51366 l 1.2107788,3.770312 -2.9507243,-1.311547 c -0.4013916,-0.178721 -0.8716217,0.0027 -1.04903157,0.404626 -0.17739679,0.4007 0.003499,0.869365 0.40410967,1.046965 l 2.4396444,1.084171 -1.5234212,0.669727 c -0.4011178,0.176808 -0.582971,0.645323 -0.4061768,1.046447 0.1766048,0.40045 0.6440475,0.582387 1.0448975,0.406694 l 2.8463379,-1.251603 3.7610108,1.671216 c 0.015599,0.0029 0.031282,0.0053 0.047026,0.0072 V 29.5429 c 2.852e-4,0.438575 0.3562084,0.793804 0.7947837,0.793233 0.43797,-2.85e-4 0.792948,-0.355263 0.793233,-0.793233 v -4.576465 l 5.329391,-2.257227 3.804935,2.767273 c 0.354816,0.258182 0.85181,0.179478 1.109493,-0.1757 0.258182,-0.354815 0.179478,-0.851809 -0.175699,-1.109493 l -3.033407,-2.204516 4.662248,-1.975073 c 0.404167,-0.170633 0.593265,-0.636781 0.422196,-1.040764 -0.08231,-0.193831 -0.23828,-0.347009 -0.433565,-0.425814 -0.19503,-0.07946 -0.413645,-0.07816 -0.607715,0.0036 l -4.477763,1.897042 1.481563,-5.78156 c 0.108081,-0.424334 -0.147894,-0.856048 -0.572058,-0.964799 -0.07944,-0.02029 -0.15938,-0.02773 -0.237194,-0.02377 -0.337197,0.01714 -0.638493,0.24981 -0.727605,0.593762 l -0.595829,2.323373 -3.316593,-1.383895 c -0.0972,-0.04024 -0.200143,-0.06046 -0.303341,-0.06046 -0.103199,0 -0.206658,0.02022 -0.303857,0.06046 -0.194894,0.07974 -0.350119,0.233665 -0.431499,0.427881 -0.169432,0.404979 0.02205,0.870593 0.427364,1.039213 l 3.528984,1.470711 -0.789616,3.078365 -4.760433,2.016415 v -7.906495 l 7.429521,-4.549593 c 0.374549,-0.228557 0.492605,-0.717678 0.26355,-1.0919227 -0.15749,-0.2571229 -0.438027,-0.3930237 -0.719336,-0.3782715 -0.127868,0.00671 -0.255762,0.044606 -0.372587,0.1162719 L 11.086145,13.473596 V 7.8754884 l 1.521354,0.7885823 c 0.389405,0.2018013 0.8687,0.049519 1.070219,-0.3400309 0.201802,-0.3894042 0.04952,-0.8686994 -0.340031,-1.0702189 L 11.838037,6.4771241 14.353646,5.3572958 C 14.75433,5.1789022 14.934382,4.709331 14.755689,4.308781 14.577502,3.9090593 14.109382,3.7289775 13.709241,3.9062216 L 11.086145,5.0735922 V 2.7404012 C 11.087002,2.3016331 10.731681,1.9453857 10.292912,1.9451009 Z"
       style="fill:#ffffff;stroke-linecap:round"
       id="path2" /></g></svg>
