<?xml version="1.0" encoding="UTF-8" standalone="no"?>
<!-- Created with Inkscape (http://www.inkscape.org/) -->

<svg
   width="120"
   height="130"
   viewBox="0 0 31.75 34.395834"
   version="1.1"
   id="svg5"
   xml:space="preserve"
   sodipodi:docname="W-43.svg"
   inkscape:version="1.3.2 (091e20ef0f, 2023-11-25)"
   inkscape:export-filename="../w_icon/W-45.svg"
   inkscape:export-xdpi="96"
   inkscape:export-ydpi="96"
   xmlns:inkscape="http://www.inkscape.org/namespaces/inkscape"
   xmlns:sodipodi="http://sodipodi.sourceforge.net/DTD/sodipodi-0.dtd"
   xmlns="http://www.w3.org/2000/svg"
   xmlns:svg="http://www.w3.org/2000/svg"><sodipodi:namedview
     id="namedview22"
     pagecolor="#ffffff"
     bordercolor="#000000"
     borderopacity="0.25"
     inkscape:showpageshadow="2"
     inkscape:pageopacity="0.0"
     inkscape:pagecheckerboard="0"
     inkscape:deskcolor="#d1d1d1"
     showgrid="false"
     inkscape:zoom="1.725"
     inkscape:cx="3.7681159"
     inkscape:cy="78.84058"
     inkscape:window-width="1920"
     inkscape:window-height="1000"
     inkscape:window-x="0"
     inkscape:window-y="0"
     inkscape:window-maximized="1"
     inkscape:current-layer="layer1" /><defs
     id="defs2" /><g
     inkscape:groupmode="layer"
     id="layer1"
     inkscape:label="Layer 1"
     style="display:inline"
     sodipodi:insensitive="true"><rect
       style="display:inline;fill:#002a53;fill-opacity:1;stroke-width:2.5109;stroke-linecap:square;stroke-miterlimit:2;stop-color:#000000"
       id="rect3330"
       width="31.75"
       height="34.395832"
       x="3.0769232e-07"
       y="-3.7410186e-09" /></g><g
     inkscape:groupmode="layer"
     id="layer2"
     inkscape:label="Layer 2"><path
       style="display:inline;fill:#fcb928;fill-opacity:1;stroke:none;stroke-width:4;stroke-linecap:round;stroke-linejoin:round"
       d="m 9.7013892,33.360509 c 0,0 17.6536938,-17.561129 18.0129838,-17.984224 0.321662,-0.378784 0.843051,-1.852195 -0.841066,-1.852195 h -6.943561 c 0,0 8.683155,-9.4845259 9.170677,-10.0335228 C 29.43923,3.109037 29.946094,2.098917 28.892852,2.098917 h -10.81299 c 0,0 -0.911766,-0.2731466 -2.670417,3.0010227 C 13.82352,8.0525361 9.7013892,16.631818 9.2416433,17.698899 8.7831411,18.763094 9.0290627,20.17304 10.791492,20.17304 h 5.965146 L 9.313151,33.065536 c 0,0 -0.091793,0.481134 0.3882382,0.294973 z"
       id="path1"
       sodipodi:nodetypes="csscsscsssccc" /><path
       style="display:inline;fill:#fcb928;fill-opacity:1;stroke:none;stroke-width:3.99999;stroke-linecap:round;stroke-linejoin:round"
       d="m 2.0296322,17.464706 c 0,0 8.6787988,-8.6332921 8.8554308,-8.8412914 C 11.043196,8.4371991 11.299519,7.71285 10.471583,7.71285 H 7.2491971 c 0,0 4.0613259,-4.6627233 4.3009979,-4.9326179 C 11.716758,2.5926666 11.96594,2.0960777 11.448141,2.0960777 H 6.2145785 c 0,0 -0.4482372,-0.1342825 -1.3128138,1.4753441 -0.7796625,1.4515371 -3.211458,6.4470872 -3.211458,6.4470872 0,0 0.0088,0.963057 0.8752299,0.963057 H 5.4980898 L 1.838769,17.319693 c 0,0 -0.045128,0.236533 0.1908632,0.145013 z"
       id="path1-6"
       sodipodi:nodetypes="csscsscscsccc" /></g></svg>
